<svg xmlns="http://www.w3.org/2000/svg" width="106.348" height="96.872" viewBox="0 0 106.348 96.872"><defs><style>.a{fill:#fff;}.b,.c{fill:#8cb3de;}.c{stroke:#e00020;stroke-miterlimit:10;stroke-width:2.418px;}.d{fill:#e00020;}</style></defs><g transform="translate(-250.044 -1920.848)"><path class="a" d="M332.6,1928.477l-15.694-5.417a.02.02,0,0,0-.025.013v0c-.089.6-2.11,13.308-12.291,13.308-10.2,0-15.044-12.762-15.248-13.312a.021.021,0,0,0-.025-.012l-15.853,5.728h-.008l-21.013,20.035a.021.021,0,0,0,0,.03h0l16.649,13.872a.019.019,0,0,1,.007.015l.889,52.75a.021.021,0,0,0,.021.02H314.8a.02.02,0,0,0,.021-.019v0h0a.019.019,0,0,0,.019.021h11.1a.02.02,0,0,0,.021-.019v0h0a.019.019,0,0,0,.019.021h10.5a.019.019,0,0,0,.021-.019v-50.427a.022.022,0,0,1,.006-.015l17.489-17.417a.02.02,0,0,0,0-.028l0,0-21.383-19.126Z"/><path class="b" d="M270.275,2015.436v-49.152a.02.02,0,0,0-.006-.014L252.915,1948.8a.02.02,0,0,1,0-.028h0l23.772-20.964a.022.022,0,0,1,.029,0,.029.029,0,0,1,0,.013v87.673a.019.019,0,0,1-.019.021h0l-6.4-.058A.021.021,0,0,1,270.275,2015.436Z"/><circle class="c" cx="5.5" cy="5.5" r="5.5" transform="translate(312.825 1949.283)"/><path class="d" d="M355.821,1946.779c-.023-.026-.05-.051-.076-.076l-21.954-19.609a2.085,2.085,0,0,0-.687-.42l-15.881-5.7a2.084,2.084,0,0,0-2.67,1.247l0,.009a2.1,2.1,0,0,0-.124.611c0,.462-.688,11.094-11.269,11.262-10.643-.168-11.311-10.8-11.331-11.262a2.086,2.086,0,0,0-2.776-1.867l-15.859,5.767a2.076,2.076,0,0,0-.687.42L250.7,1946.708a2.1,2.1,0,0,0-.077,2.965c.025.026.05.052.077.076l17.355,17.632a.02.02,0,0,1,.006.014V2015.6a2.119,2.119,0,0,0,2.118,2.117h43a1.763,1.763,0,0,0,1.763-1.761v-.558a1.784,1.784,0,0,0-1.784-1.783H272.011s-.021-.222.148-.233V1951.8a2.481,2.481,0,0,0-2.171-2.232c-1.2-.053-2.518,2.1-2.518,2.1v9.757a.019.019,0,0,1-.019.021.022.022,0,0,1-.015-.006l-12.888-13.055a.019.019,0,0,1,0-.027l0,0,20.007-17.906h.007L287.7,1925.7a.019.019,0,0,1,.025.011v0a15.5,15.5,0,0,0,30.431,0,.019.019,0,0,1,.022-.016h0l13.144,4.745h.007l19.941,17.891a.021.021,0,0,1,0,.029h0L338.413,1961.4a.02.02,0,0,1-.029,0,.02.02,0,0,1-.006-.014v-9.624a2.141,2.141,0,0,0-1.958-2.182,2.052,2.052,0,0,0-2.143,1.955c0,.031,0,.063,0,.094v61.957a.021.021,0,0,1-.021.021h-7.028a1.741,1.741,0,0,0-1.741,1.739v.554a1.809,1.809,0,0,0,1.808,1.81h8.968a2.117,2.117,0,0,0,2.117-2.117v-48.2a.034.034,0,0,1,0-.014l17.357-17.632A2.1,2.1,0,0,0,355.821,1946.779Z"/></g></svg>