<svg xmlns="http://www.w3.org/2000/svg" width="96.317" height="107.75" viewBox="0 0 96.317 107.75"><defs><style>.a{fill:#8cb3de;}.b{fill:#e00020;}</style></defs><g transform="translate(-1564.342 -2916.707)"><path class="a" d="M1612.5,2961.862l7.122,3.234v-8.438l4.922-5.8-7.3-2.92-5.359-6.771-4.133,7.334-7.4,2.357,4.641,5.659-.562,7.875Z"/><path class="a" d="M1595.347,3011.159s-.573-7.12,2.866-8.123H1626.1c4.054,1.756,3.337,8.123,3.337,8.123Z"/><path class="b" d="M1660.585,2935.443a5.233,5.233,0,0,0-5.239-4.793h-13.61v-2.007H1642a3.531,3.531,0,0,0,3.524-3.525v-4.886a3.53,3.53,0,0,0-3.524-3.525h-40.062a1.578,1.578,0,1,0,0,3.156H1642a.37.37,0,0,1,.368.368v4.886a.369.369,0,0,1-.368.368h-59.008a.368.368,0,0,1-.369-.368v-4.886a.368.368,0,0,1,.369-.368h11.547a1.578,1.578,0,1,0,0-3.156h-11.547a3.529,3.529,0,0,0-3.525,3.524v4.887a3.529,3.529,0,0,0,3.525,3.525h.264v2.006h-13.61a5.234,5.234,0,0,0-5.24,4.793,46.076,46.076,0,0,0,2.742,18.285c3.187,8.62,10.5,19.627,27.252,23.946a29.205,29.205,0,0,0,9.118,4.879l.794,1.312a16.321,16.321,0,0,1,2.3,8.474,16.88,16.88,0,0,1-.887,5.436l-1.1,3.251h-3.67a6.839,6.839,0,0,0-6.831,6.832v3.306h-5.744a2.942,2.942,0,0,0-2.939,2.94v7.414a2.942,2.942,0,0,0,2.939,2.94h48.249a2.945,2.945,0,0,0,2.94-2.94V3014.1a2.945,2.945,0,0,0-2.94-2.94h-5.744v-3.306a6.84,6.84,0,0,0-6.831-6.832h-3.67l-1.1-3.251a16.911,16.911,0,0,1-.888-5.436,16.34,16.34,0,0,1,2.3-8.474l.8-1.312a29.191,29.191,0,0,0,9.117-4.879c16.754-4.319,24.065-15.326,27.252-23.946a46.039,46.039,0,0,0,2.742-18.285Zm-76.745,25.111a26.816,26.816,0,0,1-6.739-10.246,35.431,35.431,0,0,1-2.084-9.136h8.238v13.555a29.275,29.275,0,0,0,.586,5.823Zm-13.732-7.92a42.6,42.6,0,0,1-2.56-16.91,2.1,2.1,0,0,1,2.1-1.918h13.61v4.209h-8.369a3.04,3.04,0,0,0-3.038,3.042c0,.094,0,.187.013.28a38.7,38.7,0,0,0,2.288,10.088,97.113,97.113,0,0,1,15.311,21.287,33.923,33.923,0,0,1-19.352-20.077Zm66.295,61.686v6.98h-47.816v-6.98Zm-12.358-10.137a3.68,3.68,0,0,1,3.675,3.675v3.306h-30.447v-3.306a3.679,3.679,0,0,1,3.674-3.675Zm-7.762-5.394.759,2.237h-9.093l.759-2.237a20.057,20.057,0,0,0,1.055-6.45,19.7,19.7,0,0,0-2.013-8.76,29.241,29.241,0,0,0,9.491,0,19.7,19.7,0,0,0-2.013,8.76A20,20,0,0,0,1616.283,2998.789Zm-3.787-17.98a26.112,26.112,0,0,1-26.083-26.083v-26.083h52.165v26.083a26.112,26.112,0,0,1-26.083,26.079Zm42.388-28.175a33.927,33.927,0,0,1-19.354,20.079,29.235,29.235,0,0,0,4-6.844,28.861,28.861,0,0,0,10.248-11.93,1.578,1.578,0,1,0-2.853-1.351h0a26.094,26.094,0,0,1-5.773,7.976,29.185,29.185,0,0,0,.586-5.836v-13.555h8.239a37.653,37.653,0,0,1-.775,4.789,1.578,1.578,0,1,0,3.064.754l.011-.046a40.55,40.55,0,0,0,.855-5.332,3.04,3.04,0,0,0-2.745-3.309c-.092-.009-.186-.013-.279-.013h-8.37v-4.209h13.611a2.094,2.094,0,0,1,2.1,1.918,42.569,42.569,0,0,1-2.559,16.91Z"/><path class="b" d="M1622.875,2947.357l-4.525-.658a.605.605,0,0,1-.456-.331l-2.023-4.1a3.763,3.763,0,0,0-6.747,0l-2.023,4.1a.612.612,0,0,1-.457.331l-4.525.658a3.761,3.761,0,0,0-2.085,6.416l3.275,3.192a.6.6,0,0,1,.174.536l-.773,4.507a3.762,3.762,0,0,0,5.458,3.966l4.048-2.128a.6.6,0,0,1,.563,0l4.047,2.128a3.762,3.762,0,0,0,5.458-3.966l-.773-4.507a.6.6,0,0,1,.174-.536l3.275-3.192a3.761,3.761,0,0,0-2.085-6.415Zm-.118,4.155-3.275,3.192a3.759,3.759,0,0,0-1.083,3.33l.774,4.508a.605.605,0,0,1-.878.637l-4.048-2.128a3.755,3.755,0,0,0-3.5,0l-4.047,2.128a.605.605,0,0,1-.878-.637l.773-4.508a3.761,3.761,0,0,0-1.082-3.33l-3.275-3.192a.605.605,0,0,1,.335-1.033l4.525-.657a3.762,3.762,0,0,0,2.833-2.058l2.024-4.1a.6.6,0,0,1,1.085,0l2.024,4.1a3.76,3.76,0,0,0,2.833,2.058l4.525.657a.607.607,0,0,1,.336,1.032Z"/></g></svg>