<svg xmlns="http://www.w3.org/2000/svg" width="109.584" height="101.772" viewBox="0 0 109.584 101.772"><defs><style>.a{fill:#fff;}.b{fill:#8cb3de;}.c{fill:#e00020;}</style></defs><g transform="translate(-1569.968 -664.064)"><path class="a" d="M1576.8,667.129H1642.1a4.208,4.208,0,0,1,4.209,4.209v64.451a28.542,28.542,0,0,1-28.542,28.54h-17.2a27.985,27.985,0,0,1-27.981-27.983V671.338a4.209,4.209,0,0,1,4.209-4.209Z"/><path class="a" d="M1646.977,677.756v12.619s5.732-3.893,9.175-3.939,12.475-.616,12.941,11.292,1.614,23.245-1.617,27.207-7.742,9.919-12.529,10.6a10.15,10.15,0,0,1-7.97-2.657v13.283s9.166-.426,15.276-4.649c11.846-8.187,15.94-18.6,15.94-37.857,0-10.247-3.673-18.258-8.584-21.761C1660.185,675.172,1646.977,677.756,1646.977,677.756Z"/><rect class="b" width="53.615" height="31.171" rx="6.651" transform="translate(1581.644 689.001)"/><path class="a" d="M1582.891,716.431l17.456-18.7,12.886,13.174,8.311-6.939,13.716,11.222-1.248,4.987-49.874-1.247Z"/><path class="c" d="M1634.8,729.386h-52.187a1.605,1.605,0,0,1,0-3.211H1634.8a1.605,1.605,0,1,1,0,3.211Z"/><path class="c" d="M1609.21,738.221h-26.6a1.605,1.605,0,0,1,0-3.211h26.6a1.605,1.605,0,1,1,0,3.211Z"/><path class="c" d="M1631.186,686.437h-34.252a1.605,1.605,0,0,0,0,3.211h34.251a2.008,2.008,0,0,1,2.006,2.006v20.792l-7-8.438a5.163,5.163,0,0,0-3.986-1.872h0a5.158,5.158,0,0,0-3.985,1.872l-4.591,5.532-9.483-11.426a5.182,5.182,0,0,0-7.3-.678,5.105,5.105,0,0,0-.677.678l-11.954,14.4V691.653a2.005,2.005,0,0,1,2-2.006h3.208a1.605,1.605,0,0,0,0-3.211h-3.208a5.221,5.221,0,0,0-5.216,5.216V715.8a5.222,5.222,0,0,0,5.216,5.216h44.964a5.222,5.222,0,0,0,5.216-5.216V691.653A5.221,5.221,0,0,0,1631.186,686.437Zm-46.547,30.6,14-16.869a1.967,1.967,0,0,1,2.771-.259,1.864,1.864,0,0,1,.259.259l9.869,11.889-4.777,5.757H1586.22a2,2,0,0,1-1.586-.78Zm46.547.777h-20.252l9.754-11.752a1.967,1.967,0,0,1,2.771-.259,1.865,1.865,0,0,1,.259.259L1632.8,717a2,2,0,0,1-1.61.812Z"/><path class="c" d="M1659.477,676.133h-11v-6.98a5.1,5.1,0,0,0-5.088-5.089h-68.333a5.1,5.1,0,0,0-5.088,5.09v76.769a19.936,19.936,0,0,0,19.914,19.913h38.685a19.938,19.938,0,0,0,19.884-18.86,31.973,31.973,0,0,0,31.1-31.923V696.209A20.1,20.1,0,0,0,1659.477,676.133Zm-14.21,69.788a16.721,16.721,0,0,1-16.7,16.7h-38.685a16.722,16.722,0,0,1-16.7-16.7V669.152a1.88,1.88,0,0,1,1.878-1.879h68.334a1.879,1.879,0,0,1,1.877,1.878V719.11a1.606,1.606,0,0,0,3.211,0V692.5a5.321,5.321,0,0,1,4.1-3.208l5.686-.878a7.866,7.866,0,0,1,9.1,6.4,8.014,8.014,0,0,1,.116,1.392v18.844a19.923,19.923,0,0,1-14.458,19.113,4,4,0,0,1-4.538-1.858v-5.692a1.606,1.606,0,0,0-3.211,0v19.3Zm31.077-30.869a28.757,28.757,0,0,1-27.864,28.709v-7.129a7.151,7.151,0,0,0,5.408.624,23.146,23.146,0,0,0,16.8-22.2V696.208a11.075,11.075,0,0,0-11.034-11.118,10.959,10.959,0,0,0-1.881.154l-5.686.878a8.519,8.519,0,0,0-3.606,1.457v-8.235h11a16.884,16.884,0,0,1,16.866,16.865Z"/></g></svg>