<svg xmlns="http://www.w3.org/2000/svg" width="115.417" height="115.417" viewBox="0 0 115.417 115.417"><defs><style>.a{fill:#73a5d9;}.b{fill:#fff;}.c{fill:#d5001b;}</style></defs><g transform="translate(-1550.024 -4478.004)"><rect class="a" width="8.17" height="8.17" transform="translate(1551.643 4500.077)"/><rect class="b" width="8.17" height="8.17" transform="translate(1575.786 4533.377)"/><rect class="b" width="8.17" height="8.17" transform="translate(1631.563 4533.377)"/><rect class="b" width="8.17" height="8.17" transform="translate(1603.675 4500.077)"/><rect class="a" width="8.17" height="8.17" transform="translate(1603.675 4479.681)"/><rect class="a" width="8.17" height="8.17" transform="translate(1655.706 4500.077)"/><rect class="b" width="30.386" height="5.828" transform="translate(1592.852 4563.347)"/><rect class="b" width="30.386" height="5.828" transform="translate(1592.852 4563.347)"/><path class="a" d="M1607.734,4525.366l-16.844,21.527,5.551,14.893h23.214l4.542-14.893Z"/><path class="b" d="M1607.76,4540.87h0a4.085,4.085,0,0,1,4.085,4.085h0a4.085,4.085,0,0,1-4.085,4.085h0a4.085,4.085,0,0,1-4.085-4.085h0A4.085,4.085,0,0,1,1607.76,4540.87Z"/><rect class="b" width="20.813" height="20.813" transform="translate(1597.431 4570.007)"/><path class="c" d="M1626.019,4545.828l-16.754-24.2a1.863,1.863,0,0,0-3.063,0l-16.755,24.2a1.861,1.861,0,0,0-.235,1.647l4.768,14.3h-1.141a1.862,1.862,0,0,0-1.862,1.861v5.585a1.861,1.861,0,0,0,1.861,1.861h1.861v20.478a1.861,1.861,0,0,0,1.861,1.861H1618.9a1.861,1.861,0,0,0,1.861-1.861v-20.478h1.862a1.861,1.861,0,0,0,1.862-1.86h0v-5.585a1.861,1.861,0,0,0-1.861-1.861h-1.141l4.768-14.3A1.857,1.857,0,0,0,1626.019,4545.828Zm-18.286-2.664a1.862,1.862,0,1,1-1.862,1.862,1.862,1.862,0,0,1,1.862-1.862h0Zm9.308,46.541h-18.616v-18.617h18.617Zm3.723-22.339H1594.7V4565.5h26.062Zm-3.2-5.585h-19.657l-4.868-14.6,12.833-18.538v10.8a2.182,2.182,0,0,0,.028.311,5.585,5.585,0,1,0,3.667,0,1.917,1.917,0,0,0,.028-.311v-10.8l12.833,18.538Z"/><path class="c" d="M1663.58,4498.487h-7.446a1.862,1.862,0,0,0-1.862,1.862h0v1.878a1.953,1.953,0,0,0-.233-.016h-40.72v-1.866a1.862,1.862,0,0,0-1.861-1.862H1609.6v-9.308h1.862a1.861,1.861,0,0,0,1.861-1.861h0v-7.447a1.86,1.86,0,0,0-1.86-1.862h-7.447a1.862,1.862,0,0,0-1.862,1.862h0v7.447a1.862,1.862,0,0,0,1.862,1.862h1.861v9.308h-1.861a1.862,1.862,0,0,0-1.862,1.862h0v1.862h-40.956v-1.862a1.862,1.862,0,0,0-1.862-1.862h-7.446a1.862,1.862,0,0,0-1.862,1.862h0v7.447a1.862,1.862,0,0,0,1.862,1.862h7.446a1.862,1.862,0,0,0,1.862-1.862h0v-1.862h30.777a29.114,29.114,0,0,0-6.513,5.9,32.366,32.366,0,0,0-7.51,20.164h-1.862a1.861,1.861,0,0,0-1.861,1.861h0v7.447a1.861,1.861,0,0,0,1.861,1.861h7.446a1.861,1.861,0,0,0,1.862-1.86h0v-7.447a1.86,1.86,0,0,0-1.86-1.862h-1.863c0-13.8,10.62-24.693,20.478-25.942v1.741a1.862,1.862,0,0,0,1.862,1.862h7.446a1.861,1.861,0,0,0,1.861-1.861h0v-1.748c5.041.6,9.879,3.619,13.784,8.657a32.675,32.675,0,0,1,6.629,17.292h-1.8a1.862,1.862,0,0,0-1.862,1.862h0v7.447a1.862,1.862,0,0,0,1.862,1.861h7.449a1.862,1.862,0,0,0,1.862-1.861v-7.447a1.862,1.862,0,0,0-1.862-1.862h-1.92a35.946,35.946,0,0,0-7.416-19.575,29.419,29.419,0,0,0-6.842-6.488h30.837a2.06,2.06,0,0,0,.233-.016v1.878a1.862,1.862,0,0,0,1.862,1.862h7.446a1.861,1.861,0,0,0,1.861-1.861h0v-7.448A1.862,1.862,0,0,0,1663.58,4498.487Zm-106.112,7.446h-3.723v-3.723h3.723Zm24.2,33.51h-3.724v-3.724h3.724Zm24.2-57.71h3.724v3.723h-3.724Zm3.724,24.2h-3.724v-3.723h3.724Zm24.2,29.786h3.723v3.724h-3.723Zm27.924-29.786h-3.724v-3.723h3.724Z"/></g></svg>