<svg xmlns="http://www.w3.org/2000/svg" width="108.361" height="97.306" viewBox="0 0 108.361 97.306"><g transform="translate(-240.458 -3704.574)"><path d="M262.3,3710.48h62.921a22.59,22.59,0,0,1,22.59,22.59v52.76H241.2v-54.241A21.109,21.109,0,0,1,262.3,3710.48Z" fill="#8cb3de"/><rect width="64.201" height="6.879" transform="translate(246.928 3760.608)" fill="#fff"/><rect width="59.615" height="25.222" transform="translate(249.22 3767.487)" fill="#fff"/><rect width="25.222" height="60.761" transform="translate(316.861 3728.508)" fill="#fff"/><rect width="29.808" height="2.293" rx="1.146" transform="translate(314.568 3726.215)" fill="#fff"/><path d="M261.422,3709l-2.353,4.386a.906.906,0,0,0,.69,1.363h4.7a.906.906,0,0,0,.69-1.363L262.8,3709a.763.763,0,0,0-1.379,0Z" fill="#fff"/><path d="M283.2,3709l-2.353,4.386a.905.905,0,0,0,.319,1.241.925.925,0,0,0,.372.122h4.706a.907.907,0,0,0,.813-.991.929.929,0,0,0-.123-.373L284.586,3709a.764.764,0,0,0-1.381,0Z" fill="#fff"/><path d="M304.988,3709l-2.354,4.386a.907.907,0,0,0,.69,1.364h4.7a.907.907,0,0,0,.691-1.364L306.368,3709a.764.764,0,0,0-1.38,0Z" fill="#fff"/><path d="M326.322,3709l-1.926,4.386c-.264.6.054,1.364.564,1.364h3.852c.513,0,.829-.764.565-1.364L327.452,3709a.584.584,0,0,0-1.13,0Z" fill="#fff"/><circle cx="8.025" cy="8.025" r="8.025" transform="translate(271.003 3728.507)" fill="#fff"/><rect width="22.929" height="25.222" rx="11.464" transform="translate(267.563 3746.851)" fill="#fff"/><path d="M333.561,3709.721h-3.842l-.178-.581a2.683,2.683,0,0,0-1.623-1.726,3.381,3.381,0,0,0-6.718.554v1.753H308.17l-.178-.581a2.681,2.681,0,0,0-1.624-1.728,3.381,3.381,0,0,0-6.717.554v1.753H286.619l-.179-.581a2.679,2.679,0,0,0-1.622-1.727,3.381,3.381,0,0,0-6.718.554v1.753H265.07l-.179-.581a2.681,2.681,0,0,0-1.623-1.726,3.381,3.381,0,0,0-6.718.554v1.753h-.821a15.29,15.29,0,0,0-15.271,15.271v61.627a1,1,0,0,0,1,1h6.268v9.548a4.716,4.716,0,0,0,4.711,4.71h19.146a1,1,0,1,0,0-2.007H252.437a2.708,2.708,0,0,1-2.7-2.7V3769h58.443v28.164a2.707,2.707,0,0,1-2.706,2.7H289.5a1,1,0,0,0,0,2.007h15.972a4.715,4.715,0,0,0,4.71-4.71v-9.548h5.895v8.976h-2.094a2.642,2.642,0,1,0-.092,5.283h31.125a2.642,2.642,0,1,0,.092-5.283h-2.192v-8.976h4.9a1,1,0,0,0,1-1v-61.628a15.286,15.286,0,0,0-15.27-15.268Zm-5.083,3.752a.684.684,0,0,1-.56.282h-1.923a.694.694,0,0,1-.7-.694.72.72,0,0,1,.031-.206l.961-3.125a.7.7,0,0,1,1.329,0l.961,3.125a.692.692,0,0,1-.1.618Zm-5.273-5.506a1.378,1.378,0,0,1,2.663-.5,2.681,2.681,0,0,0-1.494,1.672l-.178.581H323.2v-1.754Zm-16.277,5.506a.68.68,0,0,1-.558.282h-1.924a.7.7,0,0,1-.7-.695.713.713,0,0,1,.031-.205l.961-3.125a.7.7,0,0,1,1.329,0l.961,3.125a.688.688,0,0,1-.1.619Zm-5.272-5.506a1.378,1.378,0,0,1,2.663-.5,2.679,2.679,0,0,0-1.493,1.672l-.179.581h-.991Zm-16.275,5.506a.682.682,0,0,1-.559.282H282.9a.7.7,0,0,1-.694-.706.751.751,0,0,1,.029-.194l.963-3.125a.695.695,0,0,1,1.328,0l.961,3.125a.686.686,0,0,1-.1.618Zm-5.272-5.506a1.378,1.378,0,0,1,2.663-.5,2.681,2.681,0,0,0-1.494,1.672l-.178.58h-.991Zm-16.276,5.506a.691.691,0,0,1-.56.282H261.35a.7.7,0,0,1-.7-.695.68.68,0,0,1,.031-.205l.962-3.125a.7.7,0,0,1,1.329,0l.961,3.125a.687.687,0,0,1-.1.617Zm-5.272-5.506a1.378,1.378,0,0,1,2.664-.5,2.675,2.675,0,0,0-1.494,1.672l-.18.581h-.991ZM248.734,3767h-.715a.833.833,0,0,1-.833-.833h0v-4.355a.832.832,0,0,1,.832-.832H309.9a.834.834,0,0,1,.833.833v4.355a.834.834,0,0,1-.833.833H248.734Zm20.682-8.051v-1.816a9.544,9.544,0,1,1,19.088,0h0v1.816Zm73.324-31.185H316.266a.517.517,0,0,1-.516-.516v-.237a.516.516,0,0,1,.516-.516H342.74a.515.515,0,0,1,.515.514v.239a.516.516,0,0,1-.514.516Zm2.913,71.476a.635.635,0,0,1-.635.635H313.986a.635.635,0,1,1,0-1.271h31.033A.635.635,0,0,1,345.653,3799.238Zm-27.565-2.642v-66.828h22.831V3796.6H318.088Zm28.735-10.982h-3.9V3729.75a2.518,2.518,0,0,0,2.339-2.5v-.238a2.527,2.527,0,0,0-2.523-2.523H316.264a2.525,2.525,0,0,0-2.523,2.523v.238a2.517,2.517,0,0,0,2.339,2.5v55.863h-5.894V3768.98a2.834,2.834,0,0,0,2.551-2.811v-4.355a2.842,2.842,0,0,0-2.84-2.839H290.508v-1.839a11.551,11.551,0,1,0-23.1-.3c0,.1,0,.2,0,.3v1.839H248.019a2.844,2.844,0,0,0-2.84,2.839v4.355a2.834,2.834,0,0,0,2.551,2.811v16.638h-5.264V3724.99a13.278,13.278,0,0,1,13.264-13.262h3.2l-.166.539a2.7,2.7,0,0,0,2.581,3.5h1.924a2.7,2.7,0,0,0,2.7-2.7,2.673,2.673,0,0,0-.121-.8l-.166-.538h14.793l-.166.538a2.7,2.7,0,0,0,1.779,3.379,2.73,2.73,0,0,0,.8.121h1.924a2.7,2.7,0,0,0,2.7-2.7,2.733,2.733,0,0,0-.121-.8l-.165-.538h14.791l-.166.538a2.7,2.7,0,0,0,1.779,3.379,2.731,2.731,0,0,0,.8.121h1.924a2.7,2.7,0,0,0,2.7-2.7,2.733,2.733,0,0,0-.121-.8l-.166-.539h14.793l-.166.539a2.7,2.7,0,0,0,1.778,3.379,2.743,2.743,0,0,0,.8.121h1.922a2.7,2.7,0,0,0,2.7-2.7,2.732,2.732,0,0,0-.121-.8l-.166-.539h3.226a13.277,13.277,0,0,1,13.263,13.261Z" fill="#e00020"/><path d="M278.961,3727.031a8.938,8.938,0,1,0,8.936,8.94v0A8.949,8.949,0,0,0,278.961,3727.031Zm0,15.869a6.931,6.931,0,1,1,6.93-6.932h0A6.938,6.938,0,0,1,278.961,3742.9Z" fill="#e00020"/><path d="M283.872,3799.873h-6.43a1,1,0,1,0,0,2.007h6.43a1,1,0,0,0,0-2.007Z" fill="#e00020"/><path d="M335.94,3740.393H323.29a1,1,0,0,1,0-2.007h12.65a1,1,0,0,1,0,2.007Z" fill="#e00020"/><path d="M335.939,3744.656H323.29a1,1,0,0,1,0-2.006h12.649a1,1,0,0,1,0,2.006Z" fill="#e00020"/><path d="M335.939,3748.921H323.29a1,1,0,1,1,0-2.006h12.649a1,1,0,1,1,0,2.006Z" fill="#e00020"/><path d="M333.884,3752.82h-8.538a1.208,1.208,0,0,0-1.208,1.208h0v11.129a1.208,1.208,0,0,0,1.208,1.208h8.538a1.208,1.208,0,0,0,1.208-1.208h0v-11.129a1.208,1.208,0,0,0-1.208-1.208Z" fill="#e00020"/></g></svg>