<svg xmlns="http://www.w3.org/2000/svg" width="96.369" height="102.806" viewBox="0 0 96.369 102.806"><defs><style>.a{fill:#8cb3de;}.b{fill:#e00020;}</style></defs><g transform="translate(-251.775 -5190.042)"><path class="a" d="M272.325,5205.724l13.292-6.646,44.625,23.736v18.04l-11.394,5.7v-18.989Z"/><path class="b" d="M347.292,5212.727l-46.677-22.535a1.507,1.507,0,0,0-1.31,0l-46.679,22.534a1.5,1.5,0,0,0-.851,1.356v54.726a1.5,1.5,0,0,0,.852,1.356L299.3,5292.7a1.5,1.5,0,0,0,1.31,0l46.679-22.533a1.508,1.508,0,0,0,.852-1.356v-54.721A1.506,1.506,0,0,0,347.292,5212.727Zm-47.332-19.506,43.213,20.862-12.527,6.047a1.533,1.533,0,0,0-.255-.161l-42.919-20.72Zm-15.89,7.731,43.15,20.831-8.837,4.268-43.133-20.824Zm44.16,23.688v15.772l-8.255,3.985v-15.772Zm16.9,43.224-43.667,21.08v-51.381l10.416-5.028a1.507,1.507,0,0,0-1.31-2.713l-10.611,5.124-4.176-2.016a1.506,1.506,0,0,0-1.31,2.713l3.979,1.921v51.381l-43.665-21.081v-51.377l33.255,16.047a1.506,1.506,0,1,0,1.365-2.684l-.056-.028-32.6-15.738,14.96-7.223,45.236,21.838.02.025v18.071a1.508,1.508,0,0,0,2.163,1.356l11.267-5.439a1.5,1.5,0,0,0,.852-1.355v-18.171l13.888-6.705v51.381Z"/></g></svg>