<svg xmlns="http://www.w3.org/2000/svg" xmlns:xlink="http://www.w3.org/1999/xlink" width="305.592" height="128.079" viewBox="0 0 305.592 128.079"><defs><clipPath id="a"><rect width="305.592" height="128.079" transform="translate(1405.588 672.098)" fill="none"/></clipPath></defs><g transform="translate(-1405.588 -672.098)"><g clip-path="url(#a)"><path d="M1478.76,729.949c0,8.653.077,14.925.17,16.485.08,2.043.237,5.3.892,6.2,1.055,1.555,4.247,3.264,10.686,3.264,8.325,0,13.865-1.624,18.763-5.872,5.221-4.485,6.85-11.91,6.85-20.312,0-10.361-4.318-17.054-7.831-20.4-7.5-7.18-16.807-8.16-23.165-8.16a21.69,21.69,0,0,0-5.3.577,1.486,1.486,0,0,0-.985,1.633c-.077,2.773-.077,9.873-.077,16.318Zm-10.2-8.97c0-12.4,0-14.682-.163-17.294-.163-2.777-.813-4.076-3.513-4.65a16.848,16.848,0,0,0-3.18-.244c-.9,0-1.374-.159-1.374-.738,0-.564.56-.732,1.786-.732,4.327,0,9.463.242,11.751.242,2.534,0,7.669-.242,12.556-.242,10.194,0,23.826,0,32.722,9.3,4.063,4.24,7.91,11.01,7.91,20.727a32.348,32.348,0,0,1-8.9,22.752c-3.742,3.845-12.238,9.634-27.324,9.634-2.926,0-6.282-.243-9.377-.487s-5.947-.494-8.005-.494c-.891,0-2.694,0-4.642.076-1.877,0-4,.175-5.627.175-1.065,0-1.639-.251-1.639-.824,0-.406.329-.65,1.308-.65a12.833,12.833,0,0,0,2.934-.329c1.64-.326,2.044-2.122,2.363-4.481.413-3.43.413-9.876.413-17.381Z" fill="#1a1818"/><path d="M1530.017,758.02c-1.3-.57-1.542-.991-1.542-2.772,0-4.491.323-9.383.41-10.688.068-1.225.317-2.123.976-2.123.735,0,.823.731.823,1.387a17.253,17.253,0,0,0,.728,4.167c1.792,6.032,6.6,8.237,11.668,8.237,7.339,0,10.926-4.981,10.926-9.3,0-3.995-1.224-7.754-8-13.06l-3.751-2.935c-8.97-7.012-12.072-12.722-12.072-19.336,0-8.966,7.511-15.408,18.843-15.408a39.565,39.565,0,0,1,10.855,1.377c.736.163,1.132.416,1.132.982,0,1.058-.326,3.429-.326,9.79,0,1.792-.243,2.455-.893,2.455-.562,0-.811-.5-.811-1.477a9.853,9.853,0,0,0-2.126-5.388c-1.218-1.54-3.582-3.991-8.881-3.991-6.05,0-9.717,3.509-9.717,8.4,0,3.75,1.877,6.612,8.657,11.746l2.285,1.717c9.863,7.422,13.376,13.054,13.376,20.8a16.452,16.452,0,0,1-7.674,14.191,23.567,23.567,0,0,1-12.977,3.334,28.348,28.348,0,0,1-11.91-2.107" fill="#1a1818"/><path d="M1571.516,705.317c-.994-3.017-1.888-4.975-3.012-5.791a7.238,7.238,0,0,0-3.269-.738c-.819,0-1.3-.075-1.3-.738,0-.561.645-.728,1.791-.728,4.244,0,8.719.241,9.465.241.731,0,4.318-.241,9.053-.241,1.136,0,1.709.241,1.709.728,0,.663-.649.738-1.461.738a4.315,4.315,0,0,0-2.051.33c-.738.328-.886.894-.886,1.79,0,1.066.8,3.84,1.8,7.516,1.38,5.381,8.966,30.1,10.442,34.665h.249l15.818-42.5c.823-2.284,1.384-2.935,2.035-2.935.9,0,1.3,1.218,2.365,3.836l16.976,41.034h.235c1.478-5.464,8.005-27,10.863-36.544a17.44,17.44,0,0,0,.814-4.742c0-1.3-.741-2.446-3.925-2.446-.805,0-1.379-.243-1.379-.738,0-.561.653-.728,1.87-.728,4.337,0,7.755.241,8.486.241.569,0,4.074-.241,6.765-.241.9,0,1.477.167,1.477.654,0,.569-.423.812-1.137.812a8.932,8.932,0,0,0-2.852.4c-1.971.743-2.869,4.009-4.573,8.654-3.759,10.279-12.322,36.222-16.32,48.456-.9,2.859-1.3,3.826-2.365,3.826-.818,0-1.3-.967-2.527-3.981l-16.971-40.884h-.166c-1.542,4.168-12.4,33.05-15.894,40.548-1.564,3.35-1.975,4.317-2.949,4.317-.824,0-1.148-.88-1.879-3.008Z" fill="#1a1818"/><path d="M1649.918,767.7c.5,0,1.285.078,1.285-.647,0-.553-.49-.618-.93-.618h-1.024V767.7Zm1.677,1.993h-.519l-1.026-1.653h-.8v1.653h-.437v-3.582h1.557a1.646,1.646,0,0,1,.872.178.866.866,0,0,1,.4.769c0,.706-.495.966-1.128.982Zm1.208-1.8a2.812,2.812,0,1,0-2.8,2.826,2.8,2.8,0,0,0,2.8-2.826m-6.015,0a3.2,3.2,0,1,1,3.215,3.213,3.209,3.209,0,0,1-3.215-3.213" fill="#1a1818"/><path d="M1464.9,774.051h.452c2.626,0,4.9-.985,4.9-3.981s-2.27-3.978-4.9-3.978h-.452Zm-1.286-9.138h2.134c3.159,0,5.786,1.671,5.786,5.1,0,3.513-2.572,5.209-5.828,5.209h-2.092Z" fill="#1a1818"/></g><path d="M1472.746,764.913h5.539v1.178h-4.253v2.886h4.13v1.175h-4.13v3.9h4.253v1.175h-5.539Z" fill="#1a1818"/><g clip-path="url(#a)"><path d="M1484.11,766.87a1.768,1.768,0,0,0-1.655-.969,1.625,1.625,0,0,0-1.723,1.462c0,.807.793,1.23,1.436,1.476l.738.29c1.463.572,2.558,1.381,2.558,3.1a3.177,3.177,0,0,1-3.3,3.213,3.214,3.214,0,0,1-3.187-2.886l1.3-.272a1.949,1.949,0,1,0,3.9-.055c0-1.107-.888-1.587-1.778-1.956l-.711-.3c-1.175-.5-2.242-1.176-2.242-2.612a2.813,2.813,0,0,1,3.036-2.668,2.947,2.947,0,0,1,2.654,1.56Z" fill="#1a1818"/></g><rect width="1.284" height="10.313" transform="translate(1486.761 764.913)" fill="#1a1818"/><g clip-path="url(#a)"><path d="M1499.3,770.03v.409a4.788,4.788,0,0,1-4.882,5.006,5.376,5.376,0,0,1,.136-10.75,5.411,5.411,0,0,1,4.2,2l-.9.861a4.066,4.066,0,0,0-7.357,2.505,4.211,4.211,0,0,0,4.006,4.211,3.46,3.46,0,0,0,3.378-3.063h-2.667V770.03Z" fill="#1a1818"/></g><path d="M1500.652,764.421l7.743,8.113v-7.621h1.286v10.739l-7.742-8.111v7.685h-1.287Z" fill="#1a1818"/><path d="M1511.167,764.913h5.538v1.178h-4.252v2.886h4.128v1.175h-4.128v3.9h4.252v1.175h-5.538Z" fill="#1a1818"/><g clip-path="url(#a)"><path d="M1519.372,769.8h.41c1.313,0,2.735-.246,2.735-1.886,0-1.615-1.532-1.845-2.8-1.845h-.342Zm5.129,5.43h-1.559l-3.036-4.362h-.534v4.362h-1.285V764.913h1.557a5.471,5.471,0,0,1,2.723.48,2.857,2.857,0,0,1,1.353,2.462,2.807,2.807,0,0,1-2.474,2.886Z" fill="#1a1818"/><path d="M1533.359,766.87a1.768,1.768,0,0,0-1.654-.969,1.625,1.625,0,0,0-1.724,1.462c0,.807.791,1.23,1.434,1.476l.739.29c1.464.572,2.559,1.381,2.559,3.1a3.177,3.177,0,0,1-3.3,3.213,3.212,3.212,0,0,1-3.184-2.886l1.3-.272a1.949,1.949,0,1,0,3.9-.055c0-1.107-.889-1.587-1.777-1.956l-.713-.3c-1.174-.5-2.241-1.176-2.241-2.612a2.812,2.812,0,0,1,3.036-2.668,2.945,2.945,0,0,1,2.653,1.56Z" fill="#1a1818"/></g><path d="M1542.138,769.072v-4.159h1.282v10.313h-1.282v-4.95h-4.91v4.95h-1.286V764.913h1.286v4.159Z" fill="#1a1818"/><g clip-path="url(#a)"><path d="M1554.005,770.07a4.116,4.116,0,1,0-8.232,0,4.116,4.116,0,1,0,8.232,0m1.286,0a5.4,5.4,0,0,1-10.805,0,5.4,5.4,0,0,1,10.805,0" fill="#1a1818"/></g><path d="M1556.464,764.913H1562v1.178h-4.254v2.886h4.131v1.175h-4.131v3.9H1562v1.175h-5.541Z" fill="#1a1818"/><path d="M1569.986,772.3l2.913-7.605,2.914,7.605,2.886-7.387h1.394l-4.28,10.725-2.914-7.565-2.913,7.565-4.279-10.725h1.393Z" fill="#1a1818"/><path d="M1582.742,767.294l-1.831,4.173h3.664Zm-2.365,5.349-1.176,2.583h-1.382l4.923-10.749,4.926,10.749h-1.383l-1.174-2.583Z" fill="#1a1818"/><g clip-path="url(#a)"><path d="M1589.812,769.8h.41c1.314,0,2.734-.246,2.734-1.886,0-1.615-1.531-1.845-2.8-1.845h-.342Zm5.129,5.43h-1.559l-3.038-4.362h-.532v4.362h-1.286V764.913h1.56a5.47,5.47,0,0,1,2.721.48,2.86,2.86,0,0,1,1.354,2.462,2.809,2.809,0,0,1-2.475,2.886Z" fill="#1a1818"/></g><path d="M1595.744,764.913h5.541v1.178h-4.254v2.886h4.132v1.175h-4.132v3.9h4.254v1.175h-5.541Z" fill="#1a1818"/><path d="M1608.613,769.072v-4.159h1.287v10.313h-1.287v-4.95H1603.7v4.95h-1.285V764.913h1.285v4.159Z" fill="#1a1818"/><g clip-path="url(#a)"><path d="M1620.482,770.07a4.117,4.117,0,1,0-8.234,0,4.117,4.117,0,1,0,8.234,0m1.284,0a5.4,5.4,0,0,1-10.8,0,5.4,5.4,0,0,1,10.8,0" fill="#1a1818"/><path d="M1624.048,764.913V771c0,1.68.508,3.24,2.488,3.24s2.489-1.56,2.489-3.24v-6.089h1.287v6.526a3.78,3.78,0,1,1-7.547,0v-6.526Z" fill="#1a1818"/><path d="M1636.6,766.87a1.762,1.762,0,0,0-1.652-.969,1.628,1.628,0,0,0-1.727,1.462c0,.807.794,1.23,1.437,1.476l.739.29c1.464.572,2.56,1.381,2.56,3.1a3.179,3.179,0,0,1-3.3,3.213,3.214,3.214,0,0,1-3.186-2.886l1.3-.272a1.95,1.95,0,1,0,3.9-.055c0-1.107-.89-1.587-1.777-1.956l-.713-.3c-1.177-.5-2.241-1.176-2.241-2.612a2.812,2.812,0,0,1,3.034-2.668,2.949,2.949,0,0,1,2.655,1.56Z" fill="#1a1818"/></g><path d="M1639.568,764.913h5.539v1.178h-4.253v2.886h4.13v1.175h-4.13v3.9h4.253v1.175h-5.539Z" fill="#1a1818"/></g></svg>