<svg xmlns="http://www.w3.org/2000/svg" xmlns:xlink="http://www.w3.org/1999/xlink" width="293.131" height="122.856" viewBox="0 0 293.131 122.856"><defs><style>.a{fill:none;}.b{clip-path:url(#a);}.c{fill:#1a1818;}</style><clipPath id="a"><rect class="a" width="293.131" height="122.856"/></clipPath></defs><g transform="translate(0 0)"><g class="b"><path class="c" d="M1478.009,728.619c0,8.3.074,14.316.163,15.813.077,1.96.227,5.08.856,5.946,1.012,1.492,4.074,3.131,10.25,3.131,7.985,0,13.3-1.558,18-5.633,5.008-4.3,6.571-11.424,6.571-19.484,0-9.939-4.142-16.359-7.512-19.568-7.193-6.887-16.122-7.827-22.22-7.827a20.8,20.8,0,0,0-5.087.553,1.425,1.425,0,0,0-.945,1.566c-.074,2.66-.074,9.47-.074,15.653Zm-9.783-8.6c0-11.892,0-14.083-.156-16.589-.156-2.664-.78-3.91-3.37-4.46a16.163,16.163,0,0,0-3.05-.234c-.862,0-1.318-.153-1.318-.708s.537-.7,1.713-.7c4.151,0,9.077.232,11.272.232,2.431,0,7.356-.232,12.044-.232,9.778,0,22.854,0,31.388,8.921a28.019,28.019,0,0,1,7.587,19.882,31.029,31.029,0,0,1-8.536,21.824c-3.589,3.688-11.739,9.241-26.21,9.241-2.807,0-6.026-.233-8.995-.467s-5.7-.474-7.679-.474c-.855,0-2.584,0-4.453.073-1.8,0-3.836.168-5.4.168-1.022,0-1.572-.241-1.572-.79,0-.389.316-.623,1.255-.623a12.309,12.309,0,0,0,2.814-.316c1.573-.313,1.961-2.035,2.266-4.3.4-3.29.4-9.473.4-16.672Z" transform="translate(-1407.82 -673.126)"/><path class="c" d="M1529.954,755.5c-1.246-.547-1.479-.951-1.479-2.659,0-4.308.31-9,.393-10.252.065-1.175.3-2.036.936-2.036.705,0,.79.7.79,1.33a16.549,16.549,0,0,0,.7,4c1.719,5.786,6.328,7.9,11.192,7.9,7.04,0,10.48-4.778,10.48-8.924,0-3.832-1.174-7.438-7.673-12.527l-3.6-2.815c-8.6-6.726-11.58-12.2-11.58-18.548,0-8.6,7.2-14.78,18.075-14.78a37.951,37.951,0,0,1,10.412,1.321c.706.156,1.086.4,1.086.942,0,1.015-.313,3.289-.313,9.391,0,1.719-.233,2.355-.857,2.355-.539,0-.778-.481-.778-1.417a9.452,9.452,0,0,0-2.039-5.168c-1.168-1.477-3.436-3.828-8.519-3.828-5.8,0-9.321,3.366-9.321,8.058,0,3.6,1.8,6.342,8.3,11.267l2.192,1.647c9.461,7.119,12.831,12.522,12.831,19.956a15.781,15.781,0,0,1-7.361,13.612,22.606,22.606,0,0,1-12.448,3.2,27.192,27.192,0,0,1-11.424-2.021" transform="translate(-1410.599 -673.08)"/><path class="c" d="M1571.207,704.991c-.953-2.894-1.811-4.772-2.889-5.555a6.943,6.943,0,0,0-3.136-.708c-.786,0-1.252-.072-1.252-.708,0-.538.619-.7,1.718-.7,4.071,0,8.363.231,9.079.231s4.142-.231,8.684-.231c1.09,0,1.639.231,1.639.7,0,.636-.623.708-1.4.708a4.139,4.139,0,0,0-1.967.317c-.708.315-.85.858-.85,1.717a49.564,49.564,0,0,0,1.724,7.21c1.324,5.162,8.6,28.871,10.016,33.251h.239l15.173-40.771c.789-2.191,1.328-2.815,1.952-2.815.867,0,1.25,1.168,2.269,3.68l16.284,39.361h.225c1.418-5.241,7.679-25.9,10.42-35.054a16.727,16.727,0,0,0,.781-4.549c0-1.247-.711-2.346-3.765-2.346-.772,0-1.323-.233-1.323-.708,0-.538.626-.7,1.794-.7,4.16,0,7.439.231,8.14.231.546,0,3.908-.231,6.489-.231.866,0,1.417.16,1.417.627,0,.546-.406.779-1.091.779a8.568,8.568,0,0,0-2.736.387c-1.891.713-2.752,3.846-4.387,8.3-3.606,9.86-11.82,34.745-15.654,46.48-.862,2.742-1.247,3.67-2.269,3.67-.785,0-1.25-.928-2.424-3.819l-16.279-39.217h-.159c-1.479,4-11.893,31.7-15.246,38.895-1.5,3.213-1.895,4.141-2.829,4.141-.79,0-1.1-.844-1.8-2.885Z" transform="translate(-1412.045 -673.126)"/><path class="c" d="M1649.79,767.574c.484,0,1.233.075,1.233-.621,0-.53-.47-.593-.892-.593h-.982v1.213Zm1.609,1.912h-.5l-.984-1.586h-.768v1.586h-.419v-3.436h1.494a1.579,1.579,0,0,1,.836.171.83.83,0,0,1,.388.738c0,.677-.475.927-1.082.942Zm1.159-1.722a2.7,2.7,0,1,0-2.686,2.711,2.685,2.685,0,0,0,2.686-2.711m-5.77,0a3.071,3.071,0,1,1,3.084,3.082,3.079,3.079,0,0,1-3.084-3.082" transform="translate(-1415.424 -675.874)"/><path class="c" d="M1464.846,773.678h.434c2.519,0,4.7-.945,4.7-3.819s-2.177-3.816-4.7-3.816h-.434Zm-1.234-8.765h2.047c3.03,0,5.55,1.6,5.55,4.9,0,3.37-2.467,5-5.59,5h-2.007Z" transform="translate(-1407.954 -675.882)"/></g></g><path class="c" d="M1472.746,764.913h5.313v1.13h-4.079v2.768h3.962v1.127h-3.962v3.739h4.079v1.127h-5.313Z" transform="translate(-1408.327 -675.882)"/><g transform="translate(0 0)"><g class="b"><path class="c" d="M1483.9,766.781a1.7,1.7,0,0,0-1.588-.93,1.559,1.559,0,0,0-1.653,1.4c0,.774.761,1.18,1.377,1.416l.708.278c1.4.549,2.454,1.325,2.454,2.976a3.048,3.048,0,0,1-3.162,3.082,3.083,3.083,0,0,1-3.057-2.768l1.246-.261a1.869,1.869,0,1,0,3.738-.053c0-1.062-.852-1.522-1.705-1.876l-.682-.289c-1.127-.483-2.151-1.128-2.151-2.505a2.7,2.7,0,0,1,2.912-2.559,2.827,2.827,0,0,1,2.546,1.5Z" transform="translate(-1408.581 -675.874)"/></g></g><rect class="c" width="1.231" height="9.892" transform="translate(77.863 89.03)"/><g transform="translate(0 0)"><g class="b"><path class="c" d="M1498.89,769.813v.392a4.593,4.593,0,0,1-4.683,4.8,5.157,5.157,0,0,1,.13-10.312,5.19,5.19,0,0,1,4.029,1.916l-.867.826a3.9,3.9,0,0,0-7.057,2.4,4.039,4.039,0,0,0,3.843,4.039,3.319,3.319,0,0,0,3.24-2.938h-2.558v-1.128Z" transform="translate(-1408.998 -675.874)"/></g></g><path class="c" d="M1500.652,764.422l7.427,7.782v-7.31h1.234v10.3l-7.427-7.78v7.372h-1.234Z" transform="translate(-1409.465 -675.862)"/><path class="c" d="M1511.167,764.913h5.312v1.13H1512.4v2.768h3.96v1.127h-3.96v3.739h4.079v1.127h-5.312Z" transform="translate(-1409.893 -675.882)"/><g transform="translate(0 0)"><g class="b"><path class="c" d="M1519.32,769.6h.393c1.26,0,2.624-.236,2.624-1.809,0-1.549-1.47-1.77-2.689-1.77h-.328Zm4.92,5.209h-1.5l-2.912-4.184h-.512v4.184h-1.233v-9.892h1.494a5.248,5.248,0,0,1,2.612.46,2.741,2.741,0,0,1,1.3,2.362,2.693,2.693,0,0,1-2.373,2.768Z" transform="translate(-1410.176 -675.882)"/><path class="c" d="M1533.15,766.781a1.7,1.7,0,0,0-1.587-.93,1.559,1.559,0,0,0-1.654,1.4c0,.774.759,1.18,1.376,1.416l.709.278c1.4.549,2.455,1.325,2.455,2.976a3.048,3.048,0,0,1-3.164,3.082,3.081,3.081,0,0,1-3.054-2.768l1.246-.261a1.869,1.869,0,1,0,3.738-.053c0-1.062-.853-1.522-1.7-1.876l-.684-.289c-1.126-.483-2.15-1.128-2.15-2.505a2.7,2.7,0,0,1,2.912-2.559,2.825,2.825,0,0,1,2.545,1.5Z" transform="translate(-1410.589 -675.874)"/></g></g><path class="c" d="M1541.885,768.9v-3.99h1.23v9.892h-1.23v-4.748h-4.71v4.748h-1.234v-9.892h1.234v3.99Z" transform="translate(-1410.904 -675.882)"/><g transform="translate(0 0)"><g class="b"><path class="c" d="M1553.617,769.851a3.949,3.949,0,1,0-7.9,0,3.949,3.949,0,1,0,7.9,0m1.234,0a5.182,5.182,0,0,1-10.365,0,5.182,5.182,0,0,1,10.365,0" transform="translate(-1411.252 -675.874)"/></g></g><path class="c" d="M1556.464,764.913h5.315v1.13H1557.7v2.768h3.963v1.127H1557.7v3.739h4.081v1.127h-5.315Z" transform="translate(-1411.74 -675.882)"/><path class="c" d="M1569.812,771.99l2.794-7.3,2.8,7.3,2.768-7.086h1.337l-4.105,10.287-2.8-7.256-2.794,7.256-4.1-10.287h1.336Z" transform="translate(-1412.117 -675.874)"/><path class="c" d="M1582.541,767.179l-1.756,4h3.515Zm-2.269,5.131-1.128,2.478h-1.326l4.722-10.311,4.725,10.311h-1.327l-1.126-2.478Z" transform="translate(-1412.611 -675.865)"/><g transform="translate(0 0)"><g class="b"><path class="c" d="M1589.76,769.6h.393c1.26,0,2.623-.236,2.623-1.809,0-1.549-1.469-1.77-2.688-1.77h-.328Zm4.92,5.209h-1.5l-2.914-4.184h-.51v4.184h-1.233v-9.892h1.5a5.247,5.247,0,0,1,2.61.46,2.744,2.744,0,0,1,1.3,2.362,2.7,2.7,0,0,1-2.374,2.768Z" transform="translate(-1413.048 -675.882)"/></g></g><path class="c" d="M1595.744,764.913h5.315v1.13h-4.081v2.768h3.964v1.127h-3.964v3.739h4.081v1.127h-5.315Z" transform="translate(-1413.342 -675.882)"/><path class="c" d="M1608.36,768.9v-3.99h1.235v9.892h-1.235v-4.748h-4.709v4.748h-1.233v-9.892h1.233v3.99Z" transform="translate(-1413.614 -675.882)"/><g transform="translate(0 0)"><g class="b"><path class="c" d="M1620.094,769.851a3.949,3.949,0,1,0-7.9,0,3.949,3.949,0,1,0,7.9,0m1.232,0a5.182,5.182,0,0,1-10.363,0,5.182,5.182,0,0,1,10.363,0" transform="translate(-1413.963 -675.874)"/><path class="c" d="M1624,764.913v5.841c0,1.612.487,3.108,2.387,3.108s2.387-1.5,2.387-3.108v-5.841H1630v6.26a3.626,3.626,0,1,1-7.239,0v-6.26Z" transform="translate(-1414.444 -675.882)"/><path class="c" d="M1636.392,766.781a1.69,1.69,0,0,0-1.585-.93,1.562,1.562,0,0,0-1.657,1.4c0,.774.762,1.18,1.378,1.416l.709.278c1.4.549,2.456,1.325,2.456,2.976a3.05,3.05,0,0,1-3.164,3.082,3.083,3.083,0,0,1-3.056-2.768l1.247-.261a1.87,1.87,0,1,0,3.739-.053c0-1.062-.854-1.522-1.7-1.876l-.684-.289c-1.129-.483-2.15-1.128-2.15-2.505a2.7,2.7,0,0,1,2.91-2.559,2.829,2.829,0,0,1,2.547,1.5Z" transform="translate(-1414.799 -675.874)"/></g></g><path class="c" d="M1639.568,764.913h5.313v1.13H1640.8v2.768h3.962v1.127H1640.8v3.739h4.079v1.127h-5.313Z" transform="translate(-1415.129 -675.882)"/></svg>