<?xml version="1.0" encoding="utf-8"?>
<!-- Generator: Adobe Illustrator 25.4.1, SVG Export Plug-In . SVG Version: 6.00 Build 0)  -->
<svg version="1.1" id="Layer_1" xmlns="http://www.w3.org/2000/svg" xmlns:xlink="http://www.w3.org/1999/xlink" x="0px" y="0px"
	 viewBox="0 0 506 506.2" enable-background="new 0 0 506 506.2" xml:space="preserve">
<g>
	<defs>
		<rect id="SVGID_1_" x="-54.5" y="124.8" width="612" height="256.5"/>
	</defs>
	<clipPath id="SVGID_00000035520125034219892310000010940881381385309833_">
		<use xlink:href="#SVGID_1_"  overflow="visible"/>
	</clipPath>
	<path clip-path="url(#SVGID_00000035520125034219892310000010940881381385309833_)" d="M92,240.7c0,17.3,0.2,29.9,0.3,33
		c0.2,4.1,0.5,10.6,1.8,12.4c2.1,3.1,8.5,6.5,21.4,6.5c16.7,0,27.8-3.3,37.6-11.8c10.5-9,13.7-23.9,13.7-40.7
		c0-20.8-8.6-34.2-15.7-40.9c-15-14.4-33.7-16.3-46.4-16.3c-3.3,0-9.3,0.5-10.6,1.2c-1.5,0.7-2,1.5-2,3.3C92,193,92,207.2,92,220.1
		V240.7z M71.6,222.7c0-24.8,0-29.4-0.3-34.6c-0.3-5.6-1.6-8.2-7-9.3c-1.3-0.3-4.1-0.5-6.4-0.5c-1.8,0-2.8-0.3-2.8-1.5
		c0-1.1,1.1-1.5,3.6-1.5c8.7,0,19,0.5,23.5,0.5c5.1,0,15.4-0.5,25.1-0.5c20.4,0,47.7,0,65.5,18.6c8.1,8.5,15.8,22.1,15.8,41.5
		c0,20.6-8.7,36.3-17.8,45.6c-7.5,7.7-24.5,19.3-54.7,19.3c-5.9,0-12.6-0.5-18.8-1c-6.2-0.5-11.9-1-16-1c-1.8,0-5.4,0-9.3,0.2
		c-3.8,0-8,0.3-11.3,0.3c-2.1,0-3.3-0.5-3.3-1.7c0-0.8,0.7-1.3,2.6-1.3c2.5,0,4.4-0.3,5.9-0.7c3.3-0.7,4.1-4.2,4.7-9
		c0.8-6.9,0.8-19.8,0.8-34.8V222.7z"/>
	<path clip-path="url(#SVGID_00000035520125034219892310000010940881381385309833_)" d="M194.7,296.9c-2.6-1.1-3.1-2-3.1-5.6
		c0-9,0.6-18.8,0.8-21.4c0.1-2.5,0.6-4.3,2-4.3c1.5,0,1.6,1.5,1.6,2.8c0,2.1,0.6,5.6,1.5,8.3c3.6,12.1,13.2,16.5,23.4,16.5
		c14.7,0,21.9-10,21.9-18.6c0-8-2.5-15.5-16-26.2l-7.5-5.9c-18-14-24.2-25.5-24.2-38.7c0-18,15-30.9,37.7-30.9
		c10.6,0,17.5,1.6,21.7,2.8c1.5,0.3,2.3,0.8,2.3,2c0,2.1-0.7,6.9-0.7,19.6c0,3.6-0.5,4.9-1.8,4.9c-1.1,0-1.6-1-1.6-3
		c0-1.5-0.8-6.5-4.3-10.8c-2.4-3.1-7.2-8-17.8-8c-12.1,0-19.5,7-19.5,16.8c0,7.5,3.8,13.2,17.3,23.5l4.6,3.4
		c19.8,14.9,26.8,26.1,26.8,41.7c0,9.5-3.6,20.7-15.4,28.4c-8.2,5.2-17.3,6.7-26,6.7C209.1,301.1,201.7,300,194.7,296.9"/>
	<path clip-path="url(#SVGID_00000035520125034219892310000010940881381385309833_)" d="M277.8,191.4c-2-6-3.8-10-6-11.6
		c-1.8-1.2-5.1-1.5-6.5-1.5c-1.6,0-2.6-0.1-2.6-1.5c0-1.1,1.3-1.5,3.6-1.5c8.5,0,17.5,0.5,19,0.5c1.5,0,8.6-0.5,18.1-0.5
		c2.3,0,3.4,0.5,3.4,1.5c0,1.3-1.3,1.5-2.9,1.5c-1.3,0-2.9,0-4.1,0.7c-1.5,0.7-1.8,1.8-1.8,3.6c0,2.1,1.6,7.7,3.6,15.1
		c2.8,10.8,18,60.3,20.9,69.4h0.5l31.7-85.1c1.6-4.6,2.8-5.9,4.1-5.9c1.8,0,2.6,2.4,4.7,7.7l34,82.2h0.5c3-10.9,16-54.1,21.8-73.2
		c1.1-3.8,1.6-7.2,1.6-9.5c0-2.6-1.5-4.9-7.9-4.9c-1.6,0-2.8-0.5-2.8-1.5c0-1.1,1.3-1.5,3.7-1.5c8.7,0,15.5,0.5,17,0.5
		c1.1,0,8.2-0.5,13.5-0.5c1.8,0,3,0.3,3,1.3c0,1.1-0.8,1.6-2.3,1.6c-1.6,0-3.9,0.2-5.7,0.8c-3.9,1.5-5.7,8-9.2,17.3
		c-7.5,20.6-24.7,72.5-32.7,97c-1.8,5.7-2.6,7.7-4.7,7.7c-1.6,0-2.6-1.9-5.1-8l-34-81.9h-0.3c-3.1,8.3-24.8,66.2-31.8,81.2
		c-3.1,6.7-4,8.6-5.9,8.6c-1.7,0-2.3-1.8-3.8-6L277.8,191.4z"/>
	<path clip-path="url(#SVGID_00000035520125034219892310000010940881381385309833_)" d="M434.8,316.3c1,0,2.6,0.2,2.6-1.3
		c0-1.1-1-1.2-1.9-1.2h-2.1v2.5H434.8z M438.2,320.3h-1l-2.1-3.3h-1.6v3.3h-0.9v-7.2h3.1c0.6,0,1.2,0,1.7,0.4
		c0.5,0.3,0.8,0.9,0.8,1.5c0,1.4-1,1.9-2.3,2L438.2,320.3z M440.6,316.7c0-3.1-2.5-5.6-5.6-5.6c-3.1,0-5.7,2.5-5.7,5.6
		c0,3.1,2.5,5.7,5.7,5.7C438.1,322.3,440.6,319.8,440.6,316.7 M428.5,316.7c0-3.5,2.9-6.4,6.4-6.4c3.5,0,6.4,2.9,6.4,6.4
		c0,3.6-2.9,6.4-6.4,6.4C431.4,323.1,428.5,320.2,428.5,316.7"/>
	<path clip-path="url(#SVGID_00000035520125034219892310000010940881381385309833_)" d="M64.3,329h0.9c5.3,0,9.8-2,9.8-8
		c0-6-4.5-8-9.8-8h-0.9V329z M61.7,310.7H66c6.3,0,11.6,3.3,11.6,10.2c0,7-5.1,10.4-11.7,10.4h-4.2V310.7z"/>
</g>
<polygon points="80,310.7 91.1,310.7 91.1,313.1 82.6,313.1 82.6,318.8 90.8,318.8 90.8,321.2 82.6,321.2 82.6,329 91.1,329 
	91.1,331.4 80,331.4 "/>
<g>
	<defs>
		<rect id="SVGID_00000181057304775066611540000015386136343786134445_" x="-54.5" y="124.8" width="612" height="256.5"/>
	</defs>
	<clipPath id="SVGID_00000071562008884303084170000014630066912854261183_">
		<use xlink:href="#SVGID_00000181057304775066611540000015386136343786134445_"  overflow="visible"/>
	</clipPath>
	<path clip-path="url(#SVGID_00000071562008884303084170000014630066912854261183_)" d="M102.8,314.6c-0.8-1.3-1.8-1.9-3.3-1.9
		c-1.6,0-3.5,1.1-3.5,2.9c0,1.6,1.6,2.5,2.9,3l1.5,0.6c2.9,1.1,5.1,2.8,5.1,6.2c0,3.8-2.9,6.4-6.6,6.4c-3.3,0-5.9-2.5-6.4-5.8
		l2.6-0.5c0,2.3,1.8,3.9,4,3.9c2.2,0,3.8-1.9,3.8-4c0-2.2-1.8-3.2-3.6-3.9l-1.4-0.6c-2.4-1-4.5-2.4-4.5-5.2c0-3.3,3-5.3,6.1-5.3
		c2.3,0,4.2,1.1,5.3,3.1L102.8,314.6z"/>
</g>
<rect x="108.1" y="310.7" width="2.6" height="20.7"/>
<g>
	<defs>
		<rect id="SVGID_00000083047108175739587690000005619694364874462655_" x="-54.5" y="124.8" width="612" height="256.5"/>
	</defs>
	<clipPath id="SVGID_00000000935807626644038200000014654367922394960061_">
		<use xlink:href="#SVGID_00000083047108175739587690000005619694364874462655_"  overflow="visible"/>
	</clipPath>
	<path clip-path="url(#SVGID_00000000935807626644038200000014654367922394960061_)" d="M133.2,321v0.8c0,5.7-4,10-9.8,10
		c-5.8,0-10.4-5-10.4-10.7c0-5.9,4.8-10.8,10.7-10.8c3.2,0,6.4,1.5,8.4,4l-1.8,1.7c-1.5-2-4-3.4-6.5-3.4c-4.6,0-8.2,3.8-8.2,8.4
		c0,4.3,3.6,8.4,8,8.4c3.2,0,6.7-2.8,6.8-6.1H125V321H133.2z"/>
</g>
<polygon points="135.9,309.7 151.4,326 151.4,310.7 154,310.7 154,332.2 138.5,316 138.5,331.4 135.9,331.4 "/>
<polygon points="156.9,310.7 168,310.7 168,313.1 159.5,313.1 159.5,318.8 167.8,318.8 167.8,321.2 159.5,321.2 159.5,329 168,329 
	168,331.4 156.9,331.4 "/>
<g>
	<defs>
		<rect id="SVGID_00000066516781108763436770000001722734301732731528_" x="-54.5" y="124.8" width="612" height="256.5"/>
	</defs>
	<clipPath id="SVGID_00000180338392937007034590000004435690547982074282_">
		<use xlink:href="#SVGID_00000066516781108763436770000001722734301732731528_"  overflow="visible"/>
	</clipPath>
	<path clip-path="url(#SVGID_00000180338392937007034590000004435690547982074282_)" d="M173.4,320.5h0.8c2.6,0,5.5-0.5,5.5-3.8
		c0-3.2-3.1-3.7-5.6-3.7h-0.7V320.5z M183.6,331.4h-3.1l-6.1-8.7h-1.1v8.7h-2.6v-20.7h3.1c1.8,0,3.8,0,5.5,1c1.7,1,2.7,3,2.7,4.9
		c0,3-2,5.4-5,5.8L183.6,331.4z"/>
	<path clip-path="url(#SVGID_00000180338392937007034590000004435690547982074282_)" d="M201.4,314.6c-0.8-1.3-1.8-1.9-3.3-1.9
		c-1.6,0-3.5,1.1-3.5,2.9c0,1.6,1.6,2.5,2.9,3l1.5,0.6c2.9,1.1,5.1,2.8,5.1,6.2c0,3.8-2.9,6.4-6.6,6.4c-3.3,0-5.9-2.5-6.4-5.8
		l2.6-0.5c0,2.3,1.8,3.9,4,3.9c2.2,0,3.8-1.9,3.8-4c0-2.2-1.8-3.2-3.6-3.9l-1.4-0.6c-2.4-1-4.5-2.4-4.5-5.2c0-3.3,3-5.3,6.1-5.3
		c2.3,0,4.2,1.1,5.3,3.1L201.4,314.6z"/>
</g>
<polygon points="219,319 219,310.7 221.5,310.7 221.5,331.4 219,331.4 219,321.4 209.1,321.4 209.1,331.4 206.6,331.4 206.6,310.7 
	209.1,310.7 209.1,319 "/>
<g>
	<defs>
		<rect id="SVGID_00000108275251074660359120000014526140890524581001_" x="-54.5" y="124.8" width="612" height="256.5"/>
	</defs>
	<clipPath id="SVGID_00000060719306146845508720000005766495678547369913_">
		<use xlink:href="#SVGID_00000108275251074660359120000014526140890524581001_"  overflow="visible"/>
	</clipPath>
	<path clip-path="url(#SVGID_00000060719306146845508720000005766495678547369913_)" d="M242.7,321c0-4.5-3.4-8.3-8.2-8.3
		c-4.9,0-8.2,3.8-8.2,8.3c0,4.7,3.8,8.4,8.2,8.4C239,329.4,242.7,325.7,242.7,321 M245.3,321c0,6.1-4.8,10.8-10.8,10.8
		c-6,0-10.8-4.6-10.8-10.8c0-5.9,4.9-10.8,10.8-10.8C240.4,310.3,245.3,315.1,245.3,321"/>
</g>
<polygon points="247.7,310.7 258.7,310.7 258.7,313.1 250.2,313.1 250.2,318.8 258.5,318.8 258.5,321.2 250.2,321.2 250.2,329 
	258.7,329 258.7,331.4 247.7,331.4 "/>
<polygon points="274.7,325.5 280.6,310.3 286.4,325.5 292.2,310.7 295,310.7 286.4,332.2 280.6,317 274.7,332.2 266.2,310.7 
	269,310.7 "/>
<path d="M300.3,315.5l-3.7,8.4h7.3L300.3,315.5z M295.5,326.2l-2.4,5.2h-2.8l9.9-21.5l9.9,21.5h-2.8l-2.4-5.2H295.5z"/>
<g>
	<defs>
		<rect id="SVGID_00000089549777574545134080000014145492556048414098_" x="-54.5" y="124.8" width="612" height="256.5"/>
	</defs>
	<clipPath id="SVGID_00000154427216212737761010000010661755880373726091_">
		<use xlink:href="#SVGID_00000089549777574545134080000014145492556048414098_"  overflow="visible"/>
	</clipPath>
	<path clip-path="url(#SVGID_00000154427216212737761010000010661755880373726091_)" d="M314.4,320.5h0.8c2.6,0,5.5-0.5,5.5-3.8
		c0-3.2-3.1-3.7-5.6-3.7h-0.7V320.5z M324.7,331.4h-3.1l-6.1-8.7h-1.1v8.7h-2.6v-20.7h3.1c1.8,0,3.8,0,5.5,1c1.7,1,2.7,3,2.7,4.9
		c0,3-2,5.4-5,5.8L324.7,331.4z"/>
</g>
<polygon points="326.3,310.7 337.4,310.7 337.4,313.1 328.9,313.1 328.9,318.8 337.2,318.8 337.2,321.2 328.9,321.2 328.9,329 
	337.4,329 337.4,331.4 326.3,331.4 "/>
<polygon points="352.1,319 352.1,310.7 354.7,310.7 354.7,331.4 352.1,331.4 352.1,321.4 342.3,321.4 342.3,331.4 339.7,331.4 
	339.7,310.7 342.3,310.7 342.3,319 "/>
<g>
	<defs>
		<rect id="SVGID_00000151504355055927310450000016455509057740423834_" x="-54.5" y="124.8" width="612" height="256.5"/>
	</defs>
	<clipPath id="SVGID_00000086675291339168409000000003123092241473187247_">
		<use xlink:href="#SVGID_00000151504355055927310450000016455509057740423834_"  overflow="visible"/>
	</clipPath>
	<path clip-path="url(#SVGID_00000086675291339168409000000003123092241473187247_)" d="M375.9,321c0-4.5-3.4-8.3-8.2-8.3
		c-4.8,0-8.2,3.8-8.2,8.3c0,4.7,3.8,8.4,8.2,8.4C372.1,329.4,375.9,325.7,375.9,321 M378.4,321c0,6.1-4.8,10.8-10.8,10.8
		c-6,0-10.8-4.6-10.8-10.8c0-5.9,4.9-10.8,10.8-10.8C373.5,310.3,378.4,315.1,378.4,321"/>
	<path clip-path="url(#SVGID_00000086675291339168409000000003123092241473187247_)" d="M383,310.7v12.2c0,3.4,1,6.5,5,6.5
		c4,0,5-3.1,5-6.5v-12.2h2.6v13.1c0,4.5-2.8,8-7.6,8c-4.7,0-7.6-3.5-7.6-8v-13.1H383z"/>
	<path clip-path="url(#SVGID_00000086675291339168409000000003123092241473187247_)" d="M408.1,314.6c-0.8-1.3-1.7-1.9-3.3-1.9
		c-1.6,0-3.5,1.1-3.5,2.9c0,1.6,1.6,2.5,2.9,3l1.5,0.6c2.9,1.1,5.1,2.8,5.1,6.2c0,3.8-2.9,6.4-6.6,6.4c-3.3,0-5.9-2.5-6.4-5.8
		l2.6-0.5c0,2.3,1.8,3.9,4,3.9c2.2,0,3.8-1.9,3.8-4c0-2.2-1.8-3.2-3.6-3.9l-1.4-0.6c-2.4-1-4.5-2.4-4.5-5.2c0-3.3,3-5.3,6.1-5.3
		c2.3,0,4.2,1.1,5.3,3.1L408.1,314.6z"/>
</g>
<polygon points="414.1,310.7 425.2,310.7 425.2,313.1 416.7,313.1 416.7,318.8 424.9,318.8 424.9,321.2 416.7,321.2 416.7,329 
	425.2,329 425.2,331.4 414.1,331.4 "/>
</svg>
