<svg xmlns="http://www.w3.org/2000/svg" viewBox="0 0 497.27 497.27"><defs><style>.a{fill:none;}.b{fill:#415364;}.c{fill:#7564a0;}</style></defs><rect class="a" x="-70.35" y="104.9" width="612" height="279"/><path class="b" d="M137.19,299.69a12.12,12.12,0,0,0,6.51,1.56,12.71,12.71,0,0,0,6.7-1.6,11.36,11.36,0,0,0,4.07-4.11,17.22,17.22,0,0,0,2-5.65,35.89,35.89,0,0,0,.56-6.23,33.46,33.46,0,0,0-.56-6.08,16.05,16.05,0,0,0-2-5.41,10.85,10.85,0,0,0-4-3.87,15.15,15.15,0,0,0-13,0,11.7,11.7,0,0,0-4.13,3.89,16.63,16.63,0,0,0-2.19,5.41,28.15,28.15,0,0,0-.66,6.07,34.83,34.83,0,0,0,.57,6.21,16.26,16.26,0,0,0,2.08,5.65A12.38,12.38,0,0,0,137.19,299.69Zm-11.8,1.95a22.22,22.22,0,0,1-4.12-8.09,35.48,35.48,0,0,1-1.3-9.69,30.54,30.54,0,0,1,1.51-9.67,23,23,0,0,1,4.54-8,22,22,0,0,1,7.54-5.45,25.59,25.59,0,0,1,10.57-2,26.17,26.17,0,0,1,10.85,2,20.1,20.1,0,0,1,7.26,5.44,21.81,21.81,0,0,1,4.1,7.9,34.12,34.12,0,0,1,1.29,9.47,35.75,35.75,0,0,1-1.29,9.63,22.43,22.43,0,0,1-4.16,8.17,20.6,20.6,0,0,1-7.43,5.69,25.9,25.9,0,0,1-11.05,2.13,26.53,26.53,0,0,1-11-2A19.85,19.85,0,0,1,125.39,301.64Z"/><path class="b" d="M47.47,237.16a8.62,8.62,0,0,0-5.38-1.51,20.1,20.1,0,0,0-2.61.16v27.81a17.12,17.12,0,0,0-4.77-3.06,21.82,21.82,0,0,0-8.65-1.6,23.55,23.55,0,0,0-7.7,1.24,19.09,19.09,0,0,0-7,4.54,22.2,22.2,0,0,0-4.83,8.08,34.54,34.54,0,0,0-1.76,11.65A34.16,34.16,0,0,0,6.43,296a20.1,20.1,0,0,0,4.63,7.6,17.35,17.35,0,0,0,7.08,4.28,24.19,24.19,0,0,0,7.61,1.16,20.14,20.14,0,0,0,5.39-.66,25.61,25.61,0,0,0,4-1.47A15.34,15.34,0,0,0,38,305.15c.68-.53,1.3-1.06,1.89-1.61a5,5,0,0,0,1.77,2.75A8.61,8.61,0,0,0,47,307.81a20.1,20.1,0,0,0,2.61-.16V243.26C49.65,239.76,48.69,238.09,47.47,237.16ZM36.39,299.39a15,15,0,0,1-3.5,1.39,16.55,16.55,0,0,1-4.39.55A13.52,13.52,0,0,1,22.24,300a10.53,10.53,0,0,1-4.06-3.72A15.45,15.45,0,0,1,16,290.7a39,39,0,0,1-.63-7.19q0-8.25,3.36-12.52a11.19,11.19,0,0,1,9.33-4.26,16,16,0,0,1,4.08.48,16.72,16.72,0,0,1,3.19,1.18,13.15,13.15,0,0,1,2.29,1.49c.56.43,1.23,1,1.83,1.6v23.31a4.54,4.54,0,0,1-.72,2.43A6.44,6.44,0,0,1,36.39,299.39Z"/><path class="b" d="M306.83,307.65H296.65v-48a16.27,16.27,0,0,1,2-.1,10.13,10.13,0,0,1,4.85,1.16,5.22,5.22,0,0,1,2.63,4,22.7,22.7,0,0,1,6.68-4.2,24.76,24.76,0,0,1,10-1.85q7.26,0,11.1,3.07a14,14,0,0,1,5,7.67,21.51,21.51,0,0,1,.64,4.56c.07,1.67.11,3.29.11,4.86v28.78H329.49v-28c0-1.29,0-2.52-.05-3.71a11.5,11.5,0,0,0-.56-3.29A6.69,6.69,0,0,0,326,268.6c-1.47-1-3.66-1.42-6.54-1.42q-5.75,0-9.16,2.28c-2.28,1.52-3.43,3.16-3.43,4.92Z"/><path class="b" d="M229.78,271.67a20.38,20.38,0,0,0-4.53-7.5A17,17,0,0,0,218.7,260a23.85,23.85,0,0,0-7.88-1.29,22.21,22.21,0,0,0-8.88,1.6,20.3,20.3,0,0,0-5.37,3.44V242.7c0-2.4-1.14-4.81-2.81-5.79a9.72,9.72,0,0,0-5.37-1.26,14.91,14.91,0,0,0-2,.14v71.86a20.1,20.1,0,0,0,2.61.16,8.59,8.59,0,0,0,5.38-1.52,5,5,0,0,0,1.74-2.66,14.84,14.84,0,0,0,1.44,1.48,14.42,14.42,0,0,0,2.81,1.89,21.54,21.54,0,0,0,4,1.51,20.88,20.88,0,0,0,5.5.64,24.76,24.76,0,0,0,7.51-1.22,18,18,0,0,0,7-4.17,21.63,21.63,0,0,0,5.1-8,35.42,35.42,0,0,0,2-12.72A33.44,33.44,0,0,0,229.78,271.67Zm-12.29,24.86q-3.17,4.56-9.55,4.56a13.81,13.81,0,0,1-3.81-.51,19.79,19.79,0,0,1-3.2-1.22,12.09,12.09,0,0,1-2.38-1.55,24.34,24.34,0,0,1-2-1.86V273.66a6,6,0,0,1,3-5.12c2-1.37,4.7-2,8.09-2a13.21,13.21,0,0,1,6.19,1.32,10.61,10.61,0,0,1,4,3.57,15.49,15.49,0,0,1,2.15,5.39,32.41,32.41,0,0,1,.66,6.68Q220.65,292,217.49,296.53Z"/><path class="b" d="M281.21,268.83A12.4,12.4,0,0,0,278,263.2a14.24,14.24,0,0,0-6-3.37,32.56,32.56,0,0,0-9.22-1.12,42.6,42.6,0,0,0-6.94.56,36,36,0,0,0-6.11,1.5,18.38,18.38,0,0,0-4.35,2.1,3.26,3.26,0,0,0-1.7,2.49,7.73,7.73,0,0,0,.56,2.4,22,22,0,0,0,2,3.69,30.87,30.87,0,0,1,6.71-3.47,25.11,25.11,0,0,1,8.55-1.37c4.48,0,7.09.82,8.62,2.43s2.14,3.77,2.14,6.44v1.58c-.65-.05-1.4-.08-2.25-.08s-1.61,0-2.3,0a72.32,72.32,0,0,0-8.65.83,32.42,32.42,0,0,0-8.85,2.63,19.84,19.84,0,0,0-6.91,5.25,13.23,13.23,0,0,0-2.78,8.48,15.81,15.81,0,0,0,1.46,7.06,13.22,13.22,0,0,0,3.83,4.47A14.53,14.53,0,0,0,251,308a26.76,26.76,0,0,0,5.7.63,21.43,21.43,0,0,0,15.86-5.86,5.28,5.28,0,0,0,1.92,3.55,8.29,8.29,0,0,0,5.2,1.47,20.56,20.56,0,0,0,2.52-.15v-31A29.09,29.09,0,0,0,281.21,268.83Zm-8.89,25.22a3.76,3.76,0,0,1-1.05,2.38,11,11,0,0,1-2.88,2.31,19.41,19.41,0,0,1-4.19,1.76,17.07,17.07,0,0,1-5,.71q-5,0-6.88-2.26a8,8,0,0,1-1.88-5.27,7,7,0,0,1,2.38-5.54A12.35,12.35,0,0,1,257,285.5a23.57,23.57,0,0,1,5.63-1.34,58.52,58.52,0,0,1,6.7-.46h3Z"/><path class="b" d="M354.15,307.65V235.78c.83-.07,1.49-.12,2-.13a9.19,9.19,0,0,1,5,1.18c1.85,1.11,3.09,2.59,3.09,5.94v64.88Zm22.48-27,19.89-19.15a15.12,15.12,0,0,0-1.72-1.1,10.93,10.93,0,0,0-2-.78,8.37,8.37,0,0,0-2.38-.31,9.59,9.59,0,0,0-6.77,2.72l-19,18.84,19.48,22.86a12.44,12.44,0,0,0,4.38,3.54,11.67,11.67,0,0,0,4.88,1.1,16.9,16.9,0,0,0,6.17-1.16Z"/><path class="c" d="M490.29,188.11a11.93,11.93,0,0,0-4.39-4.39L437.9,156a12,12,0,0,0-12,0l-4,2.31,54,31.18a12,12,0,0,1,6,10.39V251.3l-10-5.77V205.66a12,12,0,0,0-6-10.4l-48-27.71a12,12,0,0,0-12,0l-4,2.31,54,31.79c1.77,1,3.3,1.89,4.39,3.78a11.88,11.88,0,0,1,1.61,6v28.33l-20-11.55V212a12,12,0,0,0-6-10.39l-4-2.31V234l30,17.32v11.55l-40-23.09V200.5a12,12,0,0,0-6-10.4l-4-2.31v57.74l50,28.87,10-5.78V257.08l10,5.77,10-5.77v-63A11.88,11.88,0,0,0,490.29,188.11Z"/><path class="b" d="M106.9,307.65V267.08q0-4.32-2.21-6a9.25,9.25,0,0,0-5.79-1.7c-.4,0-1.12,0-2.15.11v34.06a4.06,4.06,0,0,1-.9,2.28,10.37,10.37,0,0,1-2.52,2.39,15.65,15.65,0,0,1-8.86,2.64,18.26,18.26,0,0,1-4.08-.41,8.87,8.87,0,0,1-3.27-1.52,5.84,5.84,0,0,1-2.27-3.55,28.43,28.43,0,0,1-.55-6.29v-22q0-4.32-2.21-6a9.25,9.25,0,0,0-5.79-1.7c-.4,0-1.12,0-2.15.11v30.29q0,3.15.32,6.55a15,15,0,0,0,2,6.24,12.47,12.47,0,0,0,5.07,4.67C73.78,308.43,77,309,81.1,309A23.17,23.17,0,0,0,91,307.21a19.36,19.36,0,0,0,6-4.2h0a5.33,5.33,0,0,0,1.9,3.27,8.55,8.55,0,0,0,5.37,1.52,20,20,0,0,0,2.6-.16Z"/><polyline class="b" points="409.02 296.88 409.02 295.54 417.1 295.54 417.1 296.88 413.82 296.88 413.82 307.65 412.3 307.65 412.3 296.88 409.02 296.88"/><polyline class="b" points="424.07 305.54 420.88 295.54 418.44 295.54 418.44 307.65 419.96 307.65 419.96 297.56 420.12 297.56 423.32 307.65 424.83 307.65 428.03 297.56 428.2 297.56 428.2 307.65 429.71 307.65 429.71 295.54 427.27 295.54 424.07 305.54"/></svg>