<?xml version="1.0" encoding="utf-8"?>
<!-- Generator: Adobe Illustrator 25.4.1, SVG Export Plug-In . SVG Version: 6.00 Build 0)  -->
<svg version="1.1" id="Layer_1" xmlns="http://www.w3.org/2000/svg" xmlns:xlink="http://www.w3.org/1999/xlink" x="0px" y="0px"
	 viewBox="0 0 324 216" style="enable-background:new 0 0 324 216;" xml:space="preserve">
<style type="text/css">
	.st0{fill:#002169;}
</style>
<g>
	<g>
		<path class="st0" d="M213.1,159.2H110.9V33.6h102.2V159.2z M160.9,120.4h-3.4c-1.1,7.4-2.7,12.3-5.1,16
			c-3.7-4.2-9.4-10.7-14.5-16.6v-0.2c8.4-4.2,11.6-8.3,11.6-13.6c0-5.9-4-9.7-9.2-9.9h17.2v-9.2h-19.4v-11h19.4v-9.3h-19.4v-11h19.4
			v-9.2H127v49.7h12.8c-7,0.2-10.9,5.8-10.9,11.7c0,3.5,1.5,7.1,4.3,10.8v0.2c-5.6,3.2-9.9,7.7-9.9,14.7c0,7.7,5.9,13.9,14,13.9
			c5.2,0,10.1-1.6,15.1-6.5c2.4,2.4,3.8,4.1,5.5,5.7h4.4c-2.9-3.1-5.4-5.6-7.9-8.2C157.7,134.4,159.6,128.3,160.9,120.4z
			 M136.2,117.5c5.9-3.1,10-6.2,10-11.2c0-3.5-2-7.4-6.7-7.4h-0.1c-4.7,0-7.3,4.1-7.3,8.6C132.2,111.7,134.3,114.8,136.2,117.5z
			 M150.5,138.9c-2.9-3.4-9.3-10.4-15.6-17.8c-3.2,1.9-8,5.6-8,12.1c0,6.6,4.8,11.4,11.3,11.4h0.1
			C143.3,144.6,147.6,142.2,150.5,138.9z M189,138.1c-10,0-15.9-6.3-15.9-16.2c0-11.1,6.9-16.4,15.9-16.4c4,0,7.2,0.9,9.4,1.8
			l2.3-8.9c-1.9-1-6.1-2.1-11.7-2.2h11.2c-1-1.9-2.5-8.4-4.1-14c-1.3-4.6-3.2-7.9-6.6-9.3v-0.2c4.3-1.5,8.8-5.9,8.8-12.2
			c0-4.6-1.6-8-4.6-10.4c-3.5-2.8-8.7-3.9-16.1-3.9c-6,0-11.4,0.4-15,1v49h11.1V76.6h3.4c4.6,0.1,6.7,1.8,8,8
			c1.5,6.1,2.7,10.1,3.5,11.6c-0.1,0-0.2,0-0.3,0c-15,0-27.1,9.4-27.1,26.4c0,14.2,8.8,24.9,26,24.9c6,0,10.7-1.2,12.8-2.2l-1.7-8.8
			C196.1,137.3,192.4,138.1,189,138.1z M187.1,61.3c0-4.6-3.1-6.9-8.3-6.9c-2.7,0-4.3,0.2-5.1,0.4v13.7h4.4
			C183.8,68.5,187.1,65.7,187.1,61.3z"/>
		<rect x="110.9" y="13.8" class="st0" width="102.2" height="13.5"/>
	</g>
	<g>
		<path class="st0" d="M42.4,188.4c0.2,2.3,2.4,3.3,5,3.3c1.9,0,3.4-0.3,4.9-0.7l0.7,3.7c-1.8,0.7-4,1.1-6.4,1.1c-6,0-9.4-3.5-9.4-9
			c0-4.5,2.8-9.4,8.9-9.4c5.7,0,7.8,4.4,7.8,8.8c0,0.9-0.1,1.8-0.2,2.2H42.4z M48.9,184.6c0-1.3-0.6-3.6-3.1-3.6
			c-2.3,0-3.2,2.1-3.4,3.6H48.9z"/>
		<path class="st0" d="M56.3,169.9h5.5v25.6h-5.5V169.9z"/>
		<path class="st0" d="M71,172.9c0,1.5-1.2,2.7-3,2.7c-1.7,0-2.9-1.2-2.8-2.7c0-1.6,1.1-2.8,2.9-2.8C69.8,170.2,70.9,171.3,71,172.9
			z M65.3,195.4v-17.6h5.5v17.6H65.3z"/>
		<path class="st0" d="M80.4,173v4.8h3.9v4h-3.9v6.4c0,2.1,0.5,3.1,2.2,3.1c0.8,0,1.1,0,1.6-0.1l0,4.1c-0.7,0.3-2,0.5-3.6,0.5
			c-1.8,0-3.2-0.6-4.1-1.5c-1-1-1.5-2.7-1.5-5.2v-7.2h-2.3v-4H75v-3.3L80.4,173z"/>
		<path class="st0" d="M90.6,188.4c0.2,2.3,2.4,3.3,5,3.3c1.9,0,3.4-0.3,4.9-0.7l0.7,3.7c-1.8,0.7-4,1.1-6.4,1.1c-6,0-9.4-3.5-9.4-9
			c0-4.5,2.8-9.4,8.9-9.4c5.7,0,7.8,4.4,7.8,8.8c0,0.9-0.1,1.8-0.2,2.2H90.6z M97.1,184.6c0-1.3-0.6-3.6-3.1-3.6
			c-2.3,0-3.2,2.1-3.4,3.6H97.1z"/>
		<path class="st0" d="M104.5,183.6c0-2.6-0.1-4.3-0.1-5.8h4.7l0.2,3.2h0.1c0.9-2.6,3.1-3.6,4.8-3.6c0.5,0,0.8,0,1.2,0.1v5.2
			c-0.4-0.1-0.9-0.2-1.5-0.2c-2,0-3.4,1.1-3.7,2.8c-0.1,0.4-0.1,0.8-0.1,1.2v8.9h-5.5V183.6z"/>
		<path class="st0" d="M134.4,186.4c0,6.4-4.6,9.4-9.3,9.4c-5.1,0-9.1-3.4-9.1-9.1s3.7-9.3,9.4-9.3
			C130.8,177.4,134.4,181.1,134.4,186.4z M121.7,186.6c0,3,1.3,5.3,3.6,5.3c2.1,0,3.5-2.1,3.5-5.3c0-2.6-1-5.3-3.5-5.3
			C122.6,181.3,121.7,184,121.7,186.6z"/>
		<path class="st0" d="M154.4,186.4c0,6.4-4.6,9.4-9.3,9.4c-5.1,0-9.1-3.4-9.1-9.1s3.7-9.3,9.4-9.3
			C150.8,177.4,154.4,181.1,154.4,186.4z M141.6,186.6c0,3,1.3,5.3,3.6,5.3c2.1,0,3.5-2.1,3.5-5.3c0-2.6-1-5.3-3.5-5.3
			C142.6,181.3,141.6,184,141.6,186.6z"/>
		<path class="st0" d="M157.5,195.4v-13.6h-2.3v-4h2.3v-0.8c0-4.9,3.8-7.6,9.2-7.6c1.9,0,4.1,0.4,5.2,1.1l-1,4.1
			c-0.9-0.5-2.3-0.9-4-0.9c-2.9,0-3.9,1.5-3.9,3.4v0.6h10.7v17.6h-5.5v-13.6H163v13.6H157.5z"/>
		<path class="st0" d="M177.1,183.4c0-2.2-0.1-4.1-0.1-5.6h4.8l0.3,2.4h0.1c0.7-1.1,2.5-2.8,5.4-2.8c3.6,0,6.3,2.4,6.3,7.6v10.4
			h-5.5v-9.8c0-2.3-0.8-3.8-2.8-3.8c-1.5,0-2.4,1-2.8,2.1c-0.1,0.4-0.2,0.9-0.2,1.4v10.2h-5.5V183.4z"/>
		<path class="st0" d="M214,192.9c0,3.4-0.7,6.2-2.7,7.9c-1.9,1.7-4.6,2.2-7.2,2.2c-2.3,0-4.8-0.5-6.3-1.4l1.1-4.1
			c1.1,0.6,3.1,1.3,5.1,1.3c2.6,0,4.6-1.4,4.6-4.6V193h-0.1c-1,1.5-2.7,2.3-4.8,2.3c-4.4,0-7.5-3.5-7.5-8.6c0-5.7,3.7-9.3,8-9.3
			c2.4,0,3.9,1,4.8,2.5h0.1l0.2-2.1h4.8c-0.1,1.1-0.1,2.6-0.1,5.2V192.9z M208.5,185c0-0.4,0-0.7-0.1-1c-0.4-1.4-1.4-2.4-3-2.4
			c-2,0-3.6,1.8-3.6,5c0,2.6,1.3,4.7,3.6,4.7c1.4,0,2.5-0.9,2.9-2.2c0.1-0.4,0.2-1,0.2-1.4V185z"/>
		<path class="st0" d="M219.7,195.8c-1.8,0-3.2-1.4-3.2-3.3c0-1.9,1.3-3.3,3.2-3.3c1.9,0,3.2,1.4,3.2,3.3
			C222.9,194.4,221.6,195.8,219.7,195.8L219.7,195.8z"/>
		<path class="st0" d="M238.6,195c-1,0.4-2.8,0.8-4.9,0.8c-5.7,0-9.3-3.5-9.3-9c0-5.1,3.5-9.4,10.1-9.4c1.4,0,3,0.3,4.2,0.7
			l-0.9,4.1c-0.6-0.3-1.6-0.5-3.1-0.5c-2.9,0-4.8,2.1-4.7,4.9c0,3.2,2.2,4.9,4.8,4.9c1.3,0,2.3-0.2,3.1-0.6L238.6,195z"/>
		<path class="st0" d="M257.7,186.4c0,6.4-4.6,9.4-9.3,9.4c-5.1,0-9.1-3.4-9.1-9.1s3.7-9.3,9.4-9.3
			C254.1,177.4,257.7,181.1,257.7,186.4z M244.9,186.6c0,3,1.3,5.3,3.6,5.3c2.1,0,3.5-2.1,3.5-5.3c0-2.6-1-5.3-3.5-5.3
			C245.9,181.3,244.9,184,244.9,186.6z"/>
		<path class="st0" d="M260.2,183.4c0-2.2-0.1-4.1-0.1-5.6h4.6l0.3,2.4h0.1c0.8-1.1,2.3-2.8,5.3-2.8c2.3,0,4.1,1.2,4.8,3h0.1
			c0.6-0.9,1.4-1.6,2.3-2.1c1-0.6,2.1-0.9,3.3-0.9c3.4,0,5.9,2.4,5.9,7.6v10.4h-5.3v-9.6c0-2.6-0.8-4-2.6-4c-1.3,0-2.2,0.9-2.5,1.9
			c-0.1,0.4-0.2,1-0.2,1.4v10.3h-5.3v-9.9c0-2.2-0.8-3.7-2.5-3.7c-1.4,0-2.2,1.1-2.6,2c-0.2,0.4-0.2,0.9-0.2,1.4v10.3h-5.3V183.4z"
			/>
	</g>
</g>
</svg>
