<?xml version="1.0" encoding="utf-8"?>
<!-- Generator: Adobe Illustrator 25.4.1, SVG Export Plug-In . SVG Version: 6.00 Build 0)  -->
<svg version="1.1" id="Layer_1" xmlns="http://www.w3.org/2000/svg" xmlns:xlink="http://www.w3.org/1999/xlink" x="0px" y="0px"
	 viewBox="0 0 258.5 258.5" enable-background="new 0 0 258.5 258.5" xml:space="preserve">
<g>
	<g>
		<path fill="#002169" d="M180.1,180.5H77.9V54.9h102.2V180.5z M127.9,141.6h-3.4c-1.1,7.4-2.7,12.3-5.1,16
			c-3.7-4.2-9.4-10.7-14.5-16.6v-0.2c8.4-4.2,11.6-8.3,11.6-13.6c0-5.9-4-9.7-9.2-9.9h17.2v-9.2h-19.4v-11h19.4v-9.3h-19.4v-11h19.4
			v-9.2H94v49.7h12.8c-7,0.2-10.9,5.8-10.9,11.7c0,3.5,1.5,7.1,4.3,10.8v0.2c-5.6,3.2-9.9,7.7-9.9,14.7c0,7.7,5.9,13.9,14,13.9
			c5.2,0,10.1-1.6,15.1-6.5c2.4,2.4,3.8,4.1,5.5,5.7h4.4c-2.9-3.1-5.4-5.6-7.9-8.2C124.7,155.6,126.6,149.6,127.9,141.6z
			 M103.2,138.7c5.9-3.1,10-6.2,10-11.2c0-3.5-2-7.4-6.7-7.4h-0.1c-4.7,0-7.3,4.1-7.3,8.6C99.2,132.9,101.3,136,103.2,138.7z
			 M117.5,160.1c-2.9-3.4-9.3-10.4-15.6-17.8c-3.2,1.9-8,5.6-8,12.1c0,6.6,4.8,11.4,11.3,11.4h0.1
			C110.3,165.8,114.6,163.4,117.5,160.1z M156,159.3c-10,0-15.9-6.3-15.9-16.2c0-11.1,6.9-16.4,15.9-16.4c4,0,7.2,0.9,9.4,1.8
			l2.3-8.9c-1.9-1-6.1-2.1-11.7-2.2h11.2c-1-1.9-2.5-8.4-4.1-14c-1.3-4.6-3.2-7.9-6.6-9.3v-0.2c4.3-1.5,8.8-5.9,8.8-12.2
			c0-4.6-1.6-8-4.6-10.4c-3.5-2.8-8.7-3.9-16.1-3.9c-6,0-11.4,0.4-15,1v49h11.1V97.8h3.4c4.6,0.1,6.7,1.8,8,8
			c1.5,6.1,2.7,10.1,3.5,11.6c-0.1,0-0.2,0-0.3,0c-15,0-27.1,9.4-27.1,26.4c0,14.2,8.8,24.9,26,24.9c6,0,10.7-1.2,12.8-2.2l-1.7-8.8
			C163.1,158.6,159.4,159.3,156,159.3z M154.1,82.6c0-4.6-3.1-6.9-8.3-6.9c-2.7,0-4.3,0.2-5.1,0.4v13.7h4.4
			C150.8,89.7,154.1,86.9,154.1,82.6z"/>
		<rect x="77.9" y="35" fill="#002169" width="102.2" height="13.5"/>
	</g>
	<g>
		<path fill="#002169" d="M9.4,209.6c0.2,2.3,2.4,3.3,5,3.3c1.9,0,3.4-0.3,4.9-0.7l0.7,3.7c-1.8,0.7-4,1.1-6.4,1.1
			c-6,0-9.4-3.5-9.4-9c0-4.5,2.8-9.4,8.9-9.4c5.7,0,7.8,4.4,7.8,8.8c0,0.9-0.1,1.8-0.2,2.2H9.4z M15.9,205.9c0-1.3-0.6-3.6-3.1-3.6
			c-2.3,0-3.2,2.1-3.4,3.6H15.9z"/>
		<path fill="#002169" d="M23.3,191.1h5.5v25.6h-5.5V191.1z"/>
		<path fill="#002169" d="M38,194.2c0,1.5-1.2,2.7-3,2.7c-1.7,0-2.9-1.2-2.8-2.7c0-1.6,1.1-2.8,2.9-2.8
			C36.8,191.4,37.9,192.6,38,194.2z M32.3,216.7v-17.6h5.5v17.6H32.3z"/>
		<path fill="#002169" d="M47.4,194.3v4.8h3.9v4h-3.9v6.4c0,2.1,0.5,3.1,2.2,3.1c0.8,0,1.1,0,1.6-0.1l0,4.1c-0.7,0.3-2,0.5-3.6,0.5
			c-1.8,0-3.2-0.6-4.1-1.5c-1-1-1.5-2.7-1.5-5.2v-7.2h-2.3v-4H42v-3.3L47.4,194.3z"/>
		<path fill="#002169" d="M57.6,209.6c0.2,2.3,2.4,3.3,5,3.3c1.9,0,3.4-0.3,4.9-0.7l0.7,3.7c-1.8,0.7-4,1.1-6.4,1.1
			c-6,0-9.4-3.5-9.4-9c0-4.5,2.8-9.4,8.9-9.4c5.7,0,7.8,4.4,7.8,8.8c0,0.9-0.1,1.8-0.2,2.2H57.6z M64.1,205.9c0-1.3-0.6-3.6-3.1-3.6
			c-2.3,0-3.2,2.1-3.4,3.6H64.1z"/>
		<path fill="#002169" d="M71.5,204.9c0-2.6-0.1-4.3-0.1-5.8h4.7l0.2,3.2h0.1c0.9-2.6,3.1-3.6,4.8-3.6c0.5,0,0.8,0,1.2,0.1v5.2
			c-0.4-0.1-0.9-0.2-1.5-0.2c-2,0-3.4,1.1-3.7,2.8c-0.1,0.4-0.1,0.8-0.1,1.2v8.9h-5.5V204.9z"/>
		<path fill="#002169" d="M101.4,207.7c0,6.4-4.6,9.4-9.3,9.4c-5.1,0-9.1-3.4-9.1-9.1s3.7-9.3,9.4-9.3
			C97.8,198.7,101.4,202.4,101.4,207.7z M88.7,207.8c0,3,1.3,5.3,3.6,5.3c2.1,0,3.5-2.1,3.5-5.3c0-2.6-1-5.3-3.5-5.3
			C89.6,202.6,88.7,205.3,88.7,207.8z"/>
		<path fill="#002169" d="M121.4,207.7c0,6.4-4.6,9.4-9.3,9.4c-5.1,0-9.1-3.4-9.1-9.1s3.7-9.3,9.4-9.3
			C117.8,198.7,121.4,202.4,121.4,207.7z M108.6,207.8c0,3,1.3,5.3,3.6,5.3c2.1,0,3.5-2.1,3.5-5.3c0-2.6-1-5.3-3.5-5.3
			C109.6,202.6,108.6,205.3,108.6,207.8z"/>
		<path fill="#002169" d="M124.5,216.7v-13.6h-2.3v-4h2.3v-0.8c0-4.9,3.8-7.6,9.2-7.6c1.9,0,4.1,0.4,5.2,1.1l-1,4.1
			c-0.9-0.5-2.3-0.9-4-0.9c-2.9,0-3.9,1.5-3.9,3.4v0.6h10.7v17.6h-5.5v-13.6H130v13.6H124.5z"/>
		<path fill="#002169" d="M144.1,204.7c0-2.2-0.1-4.1-0.1-5.6h4.8l0.3,2.4h0.1c0.7-1.1,2.5-2.8,5.4-2.8c3.6,0,6.3,2.4,6.3,7.6v10.4
			h-5.5v-9.8c0-2.3-0.8-3.8-2.8-3.8c-1.5,0-2.4,1-2.8,2.1c-0.1,0.4-0.2,0.9-0.2,1.4v10.2h-5.5V204.7z"/>
		<path fill="#002169" d="M181,214.1c0,3.4-0.7,6.2-2.7,7.9c-1.9,1.7-4.6,2.2-7.2,2.2c-2.3,0-4.8-0.5-6.3-1.4l1.1-4.1
			c1.1,0.6,3.1,1.3,5.1,1.3c2.6,0,4.6-1.4,4.6-4.6v-1.2h-0.1c-1,1.5-2.7,2.3-4.8,2.3c-4.4,0-7.5-3.5-7.5-8.6c0-5.7,3.7-9.3,8-9.3
			c2.4,0,3.9,1,4.8,2.5h0.1l0.2-2.1h4.8c-0.1,1.1-0.1,2.6-0.1,5.2V214.1z M175.5,206.2c0-0.4,0-0.7-0.1-1c-0.4-1.4-1.4-2.4-3-2.4
			c-2,0-3.6,1.8-3.6,5c0,2.6,1.3,4.7,3.6,4.7c1.4,0,2.5-0.9,2.9-2.2c0.1-0.4,0.2-1,0.2-1.4V206.2z"/>
		<path fill="#002169" d="M186.7,217.1c-1.8,0-3.2-1.4-3.2-3.3c0-1.9,1.3-3.3,3.2-3.3c1.9,0,3.2,1.4,3.2,3.3
			C189.9,215.7,188.6,217.1,186.7,217.1L186.7,217.1z"/>
		<path fill="#002169" d="M205.6,216.2c-1,0.4-2.8,0.8-4.9,0.8c-5.7,0-9.3-3.5-9.3-9c0-5.1,3.5-9.4,10.1-9.4c1.4,0,3,0.3,4.2,0.7
			l-0.9,4.1c-0.6-0.3-1.6-0.5-3.1-0.5c-2.9,0-4.8,2.1-4.7,4.9c0,3.2,2.2,4.9,4.8,4.9c1.3,0,2.3-0.2,3.1-0.6L205.6,216.2z"/>
		<path fill="#002169" d="M224.7,207.7c0,6.4-4.6,9.4-9.3,9.4c-5.1,0-9.1-3.4-9.1-9.1s3.7-9.3,9.4-9.3
			C221.1,198.7,224.7,202.4,224.7,207.7z M211.9,207.8c0,3,1.3,5.3,3.6,5.3c2.1,0,3.5-2.1,3.5-5.3c0-2.6-1-5.3-3.5-5.3
			C212.9,202.6,211.9,205.3,211.9,207.8z"/>
		<path fill="#002169" d="M227.2,204.7c0-2.2-0.1-4.1-0.1-5.6h4.6l0.3,2.4h0.1c0.8-1.1,2.3-2.8,5.3-2.8c2.3,0,4.1,1.2,4.8,3h0.1
			c0.6-0.9,1.4-1.6,2.3-2.1c1-0.6,2.1-0.9,3.3-0.9c3.4,0,5.9,2.4,5.9,7.6v10.4h-5.3v-9.6c0-2.6-0.8-4-2.6-4c-1.3,0-2.2,0.9-2.5,1.9
			c-0.1,0.4-0.2,1-0.2,1.4v10.3h-5.3v-9.9c0-2.2-0.8-3.7-2.5-3.7c-1.4,0-2.2,1.1-2.6,2c-0.2,0.4-0.2,0.9-0.2,1.4v10.3h-5.3V204.7z"
			/>
	</g>
</g>
</svg>
