<svg xmlns="http://www.w3.org/2000/svg" viewBox="0 0 468 198.7"><defs><style>.a{fill:none;stroke-linecap:round;stroke-width:2.02px;}.a,.g{stroke:#41312f;}.b{fill:#83c8ef;opacity:0.75;}.c{fill:#fff;}.d{fill:#403540;stroke:#403540;stroke-width:0.4px;}.d,.g{stroke-miterlimit:10;}.e{fill:#413230;}.f{fill:#f2f2f2;}.g{fill:#41312f;stroke-width:1.02px;}</style></defs><path class="a" d="M157.4,66a68.8,68.8,0,0,0-130.3.2"/><circle class="b" cx="92.3" cy="91.4" r="62.4"/><rect class="c" x="100.8" y="47" width="9.2" height="18.32"/><polygon class="c" points="110.4 155.3 131.8 142.7 142.2 129.6 145.2 125 144.9 121.6 141.7 120.3 137.5 121.4 135.9 119 132.6 118 126.4 120.3 124 118.5 120.7 120 116.3 122.1 110.4 126.9 99.9 132.4 84.8 141.3 110.4 155.3"/><path class="d" d="M125.4,120.9s-1.6-2.6-6.1.6a70.3,70.3,0,0,0-8,6.3,81,81,0,0,0-14.9,7.5,69.9,69.9,0,0,1-8.4,5.3H83.2s8.6-5.2,11.3-6.1a92.5,92.5,0,0,1,15.5-8.1s13.1-13.1,17.3-6.5Z"/><path class="d" d="M95.8,140.6s12.5-7.3,20.5-10c0,0,6.6-8.1,12.2-10.3,7.1-2.7,7.4-.1,8.1,1.2l1.9-.6s-2.6-6.3-12.1-1.4a35.6,35.6,0,0,0-10.8,9.6s-14,5.5-22.9,11.5Z"/><path class="d" d="M144.7,124.5a18.4,18.4,0,0,1-4.4,5.2h-.8c-13.9,1-17.7,9.5-17.7,9.5-4.3.8-12.1,4.7-14,5.7a15.4,15.4,0,0,0-3.6-2.7c1.4-.7,9.7-5.1,14-6.2,0,0,4-6.3,14.9-11.9S144.7,124.5,144.7,124.5Zm-88.7,6c6.7,4.2,10.7,8.9,14,10.3s5.7,1.5,21.7,1c0,0,4.7-.3,6.8.3s6,1,9,4.5a101.3,101.3,0,0,1,15.5-5.8s3.3-9.1,16.1-9.6,7.3,4.7,6.5,5.3a117.5,117.5,0,0,1-9.9,7.3c-2.9,1.8-10.8,10.4-13.6,13s-7.3,4.8-13.5,6.2-19.4,4.8-25.1,8.3-8.9,1.7-11.4.9L51,165.5c-6.3-2-9.7-3.9-19.9-6.1s-20,13.1-20,13.1c12.9-11.4,19.5-11.1,22.5-10.4s33.1,10.9,39,12.8,9.2-.3,12-1.6a110,110,0,0,1,22.5-7.9c10.2-2.4,14.1-5.5,15.9-6.7s8.4-8.5,10-9.8,13.5-11.2,14.8-11.7,4.9-7.4-5.6-7.6c.7-.8,3.5-2.7,4-5.1,0,0-.8-6-7.1-4.2s-14.3,5-21.6,14.2c0,0-9,3-15.1,6.9l-2.1-.7-1.6-.4m.2.1a32.8,32.8,0,0,0-9.5-.4c-2,.2-16.8,2.2-22.1-3.2A45.2,45.2,0,0,0,59,130a65.9,65.9,0,0,0-10.9-5.9l-2-.8a45.2,45.2,0,0,0-13-2.9H31.2A35.3,35.3,0,0,0,10.9,126"/><path class="e" d="M130.8,47.3c0-1.3-.1-2.3-2.8-1.9a35.3,35.3,0,0,1-5.6.5c-1.2-.1-3.8.5-4.6-.2s.2.5-1.9-2.4-13.6-.5-15.6,1.5-3.8,2.5-4.6,5.9-2.2,7.8-2.5,10.2.4,8.9-2.9,13.8-1.7,5.3-6.2,10-15.2,16.4-18.3,19.5-9.9,12-10.2,16.8.9,7.1-2,7-15.8-1.2-17.5-1.2-4.2-.3-4.7,1.3,1.6,2.4,4.8,3.1,16.7,2.2,18.3,2.5,2-.1,2.7,1.3a6.3,6.3,0,0,0,4.3,3.9c2.5.5,5,.4,6.9,1.2a39.5,39.5,0,0,0,9.1,1.7c2.2.1,4.9-1,5.7-.9l1.6.2a1.1,1.1,0,0,0,1.1-1.1c0-.8.2-2.5-2.9-3.6l-1.9-.6a24,24,0,0,1,2.7,0c.4.1,2.6,0,3,.3s3.7.7,4.5.7,3.1-.5,3.8-.5,1.3-1.1,1.3-2-1-2.6-1.6-2.7l-3.6-.8c-.4-.2-.9-.3-1.2-1.6a14.4,14.4,0,0,1-.1-3.5,6,6,0,0,1,1.4-2.1c.3-.4,4.5-3.8,5.4-4.5s2.5-1.3,2.4.1.6,9.6.5,10.6-.4,3.2.3,4a10,10,0,0,1,2,2.6c.4,1,2.5,4.8,2.7,5.8s.8,2.7,2.1,3.1a14.7,14.7,0,0,0,6.1.3c2.1-.4,3-.5,3.6-1a2.2,2.2,0,0,0,.1-2.7,5.8,5.8,0,0,0-1.4-1.2,12.5,12.5,0,0,1,2.4-.2l2.6.6a10.2,10.2,0,0,0,2.8-.9c.5-.3.6-2.3-.4-3.3s-3.3-1.4-3.9-1.8a3.7,3.7,0,0,1-2.9-3.2c-.5-2.8-1.4-2.1-.9-6.6s1.7-13.1,2-15-.2-4.2,1.2-7.3a98.3,98.3,0,0,0,4.4-10.6,10.5,10.5,0,0,0-.3-7.6c-1.4-3.5-1.5-3.5-1.5-4.5s-1.9-3.2-2.5-5.4a60.4,60.4,0,0,1-.5-9.9c0-1-.3-2.5,2.6-4.3s6.9-3.8,8-4.8a5.3,5.3,0,0,0,2.4-4.2C130.7,49.7,130.8,48.7,130.8,47.3Zm-22,14.4c-.8,2.8-3.6,2.9-6.3,1.8,0,0,4.7.9,5.1-2.2s-2.1-5.5-3-7a15.1,15.1,0,0,1-2-6.1,52.1,52.1,0,0,0,2.9,5.6C106.7,55.5,109.7,58.9,108.8,61.7Zm3.3,77.6a5.3,5.3,0,0,1-3.2-2.2c-.4-.8-2.6-3.6-2.5-5s0-8.5.2-10,1.1-5.6,1.4-6.7.2.4.1,1.8v8.7c-.1,1.1-.9,2.3.7,4.4a25.5,25.5,0,0,1,3.1,5.8c.4,1.2.7,2.6,1,3.5Z"/><path class="f" d="M98.4,125.4c-.7-7.1-1.1-9.1-2.6-13.3s-4.3-8.4-7.3-9.9c-.4-2.3-1.1-5.2-1.5-6.8a49.9,49.9,0,0,0-3.9-9.7C80.7,81.3,78.7,79,77,78s-2.5-2-3.1-2a15.2,15.2,0,0,0-3.1-7.2c-3.4-4.3-4.5-3.4-4.7-3s-.8,2.6-1,3.1-.6,2.5-.7,2.8-.1.6-.6.8L58.2,75a3.6,3.6,0,0,0-1.5,1.7c-.2.6-.2,1.2-.5,1.5a9.9,9.9,0,0,1-2.3,1.3,9.5,9.5,0,0,0-1.7,1.2c-.3.2-.2.7,0,1.5a8.5,8.5,0,0,0,1.3,3.1c.5.6.9.5,1,1s.4,1.5,1,1.6l4.2.6a24.5,24.5,0,0,1,3.9.8,6,6,0,0,1,2.3,1,15.9,15.9,0,0,1,2.9,5.8c.5,2.4-.9,4.7-1.7,6-2.7,1.8-6.5,6-9.8,13.2-5.7,12.1,4.2,21.6,4.2,21.6a31.5,31.5,0,0,1,6,1.5c1.6.9,4.2,1.6,5.6,2.7s1.7,1.7,4.2,1.7a53.4,53.4,0,0,0,9.8-1.5c3.6-1,2.6-1.2,6.7-1.6l1.8-2.2C96.8,136,99.2,132.4,98.4,125.4Z"/><path class="d" d="M98.4,125.3c-.7-7.1-1.1-9.1-2.6-13.3s-4.4-9.1-7.4-10.5c-.4-2.3-1-4.6-1.4-6.2a49.9,49.9,0,0,0-3.9-9.7c-2.4-4.4-4.4-6.7-6.1-7.7s-2.2-2-2.8-1.9a16.2,16.2,0,0,0-3.1-7.6c-3.3-4.2-4.8-3.1-5-2.7s-.8,2.6-1,3.1-.6,2.5-.7,2.8-.1.6-.6.8l-5.6,2.5a3.6,3.6,0,0,0-1.5,1.7,5.3,5.3,0,0,1-.5,1.5,9.9,9.9,0,0,1-2.3,1.3,9.5,9.5,0,0,0-1.7,1.2c-.3.2-.2.7,0,1.5a8.5,8.5,0,0,0,1.3,3.1c.5.6.9.4,1,1s.4,1.5,1,1.6l4.2.6a24.5,24.5,0,0,1,3.9.8,6,6,0,0,1,2.3,1A15.9,15.9,0,0,1,68.8,96c.5,2.4-1,4.2-1.8,5.5-2.7,1.8-6.7,6.5-10,13.8-6,12.8,4.5,21.5,4.5,21.5a31.5,31.5,0,0,1,6,1.5c1.6.9,4.2,1.6,5.6,2.7s1.7,1.7,4.2,1.7a53.4,53.4,0,0,0,9.8-1.5c3.6-1,2.7-.7,6.8-1.2a13.8,13.8,0,0,1,1.7-2.6C96.8,135.9,99.2,132.3,98.4,125.3Zm-5.7,14.3a18.1,18.1,0,0,0-5.8.9c-2.9,1.1-5,1-7.3,1.3s-2.9.5-3.8,0a21.8,21.8,0,0,0-3.1-2.1,43.6,43.6,0,0,0-10.2-3.3,18.6,18.6,0,0,1-5.8-10.5c-1.1-6.8,2-11.7,4-15.1s6.8-9.4,9-9.1.6,2.5-.3,3.4-7.7,8-8.7,14.6a15.7,15.7,0,0,0,8.1,16.4c5.1,2.8,12.8,3.8,17-4.4,0,0-6,9.5-16.6,3.3s-8.5-17.4-3.4-24c3.4-4.5,7.9-8.5,5-10a2.1,2.1,0,0,0-1.8-.2,7.1,7.1,0,0,0,.7-2.9c.2-2.5-1.4-6.8-2.6-7.9s-1.7-1.4-2.6-1.5a13.1,13.1,0,0,1-3.3-.9,36.5,36.5,0,0,0-4-.7c-.7-.2-1-.3-1.3-.7s-.3-.9-.6-1.2a10.5,10.5,0,0,1-1.7-2.2,3.5,3.5,0,0,1-.4-1.8,5.3,5.3,0,0,1,1.6-.6,5.7,5.7,0,0,0,1.9-1.3c.3-.3.5-1.5.8-2a3.2,3.2,0,0,1,1.9-1.7c1.1-.3,3.2-1.7,3.8-1.8A4.8,4.8,0,0,0,65,73c.5-.3.6-2.9.8-3.7a25,25,0,0,1,.9-2.5c.3-.8,1.3,0,1.7.4a16.7,16.7,0,0,1,3.7,5c1.2,2.3,1.6,3.4,1.6,3.8a.6.6,0,0,0,.1.4h0c0,.2.1,1.2.3.8a.8.8,0,0,0-.1-.3s1.7.7,4.3,3.7,4,4.2,7.1,12.9,2.4,11.2,3.2,13.4a4.8,4.8,0,0,0,2.2,3,13.4,13.4,0,0,1-1.7-4.8c0-.4-.2-1.4-.3-2.1h0a25.4,25.4,0,0,1,4.9,7.7,51.1,51.1,0,0,1,3.3,14C97.3,129.3,97.4,132.3,92.7,139.6Z"/><path class="c" d="M12.1,154.9a34,34,0,0,0,14.8,3.4H59.2a39.5,39.5,0,0,0,10.3-1.7c8.5-.1,23.1.6,34-1.1a10.6,10.6,0,0,0,5.3-2c3.6-2.7.1-7,.1-7a1.8,1.8,0,0,0-.5-.7c-1.9-2.2-7.3-5.1-9.7-5.5a32.8,32.8,0,0,0-9.5-.4c-2.1.2-17.1,2.3-22.3-3a51.5,51.5,0,0,0-8.4-6.9,69.5,69.5,0,0,0-10.9-5.9l-2-.8a48.8,48.8,0,0,0-13-2.9H30.7c-15.7-.3-18.9,6.3-18.9,6.3Z"/><path class="d" d="M66.9,136.9a51.5,51.5,0,0,0-8.4-6.9c-2.9-2.4-7.4-4.4-10.9-5.9l-2-.8a48.8,48.8,0,0,0-13-2.9H30.7c-15.7-.3-24.1,9-24.1,9,26.8-14.2,41.5-3.4,49,1.3s10.7,8.8,13.9,10.2,5.7,1.6,21.7,1c12.8-.4,19.5,6.9,15.3,10.5a10.2,10.2,0,0,1-5.1,1.6c-7.7.7-18.5.9-25.3,1h-7c-2.6,1.4-9.9,3.5-9.9,3.5a39.5,39.5,0,0,0,10.3-1.7c8.5-.1,23.1.6,34-1.1a10.6,10.6,0,0,0,5.3-2c3.6-2.7.1-7,.1-7a1.8,1.8,0,0,0-.5-.7c-1.9-2.2-7.3-5.1-9.7-5.5a32.8,32.8,0,0,0-9.5-.4C87.1,140.1,72.1,142.2,66.9,136.9Z"/><path class="g" d="M218.3,84.9V53.2h2.3V84.9Z"/><path class="g" d="M227.1,77v2c0,1.4,0,4.2,3.5,4.2,1.7,0,3.3-.7,3.3-3.8s-.5-2.8-3.8-5.6-4-3.5-4-6.7.5-4.9,4.7-4.9,4.7,3.7,4.7,5.4v1.6h-1.9V67.6c0-2.4-.8-3.6-2.8-3.6s-2.8,2-2.8,3,.1,2.6,4.4,6.2c2.2,1.8,3.4,3,3.4,6.2s-1.5,5.6-5.2,5.6-5.4-2.6-5.4-6.3V77Z"/><path class="g" d="M240.2,84.9V53.2h1.9V84.9Z"/><path class="g" d="M247.5,59.7V56.2h1.9v3.5Zm0,25.2V62.3h1.9V84.9Z"/><path class="g" d="M263.4,84.9V67.1c0-1.6-.5-3.4-2.7-3.4s-3,1.1-3.8,2.9V84.9H255V62.3h1.9v2.2a4.6,4.6,0,0,1,4.2-2.4c1.8,0,4.2,1,4.2,4.5V84.9Z"/><path class="g" d="M280.8,86.6c0,3.7-2.6,5.4-5.5,5.4s-3.7-.6-4.5-2.3a6.3,6.3,0,0,1-.5-2.5h2a4.5,4.5,0,0,0,.3,1.7c.6,1.3,2.5,1.3,2.7,1.3a3.3,3.3,0,0,0,3.6-3.4V82.9a5.2,5.2,0,0,1-3.9,2c-3.2,0-4.4-2.4-4.4-5.3V67.2c0-4,2.2-5.1,4.6-5.1a4.4,4.4,0,0,1,3.7,2.1V62.3h1.9ZM278.9,67a3.4,3.4,0,0,0-3.3-3.1c-2.6,0-3.2,1.9-3.2,4.1V79.2c0,2.9,1.2,3.8,3,3.8a3.7,3.7,0,0,0,3.5-3.3Z"/><path class="g" d="M284.4,62.3h2.4V56.5h1.9v5.8h3.4v1.8h-3.4V81.9c0,1.3,1.3,1.3,1.7,1.3h1.7v1.8h-2c-2.5,0-3.3-.8-3.3-2.6V64.1h-2.4Z"/><path class="g" d="M305.4,79c0,4.3-2.4,6-5.3,6s-5.2-1.8-5.2-4.9V67.6c0-2.7,1.5-5.4,5.4-5.4s5.1,2.1,5.1,5.5Zm-1.9-11c0-1.7-.4-3.9-3.2-3.9s-3.5,2.1-3.5,4.3V79.5c0,2.4,1.3,3.7,3.3,3.7s3.4-2.4,3.4-3.9Z"/><path class="g" d="M318.8,84.9V67.1c0-1.6-.5-3.4-2.7-3.4s-3,1.1-3.8,2.9V84.9h-1.8V62.3h1.8v2.2a4.6,4.6,0,0,1,4.2-2.4c1.8,0,4.2,1,4.2,4.5V84.9Z"/><path class="g" d="M341.7,84.9h-2.2l-5.4-31.7h2.3l4.2,27.1,4.6-27.1h2.2Z"/><path class="g" d="M351.8,59.7V56.2h1.9v3.5Zm0,25.2V62.3h1.9V84.9Z"/><path class="g" d="M359.2,84.9V53.2h1.9V84.9Z"/><path class="g" d="M366.6,84.9V53.2h1.9V84.9Z"/><path class="g" d="M384.4,84.9c-1.8,0-2.5-.5-2.8-1.7a7,7,0,0,1-4.4,1.7c-3.1,0-4.3-2.5-4.3-5.3,0-6.4,5.9-6.8,8.7-9.3V67.2c0-1.8-.5-3.2-2.8-3.2s-3.1,1.1-3.1,4.1v1.2h-1.9V68.1c0-4.4,1.7-5.9,5.1-5.9s4.6,1.8,4.6,4.5V82.3c0,.8.6.8,1.3.8v1.8Zm-2.8-12.5c-1.1.8-2.5,1.5-3.7,2.2s-3.1,2.6-3.1,5.1c0,.7.1,3.4,2.9,3.4s2.8-.9,3.9-2.1Z"/><path class="g" d="M399,86.6c0,3.7-2.6,5.4-5.6,5.4s-3.7-.6-4.4-2.3a6.3,6.3,0,0,1-.5-2.5h1.9a4.5,4.5,0,0,0,.3,1.7c.7,1.3,2.5,1.3,2.8,1.3s3.6-.2,3.6-3.4V82.9a5.5,5.5,0,0,1-4,2c-3.2,0-4.4-2.4-4.4-5.3V67.2c0-4,2.3-5.1,4.6-5.1a4.7,4.7,0,0,1,3.8,2.1V62.3H399ZM397.1,67a3.6,3.6,0,0,0-3.4-3.1c-2.6,0-3.1,1.9-3.1,4.1V79.2c0,2.9,1.2,3.8,3,3.8s3-1,3.5-3.3Z"/><path class="g" d="M414.3,79.9c0,2.4-1.3,5.1-5.2,5.1s-5-1.5-5-5.3V67.6c0-2.7,1.2-5.4,5-5.4s5.2,1.8,5.2,5.8v5.8h-8.4v5.6c0,1.3.3,3.8,3.2,3.8s3.3-2.4,3.3-4.5V77.1h1.9Zm-1.9-12.2c0-2.6-1.4-3.8-3.2-3.8s-3.3,1.7-3.3,4v4.3h6.5Z"/><path class="g" d="M187.6,147l-2.4-14.5h-10L172.8,147h-3.5l8.6-48h4.6l8.6,48Zm-7.4-43.6-4.4,26h8.8Z"/><path class="g" d="M210.5,147V120.2c0-2.5-.9-5.1-4.2-5.1s-4.5,1.6-5.7,4.3V147h-2.8V113h2.8v3.2a7.3,7.3,0,0,1,6.3-3.6c2.7,0,6.4,1.6,6.4,6.8V147Z"/><path class="g" d="M221.2,109v-5.3h2.9V109Zm0,38V113H224v34Z"/><path class="g" d="M257.6,147V121.3c0-3.6-.5-6-4.2-6a5.8,5.8,0,0,0-5.5,4.2V147H245V120c0-2.9-1.6-4.8-4.3-4.8a6.3,6.3,0,0,0-5.5,3.8v28h-2.8V113h2.9v2.8a8.3,8.3,0,0,1,6.3-3.2,6.1,6.1,0,0,1,5.8,4.1c.7-1.1,2.7-4.2,6.8-4.2s6.3,2.1,6.3,7.5v27Z"/><path class="g" d="M284.4,147c-2.8,0-3.7-.9-4.2-2.6a10.2,10.2,0,0,1-6.6,2.6c-4.7,0-6.6-3.8-6.6-8,0-9.6,8.9-10.2,13.1-14v-4.7c0-2.6-.7-4.8-4.1-4.8s-4.7,1.7-4.7,6.2v1.8h-2.9v-1.8c0-6.7,2.7-8.9,7.7-8.9s6.9,2.6,6.9,6.8v23.5c0,1.2,1,1.2,2,1.2V147Zm-4.2-18.8c-1.7,1.1-3.8,2.2-5.6,3.2s-4.7,4-4.7,7.7c0,1.1.2,5.2,4.4,5.2s4.3-1.4,5.9-3.2Z"/><path class="g" d="M290.9,147V99.3h2.9V147Z"/><path class="g" d="M331.8,147V123.4H319.6V147h-3.3V99.3h3.3v21.2h12.2V99.3h3.3V147Z"/><path class="g" d="M358.7,138.1c0,6.5-3.7,9.1-8,9.1s-7.8-2.8-7.8-7.4V121c0-4.2,2.1-8.2,8.1-8.2s7.7,3.1,7.7,8.3Zm-2.9-16.6c0-2.5-.6-5.9-4.8-5.9s-5.2,3.2-5.2,6.5v16.8c0,3.6,1.8,5.5,4.9,5.5s5.1-3.6,5.1-5.9Z"/><path class="g" d="M367.3,135.1V138c0,2.1,0,6.4,5.2,6.4,2.6,0,5-1.1,5-5.7s-.8-4.3-5.7-8.4-6.1-5.3-6.1-10.1c0-2.9.8-7.3,7.1-7.3s7.1,5.4,7.1,8.1v2.4H377V121c0-3.7-1.1-5.4-4.2-5.4s-4.2,2.9-4.2,4.4c0,3.1.1,4,6.7,9.4,3.2,2.6,5.1,4.5,5.1,9.2s-2.3,8.6-7.9,8.6-8.1-4-8.1-9.6v-2.5Z"/><path class="g" d="M390,113v3a7.4,7.4,0,0,1,6.2-3.3c5.3,0,6.4,4.8,6.4,9v17.7c0,4.4-2.6,7.8-6.9,7.8a6.9,6.9,0,0,1-5.7-2.9v13.8h-2.9V113Zm9.7,7.4c0-2.7-1.4-5.1-4.4-5.1a5.5,5.5,0,0,0-5.3,4.4v21a5.4,5.4,0,0,0,5.2,3.8c4.2,0,4.5-3.8,4.5-6.6Z"/><path class="g" d="M410.5,109v-5.3h2.9V109Zm0,38V113h2.8v34Z"/><path class="g" d="M418.8,113h3.6v-8.8h2.8V113h5.1v2.7h-5.1v26.8c0,2,2,2,2.6,2l2.5-.2V147l-3,.2c-3.7,0-4.9-1.3-4.9-4V115.7h-3.6Z"/><path class="g" d="M451.3,147c-2.8,0-3.8-.9-4.2-2.6a10.5,10.5,0,0,1-6.6,2.6c-4.7,0-6.6-3.8-6.6-8,0-9.6,8.9-10.2,13.1-14v-4.7c0-2.6-.7-4.8-4.2-4.8s-4.6,1.7-4.6,6.2v1.8h-2.9v-1.8c0-6.7,2.6-8.9,7.7-8.9s6.9,2.6,6.9,6.8v23.5c0,1.2.9,1.2,2,1.2V147Zm-4.2-18.8c-1.7,1.1-3.9,2.2-5.6,3.2s-4.7,4-4.7,7.7c0,1.1.2,5.2,4.4,5.2,2.6,0,4.3-1.4,5.9-3.2Z"/><path class="g" d="M457.8,147V99.3h2.8V147Z"/></svg>