<?xml version="1.0" encoding="utf-8"?>
<!-- Generator: Adobe Illustrator 25.4.1, SVG Export Plug-In . SVG Version: 6.00 Build 0)  -->
<svg version="1.1" id="Layer_1" xmlns="http://www.w3.org/2000/svg" xmlns:xlink="http://www.w3.org/1999/xlink" x="0px" y="0px"
	 viewBox="0 0 472.3 472.3" enable-background="new 0 0 472.3 472.3" xml:space="preserve">
<g>
	<g>
		<g>
			<path fill="none" stroke="#41312F" stroke-width="2.0188" stroke-linecap="round" d="M160.9,205.5c-9.3-27-35-46.5-65.1-46.5
				c-30.2,0-55.9,19.5-65.2,46.7"/>
		</g>
	</g>
	<circle opacity="0.75" fill="#83C8EF" cx="95.8" cy="230.9" r="62.4"/>
	<rect x="104.2" y="186.5" fill="#FFFFFF" width="9.2" height="18.3"/>
	<polygon fill="#FFFFFF" points="113.9,294.8 135.3,282.1 145.7,269.1 148.7,264.5 148.4,261.1 145.2,259.8 140.9,260.8 
		139.4,258.5 136.1,257.5 129.9,259.8 127.5,258 124.2,259.4 119.8,261.5 113.9,266.4 103.3,271.8 88.3,280.7 	"/>
	<path fill="#403540" stroke="#403540" stroke-width="0.4043" stroke-miterlimit="10" d="M128.9,260.3c0,0-1.6-2.5-6.2,0.6
		s-8,6.4-8,6.4s-8.4,3-14.9,7.5c-5.7,3.9-8.4,5.3-8.4,5.3h-4.9c0,0,8.7-5.2,11.3-6.1c0,0,7.5-5.1,15.5-8.1c0,0,13.1-13.1,17.3-6.5
		L128.9,260.3z"/>
	<path fill="#403540" stroke="#403540" stroke-width="0.4043" stroke-miterlimit="10" d="M99.3,280c0,0,12.4-7.2,20.5-10
		c0,0,6.5-8.1,12.2-10.3c7.2-2.7,7.4-0.1,8.2,1.1l1.9-0.6c0,0-2.6-6.3-12.1-1.3c-6.6,3.4-10.8,9.5-10.8,9.5s-14,5.5-22.9,11.5H99.3z
		"/>
	<g>
		<path fill="#403540" stroke="#403540" stroke-width="0.4043" stroke-miterlimit="10" d="M148.2,264c0,0-1.3,2.6-4.4,5.1
			c-0.3,0-0.6,0-0.9,0.1c-13.8,1-17.6,9.5-17.6,9.5c-4.3,0.8-12.2,4.7-14,5.7c-1.1-1.1-2.3-2-3.6-2.7c1.5-0.8,9.7-5.2,14-6.2
			c0,0,4-6.4,15-11.9S148.2,264,148.2,264z M59.5,270c6.6,4.1,10.7,8.9,14,10.3c3.3,1.4,5.7,1.5,21.7,1c0,0,4.7-0.3,6.8,0.3
			c2.1,0.6,6,1,9,4.5c7.4-3.7,15.4-5.8,15.4-5.8s3.3-9.1,16.2-9.7c12.9-0.5,7.3,4.7,6.5,5.4s-7,5.4-9.9,7.3
			c-2.9,1.8-10.8,10.4-13.6,13c-2.8,2.5-7.3,4.9-13.5,6.3c-6.2,1.4-19.4,4.7-25.1,8.3c-5.7,3.6-8.9,1.6-11.4,0.9
			c-2.5-0.7-14.8-4.8-21.1-6.7c-6.3-2-9.7-3.9-19.9-6.1s-20,13.2-20,13.2c12.9-11.5,19.5-11.1,22.5-10.4c3,0.7,33.1,10.8,39,12.7
			c5.9,1.9,9.1-0.2,12-1.6s12.2-5.6,22.5-7.9c10.3-2.3,14.2-5.4,16-6.7c1.8-1.3,8.3-8.5,10-9.8c1.6-1.3,13.5-11.1,14.8-11.7
			c1.2-0.5,4.9-7.4-5.6-7.5c0.7-0.9,3.5-2.8,3.9-5.1c0,0-0.7-6-7.1-4.2c-7.4,2-14.2,5-21.5,14.2c0,0-9,3-15.2,6.9
			c-0.8-0.3-1.3-0.5-2.1-0.7l-1.6-0.5 M102.4,279.9c-4.3-0.9-8.4-0.5-9.5-0.4c-2.1,0.2-16.9,2.2-22.1-3.2c-4.1-4.2-8.4-6.9-8.4-6.9
			c-3.8-2.5-7.4-4.4-10.9-5.9l-2-0.8c-4.7-1.8-9.1-2.7-13-2.9l-1.9-0.1c-9.3-0.2-16.2,3-20.3,5.7"/>
	</g>
	<path fill="#413230" d="M134.3,186.8c0-1.4-0.1-2.3-2.8-1.9c-1.2,0.2-4.4,0.6-5.6,0.5c-1.2-0.1-3.8,0.4-4.6-0.2
		c-0.8-0.6,0.2,0.5-2-2.4c-1.9-2.6-13.6-0.5-15.6,1.5c-2,2-3.7,2.5-4.5,5.9c-0.8,3.4-2.2,7.8-2.5,10.1c-0.3,2.3,0.4,8.9-2.9,13.8
		c-3.3,4.9-1.7,5.4-6.3,10.1c-4.5,4.7-15.2,16.4-18.3,19.5c-3.1,3.1-9.8,12-10.2,16.8c-0.3,4.8,0.9,7.2-2,7
		c-2.9-0.2-15.8-1.1-17.5-1.2c-1.6-0.1-4.2-0.2-4.7,1.3c-0.5,1.6,1.6,2.4,4.7,3.1c3.1,0.8,16.7,2.2,18.3,2.5
		c1.6,0.3,2.1-0.1,2.7,1.3c0.7,1.5,1.9,3.3,4.4,3.8c2.4,0.5,5,0.5,6.9,1.2s7,1.8,9.1,1.8c2.1,0,4.8-1,5.6-1c0.8,0,1.1,0.3,1.6,0.3
		c0.5,0,1.1-0.5,1.1-1.2c0-0.7,0.2-2.5-2.9-3.5l-1.9-0.6c0,0,2.3-0.1,2.7,0c0.4,0.1,2.6,0,3.1,0.3c0.5,0.4,3.6,0.6,4.5,0.7
		c0.9,0,3.1-0.5,3.8-0.5c0.7,0,1.2-1.1,1.2-2c0-0.9-1-2.5-1.6-2.7c-0.6-0.2-3.1-0.6-3.5-0.8c-0.4-0.2-0.9-0.3-1.2-1.5
		c-0.2-1.3-0.2-3.2-0.1-3.6c0.1-0.4,1-1.8,1.4-2.1c0.4-0.3,4.5-3.8,5.4-4.4c0.9-0.7,2.5-1.3,2.4,0.1c-0.1,1.4,0.6,9.6,0.5,10.5
		c0,0.9-0.4,3.2,0.3,4c0.7,0.8,1.7,1.6,2,2.7c0.4,1,2.5,4.7,2.7,5.8c0.2,1,0.8,2.7,2,3.2s4.1,0.6,6.1,0.2c2.1-0.3,3-0.5,3.5-1
		c0.6-0.5,0.8-1.5,0.1-2.6c-0.3-0.4-0.8-0.8-1.3-1.2c1-0.1,2-0.3,2.4-0.2c0.7,0.1,1.8,0.6,2.6,0.6c0.8,0,2.2-0.6,2.8-0.9
		c0.5-0.3,0.6-2.3-0.4-3.2c-1-1-3.3-1.4-3.9-1.8c-0.6-0.4-2.3-0.5-2.9-3.3c-0.5-2.7-1.4-2.1-0.9-6.6c0.5-4.6,1.7-13,1.9-15
		c0.3-1.9-0.2-4.2,1.3-7.3c1.5-3.1,3.9-9,4.3-10.6c0.4-1.6,1.2-4.2-0.3-7.7c-1.4-3.4-1.5-3.5-1.5-4.4c0-0.9-1.9-3.2-2.5-5.5
		s-0.6-8.8-0.5-9.8c0-1.1-0.3-2.6,2.6-4.3c2.9-1.7,6.9-3.8,8.1-4.8s2.3-2.1,2.4-4.2C134.2,189.1,134.3,188.1,134.3,186.8z
		 M112.3,201.2c-0.8,2.8-3.7,2.9-6.3,1.8c0,0,4.7,0.8,5-2.2c0.3-3.1-2.1-5.4-3-7c-0.9-1.5-1.8-4.4-2-6.2c0,0,1.7,3.9,2.9,5.6
		S113.1,198.4,112.3,201.2z M115.5,278.8c-1.3-0.3-2.7-1.4-3.1-2.2c-0.4-0.8-2.6-3.6-2.5-5c0.1-1.4,0-8.5,0.2-10
		c0.2-1.5,1.1-5.6,1.3-6.7c0.3-1.1,0.2,0.4,0.1,1.8c-0.1,1.4,0,7.5-0.1,8.7c0,1.1-0.9,2.3,0.7,4.4c1.6,2.1,2.5,4.1,3.1,5.8
		c0.4,1.2,0.7,2.6,1,3.5C116.1,278.9,115.8,278.8,115.5,278.8z"/>
	<g>
		<path fill="#F2F2F2" d="M101.9,264.8c-0.8-7-1.1-9-2.6-13.3c-1.5-4.2-4.3-8.4-7.3-9.9c-0.4-2.3-1-5.2-1.4-6.7
			c-0.5-2.2-2.1-6.4-3.9-9.7c-2.4-4.4-4.4-6.7-6.1-7.7s-2.4-1.9-3-1.9c-0.2-1.6-1-4.4-3.2-7.3c-3.3-4.3-4.5-3.3-4.7-3
			s-0.8,2.6-1,3.1c-0.2,0.5-0.6,2.6-0.7,2.9c-0.1,0.3-0.1,0.6-0.6,0.8c-0.5,0.2-5.3,2.4-5.6,2.5c-0.4,0.2-1.4,1-1.5,1.6
			c-0.2,0.6-0.2,1.2-0.5,1.5s-1.5,1-2.2,1.3c-0.7,0.3-1.6,1-1.8,1.2c-0.2,0.2-0.2,0.8,0,1.5c0.2,0.8,0.8,2.5,1.3,3.1
			c0.5,0.6,0.9,0.5,1,1c0.1,0.5,0.5,1.5,1.1,1.6c0.6,0.2,3.5,0.6,4.2,0.6s3.3,0.6,3.9,0.8c0.6,0.2,1.8,0.4,2.2,1
			c0.6,0.8,2.3,2.9,2.9,5.7c0.5,2.5-0.8,4.7-1.6,6c-2.8,1.8-6.5,6-9.9,13.2c-5.7,12.1,4.3,21.6,4.3,21.6s4.3,0.7,5.9,1.5
			c1.6,0.8,4.2,1.5,5.6,2.7c1.4,1.1,1.7,1.7,4.2,1.7c2.5-0.1,6.2-0.6,9.8-1.5c3.6-1,2.6-1.1,6.7-1.6c0,0,0.6-0.7,1.8-2.2
			S102.7,271.8,101.9,264.8z"/>
		<path fill="#403540" stroke="#403540" stroke-width="0.4043" stroke-miterlimit="10" d="M101.9,264.7c-0.8-7-1.1-9-2.6-13.3
			c-1.5-4.2-4.4-9-7.4-10.5c-0.4-2.3-0.9-4.5-1.3-6.1c-0.5-2.2-2.1-6.4-3.9-9.7c-2.4-4.4-4.4-6.7-6.1-7.7c-1.7-1.1-2.2-1.9-2.7-1.9
			c-0.2-1.6-0.9-4.7-3.1-7.5c-3.3-4.3-4.8-3.1-5-2.8s-0.8,2.6-1,3.1s-0.6,2.6-0.7,2.9c-0.1,0.3-0.1,0.6-0.6,0.8
			c-0.5,0.2-5.3,2.4-5.6,2.5c-0.4,0.2-1.4,1-1.5,1.6c-0.2,0.6-0.2,1.2-0.5,1.5s-1.5,1-2.2,1.3c-0.7,0.3-1.6,1-1.8,1.2
			c-0.2,0.2-0.2,0.8,0,1.5c0.2,0.8,0.8,2.5,1.3,3.1c0.5,0.6,0.9,0.5,1,1s0.5,1.5,1.1,1.6c0.6,0.2,3.5,0.6,4.2,0.6s3.3,0.6,3.9,0.8
			c0.6,0.2,1.8,0.4,2.2,1c0.6,0.8,2.3,2.9,2.9,5.7c0.5,2.5-1,4.2-1.7,5.5c-2.8,1.8-6.7,6.5-10.1,13.7c-6,12.9,4.6,21.6,4.6,21.6
			s4.3,0.7,5.9,1.5c1.6,0.8,4.2,1.5,5.6,2.7c1.4,1.1,1.7,1.7,4.2,1.7s6.2-0.6,9.8-1.5c3.6-1,2.7-0.7,6.8-1.1c0,0,0.5-1.1,1.7-2.6
			S102.7,271.7,101.9,264.7z M96.2,279c0,0-2.9-0.1-5.8,1c-2.9,1.1-5,1-7.2,1.2c-2.2,0.3-2.9,0.6-3.9,0c-1-0.6-1-0.9-3.1-2.1
			c-1.9-1-7.1-2.9-10.2-3.3c-0.7-0.7-4.7-4.4-5.8-10.6c-1.2-6.8,2-11.6,4-15.1c2-3.4,6.8-9.4,9-9.1c2.2,0.3,0.5,2.5-0.3,3.4
			c-0.9,0.9-7.7,8-8.7,14.6c-1,6.6,2,13.1,8.1,16.4c5.1,2.8,12.8,3.8,17-4.4c0,0-6,9.6-16.6,3.4c-10-5.9-8.5-17.4-3.5-24
			c3.4-4.5,8-8.5,5.1-10c-0.4-0.2-1.2-0.5-1.8-0.2c0.5-1.1,0.7-1.9,0.7-2.8c0.2-2.5-1.4-6.8-2.7-7.9c-1.2-1.1-1.7-1.4-2.6-1.5
			s-2.8-0.6-3.3-0.9s-3.2-0.5-3.9-0.7c-0.8-0.2-1.1-0.3-1.3-0.7s-0.4-0.9-0.7-1.2c-0.3-0.3-1.4-1.6-1.7-2.3
			c-0.3-0.6-0.5-1.5-0.4-1.7c0.2-0.3,0.8-0.4,1.5-0.7c0.7-0.3,1.6-0.9,1.9-1.2c0.3-0.4,0.6-1.5,0.8-2.1c0.3-0.6,0.9-1.3,1.9-1.6
			s3.1-1.7,3.8-1.8c0.7-0.1,1.2-0.4,1.7-0.7c0.5-0.3,0.7-2.9,0.8-3.7s0.6-1.7,0.9-2.5c0.3-0.8,1.3,0,1.7,0.4c0.4,0.5,2,1.6,3.7,5
			c1.2,2.3,1.5,3.3,1.6,3.8c-0.1,0.1,0,0.2,0,0.4c0,0,0,0,0,0c0,0.2,0.1,1.1,0.3,0.8c0,0,0-0.1,0-0.3c0,0,1.7,0.7,4.3,3.7
			c2.6,3.1,3.9,4.1,7.1,12.9c3.2,8.7,2.4,11.2,3.1,13.4c0.8,2.3,2.2,3,2.2,3s-1.5-2.6-1.6-4.8c0-0.5-0.2-1.5-0.3-2.1
			c0.1,0.1-0.1-0.1,0,0c0.5,0.4,3.3,3.6,4.9,7.7s3,9.5,3.3,14C100.8,268.7,100.9,271.7,96.2,279z"/>
	</g>
	<g>
		<path fill="#FFFFFF" d="M15.6,294.4c4.4,2.3,10.2,3.3,14.8,3.3c8.3,0,32.3,0,32.3,0c4.4,0.1,10.2-1.7,10.2-1.7
			c8.5,0,23.1,0.6,34-1.1c2.6-0.4,4.2-1.1,5.3-2c3.6-2.7,0.2-7.1,0.2-7.1c-0.2-0.2-0.3-0.5-0.5-0.7c-1.9-2.2-7.3-5.1-9.7-5.5
			c-4.3-0.9-8.4-0.5-9.5-0.4c-2.1,0.2-17.1,2.4-22.3-3c-4.1-4.2-8.4-6.9-8.4-6.9c-3.8-2.5-7.4-4.4-10.9-5.9l-2-0.8
			c-4.7-1.8-9.1-2.7-13-2.9l-1.9-0.1c-15.7-0.3-18.9,6.3-18.9,6.3L15.6,294.4z"/>
		<path fill="#403540" stroke="#403540" stroke-width="0.4043" stroke-miterlimit="10" d="M70.3,276.3c-4.1-4.2-8.4-6.9-8.4-6.9
			c-2.9-2.4-7.4-4.4-10.9-5.9l-2-0.8c-4.7-1.8-9.1-2.7-13-2.9l-1.9-0.1c-15.7-0.3-24.1,9-24.1,9c26.8-14.2,41.5-3.4,48.9,1.3
			c6.6,4.1,10.7,8.9,14,10.3c3.3,1.4,5.7,1.5,21.7,1c12.8-0.4,19.5,6.9,15.3,10.5c-1.1,0.8-2.8,1.4-5.1,1.6
			c-7.7,0.7-18.5,0.9-25.3,1c-4.2,0-7,0-7,0c-2.6,1.4-9.9,3.4-9.9,3.4c4.4,0.1,10.2-1.7,10.2-1.7c8.5,0,23.1,0.6,34-1.1
			c2.6-0.4,4.2-1.1,5.3-2c3.6-2.7,0.2-7.1,0.2-7.1c-0.2-0.2-0.3-0.5-0.5-0.7c-1.9-2.2-7.3-5.1-9.7-5.5c-4.3-0.9-8.4-0.5-9.5-0.4
			C90.6,279.5,75.6,281.7,70.3,276.3z"/>
	</g>
</g>
<g>
	<path fill="#41312F" stroke="#41312F" stroke-width="1.0248" stroke-miterlimit="10" d="M221.8,224.4v-31.7h2.3v31.7H221.8z"/>
	<path fill="#41312F" stroke="#41312F" stroke-width="1.0248" stroke-miterlimit="10" d="M230.6,216.4v2c0,1.4,0,4.2,3.5,4.2
		c1.7,0,3.3-0.7,3.3-3.8c0-2.2-0.5-2.8-3.7-5.6c-2.5-2.2-4.1-3.5-4.1-6.7c0-1.9,0.5-4.9,4.7-4.9c4.6,0,4.7,3.6,4.7,5.4v1.6h-1.9
		v-1.6c0-2.4-0.8-3.6-2.8-3.6c-2.7,0-2.8,1.9-2.8,2.9c0,2.1,0.1,2.7,4.4,6.2c2.1,1.8,3.4,3,3.4,6.2c0,3.3-1.5,5.7-5.2,5.7
		c-4.5,0-5.4-2.7-5.4-6.3v-1.7H230.6z"/>
	<path fill="#41312F" stroke="#41312F" stroke-width="1.0248" stroke-miterlimit="10" d="M243.7,224.4v-31.7h1.9v31.7H243.7z"/>
	<path fill="#41312F" stroke="#41312F" stroke-width="1.0248" stroke-miterlimit="10" d="M251,199.1v-3.5h1.9v3.5H251z M251,224.4
		v-22.6h1.9v22.6H251z"/>
	<path fill="#41312F" stroke="#41312F" stroke-width="1.0248" stroke-miterlimit="10" d="M266.9,224.4v-17.8c0-1.7-0.5-3.4-2.8-3.4
		c-1.8,0-3,1.1-3.7,2.8v18.4h-1.9v-22.6h1.9v2.2c1.4-2.2,3.3-2.4,4.1-2.4c1.8,0,4.2,1,4.2,4.5v18.3H266.9z"/>
	<path fill="#41312F" stroke="#41312F" stroke-width="1.0248" stroke-miterlimit="10" d="M284.3,226c0,3.8-2.6,5.5-5.5,5.5
		c-1.7,0-3.7-0.6-4.5-2.3c-0.3-0.6-0.4-1.2-0.5-2.5h1.9c0,0.2,0,1,0.3,1.7c0.7,1.3,2.5,1.3,2.8,1.3c0.6,0,3.6-0.2,3.6-3.4v-3.9
		c-0.5,0.5-1.7,2-3.9,2c-3.2,0-4.4-2.4-4.4-5.3v-12.4c0-4,2.3-5.1,4.6-5.1c2.2,0,3.3,1.4,3.7,2.1v-1.8h1.9V226z M282.4,206.5
		c-0.3-1.7-1.5-3.1-3.3-3.1c-2.6,0-3.1,2-3.1,4.1v11.2c0,2.9,1.2,3.9,3,3.9c1.4,0,3-1,3.5-3.4V206.5z"/>
	<path fill="#41312F" stroke="#41312F" stroke-width="1.0248" stroke-miterlimit="10" d="M287.9,201.8h2.4v-5.8h1.9v5.8h3.4v1.8
		h-3.4v17.8c0,1.3,1.3,1.3,1.7,1.3c0.6,0,1.2,0,1.7-0.1v1.8c-0.8,0-1.4,0.1-2,0.1c-2.5,0-3.3-0.8-3.3-2.6v-18.3h-2.4V201.8z"/>
	<path fill="#41312F" stroke="#41312F" stroke-width="1.0248" stroke-miterlimit="10" d="M308.9,218.5c0,4.3-2.4,6-5.3,6
		c-3.1,0-5.2-1.8-5.2-4.9v-12.5c0-2.8,1.4-5.4,5.4-5.4c3.6,0,5.1,2.1,5.1,5.5V218.5z M307,207.4c0-1.6-0.4-3.9-3.2-3.9
		c-3,0-3.5,2.1-3.5,4.3V219c0,2.4,1.2,3.6,3.3,3.6c2.9,0,3.4-2.4,3.4-3.9V207.4z"/>
	<path fill="#41312F" stroke="#41312F" stroke-width="1.0248" stroke-miterlimit="10" d="M322.3,224.4v-17.8c0-1.7-0.5-3.4-2.8-3.4
		c-1.8,0-3,1.1-3.7,2.8v18.4h-1.9v-22.6h1.9v2.2c1.4-2.2,3.3-2.4,4.1-2.4c1.8,0,4.2,1,4.2,4.5v18.3H322.3z"/>
	<path fill="#41312F" stroke="#41312F" stroke-width="1.0248" stroke-miterlimit="10" d="M345.2,224.4h-2.3l-5.4-31.7h2.3l4.2,27
		l4.6-27h2.2L345.2,224.4z"/>
	<path fill="#41312F" stroke="#41312F" stroke-width="1.0248" stroke-miterlimit="10" d="M355.3,199.1v-3.5h1.9v3.5H355.3z
		 M355.3,224.4v-22.6h1.9v22.6H355.3z"/>
	<path fill="#41312F" stroke="#41312F" stroke-width="1.0248" stroke-miterlimit="10" d="M362.7,224.4v-31.7h1.9v31.7H362.7z"/>
	<path fill="#41312F" stroke="#41312F" stroke-width="1.0248" stroke-miterlimit="10" d="M370.1,224.4v-31.7h1.9v31.7H370.1z"/>
	<path fill="#41312F" stroke="#41312F" stroke-width="1.0248" stroke-miterlimit="10" d="M387.9,224.4c-1.9,0-2.5-0.6-2.8-1.8
		c-0.7,0.5-2.1,1.8-4.4,1.8c-3.1,0-4.4-2.5-4.4-5.3c0-6.4,5.9-6.8,8.7-9.3v-3.1c0-1.8-0.5-3.2-2.8-3.2c-2.3,0-3.1,1.1-3.1,4.1v1.2
		h-1.9v-1.2c0-4.4,1.7-5.9,5.1-5.9c3.2,0,4.6,1.8,4.6,4.5v15.6c0,0.8,0.6,0.8,1.3,0.8v1.8H387.9z M385.1,211.9
		c-1.1,0.8-2.5,1.5-3.7,2.2c-2.1,1.2-3.1,2.7-3.1,5.1c0,0.7,0.1,3.5,2.9,3.5c1.7,0,2.8-0.9,3.9-2.1V211.9z"/>
	<path fill="#41312F" stroke="#41312F" stroke-width="1.0248" stroke-miterlimit="10" d="M402.4,226c0,3.8-2.6,5.5-5.5,5.5
		c-1.7,0-3.7-0.6-4.5-2.3c-0.3-0.6-0.4-1.2-0.5-2.5h1.9c0,0.2,0,1,0.3,1.7c0.7,1.3,2.5,1.3,2.8,1.3c0.6,0,3.6-0.2,3.6-3.4v-3.9
		c-0.5,0.5-1.7,2-3.9,2c-3.2,0-4.4-2.4-4.4-5.3v-12.4c0-4,2.3-5.1,4.6-5.1c2.2,0,3.3,1.4,3.7,2.1v-1.8h1.9V226z M400.5,206.5
		c-0.3-1.7-1.5-3.1-3.3-3.1c-2.6,0-3.1,2-3.1,4.1v11.2c0,2.9,1.2,3.9,3,3.9c1.4,0,3-1,3.5-3.4V206.5z"/>
	<path fill="#41312F" stroke="#41312F" stroke-width="1.0248" stroke-miterlimit="10" d="M417.8,219.4c0,2.4-1.3,5.1-5.2,5.1
		c-2.8,0-5.1-1.5-5.1-5.3V207c0-2.7,1.2-5.4,5.1-5.4c3.3,0,5.2,1.8,5.2,5.8v5.8h-8.4v5.6c0,1.3,0.3,3.8,3.2,3.8
		c3.1,0,3.3-2.4,3.3-4.5v-1.6h1.9V219.4z M415.9,207.2c0-2.6-1.4-3.8-3.2-3.8c-2.2,0-3.3,1.7-3.3,4v4.3h6.5V207.2z"/>
	<path fill="#41312F" stroke="#41312F" stroke-width="1.0248" stroke-miterlimit="10" d="M191.1,286.5l-2.4-14.5h-9.9l-2.5,14.5
		h-3.5l8.7-48h4.6l8.6,48H191.1z M183.7,242.8l-4.4,26h8.8L183.7,242.8z"/>
	<path fill="#41312F" stroke="#41312F" stroke-width="1.0248" stroke-miterlimit="10" d="M213.9,286.5v-26.8c0-2.5-0.8-5.1-4.2-5.1
		c-2.7,0-4.5,1.6-5.6,4.3v27.7h-2.8v-34h2.8v3.2c2.1-3.4,5-3.7,6.2-3.7c2.8,0,6.4,1.6,6.4,6.8v27.6H213.9z"/>
	<path fill="#41312F" stroke="#41312F" stroke-width="1.0248" stroke-miterlimit="10" d="M224.7,248.5v-5.3h2.9v5.3H224.7z
		 M224.7,286.5v-34h2.8v34H224.7z"/>
	<path fill="#41312F" stroke="#41312F" stroke-width="1.0248" stroke-miterlimit="10" d="M261.1,286.5v-25.8c0-3.5-0.5-6-4.2-6
		c-2.9,0-4.7,2-5.5,4.2v27.5h-2.9v-27c0-3-1.6-4.8-4.3-4.8c-3,0-4.9,2.4-5.4,3.7v28.1h-2.8v-34h2.9v2.8c0.9-1.2,3.2-3.2,6.3-3.2
		c3.8,0,5.2,2.8,5.8,4.1c0.7-1.1,2.7-4.1,6.8-4.1c3.2,0,6.3,2.1,6.3,7.5v27H261.1z"/>
	<path fill="#41312F" stroke="#41312F" stroke-width="1.0248" stroke-miterlimit="10" d="M287.9,286.5c-2.8-0.1-3.8-0.9-4.2-2.6
		c-1,0.8-3.2,2.6-6.6,2.6c-4.7,0-6.6-3.8-6.6-8c0-9.7,8.9-10.3,13.1-14.1v-4.7c0-2.6-0.7-4.8-4.2-4.8c-3.5,0-4.6,1.7-4.6,6.2v1.8
		h-2.9v-1.8c0-6.6,2.6-8.9,7.7-8.9c4.8,0,6.9,2.6,6.9,6.8v23.5c0,1.1,0.9,1.2,2,1.2v2.7H287.9z M283.7,267.6
		c-1.7,1.1-3.8,2.2-5.6,3.2c-3.1,1.8-4.7,4-4.7,7.7c0,1.1,0.2,5.2,4.4,5.2c2.6,0,4.2-1.4,5.8-3.2V267.6z"/>
	<path fill="#41312F" stroke="#41312F" stroke-width="1.0248" stroke-miterlimit="10" d="M294.4,286.5v-47.8h2.8v47.8H294.4z"/>
	<path fill="#41312F" stroke="#41312F" stroke-width="1.0248" stroke-miterlimit="10" d="M335.3,286.5v-23.6H323v23.6h-3.2v-47.8
		h3.2V260h12.2v-21.2h3.3v47.8H335.3z"/>
	<path fill="#41312F" stroke="#41312F" stroke-width="1.0248" stroke-miterlimit="10" d="M362.1,277.5c0,6.5-3.6,9.1-8,9.1
		c-4.7,0-7.8-2.8-7.8-7.4v-18.8c0-4.2,2.2-8.2,8.1-8.2c5.4,0,7.7,3.1,7.7,8.3V277.5z M359.2,260.9c0-2.4-0.6-5.8-4.8-5.8
		c-4.5,0-5.2,3.2-5.2,6.5v16.8c0,3.6,1.8,5.5,4.9,5.5c4.4,0,5.1-3.6,5.1-5.9V260.9z"/>
	<path fill="#41312F" stroke="#41312F" stroke-width="1.0248" stroke-miterlimit="10" d="M370.7,274.5v3c0,2.1,0,6.4,5.2,6.4
		c2.6,0,5-1.1,5-5.7c0-3.3-0.8-4.3-5.6-8.4c-3.8-3.2-6.1-5.3-6.1-10.1c0-2.9,0.7-7.3,7.1-7.3c7,0,7.1,5.5,7.1,8.1v2.4h-2.9v-2.4
		c0-3.7-1.1-5.4-4.2-5.4c-4.1,0-4.2,2.9-4.2,4.4c0,3.2,0.1,4,6.7,9.4c3.2,2.6,5.1,4.5,5.1,9.3c0,5-2.2,8.5-7.9,8.5
		c-6.8,0-8.1-4-8.1-9.5v-2.6H370.7z"/>
	<path fill="#41312F" stroke="#41312F" stroke-width="1.0248" stroke-miterlimit="10" d="M393.4,252.5v3c1.7-2.5,4.4-3.3,6.2-3.3
		c5.3,0,6.4,4.9,6.4,9.1v17.7c0,4.5-2.6,7.8-6.9,7.8c-2.6,0-5-1.6-5.8-3v13.8h-2.9v-45H393.4z M403.2,259.9c0-2.7-1.4-5.1-4.4-5.1
		c-3.2,0-5,2.6-5.4,4.4v21c0.6,2.4,2.9,3.9,5.2,3.9c4.2,0,4.5-3.8,4.5-6.6V259.9z"/>
	<path fill="#41312F" stroke="#41312F" stroke-width="1.0248" stroke-miterlimit="10" d="M414,248.5v-5.3h2.9v5.3H414z M414,286.5
		v-34h2.8v34H414z"/>
	<path fill="#41312F" stroke="#41312F" stroke-width="1.0248" stroke-miterlimit="10" d="M422.3,252.5h3.6v-8.8h2.9v8.8h5.1v2.7
		h-5.1v26.8c0,2,1.9,2,2.6,2c0.9,0,1.8-0.1,2.6-0.1v2.7c-1.1,0.1-2.1,0.1-3,0.1c-3.8,0-5-1.2-5-3.9v-27.5h-3.6V252.5z"/>
	<path fill="#41312F" stroke="#41312F" stroke-width="1.0248" stroke-miterlimit="10" d="M454.8,286.5c-2.8-0.1-3.8-0.9-4.2-2.6
		c-1,0.8-3.2,2.6-6.6,2.6c-4.7,0-6.6-3.8-6.6-8c0-9.7,8.9-10.3,13.1-14.1v-4.7c0-2.6-0.7-4.8-4.2-4.8c-3.5,0-4.6,1.7-4.6,6.2v1.8
		h-2.9v-1.8c0-6.6,2.6-8.9,7.7-8.9c4.8,0,6.9,2.6,6.9,6.8v23.5c0,1.1,0.9,1.2,2,1.2v2.7H454.8z M450.5,267.6
		c-1.7,1.1-3.8,2.2-5.6,3.2c-3.1,1.8-4.7,4-4.7,7.7c0,1.1,0.2,5.2,4.4,5.2c2.6,0,4.2-1.4,5.8-3.2V267.6z"/>
	<path fill="#41312F" stroke="#41312F" stroke-width="1.0248" stroke-miterlimit="10" d="M461.3,286.5v-47.8h2.8v47.8H461.3z"/>
</g>
</svg>
