<svg xmlns="http://www.w3.org/2000/svg" viewBox="0 0 465 179.2"><defs><style>.a{fill:none;stroke-linecap:round;stroke-width:2.02px;}.a,.g{stroke:#41312f;}.b{fill:#83c8ef;opacity:0.75;}.c{fill:#fff;}.d{fill:#403540;stroke:#403540;stroke-width:0.4px;}.d,.g{stroke-miterlimit:10;}.e{fill:#413230;}.f{fill:#f2f2f2;}.g{fill:#41312f;stroke-width:1.02px;}</style></defs><path class="a" d="M156.6,58.9a68.8,68.8,0,0,0-130.3.2"/><circle class="b" cx="91.5" cy="84.3" r="62.4"/><rect class="c" x="99.9" y="39.9" width="9.2" height="18.32"/><polygon class="c" points="109.6 148.2 131 135.6 141.4 122.5 144.4 117.9 144.1 114.5 140.9 113.2 136.6 114.3 135.1 111.9 131.8 110.9 125.6 113.2 123.2 111.4 119.9 112.9 115.5 115 109.6 119.8 99 125.3 84 134.2 109.6 148.2"/><path class="d" d="M124.6,113.8s-1.6-2.6-6.2.6a74.6,74.6,0,0,0-7.9,6.3,81,81,0,0,0-14.9,7.5,69.9,69.9,0,0,1-8.4,5.3H82.4s8.6-5.3,11.3-6.1a86.1,86.1,0,0,1,15.4-8.1s13.2-13.1,17.3-6.5Z"/><path class="d" d="M95,133.5s12.4-7.3,20.5-10c0,0,6.5-8.1,12.1-10.3,7.2-2.7,7.4-.1,8.2,1.2l1.9-.6s-2.6-6.3-12.1-1.4a34.2,34.2,0,0,0-10.8,9.6s-14,5.5-22.9,11.5Z"/><path class="d" d="M143.9,117.4a18.4,18.4,0,0,1-4.4,5.2h-.8c-13.9,1-17.7,9.5-17.7,9.5-4.3.8-12.1,4.7-14,5.7a15.4,15.4,0,0,0-3.6-2.7c1.4-.8,9.7-5.2,13.9-6.2,0,0,4.1-6.4,15-11.9S143.9,117.4,143.9,117.4Zm-88.7,6c6.7,4.1,10.7,8.9,14,10.3s5.7,1.5,21.7,1c0,0,4.7-.3,6.8.3s6,1,9,4.5a102.3,102.3,0,0,1,15.4-5.8s3.3-9.1,16.2-9.6,7.3,4.7,6.5,5.3-7,5.4-9.9,7.3-10.8,10.4-13.6,13-7.3,4.8-13.5,6.2-19.4,4.8-25.1,8.3-8.9,1.7-11.4.9-14.9-4.8-21.1-6.7-9.7-3.9-19.9-6.1-20,13.1-20,13.1C23.1,154,29.8,154.3,32.8,155s33.1,10.9,39,12.8,9.1-.3,12-1.6a110.8,110.8,0,0,1,22.4-7.9c10.3-2.4,14.2-5.5,16-6.8s8.4-8.4,10-9.7,13.5-11.2,14.8-11.7,4.9-7.4-5.6-7.6c.7-.8,3.5-2.7,3.9-5.1,0,0-.7-6-7-4.2s-14.3,5-21.6,14.2c0,0-9,3-15.1,6.9l-2.1-.7-1.6-.4m.2.1a32.8,32.8,0,0,0-9.5-.4c-2.1.2-16.9,2.2-22.1-3.2a47.7,47.7,0,0,0-8.4-6.8A65.2,65.2,0,0,0,47.3,117l-2-.8a42.7,42.7,0,0,0-13-2.9H30.4a35.3,35.3,0,0,0-20.3,5.7"/><path class="e" d="M130,40.2c0-1.4-.1-2.3-2.8-1.9a35.3,35.3,0,0,1-5.6.5c-1.2-.1-3.8.4-4.6-.2s.2.5-2-2.4-13.5-.5-15.6,1.5-3.7,2.5-4.5,5.9-2.2,7.8-2.5,10.2.4,8.9-2.9,13.7-1.7,5.4-6.3,10.1S68.1,94,64.9,97.1s-9.8,12-10.1,16.8.8,7.1-2,7-15.9-1.2-17.5-1.2-4.2-.3-4.7,1.3,1.6,2.4,4.7,3.1,16.8,2.2,18.3,2.5,2.1-.1,2.8,1.3a6.3,6.3,0,0,0,4.3,3.9c2.4.5,5,.4,6.9,1.2a39.5,39.5,0,0,0,9.1,1.7c2.2.1,4.8-1,5.6-1l1.7.3a1.1,1.1,0,0,0,1.1-1.2c0-.7.2-2.4-3-3.5l-1.9-.6H83c.4.1,2.5-.1,3,.3s3.6.7,4.5.7,3.1-.5,3.8-.5,1.3-1.1,1.2-2-.9-2.6-1.6-2.7l-3.5-.8c-.4-.2-.9-.3-1.2-1.6a15.2,15.2,0,0,1-.1-3.6,8.6,8.6,0,0,1,1.3-2l5.4-4.5c.9-.7,2.5-1.3,2.5.1s.5,9.6.5,10.5-.4,3.3.3,4.1a10,10,0,0,1,2,2.6c.4,1,2.5,4.8,2.7,5.8s.8,2.7,2,3.1a15.4,15.4,0,0,0,6.2.3c2.1-.4,2.9-.6,3.5-1a1.9,1.9,0,0,0,.1-2.7,3.8,3.8,0,0,0-1.3-1.2,12.5,12.5,0,0,1,2.4-.2l2.6.6a10.2,10.2,0,0,0,2.8-.9c.5-.3.6-2.3-.4-3.3s-3.3-1.4-3.9-1.8a3.6,3.6,0,0,1-2.9-3.2c-.6-2.8-1.4-2.1-.9-6.6s1.6-13.1,1.9-15-.2-4.2,1.3-7.3a98.3,98.3,0,0,0,4.4-10.6,11.1,11.1,0,0,0-.3-7.6c-1.4-3.5-1.5-3.5-1.5-4.5s-1.9-3.2-2.5-5.4a60.4,60.4,0,0,1-.5-9.9c0-1-.4-2.5,2.6-4.3s6.8-3.8,8-4.8a5.3,5.3,0,0,0,2.4-4.2C129.9,42.6,130,41.6,130,40.2ZM108,54.6c-.8,2.8-3.7,2.9-6.3,1.8,0,0,4.7.9,5.1-2.2s-2.1-5.5-3.1-7a16.6,16.6,0,0,1-1.9-6.2,50.5,50.5,0,0,0,2.9,5.7C105.9,48.4,108.8,51.8,108,54.6Zm3.2,77.6a5.3,5.3,0,0,1-3.1-2.2c-.4-.8-2.6-3.6-2.5-5s0-8.5.2-10,1.1-5.6,1.4-6.7.1.4.1,1.8,0,7.5-.1,8.7-.8,2.3.7,4.3a24.9,24.9,0,0,1,3.2,5.9c.4,1.2.7,2.6,1,3.5Z"/><path class="f" d="M97.6,118.2c-.8-7-1.1-9-2.6-13.2s-4.3-8.4-7.3-9.9c-.4-2.3-1.1-5.2-1.5-6.8a47.5,47.5,0,0,0-3.9-9.7c-2.4-4.4-4.4-6.7-6.1-7.8s-2.5-1.9-3.1-1.9A14.8,14.8,0,0,0,70,61.7c-3.4-4.3-4.5-3.4-4.7-3s-.8,2.6-1,3.1-.6,2.5-.7,2.8-.1.6-.6.8l-5.6,2.5a3.8,3.8,0,0,0-1.6,1.7,3.3,3.3,0,0,1-.5,1.5,7.5,7.5,0,0,1-2.2,1.3l-1.8,1.2c-.2.2-.1.7,0,1.5a10.9,10.9,0,0,0,1.4,3.1c.5.5.8.4.9,1s.5,1.4,1.1,1.6a30.3,30.3,0,0,0,4.2.6,24.5,24.5,0,0,1,3.9.8,5.5,5.5,0,0,1,2.2,1A13.2,13.2,0,0,1,67.9,89c.5,2.4-.8,4.7-1.6,6-2.8,1.8-6.5,6-9.9,13.2-5.6,12.1,4.3,21.6,4.3,21.6a33.4,33.4,0,0,1,6,1.5c1.6.8,4.2,1.6,5.6,2.7s1.7,1.7,4.2,1.7a48,48,0,0,0,9.8-1.6c3.6-.9,2.6-1.1,6.7-1.5l1.8-2.2C96,128.9,98.4,125.3,97.6,118.2Z"/><path class="d" d="M97.6,118.1c-.8-7-1.1-9-2.6-13.2s-4.5-9.1-7.5-10.5c-.4-2.4-.9-4.6-1.3-6.2a45.4,45.4,0,0,0-3.9-9.7c-2.4-4.4-4.4-6.7-6.1-7.8s-2.2-1.9-2.8-1.8a16.2,16.2,0,0,0-3.1-7.6c-3.4-4.2-4.8-3.1-5-2.7s-.8,2.6-1,3.1-.6,2.5-.7,2.8-.1.6-.6.8l-5.6,2.5a3.8,3.8,0,0,0-1.6,1.7,3.3,3.3,0,0,1-.5,1.5,7.5,7.5,0,0,1-2.2,1.3,11.1,11.1,0,0,0-1.8,1.2c-.2.2-.1.7,0,1.5a10.9,10.9,0,0,0,1.4,3.1c.5.5.8.4.9,1s.5,1.4,1.1,1.6a30.3,30.3,0,0,0,4.2.6,24.5,24.5,0,0,1,3.9.8,5.5,5.5,0,0,1,2.2,1,13.2,13.2,0,0,1,2.9,5.8c.5,2.4-.9,4.2-1.7,5.5-2.8,1.8-6.7,6.5-10.1,13.7-5.9,12.9,4.6,21.6,4.6,21.6a33.4,33.4,0,0,1,6,1.5c1.6.8,4.2,1.6,5.6,2.7s1.7,1.7,4.2,1.7a48,48,0,0,0,9.8-1.6c3.6-.9,2.7-.6,6.8-1.1a13.8,13.8,0,0,1,1.7-2.6C96,128.8,98.4,125.2,97.6,118.1Zm-5.7,14.4a18.1,18.1,0,0,0-5.8.9c-3,1.1-5.1,1-7.3,1.3s-2.9.5-3.9,0a15,15,0,0,0-3-2.1,43.6,43.6,0,0,0-10.2-3.3,18,18,0,0,1-5.8-10.5c-1.2-6.9,2-11.7,4-15.1s6.8-9.4,9-9.1.5,2.5-.3,3.4-7.7,8-8.7,14.6A15.6,15.6,0,0,0,68,129c5.1,2.8,12.8,3.8,17-4.4,0,0-6.1,9.5-16.6,3.3s-8.5-17.4-3.5-24c3.5-4.5,8-8.5,5.1-10a2.6,2.6,0,0,0-1.8-.3,8.2,8.2,0,0,0,.7-2.8c.2-2.5-1.4-6.8-2.6-7.9s-1.7-1.4-2.6-1.5a19.3,19.3,0,0,1-3.3-.9c-.6-.3-3.2-.5-4-.7s-1.1-.3-1.3-.7a4.5,4.5,0,0,0-.6-1.2,10.5,10.5,0,0,1-1.7-2.2,3.5,3.5,0,0,1-.4-1.8,4.5,4.5,0,0,1,1.5-.6A4.8,4.8,0,0,0,55.8,72c.4-.3.6-1.5.9-2a3.2,3.2,0,0,1,1.9-1.7c1-.3,3.1-1.7,3.8-1.8a5.5,5.5,0,0,0,1.8-.6c.5-.3.6-2.9.8-3.7a12.1,12.1,0,0,1,.8-2.5c.4-.9,1.4,0,1.7.4a14.6,14.6,0,0,1,3.8,5,15.5,15.5,0,0,1,1.6,3.8.6.6,0,0,0,.1.4h0c0,.2.1,1.2.2.8v-.3s1.7.7,4.3,3.7,3.9,4.2,7.1,12.9S87,97.6,87.8,99.8a4.8,4.8,0,0,0,2.2,3A13.4,13.4,0,0,1,88.3,98c0-.4-.2-1.4-.3-2.1h0a24,24,0,0,1,4.9,7.7,51.1,51.1,0,0,1,3.3,14C96.5,122.1,96.6,125.2,91.9,132.5Z"/><path class="c" d="M11.3,147.8a33.7,33.7,0,0,0,14.8,3.4H58.4a35.8,35.8,0,0,0,10.2-1.6c8.6-.1,23.2.6,34.1-1.1a9.8,9.8,0,0,0,5.2-2c3.7-2.7.2-7,.2-7l-.5-.7c-1.9-2.2-7.3-5.2-9.7-5.5a32.8,32.8,0,0,0-9.5-.4c-2.1.2-17.1,2.3-22.4-3a48.7,48.7,0,0,0-8.3-6.9A74.3,74.3,0,0,0,46.8,117l-2-.8a48.8,48.8,0,0,0-13-2.9H29.9c-15.7-.3-18.9,6.3-18.9,6.3Z"/><path class="d" d="M66,129.8a48.7,48.7,0,0,0-8.3-6.9c-2.9-2.4-7.5-4.4-10.9-5.9l-2-.8a48.8,48.8,0,0,0-13-2.9H29.9c-15.7-.3-24.1,9-24.1,9,26.8-14.2,41.5-3.4,48.9,1.2s10.8,8.9,14,10.3,5.7,1.6,21.7,1c12.8-.4,19.5,6.9,15.3,10.5a10.2,10.2,0,0,1-5.1,1.6c-7.8.7-18.5.9-25.3,1h-7c-2.6,1.4-9.9,3.4-9.9,3.4a35.8,35.8,0,0,0,10.2-1.6c8.6-.1,23.2.6,34.1-1.1a9.8,9.8,0,0,0,5.2-2c3.7-2.7.2-7,.2-7l-.5-.7c-1.9-2.2-7.3-5.2-9.7-5.5a32.8,32.8,0,0,0-9.5-.4C86.3,133,71.3,135.1,66,129.8Z"/><path class="g" d="M217.5,77.8V46.1h2.2V77.8Z"/><path class="g" d="M226.3,69.9v2c0,1.3,0,4.2,3.5,4.2,1.7,0,3.3-.7,3.3-3.8s-.6-2.8-3.8-5.6-4-3.5-4-6.7.5-4.9,4.7-4.9,4.7,3.7,4.7,5.4v1.6h-1.9V60.5c0-2.4-.8-3.6-2.8-3.6s-2.8,2-2.8,3,.1,2.6,4.4,6.2c2.1,1.8,3.4,3,3.4,6.2s-1.5,5.6-5.2,5.6-5.4-2.6-5.4-6.3V69.9Z"/><path class="g" d="M239.4,77.8V46.1h1.8V77.8Z"/><path class="g" d="M246.7,52.6V49.1h1.9v3.5Zm0,25.2V55.2h1.9V77.8Z"/><path class="g" d="M262.6,77.8V60c0-1.6-.5-3.4-2.8-3.4s-2.9,1.1-3.7,2.9V77.8h-1.9V55.2h1.9v2.2a4.5,4.5,0,0,1,4.1-2.4c1.9,0,4.3,1,4.3,4.5V77.8Z"/><path class="g" d="M280,79.4c0,3.8-2.6,5.5-5.5,5.5s-3.7-.6-4.5-2.3a6.3,6.3,0,0,1-.5-2.5h1.9a5.4,5.4,0,0,0,.4,1.7c.6,1.3,2.5,1.3,2.7,1.3s3.6-.2,3.6-3.4V75.8a5.2,5.2,0,0,1-3.9,2c-3.2,0-4.5-2.4-4.5-5.3V60.1c0-4,2.3-5.1,4.6-5.1a4.3,4.3,0,0,1,3.8,2.1V55.2H280Zm-1.9-19.5a3.5,3.5,0,0,0-3.4-3.1c-2.5,0-3.1,1.9-3.1,4V72.1c0,2.9,1.2,3.8,3,3.8s3-1,3.5-3.3Z"/><path class="g" d="M283.6,55.2h2.3V49.4h2v5.8h3.3V57h-3.3V74.8c0,1.3,1.3,1.3,1.7,1.3h1.6v1.8h-2c-2.5,0-3.3-.8-3.3-2.6V57h-2.3Z"/><path class="g" d="M304.6,71.9c0,4.3-2.4,6-5.3,6s-5.2-1.8-5.2-4.9V60.5c0-2.8,1.4-5.4,5.4-5.4s5.1,2.1,5.1,5.5Zm-1.9-11.1c0-1.6-.4-3.8-3.2-3.8s-3.5,2.1-3.5,4.3V72.4c0,2.4,1.2,3.7,3.3,3.7s3.4-2.4,3.4-3.9Z"/><path class="g" d="M318,77.8V60c0-1.6-.5-3.4-2.7-3.4s-3,1.1-3.8,2.9V77.8h-1.9V55.2h1.9v2.2a4.6,4.6,0,0,1,4.2-2.4c1.8,0,4.2,1,4.2,4.5V77.8Z"/><path class="g" d="M340.9,77.8h-2.3l-5.3-31.7h2.3l4.2,27.1,4.6-27.1h2.2Z"/><path class="g" d="M351,52.6V49.1h1.9v3.5Zm0,25.2V55.2h1.9V77.8Z"/><path class="g" d="M358.4,77.8V46.1h1.9V77.8Z"/><path class="g" d="M365.8,77.8V46.1h1.8V77.8Z"/><path class="g" d="M383.6,77.8c-1.9,0-2.5-.6-2.8-1.7a7,7,0,0,1-4.4,1.7c-3.1,0-4.4-2.5-4.4-5.3,0-6.4,5.9-6.8,8.7-9.3V60.1c0-1.8-.4-3.2-2.7-3.2s-3.1,1.1-3.1,4.1v1.2H373V61c0-4.4,1.7-5.9,5.1-5.9s4.6,1.8,4.6,4.5V75.2c0,.8.6.8,1.3.8v1.8Zm-2.8-12.5c-1.1.8-2.5,1.5-3.7,2.2a5.3,5.3,0,0,0-3.1,5.1c0,.7.1,3.4,2.9,3.4s2.8-.9,3.9-2.1Z"/><path class="g" d="M398.1,79.4c0,3.8-2.5,5.5-5.5,5.5s-3.7-.6-4.4-2.3a4.9,4.9,0,0,1-.5-2.5h1.9a4.5,4.5,0,0,0,.3,1.7c.7,1.3,2.5,1.3,2.8,1.3a3.3,3.3,0,0,0,3.5-3.4V75.8a5.2,5.2,0,0,1-3.9,2c-3.2,0-4.4-2.4-4.4-5.3V60.1c0-4,2.3-5.1,4.6-5.1a4.1,4.1,0,0,1,3.7,2.1V55.2h1.9Zm-1.9-19.5a3.4,3.4,0,0,0-3.3-3.1c-2.6,0-3.1,1.9-3.1,4V72.1c0,2.9,1.2,3.8,3,3.8a3.7,3.7,0,0,0,3.4-3.3Z"/><path class="g" d="M413.5,72.8c0,2.4-1.3,5.1-5.2,5.1s-5.1-1.6-5.1-5.3V60.5c0-2.8,1.2-5.4,5.1-5.4s5.2,1.8,5.2,5.8v5.8h-8.4v5.6c0,1.3.3,3.8,3.2,3.8s3.3-2.4,3.3-4.5V70h1.9Zm-1.9-12.2c0-2.6-1.5-3.8-3.2-3.8s-3.3,1.7-3.3,4v4.3h6.5Z"/><path class="g" d="M186.8,139.9l-2.4-14.5h-10l-2.5,14.5h-3.5l8.7-48h4.6l8.6,48Zm-7.4-43.6-4.4,26h8.8Z"/><path class="g" d="M209.6,139.9V113.1c0-2.5-.8-5.1-4.1-5.1s-4.5,1.6-5.7,4.3v27.6H197v-34h2.8v3.2a7.3,7.3,0,0,1,6.3-3.6c2.7,0,6.4,1.5,6.4,6.8v27.6Z"/><path class="g" d="M220.4,101.9V96.6h2.9v5.3Zm0,38v-34h2.8v34Z"/><path class="g" d="M256.8,139.9V114.1c0-3.5-.5-5.9-4.2-5.9a5.8,5.8,0,0,0-5.5,4.2v27.5h-2.9v-27c0-2.9-1.7-4.8-4.3-4.8a6.3,6.3,0,0,0-5.5,3.7v28.1h-2.8v-34h2.9v2.8a8.3,8.3,0,0,1,6.3-3.2,6.2,6.2,0,0,1,5.8,4c.7-1,2.7-4.1,6.8-4.1s6.3,2.1,6.3,7.5v27Z"/><path class="g" d="M283.6,139.9c-2.8,0-3.8-.9-4.2-2.6a10.5,10.5,0,0,1-6.6,2.6c-4.7,0-6.6-3.8-6.6-8,0-9.6,8.9-10.2,13.1-14v-4.7c0-2.6-.7-4.8-4.2-4.8s-4.6,1.7-4.6,6.2v1.8h-2.9v-1.8c0-6.7,2.6-8.9,7.7-8.9s6.9,2.6,6.9,6.8V136c0,1.1.9,1.2,2,1.2v2.7ZM279.4,121c-1.7,1.2-3.9,2.3-5.6,3.3s-4.7,4-4.7,7.7c0,1.1.2,5.2,4.4,5.2,2.6,0,4.3-1.4,5.9-3.2Z"/><path class="g" d="M290.1,139.9V92.2h2.8v47.7Z"/><path class="g" d="M331,139.9V116.3H318.7v23.6h-3.2V92.2h3.2v21.2H331V92.2h3.3v47.7Z"/><path class="g" d="M357.8,131c0,6.5-3.6,9.1-8,9.1s-7.8-2.8-7.8-7.4V113.9c0-4.2,2.2-8.2,8.2-8.2s7.6,3.1,7.6,8.2Zm-2.9-16.6c0-2.5-.6-5.9-4.7-5.9s-5.3,3.2-5.3,6.5v16.8c0,3.6,1.9,5.5,4.9,5.5s5.1-3.6,5.1-5.9Z"/><path class="g" d="M366.4,127.9v3c0,2.1,0,6.4,5.3,6.4,2.6,0,4.9-1.1,4.9-5.7s-.8-4.3-5.6-8.4-6.1-5.3-6.1-10.1c0-2.9.7-7.3,7.1-7.3s7.1,5.4,7.1,8.1v2.3h-2.9v-2.3c0-3.7-1.2-5.4-4.2-5.4s-4.2,2.9-4.2,4.4c0,3.1.1,4,6.6,9.4,3.3,2.6,5.1,4.5,5.1,9.2s-2.2,8.6-7.8,8.6-8.1-4-8.1-9.6v-2.6Z"/><path class="g" d="M389.1,105.9v3a7.7,7.7,0,0,1,6.3-3.3c5.3,0,6.4,4.8,6.4,9v17.7c0,4.4-2.6,7.8-6.9,7.8a7.1,7.1,0,0,1-5.8-3v13.8h-2.8v-45Zm9.8,7.4c0-2.7-1.4-5.1-4.4-5.1a5.8,5.8,0,0,0-5.4,4.4v21a5.5,5.5,0,0,0,5.3,3.8c4.2,0,4.5-3.8,4.5-6.6Z"/><path class="g" d="M409.7,101.9V96.6h2.9v5.3Zm0,38v-34h2.8v34Z"/><path class="g" d="M418,105.9h3.5V97.1h2.9v8.8h5.1v2.7h-5.1v26.8c0,1.9,2,1.9,2.6,1.9h2.5v2.7l-3,.2c-3.8,0-5-1.3-5-4V108.6H418Z"/><path class="g" d="M450.5,139.9c-2.8,0-3.8-.9-4.2-2.6a10.8,10.8,0,0,1-6.6,2.6c-4.7,0-6.6-3.8-6.6-8,0-9.6,8.9-10.2,13.1-14v-4.7c0-2.6-.8-4.8-4.2-4.8s-4.6,1.7-4.6,6.2v1.8h-2.9v-1.8c0-6.7,2.6-8.9,7.7-8.9s6.9,2.6,6.9,6.8V136c0,1.1.9,1.2,2,1.2v2.7ZM446.3,121c-1.7,1.2-3.9,2.3-5.6,3.3s-4.7,4-4.7,7.7c0,1.1.2,5.2,4.4,5.2,2.6,0,4.2-1.4,5.9-3.2Z"/><path class="g" d="M457,139.9V92.2h2.8v47.7Z"/></svg>