<svg xmlns="http://www.w3.org/2000/svg" viewBox="0 0 485.6 485.3"><defs><style>.a{fill:#212120;}.b{fill:#f9a880;}.c{fill:#283934;}</style></defs><path class="a" d="M158.7,220.6V189.5h2.8V218h10.6v2.6Z"/><path class="a" d="M180.1,189.5h2.7v20.3c0,3.1.8,5.4,2.2,6.9s3.5,2.2,6.4,2.2,5-.7,6.4-2.2,2.1-3.8,2.1-6.9V189.5h2.8v19.4c0,4.2-.9,7.4-2.8,9.5s-4.7,3.1-8.5,3.1-6.7-1.1-8.5-3.1-2.8-5.3-2.8-9.5Z"/><path class="a" d="M213,220.6h-3.1l9.5-16.3-8.6-14.8H214l7,12.4,7-12.4h3.1l-8.6,14.7,9.5,16.4h-3.2l-7.9-13.7Z"/><path class="a" d="M237.8,189.5h2.8v20.3q0,4.6,2.1,6.9c1.4,1.5,3.5,2.2,6.4,2.2s5-.7,6.4-2.2,2.1-3.8,2.1-6.9V189.5h2.8v19.4c0,4.2-.9,7.4-2.8,9.5s-4.7,3.1-8.5,3.1-6.6-1.1-8.5-3.1-2.8-5.3-2.8-9.5Z"/><path class="a" d="M290.6,220.6h-3.4l-10.9-14.8h-1.7v14.8h-2.9V189.5h5.7c3.4,0,5.9.7,7.6,2.1s2.5,3.6,2.5,6.4a7.7,7.7,0,0,1-2.1,5.7,8.3,8.3,0,0,1-6,2.1Zm-16-28.6v11.5h2.8c2.6,0,4.5-.4,5.5-1.3s1.6-2.2,1.6-4.3a5.8,5.8,0,0,0-1.6-4.5c-1.1-.9-2.9-1.4-5.5-1.4Z"/><path class="a" d="M304.1,220.6V206.3l-10.3-16.8h3.4l8.3,14.3,8.4-14.3h3.2l-10.2,16.8v14.3Z"/><path class="a" d="M349.2,221.8l-10.9-24.9L336,220.6h-2.9l4.2-32.4,11.9,27.7,12.4-27.7,4,32.4h-3l-2.3-23.7Z"/><path class="a" d="M405.7,205.2a15,15,0,0,1-1.3,6.2,15.6,15.6,0,0,1-3.6,5.3,17.3,17.3,0,0,1-5.4,3.5,16.2,16.2,0,0,1-12.7,0,17.3,17.3,0,0,1-5.4-3.5,16.6,16.6,0,0,1-3.6-5.3,15,15,0,0,1-1.3-6.2,14.5,14.5,0,0,1,1.3-6.3,16,16,0,0,1,3.6-5.4,15.8,15.8,0,0,1,5.3-3.5,17.9,17.9,0,0,1,12.9,0,15.8,15.8,0,0,1,5.3,3.5,17.9,17.9,0,0,1,3.7,5.4A16.1,16.1,0,0,1,405.7,205.2ZM389,218.9a13.5,13.5,0,0,0,5.3-1,14.3,14.3,0,0,0,7.4-7.4,13.9,13.9,0,0,0,1-5.3,13.2,13.2,0,0,0-1-5.3,13.7,13.7,0,0,0-3-4.5,14.3,14.3,0,0,0-4.4-3,13.5,13.5,0,0,0-5.3-1,13.4,13.4,0,0,0-5.2,1,14.3,14.3,0,0,0-4.4,3,13.7,13.7,0,0,0-3,4.5,13.2,13.2,0,0,0-1,5.3,13.9,13.9,0,0,0,1,5.3,14.3,14.3,0,0,0,3,4.4,11.5,11.5,0,0,0,4.4,3A12.7,12.7,0,0,0,389,218.9Z"/><path class="a" d="M421.7,221.8l-12.2-32.3h3.2l9,25.4,9.4-25.4h3.1Z"/><path class="a" d="M442.4,220.6V189.5h15.4v2.7H445.2v9.7h12.6v2.7H445.2V218h12.6v2.6Z"/><path class="a" d="M172.8,271.6l-10.9-25-2.3,23.8h-2.9l4.2-32.5,11.9,27.7,12.4-27.7,4,32.5h-2.9l-2.4-23.8Z"/><path class="a" d="M195.4,270.4,209,238l13.1,32.4h-3l-4-10.6H202.4l-4.1,10.6Zm7.9-13h10.9l-5.3-13.5Z"/><path class="a" d="M230.4,270.4V237.9L252.5,264V239.3h2.6v32l-22-26.1v25.2Z"/><path class="a" d="M263.5,270.4,277.2,238l13,32.4h-3l-4-10.6H270.5l-4.1,10.6Zm7.9-13h10.9L277,243.9Z"/><path class="a" d="M321.5,247.1a12.4,12.4,0,0,0-4.6-4.5,13,13,0,0,0-6.3-1.5,12.4,12.4,0,0,0-9.4,3.9,14.4,14.4,0,0,0-3.6,10.2,13,13,0,0,0,1,5.2,12.7,12.7,0,0,0,2.8,4.4,10.7,10.7,0,0,0,4.2,2.8,11.8,11.8,0,0,0,5,1,12,12,0,0,0,8.6-3.1,10.9,10.9,0,0,0,3.3-8.1H311.8V255h13.8v.3c0,5-1.3,8.9-4,11.7s-6.5,4.2-11.2,4.2a15.5,15.5,0,0,1-11.5-4.5c-2.9-3-4.3-7-4.3-11.8a16.9,16.9,0,0,1,1.1-6.4,14.6,14.6,0,0,1,3.2-5.2,13.8,13.8,0,0,1,5-3.5,16.2,16.2,0,0,1,6.4-1.2,17.3,17.3,0,0,1,8.1,1.7,12,12,0,0,1,5.2,5Z"/><path class="a" d="M335.7,270.4V239.3h15.4v2.6H338.5v9.7h12.6v2.7H338.5v13.4h12.6v2.7Z"/><path class="a" d="M376.8,271.6l-11-25-2.3,23.8h-2.9l4.2-32.5,11.9,27.7,12.4-27.7,4,32.5h-2.9l-2.4-23.8Z"/><path class="a" d="M402.6,270.4V239.3H418v2.6H405.4v9.7H418v2.7H405.4v13.4H418v2.7Z"/><path class="a" d="M429.5,270.4V237.9L451.6,264V239.3h2.6v32l-22-26.1v25.2Z"/><path class="a" d="M471.8,270.4V241.9h-8.5v-2.6h19.9v2.6h-8.5v28.5Z"/><path class="a" d="M160.1,302.4v-5.2l-3.9-6.3h1.5l3.1,5,3-5h1.5l-3.9,6.3v5.2Z"/><path class="a" d="M182,296.7a5.9,5.9,0,0,1-.4,2.3,5.6,5.6,0,0,1-1.4,2,6.9,6.9,0,0,1-2,1.3,5.9,5.9,0,0,1-2.3.5,6,6,0,0,1-2.4-.5,6.9,6.9,0,0,1-2-1.3,5.6,5.6,0,0,1-1.4-2,6.8,6.8,0,0,1,0-4.6,5.6,5.6,0,0,1,1.4-2,5.3,5.3,0,0,1,2-1.3,6,6,0,0,1,2.4-.5,5.9,5.9,0,0,1,2.3.5,4.6,4.6,0,0,1,2,1.3,6.2,6.2,0,0,1,1.4,1.9A6.7,6.7,0,0,1,182,296.7Zm-6.1,4.8a5.8,5.8,0,0,0,1.8-.4,6.5,6.5,0,0,0,1.5-1,5.5,5.5,0,0,0,1.4-3.4,4.1,4.1,0,0,0-.4-1.9,4.9,4.9,0,0,0-1-1.5,4.4,4.4,0,0,0-1.5-1,3.9,3.9,0,0,0-1.8-.4,4.1,4.1,0,0,0-1.9.4,3.6,3.6,0,0,0-1.5,1,3.9,3.9,0,0,0-1,1.6,3.4,3.4,0,0,0-.4,1.8,5.5,5.5,0,0,0,1.4,3.4,6.5,6.5,0,0,0,1.5,1A5.8,5.8,0,0,0,175.9,301.5Z"/><path class="a" d="M188.5,290.9h1.4v7.2a4,4,0,0,0,.7,2.6,3.2,3.2,0,0,0,2.3.8,3.3,3.3,0,0,0,2.4-.8,4,4,0,0,0,.7-2.6v-7.2h1.4v7.2a5.2,5.2,0,0,1-1.1,3.5,4.4,4.4,0,0,1-3.4,1.2,4.2,4.2,0,0,1-3.3-1.2,4.8,4.8,0,0,1-1.1-3.5Z"/><path class="a" d="M204.5,302.4V290.9h4.4l1,.5a2.7,2.7,0,0,1,.8,1,7.7,7.7,0,0,1,.2,1.5,2.6,2.6,0,0,1-.8,2.2,3.2,3.2,0,0,1-2.3.7h-.2l4.4,5.5h-1.8l-4.2-5.5h-.2v5.5Zm1.3-10.3v3.8h1.1c1.1,0,1.8-.1,2.1-.4a1.7,1.7,0,0,0,.6-1.4,1.8,1.8,0,0,0-.6-1.6,3.7,3.7,0,0,0-2.1-.4Z"/><path class="a" d="M231.7,302.9l-3.6-8.3-1.4,7.8h-1.4l2.4-12,4,9.6,4-9.6,2.4,12h-1.4l-1.4-7.8Z"/><path class="a" d="M255.8,296.7a5.9,5.9,0,0,1-.4,2.3,6.9,6.9,0,0,1-1.3,2,7.4,7.4,0,0,1-2.1,1.3,5.9,5.9,0,0,1-2.3.5,6.9,6.9,0,0,1-2.4-.5,8.6,8.6,0,0,1-2-1.3,5.3,5.3,0,0,1-1.3-2,5.5,5.5,0,0,1,0-4.6,5.3,5.3,0,0,1,1.3-2,6.3,6.3,0,0,1,2-1.3,6.9,6.9,0,0,1,2.4-.5,5.9,5.9,0,0,1,2.3.5,5.7,5.7,0,0,1,2.1,1.3,8,8,0,0,1,1.3,1.9A6.7,6.7,0,0,1,255.8,296.7Zm-6.1,4.8a5.8,5.8,0,0,0,1.8-.4,4.9,4.9,0,0,0,1.5-1,4.3,4.3,0,0,0,1.4-3.4,4.1,4.1,0,0,0-.4-1.9,3.6,3.6,0,0,0-1-1.5,3.1,3.1,0,0,0-1.5-1,3.9,3.9,0,0,0-1.8-.4,4.1,4.1,0,0,0-1.9.4,4.4,4.4,0,0,0-1.5,1,5.4,5.4,0,0,0-1,1.6,3.4,3.4,0,0,0-.4,1.8,3.9,3.9,0,0,0,.4,1.8,4.2,4.2,0,0,0,2.6,2.6A4.8,4.8,0,0,0,249.7,301.5Z"/><path class="a" d="M265.2,302.9l-4.8-12h1.4l3.4,8.8,3.4-8.8h1.5Z"/><path class="a" d="M275.8,302.4V290.9h1.3v11.5Z"/><path class="a" d="M284.3,302.4v-12l8.4,9.3v-8.8H294v12l-8.4-9.1v8.6Z"/><path class="a" d="M307.5,296.5h4.7v.4a6.1,6.1,0,0,1-1.5,4.3,5.9,5.9,0,0,1-4.2,1.6l-1.6-.2-1.4-.5a5.6,5.6,0,0,1-2.1-2.2,5.3,5.3,0,0,1-.8-3.1,7.1,7.1,0,0,1,.4-2.6,7.7,7.7,0,0,1,1.4-2.1,6.5,6.5,0,0,1,4.1-1.5,6.2,6.2,0,0,1,2.9.6,5.4,5.4,0,0,1,2.1,1.9l-1.2.9a4.6,4.6,0,0,0-1.5-1.6,5.4,5.4,0,0,0-2.2-.5,4.3,4.3,0,0,0-3.3,1.3,5.2,5.2,0,0,0-1.2,3.6,4.9,4.9,0,0,0,1.2,3.4,4.4,4.4,0,0,0,3.3,1.3,4.3,4.3,0,0,0,2.9-1,4.1,4.1,0,0,0,1.3-2.8h-3.3Z"/><path class="b" d="M327.4,302.4V290.9h1.4v10.2h4.4v1.3Z"/><path class="b" d="M339.1,302.4V290.9h1.3v11.5Z"/><path class="b" d="M347.6,302.4V290.9h6v1.2h-4.7v3.4h4.7v1.2h-4.7v5.7Z"/><path class="b" d="M359.9,302.4V290.9H366v1.2h-4.7v3.4H366v1.2h-4.7v4.5H366v1.2Z"/><path class="b" d="M372.6,302.4V290.9H374v10.2h4.3v1.3Z"/><path class="b" d="M384.2,302.4V290.9h1.4v11.5Z"/><path class="b" d="M392.7,302.4v-12l8.4,9.3v-8.8h1.4v12l-8.5-9.1v8.6Z"/><path class="b" d="M409.6,302.4V290.9h6.1v1.2h-4.8v3.4h4.8v1.2h-4.8v4.5h4.8v1.2Z"/><path class="b" d="M131.1,303.2H73.5a3.8,3.8,0,0,1-3.7-3.8V241.9a3.7,3.7,0,0,1,3.7-3.7h57.6a3.6,3.6,0,0,1,3.7,3.7v57.5A3.7,3.7,0,0,1,131.1,303.2ZM73.5,239.5a2.3,2.3,0,0,0-2.3,2.4v57.5a2.3,2.3,0,0,0,2.3,2.4h57.6a2.4,2.4,0,0,0,2.4-2.4V241.9a2.4,2.4,0,0,0-2.4-2.4Z"/><path class="b" d="M63,235.1H5.4a3.7,3.7,0,0,1-3.7-3.7V173.9a3.8,3.8,0,0,1,3.7-3.8H63a3.8,3.8,0,0,1,3.7,3.8v57.5A3.7,3.7,0,0,1,63,235.1ZM5.4,171.5a2.3,2.3,0,0,0-2.3,2.4v57.5a2.3,2.3,0,0,0,2.3,2.4H63a2.4,2.4,0,0,0,2.4-2.4V173.9a2.4,2.4,0,0,0-2.4-2.4Z"/><path class="b" d="M131.1,235.1H73.5a3.7,3.7,0,0,1-3.7-3.7V173.9a3.8,3.8,0,0,1,3.7-3.8h57.6a3.7,3.7,0,0,1,3.7,3.8v57.5A3.6,3.6,0,0,1,131.1,235.1ZM73.5,171.5a2.3,2.3,0,0,0-2.3,2.4v57.5a2.3,2.3,0,0,0,2.3,2.4h57.6a2.4,2.4,0,0,0,2.4-2.4V173.9a2.4,2.4,0,0,0-2.4-2.4Z"/><path class="b" d="M63,303.2H5.4a3.8,3.8,0,0,1-3.7-3.8V241.9a3.7,3.7,0,0,1,3.7-3.7H63a3.7,3.7,0,0,1,3.7,3.7v57.5A3.8,3.8,0,0,1,63,303.2ZM5.4,239.5a2.3,2.3,0,0,0-2.3,2.4v57.5a2.3,2.3,0,0,0,2.3,2.4H63a2.4,2.4,0,0,0,2.4-2.4V241.9a2.4,2.4,0,0,0-2.4-2.4Z"/><path class="c" d="M34.4,209.6v-1.8a2.9,2.9,0,0,0-1-.5,14.8,14.8,0,0,0-.1,2.3,1.4,1.4,0,0,0,1.1,1.3c1,.3.9-.6.9-.8S34.4,209.6,34.4,209.6Zm-5.9-4.3a2.7,2.7,0,0,1,3.4,0c1.4,1,4.5,3.5,4.7,4.9a3.4,3.4,0,0,0,.9-.9s-3-5.5-7.4-5.7-2.8,3.6-1.9,4A4.2,4.2,0,0,1,28.5,205.3Zm1.3,7.5a8.7,8.7,0,0,1,.5-4.2,12.2,12.2,0,0,0,.7-3.1,1.9,1.9,0,0,0-2.5.7s-.1,6-.3,6.8.4,1.1,1.1,1.3a.9.9,0,0,0,1.1-.9C30.4,212.9,29.8,212.8,29.8,212.8Zm-.3-9.8a3.7,3.7,0,0,1,2.5.4c.4.2.7-.1.9.1l2.3,2.3s.1-2,.1-2.4-.8-1.1-.9-1.6,0-5.4,0-5.4l.3-1.6a97.5,97.5,0,0,0,1.8-9.8,2.6,2.6,0,0,0-1.7-2.4c-.4-.1-.4.4-.4.5a2,2,0,0,1-1.1.1c-.2,0-2.9-2.2-3.3-2.2s-3.2,2.6-3.6,2.6a.8.8,0,0,1-.9-.2c-.1-.3-.4-.3-.6-.3l-1.4,1.4c-.4.4-.4,1.7-.3,3.2s-.1,5.9-.1,5.9-1,.2-1.5.8a4.5,4.5,0,0,1-2.3.8,5.6,5.6,0,0,1-2.1-.6c-.8-.4-1.3,0-1.5.8s.7.9,1,.8.2-.5.2-.5.8.4.6,1.1-1.8,2.7-2.1,3.4.1.7.2.9-.7,1.1-1.2,2.1.3,2.7.9,4a5.2,5.2,0,0,1,.5,2.8.7.7,0,0,1-.5.4c-.5.2-.4.6-.4.6v.4a.9.9,0,0,0,1.4.2c.6-.4.7-3,.4-4.4a11.4,11.4,0,0,1-.4-3.1c0-.5.6-.9.7-1.2s.5-1,1.2-.1,4,.9,4.1,1.2.7,4,.7,4v.2H23v.2c-.1.3.2.7.2.7h1l-.2-5.4,3.1-.2C27.6,203.5,28.2,203.1,29.5,203Zm3.5-6.5-.5.9a5.8,5.8,0,0,1,.1-1c.1-.4,1.4-.9,1.4-.9Zm-2-1.1a13.2,13.2,0,0,1,1.7-1.7l2.2-7.1L33,193.9s-1.7,1.3-1.8,1.8l-.3,1.8A5.2,5.2,0,0,1,31,195.4Zm-1.1,3.2a16.8,16.8,0,0,0-2.9-.3A3.5,3.5,0,0,1,29.9,198.6Zm-11.6,0a9.8,9.8,0,0,0,.5-2.5,5.4,5.4,0,0,0,2.6-.3,3,3,0,0,1,1.4-.6v2.7A25.5,25.5,0,0,0,18.3,198.6Zm.4,2.5s10.4,1,11.7.5.4-.4.4-1.7.5,1.9-.3,2.1S21.5,201.9,18.7,201.1Zm27.8,16.8a1.1,1.1,0,0,0-.7-.3,1.8,1.8,0,0,0-.9.4l1.8,1.6a1.3,1.3,0,0,0,.2-1A.8.8,0,0,0,46.5,217.9Zm-8.6-4.5s.7-.8.4-1.2-1.1.2-1.5.2-4.9-.5-6.3-3.2c0,0-.4,1.3-.2,1.6S33,214.3,37.9,213.4Zm13.6,4.4L41.9,210l-1.2-1a1.5,1.5,0,0,0-2.1,0l-2.5,2.9h1.1c.5-.4,1.8-1,1.8.6s-1.3,1.5-1.3,1.5H34.5a2.1,2.1,0,0,0,0,1.5s10,8.5,10.9,9.1a2.7,2.7,0,0,0,2.2.1,63.2,63.2,0,0,0,4.1-5.1A1.5,1.5,0,0,0,51.5,217.8Zm-2.7,4-.3.2-.3-.2-1.2-1-1,.7-.9.2a2.7,2.7,0,0,1-.9,0c-.2-.1-.5-.2-.6-.4s-.2-.3-.3-.5.1-.3.2-.5l.4-.3h.4l.7.2h.5l.7-.2-2-1.7-1.1.7a2.1,2.1,0,0,1-1.1.1,1.8,1.8,0,0,1-1.1-.5,2.2,2.2,0,0,1-.8-1.5,3.2,3.2,0,0,1,.7-1.8l-.5-.4c-.2-.2-.3-.3-.1-.5s.3-.2.6,0l.4.4.9-.7.9-.2h.7l.5.2c.1.2.2.3.2.5s0,.4-.2.5a.6.6,0,0,1-.9.2,1.1,1.1,0,0,0-1.2.1l1.7,1.5,1-.7.8-.2h.9l.8.5a2.3,2.3,0,0,1,.7,1,2.5,2.5,0,0,1,.1,1.2,4.2,4.2,0,0,1-.6,1.4l1,.8.3.4A.2.2,0,0,1,48.8,221.8Zm-7.4-4.9a1.1,1.1,0,0,0,.3.7l.7.2.8-.3-1.6-1.4A1.3,1.3,0,0,0,41.4,216.9Z"/><path class="c" d="M31.6,285.8a14.3,14.3,0,0,1-5.8.9,13.6,13.6,0,0,1-5.6-.9c-3.6-.7-6.4-2-7.4-3.8h0c0,2.2,3,4,7.5,4.9a14.8,14.8,0,0,0,5.5.8c2.5,0,4.6-.3,5.6-.9,4.4-.8,7.4-2.7,7.4-4.8h0C37.8,283.8,35.1,285.1,31.6,285.8Zm0-1.6a14.3,14.3,0,0,1-5.8.9,15.8,15.8,0,0,1-5.6-.8c-3.6-.7-6.4-2-7.4-3.8h0c0,2.1,3,4,7.5,4.8a14.5,14.5,0,0,0,5.5.9,14.3,14.3,0,0,0,5.6-.9c4.4-.9,7.4-2.7,7.4-4.8h0C37.8,282.2,35.1,283.5,31.6,284.2Zm0-1.6a16.3,16.3,0,0,1-5.8.9,13.6,13.6,0,0,1-5.6-.9c-3.6-.7-6.4-2-7.4-3.8h0c0,2.2,3,4,7.5,4.9a14.8,14.8,0,0,0,5.5.8,14.3,14.3,0,0,0,5.6-.9c4.4-.8,7.4-2.7,7.4-4.8h0C37.8,280.6,35.1,281.9,31.6,282.6Zm-5.8-12.4c-7.2,0-13,2.4-13,5.4s3,4,7.5,4.8a14.5,14.5,0,0,0,5.5.9,14.3,14.3,0,0,0,5.6-.9c4.4-.9,7.4-2.7,7.4-4.8S33,270.2,25.8,270.2Zm8.3,6.3v-.2c0-1.7-3.7-3.1-8.2-3.1s-8.2,1.4-8.2,3.1h0a.9.9,0,0,1-.1-.5c0-1.8,3.7-3.2,8.3-3.2s8.4,1.4,8.4,3.2A1.4,1.4,0,0,1,34.1,276.5ZM31.6,281a14.3,14.3,0,0,1-5.8.9,15.8,15.8,0,0,1-5.6-.8c-3.6-.7-6.4-2-7.4-3.8h0c0,2.1,3,4,7.5,4.8a14.8,14.8,0,0,0,5.5.8,14.7,14.7,0,0,0,5.6-.8c4.4-.9,7.4-2.7,7.4-4.8h0C37.8,279,35.1,280.3,31.6,281Zm9.5-21.1,6,4,9.7-4.8-6.3-4.9-14.2-2.6L20.7,256l-4.2,6.8,16.9,4.1-12.8-2.4v5.6s1.5-.8,9.2-.1,9.3,4.3,9.3,4.3l.2,6.2,1,.3L51,273.9V262.4l-4.4,2.1ZM35,267l-.6-.2,4.8-7Zm5.3,10.3-.4-17.9-17.7-3.3,14-3.8L50,254.5l-9.6,4.8Z"/><path class="c" d="M110.2,257.9v-2.7a1.7,1.7,0,0,1,.1-.7.5.5,0,0,1,.5-.5h4.5c.4,0,.6.2.6.7v8.1a.9.9,0,0,0,.3.6l5.1,4.6a1.4,1.4,0,0,1,.3,1.2,1.1,1.1,0,0,1-1,.7h-2.4l-.6-.2-6.1-5.7-8-7.5-1.1-1c-.2-.2-.3-.2-.5,0l-5.4,5-9.8,9.2-.6.2H83.7a1,1,0,0,1-1-.6,1,1,0,0,1,.2-1.2l2.1-1.9,6.2-5.7,9.6-8.8a2,2,0,0,1,2.8.1Z"/><path class="c" d="M88.4,209.2a3.1,3.1,0,0,0-3.1,3.1,3.1,3.1,0,0,0,6.1,0A3.1,3.1,0,0,0,88.4,209.2Z"/><path class="c" d="M116.4,209.2a3,3,0,0,0-3,3.1,2.9,2.9,0,0,0,3,3,3,3,0,0,0,3.1-3A3.1,3.1,0,0,0,116.4,209.2Z"/><path class="c" d="M94.2,195.3H86.3a1.7,1.7,0,0,0-1.2.6L81,202.5a3.3,3.3,0,0,0-.4,1.4v6.2a.9.9,0,0,0,.8.8h3.1a4.2,4.2,0,0,1,3.9-2.4,4.4,4.4,0,0,1,3.9,2.4h1.9a.8.8,0,0,0,.8-.8v-14A.8.8,0,0,0,94.2,195.3Zm-12,14a.6.6,0,0,1-.6.6.6.6,0,0,1-.5-.6v-1.1a.6.6,0,0,1,.5-.6.6.6,0,0,1,.6.6Zm11-8a.9.9,0,0,1-.8.8H83.9c-.4,0-.6-.3-.3-.7l2.7-4.2a1.5,1.5,0,0,1,1.2-.7h4.9a.8.8,0,0,1,.8.8Z"/><path class="c" d="M121.8,189.9h-25a.8.8,0,0,0-.8.8v19.4a.9.9,0,0,0,.8.8h15.5a4.4,4.4,0,0,1,3.9-2.4,4.2,4.2,0,0,1,3.9,2.4h1.7a.8.8,0,0,0,.8-.8V190.7A.7.7,0,0,0,121.8,189.9Zm-3.6,11.7H106.7v1.8h0c0,.1,0,.2-.1.2h-.2l-4.2-2.7-1.9-1.3c-.2-.1-.2-.1,0-.3l6.1-3.9h.2c.1,0,.1.1.1.2v1.8h11.5c.4,0,.3,0,.3.3v3.6C118.5,201.6,118.6,201.6,118.2,201.6Zm3.2,7.7a.6.6,0,0,1-.5.6.6.6,0,0,1-.6-.6v-1.1a.6.6,0,0,1,.6-.6.6.6,0,0,1,.5.6Z"/><path class="c" d="M116.8,284.7c0-.5-.2-.7-.7-.8s-.2-.1-.2-.3V270.5a1.1,1.1,0,0,0-.3-.8l-3.8-3.5-9.4-8.8c-.2-.2-.3-.2-.6,0L88.6,269.7a.8.8,0,0,0-.2.7v13c0,.3,0,.4-.4.5a.7.7,0,0,0-.8.8V287c0,.7.3.9.9.9h27.8a.8.8,0,0,0,.9-.9ZM99.5,264.8c.1-.2.2-.2.2,0a15.9,15.9,0,0,1,.7,2c0,.1.1.2-.1.3l-1.7.7c-.1.1-.1-.1-.1-.2A4.8,4.8,0,0,1,99.5,264.8Zm5.4,5a4.8,4.8,0,0,0-1.5,2.2h0v6h0c0,1.5.1,3.1.1,4.6a2.1,2.1,0,0,1-.5,1.2,1.8,1.8,0,0,1-1.6.3,1.3,1.3,0,0,1-1-1.4,26.2,26.2,0,0,1,.1-2.8v-8.8a6.1,6.1,0,0,0-.7-1.4c-.1-.2-.3-.2-.5-.2l-.6.3c-.3.2-.4,0-.4-.3a.7.7,0,0,1,.4-.8L103,267a1.1,1.1,0,0,0,.6-1.5l-.6-1.7c-.1-.1-.2-.2-.1-.3a.2.2,0,0,1,.3,0,2.8,2.8,0,0,1,1.5.8A4.1,4.1,0,0,1,104.9,269.8Z"/></svg>