<?xml version="1.0" encoding="utf-8"?>
<!-- Generator: Adobe Illustrator 25.4.1, SVG Export Plug-In . SVG Version: 6.00 Build 0)  -->
<svg version="1.1" id="Layer_1" xmlns="http://www.w3.org/2000/svg" xmlns:xlink="http://www.w3.org/1999/xlink" x="0px" y="0px"
	 viewBox="0 0 485.3 485.3" enable-background="new 0 0 485.3 485.3" xml:space="preserve">
<g>
	<path fill="#212120" d="M158.7,220.6v-31.1h2.8V218h10.7v2.7H158.7z"/>
	<path fill="#212120" d="M180.1,189.5h2.8v20.3c0,3.1,0.7,5.4,2.1,6.9c1.4,1.5,3.5,2.2,6.4,2.2c2.8,0,5-0.7,6.4-2.2
		c1.4-1.5,2.1-3.8,2.1-6.9v-20.3h2.8v19.4c0,4.2-0.9,7.3-2.8,9.4c-1.9,2.1-4.7,3.1-8.5,3.1c-3.8,0-6.7-1-8.5-3.1
		c-1.9-2.1-2.8-5.2-2.8-9.4V189.5z"/>
	<path fill="#212120" d="M213,220.6h-3.1l9.5-16.4l-8.6-14.7h3.2l7,12.3l7.1-12.3h3.1l-8.6,14.7l9.5,16.4h-3.1l-7.9-13.8L213,220.6z
		"/>
	<path fill="#212120" d="M237.8,189.5h2.8v20.3c0,3.1,0.7,5.4,2.1,6.9c1.4,1.5,3.5,2.2,6.4,2.2c2.8,0,5-0.7,6.4-2.2
		c1.4-1.5,2.1-3.8,2.1-6.9v-20.3h2.8v19.4c0,4.2-0.9,7.3-2.8,9.4c-1.9,2.1-4.7,3.1-8.5,3.1c-3.8,0-6.7-1-8.5-3.1
		c-1.9-2.1-2.8-5.2-2.8-9.4V189.5z"/>
	<path fill="#212120" d="M290.6,220.6h-3.4l-10.9-14.8h-1.7v14.8h-2.8v-31.1h5.7c3.4,0,5.9,0.7,7.6,2.1c1.7,1.4,2.5,3.5,2.5,6.4
		c0,2.4-0.7,4.3-2.2,5.7c-1.4,1.4-3.4,2.1-5.9,2.1L290.6,220.6z M274.6,192v11.5h2.8c2.6,0,4.5-0.4,5.5-1.3c1-0.8,1.6-2.3,1.6-4.3
		c0-2.1-0.5-3.7-1.6-4.6c-1.1-0.9-2.9-1.4-5.5-1.4H274.6z"/>
	<path fill="#212120" d="M304.1,220.6v-14.3l-10.3-16.8h3.4l8.3,14.3l8.4-14.3h3.2l-10.2,16.8v14.3H304.1z"/>
	<path fill="#212120" d="M349.2,221.8l-10.9-25l-2.4,23.8h-2.9l4.2-32.4l11.9,27.7l12.4-27.7l4,32.4h-2.9l-2.3-23.8L349.2,221.8z"/>
	<path fill="#212120" d="M405.7,205.2c0,2.2-0.4,4.3-1.3,6.3c-0.8,2-2,3.7-3.6,5.3c-1.6,1.6-3.4,2.7-5.4,3.6c-2,0.8-4.1,1.2-6.4,1.2
		c-2.2,0-4.4-0.4-6.4-1.2c-2-0.8-3.8-2-5.4-3.6c-1.6-1.6-2.8-3.3-3.6-5.3c-0.8-2-1.2-4-1.2-6.2c0-2.2,0.4-4.3,1.2-6.3
		c0.8-2,2-3.8,3.6-5.3c1.6-1.5,3.3-2.7,5.3-3.5c2-0.8,4.1-1.2,6.4-1.2c2.3,0,4.4,0.4,6.5,1.2c2,0.8,3.8,2,5.3,3.5
		c1.6,1.6,2.8,3.3,3.6,5.3C405.3,200.8,405.7,202.9,405.7,205.2z M389,218.9c1.8,0,3.6-0.3,5.2-1c1.6-0.7,3.1-1.7,4.4-3
		c1.3-1.3,2.3-2.8,3-4.5c0.7-1.7,1-3.4,1-5.3c0-1.9-0.3-3.6-1-5.3c-0.7-1.7-1.7-3.2-3-4.5c-1.3-1.3-2.8-2.3-4.4-3
		c-1.7-0.7-3.4-1-5.3-1c-1.8,0-3.6,0.3-5.2,1c-1.6,0.7-3.1,1.7-4.4,3c-1.3,1.3-2.3,2.8-3,4.5c-0.7,1.7-1,3.4-1,5.3
		c0,1.9,0.3,3.6,1,5.3c0.7,1.7,1.7,3.2,3,4.5c1.3,1.3,2.8,2.3,4.4,3C385.4,218.6,387.1,218.9,389,218.9z"/>
	<path fill="#212120" d="M421.7,221.8l-12.2-32.3h3.2l9,25.3l9.4-25.3h3.1L421.7,221.8z"/>
	<path fill="#212120" d="M442.4,220.6v-31.1h15.4v2.7h-12.6v9.7h12.6v2.7h-12.6V218h12.6v2.7H442.4z"/>
	<path fill="#212120" d="M172.8,271.6l-10.9-25l-2.4,23.8h-2.9l4.2-32.4l11.9,27.7l12.4-27.7l4,32.4h-2.9l-2.3-23.8L172.8,271.6z"/>
	<path fill="#212120" d="M195.4,270.4L209,238l13.1,32.3h-3.1l-4-10.5h-12.7l-4.1,10.5H195.4z M203.3,257.4h10.8l-5.3-13.5
		L203.3,257.4z"/>
	<path fill="#212120" d="M230.4,270.4v-32.4l22,26v-24.7h2.6v32l-22-26.1v25.2H230.4z"/>
	<path fill="#212120" d="M263.5,270.4l13.7-32.3l13.1,32.3h-3.1l-4-10.5h-12.7l-4.1,10.5H263.5z M271.4,257.4h10.8l-5.3-13.5
		L271.4,257.4z"/>
	<path fill="#212120" d="M321.5,247.1c-1.3-2-2.8-3.4-4.7-4.4c-1.8-1-3.9-1.5-6.2-1.5c-3.9,0-7,1.3-9.4,3.9c-2.4,2.6-3.6,6-3.6,10.1
		c0,1.9,0.3,3.6,1,5.2c0.6,1.6,1.6,3.1,2.8,4.4c1.2,1.3,2.6,2.2,4.2,2.8c1.5,0.6,3.2,0.9,5.1,0.9c3.5,0,6.3-1,8.5-3.1
		c2.2-2.1,3.3-4.7,3.4-8.1h-10.7V255h13.8v0.3c0,5-1.4,8.8-4.1,11.6c-2.7,2.8-6.4,4.2-11.2,4.2c-4.7,0-8.5-1.5-11.5-4.5
		c-2.9-3-4.4-6.9-4.4-11.8c0-2.2,0.4-4.4,1.1-6.3c0.7-2,1.8-3.7,3.2-5.2c1.5-1.6,3.2-2.8,5.1-3.6c1.9-0.8,4-1.2,6.3-1.2
		c3.2,0,5.9,0.6,8.1,1.7c2.3,1.1,4,2.8,5.2,5L321.5,247.1z"/>
	<path fill="#212120" d="M335.7,270.4v-31.1h15.4v2.7h-12.6v9.7h12.6v2.7h-12.6v13.4h12.6v2.7H335.7z"/>
	<path fill="#212120" d="M376.8,271.6l-10.9-25l-2.4,23.8h-2.9l4.2-32.4l11.9,27.7l12.4-27.7l4,32.4h-2.9l-2.3-23.8L376.8,271.6z"/>
	<path fill="#212120" d="M402.6,270.4v-31.1H418v2.7h-12.6v9.7H418v2.7h-12.6v13.4H418v2.7H402.6z"/>
	<path fill="#212120" d="M429.5,270.4v-32.4l22,26v-24.7h2.6v32l-22-26.1v25.2H429.5z"/>
	<path fill="#212120" d="M471.8,270.4v-28.4h-8.6v-2.7h20v2.7h-8.6v28.4H471.8z"/>
</g>
<path fill="#212120" d="M160.1,302.4v-5.3l-3.9-6.3h1.6l3,5l3-5h1.6l-3.9,6.3v5.3H160.1z"/>
<path fill="#212120" d="M182,296.7c0,0.8-0.2,1.6-0.5,2.3c-0.3,0.7-0.8,1.4-1.3,1.9c-0.6,0.6-1.3,1-2,1.3c-0.8,0.3-1.5,0.5-2.4,0.5
	c-0.8,0-1.6-0.2-2.4-0.5c-0.8-0.3-1.4-0.7-2-1.3c-0.6-0.6-1-1.2-1.3-2s-0.5-1.5-0.5-2.3c0-0.8,0.2-1.6,0.5-2.3
	c0.3-0.7,0.8-1.4,1.3-2c0.6-0.6,1.2-1,2-1.3c0.8-0.3,1.5-0.5,2.4-0.5c0.8,0,1.6,0.2,2.4,0.5c0.8,0.3,1.4,0.7,2,1.3
	c0.6,0.6,1,1.2,1.3,2C181.9,295.1,182,295.9,182,296.7z M175.9,301.5c0.6,0,1.2-0.1,1.8-0.4c0.6-0.2,1.1-0.6,1.5-1
	c0.5-0.5,0.8-1,1-1.5c0.2-0.6,0.4-1.2,0.4-1.8c0-0.6-0.1-1.3-0.4-1.8s-0.6-1.1-1-1.5c-0.5-0.5-1-0.8-1.5-1c-0.6-0.2-1.2-0.4-1.8-0.4
	c-0.6,0-1.3,0.1-1.8,0.4c-0.6,0.2-1.1,0.6-1.5,1c-0.5,0.5-0.8,1-1,1.6c-0.2,0.6-0.4,1.2-0.4,1.8c0,0.6,0.1,1.2,0.4,1.8
	c0.2,0.6,0.6,1.1,1,1.5c0.5,0.5,1,0.8,1.5,1C174.6,301.3,175.2,301.5,175.9,301.5z"/>
<path fill="#212120" d="M188.5,290.9h1.4v7.2c0,1.2,0.2,2,0.7,2.6c0.5,0.5,1.3,0.8,2.3,0.8c1.1,0,1.8-0.3,2.3-0.8
	c0.5-0.5,0.7-1.4,0.7-2.6v-7.2h1.4v7.2c0,1.6-0.4,2.7-1.1,3.5c-0.7,0.8-1.9,1.2-3.4,1.2c-1.5,0-2.6-0.4-3.4-1.2
	c-0.7-0.8-1.1-1.9-1.1-3.5V290.9z"/>
<path fill="#212120" d="M204.5,302.4v-11.6h2.7c0.8,0,1.3,0,1.7,0.1c0.4,0.1,0.7,0.2,1,0.4c0.3,0.3,0.6,0.6,0.8,1.1
	c0.2,0.4,0.3,0.9,0.3,1.5c0,0.9-0.3,1.7-0.8,2.2c-0.5,0.5-1.3,0.7-2.3,0.7h-0.2l4.4,5.5h-1.7l-4.2-5.5h-0.2v5.5H204.5z M205.8,292.1
	v3.9h1.1c1.1,0,1.8-0.1,2.2-0.4c0.4-0.3,0.5-0.8,0.5-1.4c0-0.7-0.2-1.3-0.6-1.6c-0.4-0.3-1.1-0.4-2.1-0.4H205.8z"/>
<path fill="#212120" d="M231.7,302.9l-3.6-8.3l-1.5,7.9h-1.3l2.3-12l4,9.6l4-9.6l2.3,12h-1.3l-1.5-7.9L231.7,302.9z"/>
<path fill="#212120" d="M255.8,296.7c0,0.8-0.2,1.6-0.5,2.3c-0.3,0.7-0.8,1.4-1.3,1.9c-0.6,0.6-1.3,1-2,1.3
	c-0.8,0.3-1.5,0.5-2.4,0.5c-0.8,0-1.6-0.2-2.4-0.5c-0.8-0.3-1.4-0.7-2-1.3c-0.6-0.6-1-1.2-1.3-2s-0.5-1.5-0.5-2.3
	c0-0.8,0.2-1.6,0.5-2.3c0.3-0.7,0.8-1.4,1.3-2c0.6-0.6,1.2-1,2-1.3c0.8-0.3,1.5-0.5,2.4-0.5c0.8,0,1.6,0.2,2.4,0.5
	c0.8,0.3,1.4,0.7,2,1.3c0.6,0.6,1,1.2,1.3,2C255.7,295.1,255.8,295.9,255.8,296.7z M249.7,301.5c0.6,0,1.2-0.1,1.8-0.4
	c0.6-0.2,1.1-0.6,1.5-1c0.5-0.5,0.8-1,1-1.5c0.2-0.6,0.4-1.2,0.4-1.8c0-0.6-0.1-1.3-0.4-1.8s-0.6-1.1-1-1.5c-0.5-0.5-1-0.8-1.5-1
	c-0.6-0.2-1.2-0.4-1.8-0.4c-0.6,0-1.3,0.1-1.8,0.4c-0.6,0.2-1.1,0.6-1.5,1c-0.5,0.5-0.8,1-1,1.6c-0.2,0.6-0.4,1.2-0.4,1.8
	c0,0.6,0.1,1.2,0.4,1.8c0.2,0.6,0.6,1.1,1,1.5c0.5,0.5,1,0.8,1.5,1C248.4,301.3,249,301.5,249.7,301.5z"/>
<path fill="#212120" d="M265.2,302.9l-4.9-12h1.5l3.4,8.8l3.4-8.8h1.5L265.2,302.9z"/>
<path fill="#212120" d="M275.8,302.4v-11.6h1.4v11.6H275.8z"/>
<path fill="#212120" d="M284.3,302.4v-12l8.5,9.2v-8.8h1.3v12l-8.5-9.1v8.7H284.3z"/>
<path fill="#212120" d="M307.5,296.5h4.8v0.4c0,1.8-0.5,3.3-1.5,4.3c-1,1.1-2.4,1.6-4.2,1.6c-0.5,0-1.1-0.1-1.6-0.2
	c-0.5-0.1-0.9-0.3-1.4-0.5c-0.9-0.5-1.7-1.2-2.2-2.2c-0.5-0.9-0.8-2-0.8-3.1c0-1,0.2-1.8,0.5-2.6c0.3-0.8,0.8-1.5,1.4-2
	c0.5-0.5,1.1-0.9,1.8-1.1c0.7-0.3,1.5-0.4,2.3-0.4c1.1,0,2.1,0.2,2.9,0.6c0.8,0.4,1.5,1,2,1.8l-1.2,0.9c-0.4-0.7-0.9-1.2-1.6-1.6
	c-0.6-0.4-1.3-0.5-2.2-0.5c-1.3,0-2.4,0.5-3.3,1.4c-0.8,0.9-1.3,2.1-1.3,3.6c0,1.4,0.4,2.5,1.3,3.4c0.8,0.9,1.9,1.3,3.2,1.3
	c1.2,0,2.1-0.4,2.9-1.1c0.8-0.7,1.2-1.6,1.3-2.7h-3.3V296.5z"/>
<path fill="#F9A880" d="M327.4,302.4v-11.6h1.4v10.2h4.4v1.3H327.4z"/>
<path fill="#F9A880" d="M339.1,302.4v-11.6h1.4v11.6H339.1z"/>
<path fill="#F9A880" d="M347.6,302.4v-11.6h6.1v1.3h-4.7v3.3h4.7v1.3h-4.7v5.7H347.6z"/>
<path fill="#F9A880" d="M359.9,302.4v-11.6h6.1v1.3h-4.7v3.3h4.7v1.3h-4.7v4.4h4.7v1.3H359.9z"/>
<path fill="#F9A880" d="M372.6,302.4v-11.6h1.4v10.2h4.4v1.3H372.6z"/>
<path fill="#F9A880" d="M384.2,302.4v-11.6h1.4v11.6H384.2z"/>
<path fill="#F9A880" d="M392.7,302.4v-12l8.5,9.2v-8.8h1.3v12l-8.5-9.1v8.7H392.7z"/>
<path fill="#F9A880" d="M409.6,302.4v-11.6h6.1v1.3h-4.7v3.3h4.7v1.3h-4.7v4.4h4.7v1.3H409.6z"/>
<g>
	<path fill="#F9A880" d="M131.1,303.2H73.5c-2.1,0-3.8-1.7-3.8-3.8v-57.5c0-2.1,1.7-3.8,3.8-3.8h57.5c2.1,0,3.8,1.7,3.8,3.8v57.5
		C134.8,301.5,133.2,303.2,131.1,303.2z M73.5,239.5c-1.3,0-2.4,1.1-2.4,2.4v57.5c0,1.3,1.1,2.4,2.4,2.4h57.5c1.3,0,2.4-1.1,2.4-2.4
		v-57.5c0-1.3-1.1-2.4-2.4-2.4H73.5z"/>
</g>
<g>
	<path fill="#F9A880" d="M63,235.1H5.4c-2.1,0-3.8-1.7-3.8-3.8v-57.5c0-2.1,1.7-3.8,3.8-3.8H63c2.1,0,3.8,1.7,3.8,3.8v57.5
		C66.7,233.5,65,235.1,63,235.1z M5.4,171.5c-1.3,0-2.4,1.1-2.4,2.4v57.5c0,1.3,1.1,2.4,2.4,2.4H63c1.3,0,2.4-1.1,2.4-2.4v-57.5
		c0-1.3-1.1-2.4-2.4-2.4H5.4z"/>
</g>
<g>
	<path fill="#F9A880" d="M131.1,235.1H73.5c-2.1,0-3.8-1.7-3.8-3.8v-57.5c0-2.1,1.7-3.8,3.8-3.8h57.5c2.1,0,3.8,1.7,3.8,3.8v57.5
		C134.8,233.5,133.2,235.1,131.1,235.1z M73.5,171.5c-1.3,0-2.4,1.1-2.4,2.4v57.5c0,1.3,1.1,2.4,2.4,2.4h57.5c1.3,0,2.4-1.1,2.4-2.4
		v-57.5c0-1.3-1.1-2.4-2.4-2.4H73.5z"/>
</g>
<g>
	<path fill="#F9A880" d="M63,303.2H5.4c-2.1,0-3.8-1.7-3.8-3.8v-57.5c0-2.1,1.7-3.8,3.8-3.8H63c2.1,0,3.8,1.7,3.8,3.8v57.5
		C66.7,301.5,65,303.2,63,303.2z M5.4,239.5c-1.3,0-2.4,1.1-2.4,2.4v57.5c0,1.3,1.1,2.4,2.4,2.4H63c1.3,0,2.4-1.1,2.4-2.4v-57.5
		c0-1.3-1.1-2.4-2.4-2.4H5.4z"/>
</g>
<g>
	<path fill="#283934" d="M34.4,209.6l-0.1-1.8c-0.3-0.4-1-0.5-1-0.5s-0.1,1.9-0.1,2.3c0,0.4,0.2,1,1.2,1.3c0.9,0.3,0.9-0.6,0.9-0.8
		C35.2,209.8,34.4,209.6,34.4,209.6z M28.5,205.3c0.6-0.7,2-1,3.4,0c1.3,1,4.5,3.4,4.6,4.9c0,0,0.6-0.5,0.9-0.9c0,0-3-5.5-7.4-5.7
		c-4.4-0.2-2.8,3.6-1.9,4C28.2,207.6,28,206,28.5,205.3z M29.8,212.8c-0.3-0.5-0.1-2.7,0.5-4.3s0.7-3.1,0.7-3.1
		c-1.7-0.7-2.5,0.7-2.5,0.7s-0.1,6.1-0.3,6.9c-0.2,0.8,0.4,1.1,1.1,1.3c0.7,0.1,1.1-0.3,1.1-0.8S29.8,212.8,29.8,212.8z M29.5,203
		c1.3-0.1,2.1,0.2,2.5,0.4c0.4,0.2,0.7-0.1,0.9,0.1c0.2,0.1,2.3,2.4,2.3,2.4s0.2-2.1,0.1-2.4c0-0.3-0.8-1.1-0.9-1.6
		c-0.1-0.5,0-5.4,0-5.4s0,0,0.3-1.6c0.3-1.6,1.8-8.3,1.8-9.8c0-1.4-1.3-2.3-1.7-2.4c-0.4-0.1-0.4,0.4-0.5,0.5
		c-0.1,0.1-0.9,0.2-1.1,0.1c-0.2-0.1-2.8-2.2-3.2-2.2c-0.4,0-3.3,2.5-3.6,2.6c-0.3,0.1-0.7,0.1-0.9-0.2c-0.2-0.3-0.4-0.3-0.6-0.3
		c-0.2,0.1-1,0.9-1.4,1.3c-0.4,0.5-0.4,1.8-0.3,3.2c0.1,1.5-0.1,5.9-0.1,5.9c-0.7-0.1-0.9,0.3-1.5,0.8c-0.6,0.5-1.4,0.8-2.2,0.8
		c-0.8,0-1.4-0.2-2.2-0.6c-0.8-0.3-1.3,0.1-1.4,0.8c-0.1,0.7,0.6,0.9,0.9,0.9c0.3,0,0.2-0.5,0.2-0.5c0.5-0.4,0.8,0.4,0.6,1.1
		c-0.1,0.7-1.8,2.7-2.2,3.4c-0.3,0.7,0.2,0.7,0.3,0.9c0.1,0.2-0.8,1.1-1.2,2.1c-0.5,1,0.3,2.7,0.9,4s0.5,2.8,0.5,2.8
		s-0.1,0.2-0.6,0.4c-0.5,0.2-0.4,0.6-0.4,0.6s0,0,0.1,0.4c0.1,0.4,0.8,0.6,1.4,0.2c0.6-0.4,0.7-3,0.4-4.4c-0.3-1.4-0.4-2.7-0.4-3.1
		c0-0.5,0.6-0.9,0.8-1.2c0.2-0.3,0.4-1,1.2-0.1c0.7,0.8,4,0.9,4.1,1.2c0.1,0.3,0.7,4,0.7,4l0.1,0.2l-0.1,0c0,0,0,0-0.1,0.3
		c-0.1,0.3,0.2,0.6,0.2,0.6l1-0.1l-0.2-5.4c0,0,2.6-0.1,3.2-0.2C27.6,203.5,28.2,203.1,29.5,203z M33,196.5
		c-0.2,0.3-0.5,0.9-0.5,0.9s0-0.5,0.1-1c0.1-0.4,1.4-0.9,1.4-0.9S33.3,196.2,33,196.5z M31,195.4c0.3-0.5,1.7-1.7,1.7-1.7l2.2-7.1
		l-1.9,7.3c0,0-1.8,1.3-1.9,1.8c-0.1,0.5-0.3,1.7-0.3,1.7S30.7,195.9,31,195.4z M29.9,198.6c-0.3-0.1-2.9-0.3-2.9-0.3
		C28.8,197.8,29.9,198.6,29.9,198.6z M18.3,198.6c0,0,0.6-1.9,0.5-2.5c0,0,1.8,0.2,2.6-0.3c0.7-0.5,1.3-0.6,1.5-0.6l-0.1,2.7
		C22.7,197.9,19.2,198.2,18.3,198.6z M18.7,201.1c0,0,10.4,1,11.8,0.5c0,0,0.3-0.4,0.3-1.7c0,0,0.5,1.9-0.3,2.1
		C29.7,202.2,21.5,201.9,18.7,201.1z M46.5,217.9c-0.2-0.2-0.5-0.3-0.8-0.3c-0.3,0-0.6,0.2-0.9,0.4l1.8,1.6c0.2-0.3,0.3-0.7,0.2-1
		C46.9,218.3,46.8,218.1,46.5,217.9z M37.9,213.4c0,0,0.7-0.8,0.5-1.2c-0.3-0.4-1.2,0.2-1.6,0.2c-0.4,0-4.9-0.5-6.2-3.3
		c0,0-0.4,1.3-0.3,1.6C30.4,211.1,33,214.3,37.9,213.4z M51.5,217.8l-9.6-7.8c0,0,0,0-1.3-1c-1.3-1-2,0-2,0l-2.5,2.8l1.1,0
		c0.6-0.4,1.9-1,1.8,0.6c0,1.6-1.3,1.5-1.3,1.5c-0.6,0-3.2,0-3.2,0c-0.3,0.9,0,1.6,0,1.6s9.9,8.4,10.9,9c1,0.6,2.1,0.2,2.1,0.2
		s3.5-4,4.1-5.1C52.3,218.6,51.5,217.8,51.5,217.8z M48.8,221.8c-0.1,0.1-0.2,0.1-0.3,0.1c-0.1,0-0.2-0.1-0.3-0.2l-1.1-1
		c-0.3,0.3-0.7,0.5-1,0.7c-0.3,0.2-0.7,0.2-1,0.3c-0.3,0-0.6,0-0.9-0.1c-0.3-0.1-0.5-0.2-0.7-0.4c-0.1-0.1-0.2-0.3-0.2-0.5
		c0-0.2,0-0.4,0.2-0.5c0.1-0.1,0.2-0.2,0.4-0.3c0.1,0,0.3,0,0.4,0c0.3,0.1,0.5,0.2,0.7,0.2c0.2,0,0.4,0.1,0.6,0
		c0.2,0,0.4-0.1,0.6-0.3l-1.9-1.7c-0.4,0.3-0.8,0.5-1.2,0.7c-0.3,0.1-0.7,0.2-1.1,0.2c-0.4,0-0.7-0.2-1.1-0.5
		c-0.5-0.4-0.7-0.9-0.8-1.5c0-0.6,0.2-1.2,0.6-1.8l-0.4-0.4c-0.2-0.2-0.3-0.4-0.1-0.6c0.2-0.2,0.3-0.2,0.6,0l0.4,0.4
		c0.3-0.3,0.6-0.5,0.9-0.6c0.3-0.1,0.6-0.2,0.9-0.2c0.3,0,0.5,0,0.7,0.1c0.2,0.1,0.4,0.1,0.5,0.2c0.1,0.1,0.2,0.3,0.2,0.5
		c0,0.2,0,0.4-0.2,0.5c-0.2,0.3-0.5,0.3-0.9,0.2c-0.4-0.2-0.9-0.2-1.3,0.1l1.7,1.5c0.4-0.3,0.7-0.5,1-0.6c0.3-0.1,0.5-0.2,0.8-0.3
		c0.3,0,0.6,0,0.9,0.1c0.3,0.1,0.6,0.2,0.8,0.5c0.3,0.3,0.5,0.6,0.7,1c0.1,0.4,0.2,0.8,0.1,1.3c-0.1,0.4-0.3,0.9-0.6,1.3l1,0.9
		c0.2,0.1,0.3,0.3,0.3,0.4C48.9,221.6,48.9,221.7,48.8,221.8z M41.4,216.9c0,0.2,0.1,0.4,0.3,0.6c0.2,0.2,0.4,0.3,0.7,0.2
		c0.2,0,0.5-0.1,0.8-0.3l-1.6-1.4C41.4,216.4,41.4,216.7,41.4,216.9z"/>
</g>
<g>
	<path fill="#283934" d="M31.6,285.8c-1.1,0.6-3.3,0.9-5.7,0.9c-2.4,0-4.5-0.3-5.7-0.9c-3.6-0.7-6.4-2-7.4-3.8c0,0,0,0.1,0,0.1
		c0,2.1,3.1,4,7.6,4.8c1,0.5,3.1,0.8,5.5,0.8c2.5,0,4.6-0.4,5.6-0.9c4.3-0.9,7.3-2.7,7.3-4.8c0,0,0-0.1,0-0.1
		C37.8,283.8,35.1,285.1,31.6,285.8z M31.6,284.2c-1.1,0.6-3.3,0.9-5.7,0.9c-2.4,0-4.5-0.3-5.7-0.9c-3.6-0.7-6.4-2-7.4-3.8
		c0,0,0,0.1,0,0.1c0,2.1,3.1,4,7.6,4.8c1,0.5,3.1,0.8,5.5,0.8c2.5,0,4.6-0.4,5.6-0.9c4.3-0.9,7.3-2.7,7.3-4.8c0,0,0-0.1,0-0.1
		C37.8,282.2,35.1,283.5,31.6,284.2z M31.6,282.6c-1.1,0.6-3.3,0.9-5.7,0.9c-2.4,0-4.5-0.3-5.7-0.9c-3.6-0.7-6.4-2-7.4-3.8
		c0,0,0,0.1,0,0.1c0,2.2,3.1,4,7.6,4.8c1,0.5,3.1,0.8,5.5,0.8c2.5,0,4.6-0.4,5.6-0.9c4.3-0.9,7.3-2.7,7.3-4.8c0,0,0-0.1,0-0.1
		C37.8,280.6,35.1,281.9,31.6,282.6z M25.8,270.2c-7.2,0-13,2.4-13,5.3c0,2.1,3.1,4,7.6,4.8c1,0.5,3.1,0.8,5.5,0.8
		c2.5,0,4.6-0.4,5.6-0.9c4.3-0.9,7.3-2.7,7.3-4.8C38.8,272.6,33,270.2,25.8,270.2z M34.1,276.5c0-0.1,0-0.2,0-0.2
		c0-1.7-3.7-3.1-8.2-3.1c-4.5,0-8.2,1.4-8.2,3.1c0,0,0,0.1,0,0.1c-0.1-0.2-0.1-0.3-0.1-0.5c0-1.8,3.7-3.2,8.3-3.2
		c4.6,0,8.3,1.4,8.3,3.2C34.3,276.1,34.2,276.3,34.1,276.5z M31.6,281c-1.1,0.6-3.3,0.9-5.7,0.9c-2.4,0-4.5-0.3-5.7-0.9
		c-3.6-0.7-6.4-2-7.4-3.8c0,0,0,0.1,0,0.1c0,2.1,3.1,4,7.6,4.8c1,0.5,3.1,0.8,5.5,0.8c2.5,0,4.6-0.4,5.6-0.9
		c4.3-0.9,7.3-2.7,7.3-4.8c0,0,0-0.1,0-0.1C37.8,279,35.1,280.3,31.6,281z M41.1,259.9l6,4l9.7-4.8l-6.3-4.9l-14.3-2.6L20.7,256
		l-4.2,6.9l16.9,4.1l-12.8-2.5v5.6c0,0,1.6-0.7,9.3,0c7.7,0.7,9.3,4.3,9.3,4.3l0.2,6.2l1,0.2l10.7-6.9v-11.6l-4.4,2.1L41.1,259.9z
		 M35,267l-0.6-0.2l4.8-7L35,267z M40.3,277.3l-0.4-17.9l-17.7-3.3l14-3.8l13.8,2.2l-9.6,4.7L40.3,277.3z"/>
</g>
<path fill="#283934" d="M110.2,257.9c0-1,0-1.9,0-2.7c0-0.2,0-0.4,0-0.6c0-0.3,0.2-0.5,0.6-0.5c1.5,0,3,0,4.4,0
	c0.5,0,0.6,0.2,0.6,0.7c0,1.1,0,2.2,0,3.3c0,1.6,0,3.2,0,4.8c0,0.3,0.1,0.4,0.3,0.6c1.7,1.5,3.4,3.1,5.1,4.6
	c0.4,0.3,0.5,0.7,0.3,1.2c-0.2,0.4-0.5,0.7-1,0.7c-0.8,0-1.6,0-2.4,0c-0.2,0-0.4-0.1-0.5-0.2c-2-1.9-4.1-3.8-6.2-5.7
	c-2.7-2.5-5.3-5-8-7.4c-0.4-0.3-0.8-0.7-1.1-1.1c-0.2-0.2-0.3-0.2-0.5,0c-1.8,1.7-3.6,3.3-5.3,5c-3.3,3.1-6.6,6.1-9.9,9.2
	c-0.2,0.2-0.3,0.2-0.6,0.2c-0.8,0-1.6,0-2.4,0c-0.5,0-0.8-0.2-1-0.6c-0.2-0.4-0.1-0.8,0.2-1.2c0.7-0.7,1.4-1.3,2.1-1.9
	c2.1-1.9,4.1-3.8,6.2-5.7c3.2-2.9,6.4-5.9,9.6-8.8c0.8-0.8,1.9-0.7,2.8,0.1C105.7,253.8,107.9,255.8,110.2,257.9z"/>
<g>
	<path fill="#283934" d="M88.4,209.2c-1.7,0-3.1,1.4-3.1,3.1c0,1.7,1.4,3.1,3.1,3.1c1.7,0,3.1-1.4,3.1-3.1
		C91.4,210.6,90,209.2,88.4,209.2z"/>
	<path fill="#283934" d="M116.4,209.2c-1.7,0-3.1,1.4-3.1,3.1c0,1.7,1.4,3.1,3.1,3.1s3.1-1.4,3.1-3.1
		C119.5,210.6,118.1,209.2,116.4,209.2z"/>
	<path fill="#283934" d="M94.2,195.3l-7.9,0c-0.4,0-1,0.3-1.2,0.7l-4.1,6.4c-0.2,0.4-0.4,1-0.4,1.5v6.2c0,0.4,0.4,0.8,0.8,0.8h3.1
		c0.7-1.4,2.2-2.3,3.9-2.3s3.2,1,3.9,2.3h2c0.4,0,0.8-0.4,0.8-0.8v-14C95,195.7,94.7,195.3,94.2,195.3z M82.2,209.3
		c0,0.3-0.2,0.5-0.5,0.5c-0.3,0-0.5-0.2-0.5-0.5v-1.1c0-0.3,0.2-0.5,0.5-0.5c0.3,0,0.5,0.2,0.5,0.5V209.3z M93.2,201.3
		c0,0.4-0.4,0.8-0.8,0.8h-8.4c-0.4,0-0.6-0.3-0.4-0.7l2.7-4.3c0.2-0.4,0.8-0.7,1.2-0.7h4.9c0.4,0,0.8,0.4,0.8,0.8V201.3z"/>
	<path fill="#283934" d="M121.8,189.9h-25c-0.4,0-0.8,0.4-0.8,0.8v19.4c0,0.4,0.4,0.8,0.8,0.8h15.5c0.7-1.4,2.2-2.3,3.9-2.3
		c1.7,0,3.2,1,3.9,2.3h1.7c0.4,0,0.8-0.4,0.8-0.8v-19.4C122.6,190.2,122.3,189.9,121.8,189.9z M118.2,201.6c-3.8,0-7.5,0-11.3,0
		c-0.1,0-0.2,0-0.2,0c0,0-0.1,0-0.1,0.1c0,0.1,0,0.1,0,0.2c0,0.5,0,1,0,1.5c0,0,0,0.1,0,0.1c0,0.1,0,0.1,0,0.2c-0.1,0-0.1,0-0.2-0.1
		c-1.4-0.9-2.8-1.8-4.2-2.7c-0.6-0.4-1.3-0.8-1.9-1.2c-0.2-0.1-0.2-0.2,0-0.3c2-1.3,4.1-2.6,6.1-3.9c0,0,0.1-0.1,0.2-0.1
		c0,0,0.1,0,0.1,0.1c0,0.1,0,0.1,0,0.2c0,0.5,0,1.1,0,1.6c0,0.1,0,0.1,0,0.2c0,0,0,0.1,0.1,0.1c0.1,0,0.1,0,0.2,0c1.9,0,3.8,0,5.6,0
		c1.9,0,3.8,0,5.6,0c0.3,0,0.3,0,0.3,0.3c0,1.2,0,2.4,0,3.6C118.5,201.6,118.6,201.6,118.2,201.6z M121.4,209.3
		c0,0.3-0.2,0.5-0.5,0.5s-0.5-0.2-0.5-0.5v-1.1c0-0.3,0.2-0.5,0.5-0.5s0.5,0.2,0.5,0.5V209.3z"/>
</g>
<path fill="#283934" d="M116.8,284.7c0-0.5-0.2-0.7-0.6-0.8c-0.2,0-0.3-0.1-0.3-0.3c0-2.2,0-4.3,0-6.5c0-2.2,0-4.4,0-6.6
	c0-0.3-0.1-0.6-0.3-0.8c-1.3-1.2-2.5-2.3-3.7-3.5c-3.1-2.9-6.3-5.9-9.4-8.8c-0.2-0.2-0.4-0.2-0.6,0c-4.4,4.1-8.8,8.2-13.2,12.3
	c-0.2,0.2-0.3,0.4-0.3,0.7c0,2,0,3.9,0,5.9c0,2.4,0,4.7,0,7.1c0,0.2,0,0.4-0.3,0.4c-0.6,0-0.8,0.3-0.8,0.9c0,0.8,0,1.5,0,2.3
	c0,0.7,0.3,0.9,0.9,0.9c4.6,0,9.2,0,13.8,0c0,0,0,0,0,0c2.5,0,4.9,0,7.4,0c2.2,0,4.3,0,6.5,0c0.6,0,0.9-0.3,0.9-0.9
	C116.8,286.2,116.8,285.5,116.8,284.7z M99.5,264.8c0.1-0.2,0.2-0.1,0.3,0c0.2,0.7,0.4,1.3,0.7,2c0,0.1,0.1,0.2-0.1,0.4
	c-0.5,0.2-1.1,0.4-1.6,0.7c-0.2,0.1-0.2-0.1-0.2-0.2C98.5,266.6,98.9,265.6,99.5,264.8z M104.9,269.8c-0.6,0.7-1.2,1.3-1.4,2.3
	c0,0,0,0,0,0l0,5.9c0,0,0,0.1,0,0.1c0,1.5,0,3.1,0.1,4.6c0,0.4-0.2,0.8-0.5,1.2c-0.5,0.4-1,0.5-1.6,0.3c-0.6-0.2-1-0.7-1-1.3
	c0-1,0.1-1.9,0.1-2.9l0-8.8c-0.2-0.5-0.5-1-0.8-1.4c-0.1-0.2-0.3-0.2-0.5-0.1c-0.2,0.1-0.4,0.2-0.6,0.3c-0.3,0.1-0.5,0-0.4-0.3
	c0-0.3,0-0.7,0.4-0.8c1.5-0.6,2.9-1.2,4.4-1.9c0.6-0.3,0.8-0.8,0.6-1.4c-0.2-0.6-0.4-1.2-0.6-1.8c0-0.1-0.1-0.2,0-0.3
	c0.1-0.1,0.2,0,0.3,0c0.6,0.1,1.1,0.5,1.5,0.8C106.2,265.8,106.2,268.1,104.9,269.8z"/>
</svg>
