<svg xmlns="http://www.w3.org/2000/svg" viewBox="0 0 487.4 216"><defs><style>.a{fill:#212120;}.b{fill:#f9a880;}.c{fill:#283934;}</style></defs><path class="a" d="M160.1,86V54.9H163V83.3h10.6V86Z"/><path class="a" d="M181.6,54.9h2.7V75.2q0,4.6,2.1,6.9c1.4,1.5,3.6,2.2,6.5,2.2s4.9-.7,6.3-2.2,2.2-3.8,2.2-6.9V54.9h2.8V74.3c0,4.2-1,7.3-2.8,9.4s-4.7,3.1-8.5,3.1-6.7-1-8.5-3.1-2.8-5.2-2.8-9.4Z"/><path class="a" d="M214.4,86h-3.1l9.5-16.4-8.5-14.7h3.1l7.1,12.3,7-12.3h3.1L224,69.6,233.5,86h-3.2l-7.9-13.8Z"/><path class="a" d="M239.3,54.9h2.8V75.2q0,4.6,2.1,6.9c1.4,1.5,3.5,2.2,6.4,2.2s5-.7,6.4-2.2,2.1-3.8,2.1-6.9V54.9h2.8V74.3c0,4.2-.9,7.3-2.8,9.4s-4.7,3.1-8.5,3.1-6.6-1-8.5-3.1-2.8-5.2-2.8-9.4Z"/><path class="a" d="M292.1,86h-3.4l-11-14.8H276V86h-2.8V54.9h5.7c3.4,0,5.9.7,7.6,2.1s2.5,3.5,2.5,6.4a7.7,7.7,0,0,1-2.1,5.7,8.4,8.4,0,0,1-6,2.1ZM276,57.4V68.9h2.9c2.6,0,4.5-.5,5.5-1.3a5.5,5.5,0,0,0,1.6-4.3c0-2.2-.6-3.7-1.7-4.6s-2.9-1.3-5.4-1.3Z"/><path class="a" d="M305.6,86V71.7L295.3,54.9h3.4L307,69.2l8.4-14.3h3.2L308.4,71.7V86Z"/><path class="a" d="M350.7,87.2l-10.9-25L337.4,86h-2.9l4.3-32.4,11.9,27.7L363,53.6,367,86h-2.9l-2.3-23.8Z"/><path class="a" d="M407.2,70.5A16,16,0,0,1,402.3,82a16,16,0,0,1-5.4,3.6,17.4,17.4,0,0,1-12.7,0,14.2,14.2,0,0,1-5.4-3.6,16.4,16.4,0,0,1-3.7-5.3,15.9,15.9,0,0,1-1.2-6.2,16.8,16.8,0,0,1,1.2-6.3,17.5,17.5,0,0,1,3.7-5.3,14.4,14.4,0,0,1,5.3-3.5,16.9,16.9,0,0,1,6.4-1.2,17.5,17.5,0,0,1,6.5,1.2,15.8,15.8,0,0,1,5.3,3.5,15.6,15.6,0,0,1,3.6,5.3A15.1,15.1,0,0,1,407.2,70.5ZM390.5,84.3a12.7,12.7,0,0,0,5.2-1,13.8,13.8,0,0,0,7.5-7.5,14.5,14.5,0,0,0,0-10.6,13.7,13.7,0,0,0-3-4.5,14.3,14.3,0,0,0-4.4-3,15.6,15.6,0,0,0-5.3-1,15,15,0,0,0-5.2,1,14.3,14.3,0,0,0-4.4,3,16.1,16.1,0,0,0-3,4.5,14.5,14.5,0,0,0,0,10.6,13.7,13.7,0,0,0,3,4.5,14.3,14.3,0,0,0,4.4,3A12.7,12.7,0,0,0,390.5,84.3Z"/><path class="a" d="M423.1,87.2,411,54.9h3.2l9,25.3,9.4-25.3h3.1Z"/><path class="a" d="M443.8,86V54.9h15.4v2.7H446.7v9.7h12.5v2.6H446.7V83.3h12.5V86Z"/><path class="a" d="M174.3,136.9,163.4,112l-2.3,23.7h-3l4.3-32.4L174.3,131l12.4-27.7,3.9,32.4h-2.9L185.4,112Z"/><path class="a" d="M196.9,135.7l13.6-32.3,13.1,32.3h-3.1l-3.9-10.5H203.9l-4.2,10.5Zm7.9-12.9h10.9l-5.4-13.6Z"/><path class="a" d="M231.9,135.7V103.3l22.1,26V104.6h2.6v32l-22-26v25.1Z"/><path class="a" d="M265,135.7l13.6-32.3,13.1,32.3h-3.1l-3.9-10.5H272l-4.2,10.5Zm7.9-12.9h10.9l-5.4-13.6Z"/><path class="a" d="M323,112.4a13.7,13.7,0,0,0-4.6-4.4,13.3,13.3,0,0,0-6.3-1.5,12.3,12.3,0,0,0-9.4,3.9,14.4,14.4,0,0,0-3.6,10.1,13.5,13.5,0,0,0,1,5.3,12.2,12.2,0,0,0,2.8,4.4,11.9,11.9,0,0,0,4.2,2.8,13.5,13.5,0,0,0,5,.9,11.9,11.9,0,0,0,8.5-3,10.8,10.8,0,0,0,3.4-8.1H313.3v-2.4h13.8v.3c0,5-1.3,8.8-4,11.6s-6.5,4.3-11.2,4.3-8.6-1.5-11.5-4.6-4.3-6.9-4.3-11.8a16.7,16.7,0,0,1,1.1-6.3,16,16,0,0,1,3.1-5.2,14.9,14.9,0,0,1,5.1-3.6,16.1,16.1,0,0,1,6.3-1.2,18.7,18.7,0,0,1,8.2,1.7,12.2,12.2,0,0,1,5.2,5.1Z"/><path class="a" d="M337.1,135.7V104.6h15.5v2.7H340V117h12.6v2.7H340v13.4h12.6v2.6Z"/><path class="a" d="M378.2,136.9,367.3,112,365,135.7h-3l4.3-32.4L378.2,131l12.4-27.7,4,32.4h-3L389.3,112Z"/><path class="a" d="M404.1,135.7V104.6h15.4v2.7H406.9V117h12.6v2.7H406.9v13.4h12.6v2.6Z"/><path class="a" d="M431,135.7V103.3l22,26V104.6h2.7v32l-22-26v25.1Z"/><path class="a" d="M473.3,135.7V107.3h-8.6v-2.7h20v2.7h-8.6v28.4Z"/><path class="a" d="M161.5,167.8v-5.3l-3.9-6.2h1.6l3,5,3.1-5h1.5l-3.9,6.2v5.3Z"/><path class="a" d="M183.5,162.1a5.9,5.9,0,0,1-.4,2.3,6.7,6.7,0,0,1-1.4,1.9,7.2,7.2,0,0,1-2,1.4,6.4,6.4,0,0,1-2.4.4,5.9,5.9,0,0,1-2.3-.4,7.2,7.2,0,0,1-2-1.4,5.2,5.2,0,0,1-1.4-1.9,6.2,6.2,0,0,1-.4-2.3,6.1,6.1,0,0,1,.4-2.4,5.2,5.2,0,0,1,1.4-1.9,6,6,0,0,1,2-1.4,5.9,5.9,0,0,1,2.3-.4,6.4,6.4,0,0,1,2.4.4,7.2,7.2,0,0,1,2,1.4,6.7,6.7,0,0,1,1.4,1.9A6.1,6.1,0,0,1,183.5,162.1Zm-6.2,4.7a4.8,4.8,0,0,0,1.8-.3,5.7,5.7,0,0,0,1.6-1.1,4.9,4.9,0,0,0,1-1.5,3.9,3.9,0,0,0,.4-1.8,4.1,4.1,0,0,0-.4-1.9,4,4,0,0,0-1-1.5,5.7,5.7,0,0,0-1.6-1.1,4.8,4.8,0,0,0-1.8-.3l-1.8.3a4.2,4.2,0,0,0-1.5,1.1,3.1,3.1,0,0,0-1,1.5,4.1,4.1,0,0,0-.4,1.9,5.7,5.7,0,0,0,.3,1.8,6.1,6.1,0,0,0,2.6,2.6Z"/><path class="a" d="M189.9,156.3h1.4v7.1a3.7,3.7,0,0,0,.8,2.6,2.8,2.8,0,0,0,2.3.8,2.9,2.9,0,0,0,2.4-.8,3.7,3.7,0,0,0,.7-2.6v-7.1h1.4v7.1a4.9,4.9,0,0,1-1.1,3.5,4.5,4.5,0,0,1-3.4,1.2,4.2,4.2,0,0,1-3.3-1.2,4.5,4.5,0,0,1-1.2-3.5Z"/><path class="a" d="M206,167.8V156.3h4.4a1.9,1.9,0,0,1,.9.4,2.8,2.8,0,0,1,.8,1.1,4,4,0,0,1,.3,1.5,2.7,2.7,0,0,1-.8,2.2,3.2,3.2,0,0,1-2.3.7h-.2l4.4,5.5h-1.8l-4.2-5.5h-.2v5.5Zm1.3-10.4v3.9h1.1a4.5,4.5,0,0,0,2.1-.4,2.2,2.2,0,0,0,0-3,3.6,3.6,0,0,0-2.1-.5Z"/><path class="a" d="M233.2,168.3l-3.6-8.3-1.5,7.8h-1.3l2.3-12,4.1,9.6,4-9.6,2.4,12h-1.4l-1.4-7.8Z"/><path class="a" d="M257.3,162.1a5.9,5.9,0,0,1-.4,2.3,5.2,5.2,0,0,1-1.4,1.9,6,6,0,0,1-2,1.4,5.9,5.9,0,0,1-2.3.4,6.4,6.4,0,0,1-2.4-.4,7.2,7.2,0,0,1-2-1.4,5.2,5.2,0,0,1-1.4-1.9,6.2,6.2,0,0,1-.4-2.3,6.1,6.1,0,0,1,.4-2.4,5.2,5.2,0,0,1,1.4-1.9,7.2,7.2,0,0,1,2-1.4,6.1,6.1,0,0,1,2.4-.4,5.9,5.9,0,0,1,2.3.4,6,6,0,0,1,2,1.4,5.2,5.2,0,0,1,1.4,1.9A6.1,6.1,0,0,1,257.3,162.1Zm-6.1,4.7,1.8-.3a7.2,7.2,0,0,0,1.5-1.1,3.6,3.6,0,0,0,1-1.5,3.9,3.9,0,0,0,.4-1.8,4.1,4.1,0,0,0-.4-1.9,4,4,0,0,0-1-1.5,7.2,7.2,0,0,0-1.5-1.1l-1.8-.3a5.8,5.8,0,0,0-1.9.3,5.3,5.3,0,0,0-1.5,1.1,4,4,0,0,0-1,1.5,4.1,4.1,0,0,0-.4,1.9,3.9,3.9,0,0,0,.4,1.8,3.6,3.6,0,0,0,1,1.5,7.2,7.2,0,0,0,1.5,1.1A5.8,5.8,0,0,0,251.2,166.8Z"/><path class="a" d="M266.7,168.3l-4.9-12h1.5l3.4,8.8,3.4-8.8h1.5Z"/><path class="a" d="M277.3,167.8V156.3h1.3v11.5Z"/><path class="a" d="M285.8,167.8v-12l8.4,9.2v-8.7h1.3v12l-8.4-9.2v8.7Z"/><path class="a" d="M308.9,161.8h4.8v.4a5.9,5.9,0,0,1-1.5,4.3,5.7,5.7,0,0,1-4.3,1.6,3.9,3.9,0,0,1-1.5-.2,3.4,3.4,0,0,1-1.4-.5,6.3,6.3,0,0,1-2.2-2.1,6.6,6.6,0,0,1-.7-3.2,7.5,7.5,0,0,1,.4-2.6,6.6,6.6,0,0,1,1.4-2,4.2,4.2,0,0,1,1.8-1.1,5.9,5.9,0,0,1,2.3-.4,6.5,6.5,0,0,1,2.9.6,4.9,4.9,0,0,1,2,1.8l-1.1.9a3.3,3.3,0,0,0-1.6-1.5,3.7,3.7,0,0,0-2.1-.6,4.2,4.2,0,0,0-3.3,1.4,5.2,5.2,0,0,0-1.3,3.5,4.8,4.8,0,0,0,1.3,3.4,4.5,4.5,0,0,0,3.3,1.4,4.4,4.4,0,0,0,2.9-1.1,3.8,3.8,0,0,0,1.2-2.7h-3.3Z"/><path class="b" d="M328.9,167.8V156.3h1.4v10.2h4.4v1.3Z"/><path class="b" d="M340.5,167.8V156.3h1.4v11.5Z"/><path class="b" d="M349,167.8V156.3h6.1v1.2h-4.7v3.3h4.7v1.3h-4.7v5.7Z"/><path class="b" d="M361.4,167.8V156.3h6.1v1.2h-4.8v3.3h4.8v1.3h-4.8v4.4h4.8v1.3Z"/><path class="b" d="M374.1,167.8V156.3h1.3v10.2h4.4v1.3Z"/><path class="b" d="M385.7,167.8V156.3H387v11.5Z"/><path class="b" d="M394.2,167.8v-12l8.4,9.2v-8.7h1.3v12l-8.4-9.2v8.7Z"/><path class="b" d="M411.1,167.8V156.3h6v1.2h-4.7v3.3h4.7v1.3h-4.7v4.4h4.7v1.3Z"/><path class="b" d="M132.6,168.6H75a3.8,3.8,0,0,1-3.7-3.8V107.3a3.8,3.8,0,0,1,3.7-3.8h57.6a3.8,3.8,0,0,1,3.7,3.8v57.5A3.8,3.8,0,0,1,132.6,168.6ZM75,104.9a2.4,2.4,0,0,0-2.4,2.4v57.5a2.4,2.4,0,0,0,2.4,2.4h57.6a2.3,2.3,0,0,0,2.3-2.4V107.3a2.3,2.3,0,0,0-2.3-2.4Z"/><path class="b" d="M64.5,100.5H6.9a3.8,3.8,0,0,1-3.7-3.8V39.2a3.8,3.8,0,0,1,3.7-3.8H64.5a3.8,3.8,0,0,1,3.7,3.8V96.7A3.8,3.8,0,0,1,64.5,100.5ZM6.9,36.8a2.4,2.4,0,0,0-2.4,2.4V96.7a2.4,2.4,0,0,0,2.4,2.4H64.5a2.3,2.3,0,0,0,2.3-2.4V39.2a2.3,2.3,0,0,0-2.3-2.4Z"/><path class="b" d="M132.6,100.5H75a3.8,3.8,0,0,1-3.7-3.8V39.2A3.8,3.8,0,0,1,75,35.4h57.6a3.8,3.8,0,0,1,3.7,3.8V96.7A3.8,3.8,0,0,1,132.6,100.5ZM75,36.8a2.4,2.4,0,0,0-2.4,2.4V96.7A2.4,2.4,0,0,0,75,99.1h57.6a2.3,2.3,0,0,0,2.3-2.4V39.2a2.3,2.3,0,0,0-2.3-2.4Z"/><path class="b" d="M64.5,168.6H6.9a3.8,3.8,0,0,1-3.7-3.8V107.3a3.8,3.8,0,0,1,3.7-3.8H64.5a3.8,3.8,0,0,1,3.7,3.8v57.5A3.8,3.8,0,0,1,64.5,168.6ZM6.9,104.9a2.4,2.4,0,0,0-2.4,2.4v57.5a2.4,2.4,0,0,0,2.4,2.4H64.5a2.3,2.3,0,0,0,2.3-2.4V107.3a2.3,2.3,0,0,0-2.3-2.4Z"/><path class="c" d="M35.9,75V73.2a1.7,1.7,0,0,0-1-.5,14.2,14.2,0,0,0-.1,2.3,1.4,1.4,0,0,0,1.1,1.3c1,.2.9-.6.9-.9S35.9,75,35.9,75ZM30,70.7a2.5,2.5,0,0,1,3.4,0c1.4,1,4.5,3.4,4.7,4.9a3.9,3.9,0,0,0,.8-.9S36,69.2,31.5,69s-2.7,3.6-1.9,4A4.5,4.5,0,0,1,30,70.7Zm1.3,7.5c-.3-.5-.1-2.7.5-4.3a12,12,0,0,0,.7-3,1.9,1.9,0,0,0-2.5.6s-.1,6.1-.3,6.9.4,1.1,1.1,1.2a.8.8,0,0,0,1.1-.8C31.9,78.3,31.3,78.2,31.3,78.2ZM31,68.3a4.7,4.7,0,0,1,2.5.4c.4.3.7,0,.8.1l2.3,2.4s.2-2.1.2-2.4-.8-1.1-.9-1.6a50.2,50.2,0,0,1,0-5.5l.3-1.6A88.2,88.2,0,0,0,38,50.3a2.9,2.9,0,0,0-1.7-2.4c-.4-.1-.4.5-.5.6s-.9.1-1.1.1a19.9,19.9,0,0,0-3.2-2.2c-.3,0-3.3,2.5-3.6,2.6s-.7.1-.9-.2-.4-.4-.6-.3-1,.8-1.4,1.3-.4,1.8-.4,3.3,0,5.8,0,5.8-1,.3-1.6.8a3.5,3.5,0,0,1-2.2.8,4.6,4.6,0,0,1-2.2-.6c-.7-.3-1.2.1-1.4.8s.7.9,1,.9.2-.5.2-.5.7.4.6,1.1-1.8,2.7-2.2,3.4.2.6.3.9-.7,1.1-1.2,2.1.2,2.7.9,4a6.5,6.5,0,0,1,.5,2.8s-.1.2-.6.4a.7.7,0,0,0-.4.6v.4c.1.4.9.6,1.5.2s.7-3,.3-4.4a15.3,15.3,0,0,1-.3-3.2c0-.4.6-.8.7-1.1s.4-1,1.2-.2,4,1,4.1,1.3.6,4,.6,4v.2h-.1v.3c-.1.3.2.6.2.6h1l-.2-5.4,3.1-.2A13,13,0,0,1,31,68.3Zm3.5-6.5a8.8,8.8,0,0,0-.5,1,5.1,5.1,0,0,1,.1-1c.1-.5,1.3-.9,1.3-.9Zm-2-1A10.2,10.2,0,0,1,34.2,59l2.2-7-1.9,7.3s-1.8,1.3-1.9,1.8l-.3,1.7A5.3,5.3,0,0,1,32.5,60.8Zm-1.1,3.1-2.9-.2A3.3,3.3,0,0,1,31.4,63.9Zm-11.7,0a8.2,8.2,0,0,0,.6-2.4,4.9,4.9,0,0,0,2.5-.3,3.7,3.7,0,0,1,1.5-.6v2.7A40.4,40.4,0,0,0,19.7,63.9Zm.4,2.5s10.4,1.1,11.8.6a3.6,3.6,0,0,0,.3-1.7s.5,1.8-.2,2A55.7,55.7,0,0,1,20.1,66.4ZM48,83.2a.7.7,0,0,0-.7-.2,1.6,1.6,0,0,0-1,.4l1.9,1.5a1.5,1.5,0,0,0,.2-.9A1.2,1.2,0,0,0,48,83.2Zm-8.6-4.5s.7-.8.4-1.1-1.1.1-1.6.2-4.8-.5-6.2-3.3a6.5,6.5,0,0,0-.3,1.7A7.8,7.8,0,0,0,39.4,78.7ZM53,83.1l-9.6-7.7-1.3-1a1.3,1.3,0,0,0-2,0l-2.5,2.8h1.1c.5-.4,1.8-1,1.8.5s-1.3,1.5-1.3,1.5H36a2.3,2.3,0,0,0,0,1.6s10,8.4,10.9,9a2.9,2.9,0,0,0,2.2.2A63.2,63.2,0,0,0,53.2,85,1.6,1.6,0,0,0,53,83.1Zm-2.7,4.1H50l-.4-.2-1.1-.9-1,.7-.9.2h-.9l-.7-.3c-.1-.2-.2-.3-.2-.5a.8.8,0,0,1,.2-.5c.1-.2.2-.3.4-.3h.4l.7.3H47l.7-.3-2-1.6-1.1.6a2.3,2.3,0,0,1-1.1.2,1.6,1.6,0,0,1-1.1-.5,1.9,1.9,0,0,1-.8-1.5,3.2,3.2,0,0,1,.6-1.8l-.4-.4c-.2-.2-.3-.4-.1-.6s.3-.1.6,0l.4.4.9-.6.9-.2h.7l.5.2a.8.8,0,0,1,.2.5c0,.2-.1.3-.2.5s-.5.3-.9.2a1.5,1.5,0,0,0-1.3,0l1.8,1.5,1-.6.8-.3H48l.8.4a3.6,3.6,0,0,1,.7,1,2.8,2.8,0,0,1,.1,1.3,3.8,3.8,0,0,1-.6,1.3l1,.9a.5.5,0,0,1,.3.4C50.4,87,50.3,87.1,50.3,87.2Zm-7.5-4.9c0,.2.2.4.4.6l.6.3.8-.4L43,81.5A2.4,2.4,0,0,0,42.8,82.3Z"/><path class="c" d="M33.1,151.2a16.3,16.3,0,0,1-5.8.9,15.1,15.1,0,0,1-5.6-.9c-3.6-.7-6.5-2-7.5-3.8h0c0,2.1,3.1,4,7.6,4.8a14.1,14.1,0,0,0,5.5.9,14.3,14.3,0,0,0,5.6-.9c4.4-.9,7.4-2.7,7.4-4.8h0C39.3,149.2,36.6,150.4,33.1,151.2Zm0-1.6a14.3,14.3,0,0,1-5.8.9,13.3,13.3,0,0,1-5.6-.9c-3.6-.7-6.5-2-7.5-3.8h0c0,2.2,3.1,4,7.6,4.9a14.5,14.5,0,0,0,5.5.8c2.5,0,4.6-.3,5.6-.9,4.4-.8,7.4-2.7,7.4-4.8h0C39.3,147.6,36.6,148.9,33.1,149.6Zm0-1.7a14.3,14.3,0,0,1-5.8.9,15.4,15.4,0,0,1-5.6-.8c-3.6-.7-6.5-2-7.5-3.8h0c0,2.1,3.1,4,7.6,4.8a14.1,14.1,0,0,0,5.5.9,14.3,14.3,0,0,0,5.6-.9c4.4-.9,7.4-2.7,7.4-4.8h0C39.3,145.9,36.6,147.2,33.1,147.9Zm-5.8-12.3c-7.2,0-13.1,2.4-13.1,5.3s3.1,4,7.6,4.9a14.5,14.5,0,0,0,5.5.8c2.5,0,4.6-.3,5.6-.9,4.4-.8,7.4-2.7,7.4-4.8S34.4,135.6,27.3,135.6Zm8.3,6.3v-.2c0-1.8-3.7-3.1-8.2-3.1s-8.2,1.3-8.2,3.1h0a1.1,1.1,0,0,1-.1-.5c0-1.8,3.7-3.3,8.3-3.3s8.3,1.5,8.3,3.3A1.3,1.3,0,0,1,35.6,141.9Zm-2.5,4.5a16.3,16.3,0,0,1-5.8.9,13.3,13.3,0,0,1-5.6-.9c-3.6-.7-6.5-2-7.5-3.8h0c0,2.2,3.1,4,7.6,4.9a14.5,14.5,0,0,0,5.5.8,14.3,14.3,0,0,0,5.6-.9c4.4-.8,7.4-2.7,7.4-4.8h0C39.3,144.4,36.6,145.7,33.1,146.4Zm9.5-21.1,6,4,9.7-4.8L52,119.6,37.7,117l-15.5,4.3-4.3,6.9,17,4.1L22,129.8v5.6s1.6-.7,9.3,0,9.3,4.3,9.3,4.3l.2,6.2,1,.2,10.7-6.8V127.7l-4.4,2.1Zm-6.1,7.1-.6-.2,4.8-7Zm5.3,10.3-.4-17.9-17.7-3.3,14-3.8,13.8,2.2-9.6,4.7Z"/><path class="c" d="M111.7,123.3v-3.4a.6.6,0,0,1,.6-.5h4.5c.4,0,.6.2.6.7v8a.9.9,0,0,0,.3.7l5.1,4.6a1.2,1.2,0,0,1,.3,1.2,1.4,1.4,0,0,1-1,.7h-2.4l-.6-.2-6.1-5.8-8-7.4-1.1-1.1c-.2-.2-.3-.2-.6,0l-5.3,5L88.1,135a.5.5,0,0,1-.5.3,19.2,19.2,0,0,0-2.4,0,1.1,1.1,0,0,1-1-.7.9.9,0,0,1,.2-1.1l2.1-2,6.2-5.6,9.6-8.8a1.9,1.9,0,0,1,2.7,0Z"/><path class="c" d="M89.8,74.6a3.1,3.1,0,0,0,0,6.1,3.1,3.1,0,1,0,0-6.1Z"/><path class="c" d="M117.9,74.6a3.1,3.1,0,1,0,0,6.1,3.1,3.1,0,0,0,0-6.1Z"/><path class="c" d="M95.7,60.7H87.8a1.5,1.5,0,0,0-1.2.7l-4.1,6.4a3.7,3.7,0,0,0-.4,1.5v6.1a.7.7,0,0,0,.8.8h3a4.5,4.5,0,0,1,3.9-2.3,4.3,4.3,0,0,1,3.9,2.3h2a.7.7,0,0,0,.8-.8V61.5A.7.7,0,0,0,95.7,60.7Zm-12.1,14a.5.5,0,1,1-1,0V73.5a.5.5,0,0,1,1,0Zm11-8.1a.7.7,0,0,1-.7.8H85.4c-.4,0-.6-.3-.3-.6l2.7-4.3a1.3,1.3,0,0,1,1.2-.6h4.9a.7.7,0,0,1,.7.7Z"/><path class="c" d="M123.3,55.2h-25a.9.9,0,0,0-.8.8V75.4a.8.8,0,0,0,.8.8h15.5a4.3,4.3,0,0,1,3.9-2.3,4.2,4.2,0,0,1,3.9,2.3h1.7a.7.7,0,0,0,.8-.8V56A.8.8,0,0,0,123.3,55.2Zm-3.6,11.7H108.1v1.7h0c0,.1.1.2,0,.2h-.2l-4.2-2.7L101.8,65c-.3-.2-.2-.2,0-.3l6.1-3.9h.2v2h11.6c.4,0,.3,0,.3.3v3.6C120,67,120.1,66.9,119.7,66.9Zm3.2,7.8a.6.6,0,0,1-.6.5.5.5,0,0,1-.5-.5V73.5a.5.5,0,0,1,.5-.5.6.6,0,0,1,.6.5Z"/><path class="c" d="M118.3,150a.8.8,0,0,0-.7-.8c-.2,0-.2-.1-.2-.3V135.8a1.3,1.3,0,0,0-.3-.8l-3.8-3.4-9.4-8.8c-.2-.3-.4-.2-.6,0L90.1,135.1a.9.9,0,0,0-.3.7c.1,1.9,0,3.9,0,5.9s0,4.7.1,7.1a.4.4,0,0,1-.4.4c-.5.1-.8.3-.8.9v2.3a.8.8,0,0,0,.9.9h27.8a.8.8,0,0,0,.9-.9ZM101,130.1c.1-.1.2-.1.2.1l.7,1.9a.6.6,0,0,1-.1.4l-1.7.7c-.1,0-.1-.1-.1-.2A4.5,4.5,0,0,1,101,130.1Zm5.3,5a5.9,5.9,0,0,0-1.4,2.3h0v5.9h0c0,1.6,0,3.1.1,4.7a1.6,1.6,0,0,1-.5,1.1,1.4,1.4,0,0,1-1.6.3,1.3,1.3,0,0,1-1.1-1.3,28.3,28.3,0,0,1,.2-2.9v-8.7a6.1,6.1,0,0,0-.7-1.4c-.2-.2-.3-.3-.5-.2l-.6.3a.3.3,0,0,1-.5-.3c.1-.3.1-.7.5-.8l4.4-1.9a1.1,1.1,0,0,0,.6-1.4l-.7-1.8c0-.1-.1-.2,0-.3s.2,0,.3,0a3.8,3.8,0,0,1,1.5.9A4,4,0,0,1,106.3,135.1Z"/></svg>