<?xml version="1.0" encoding="utf-8"?>
<!-- Generator: Adobe Illustrator 25.4.1, SVG Export Plug-In . SVG Version: 6.00 Build 0)  -->
<svg version="1.1" id="Layer_1" xmlns="http://www.w3.org/2000/svg" xmlns:xlink="http://www.w3.org/1999/xlink" x="0px" y="0px"
	 viewBox="0 0 176.1 176.4" enable-background="new 0 0 176.1 176.4" xml:space="preserve">
<g>
	<g>
		<rect x="18" y="18" fill="#DF1F36" width="140.1" height="140.1"/>
		<g>
			<path fill="#FFFFFF" d="M98.5,80.4c5.8-2.6,11.2-8,11.2-18.7c0-21.2-21.5-21.5-24.2-21c4.9,1.7,9.8,9.6,9.8,21
				c0,11.3-4.9,19.3-9.8,21c0.4,0.3,7.9,11.5,21.7,6.2C101.2,86,99.5,83.1,98.5,80.4"/>
			<path fill="#FFFFFF" d="M86.5,45.5c-3,2.5-5.7,8.8-5.7,16.3c0,7.4,2.7,13.7,5.7,16.3c-5.5,6.1-20.1-0.4-20.1-16.3
				C66.4,45,80.9,39.4,86.5,45.5"/>
		</g>
		<g>
			<path fill="#FFFFFF" d="M50.7,121.4c-1.6,0-3.3-0.6-4.2-2.3c-1,0.7-2.2,1-3.5,1c-4.5,0-7.1-3.9-7.1-9.3s2.6-9.3,7.1-9.3
				s7.1,3.9,7.1,9.3c0,3-0.8,5.6-2.4,7.3c0.8,1.3,1.5,1.7,3.1,1.7V121.4z M43.4,114.3c1.4,0.2,2.6,1,3.5,2.4c1-1.3,1.5-3.3,1.5-5.9
				c0-5.1-2.1-7.9-5.5-7.9s-5.5,2.8-5.5,7.9s2.1,7.9,5.5,7.9c1.1,0,2-0.3,2.8-0.9c-0.8-1.3-1.3-1.8-2.4-1.9V114.3z"/>
			<path fill="#FFFFFF" d="M56.8,101.8v12.3c0,3.4,1.7,4.6,4.9,4.6c3.2,0,4.9-1.2,4.9-4.6v-12.3h1.6V114c0,4.1-2.1,6.1-6.5,6.1
				c-4.4,0-6.5-2-6.5-6.1v-12.1H56.8z"/>
			<path fill="#FFFFFF" d="M78.5,101.8H81l5.7,18h-1.7l-1.8-5.9h-6.8l-1.8,5.9h-1.7L78.5,101.8z M82.7,112.6l-3-9.4h0l-3,9.4H82.7z"
				/>
			<path fill="#FFFFFF" d="M91.2,101.8h1.6v16.7h8v1.3h-9.7V101.8z"/>
			<path fill="#FFFFFF" d="M105.3,101.8h1.6v18h-1.6V101.8z"/>
			<path fill="#FFFFFF" d="M111.7,101.8h12.3v1.3h-5.3v16.7h-1.6v-16.7h-5.3V101.8z"/>
			<path fill="#FFFFFF" d="M132.3,112.2l-5.5-10.4h1.8l4.4,8.9l4.7-8.9h1.8l-5.7,10.4v7.6h-1.6V112.2z"/>
			<path fill="#FFFFFF" d="M45.4,125h1.6v8h9.7v-8h1.6v18h-1.6v-8.7h-9.7v8.7h-1.6V125z"/>
			<path fill="#FFFFFF" d="M77.8,134c0,5.3-2.6,9.3-7.1,9.3s-7.1-3.9-7.1-9.3s2.6-9.3,7.1-9.3S77.8,128.7,77.8,134z M76.2,134
				c0-5.1-2.1-7.9-5.5-7.9c-3.3,0-5.5,2.8-5.5,7.9s2.1,7.9,5.5,7.9C74,141.9,76.2,139,76.2,134z"/>
			<path fill="#FFFFFF" d="M82.9,143v-18h2.9l5,15.3h0.1l5-15.3h2.9v18h-1.6v-16.7h0L91.6,143H90l-5.4-16.7h0V143H82.9z"/>
			<path fill="#FFFFFF" d="M105.1,143v-18h10.3v1.3h-8.6v6.6h6.2v1.3h-6.2v7.3h9.1v1.3H105.1z"/>
			<path fill="#FFFFFF" d="M120.2,137.9c0.7,2.7,2.3,3.9,5.1,3.9c2.2,0,3.6-1.4,3.6-3.6c0-4.8-9.8-2.9-9.8-8.9
				c0-2.7,1.8-4.7,5.2-4.7c2.8,0,4.9,1.5,5.8,4.3l-1.4,0.4c-0.6-2-2-3.4-4.3-3.4c-2.1,0-3.5,1.2-3.5,3.3c0,1.2,0.3,2.1,3.7,3.3
				c5.1,1.9,6.1,3.1,6.1,5.7c0,3.1-2.6,4.8-5.5,4.8c-3.4,0-5.4-1.5-6.4-4.8L120.2,137.9z"/>
		</g>
	</g>
</g>
</svg>
