<svg xmlns="http://www.w3.org/2000/svg" width="137.019" height="137.019" viewBox="0 0 137.019 137.019"><defs><style>.a{fill:#d40028;}.b{fill:#fff;}</style></defs><g transform="translate(0 0)"><rect class="a" width="137.019" height="137.019"/><g transform="translate(47.329 22.164)"><path class="b" d="M1564.886,1272.917c5.631-2.583,10.969-7.834,10.969-18.253,0-20.737-21.074-21-23.648-20.508,4.8,1.673,9.549,9.416,9.549,20.508s-4.745,18.837-9.549,20.508c.4.276,7.733,11.21,21.214,6.056-5.825-2.881-7.57-5.746-8.536-8.311" transform="translate(-1533.496 -1234.046)"/><path class="b" d="M1552.34,1238.863c-2.9,2.482-5.532,8.591-5.532,15.9,0,7.255,2.632,13.419,5.532,15.9-5.4,6-19.64-.437-19.64-15.9,0-16.371,14.241-21.907,19.64-15.9" transform="translate(-1532.7 -1234.146)"/></g><g transform="translate(17.416 81.722)"><path class="b" d="M1516.071,1315.479a4.506,4.506,0,0,1-4.127-2.223,6.1,6.1,0,0,1-3.469,1c-4.42,0-6.96-3.859-6.96-9.061s2.54-9.062,6.96-9.062,6.961,3.859,6.961,9.062a10.143,10.143,0,0,1-2.393,7.131,2.9,2.9,0,0,0,3.028,1.685Zm-7.132-6.887a5.084,5.084,0,0,1,3.42,2.344,9.75,9.75,0,0,0,1.465-5.739c0-4.958-2.1-7.743-5.349-7.743s-5.349,2.785-5.349,7.743,2.1,7.742,5.349,7.742a4.561,4.561,0,0,0,2.785-.88c-.757-1.294-1.319-1.734-2.32-1.881Z" transform="translate(-1501.515 -1296.135)"/><path class="b" d="M1522.862,1296.389v12.017c0,3.37,1.636,4.543,4.762,4.543s4.763-1.173,4.763-4.543v-12.017H1534v11.87c0,4.006-2.1,6.009-6.375,6.009s-6.375-2-6.375-6.009v-11.87Z" transform="translate(-1502.32 -1296.145)"/><path class="b" d="M1544.793,1296.389h2.466l5.569,17.634h-1.71l-1.783-5.764h-6.667l-1.807,5.764h-1.709Zm4.177,10.552-2.931-9.233h-.049l-2.906,9.233Z" transform="translate(-1503.05 -1296.145)"/><path class="b" d="M1558.045,1296.389h1.612V1312.7h7.864v1.319h-9.476Z" transform="translate(-1503.82 -1296.145)"/><path class="b" d="M1572.356,1296.389h1.613v17.634h-1.613Z" transform="translate(-1504.404 -1296.145)"/><path class="b" d="M1578.952,1296.389h12.066v1.319h-5.227v16.315h-1.612v-16.315h-5.227Z" transform="translate(-1504.673 -1296.145)"/><path class="b" d="M1599.654,1306.549l-5.4-10.16h1.807l4.347,8.719,4.641-8.719h1.807l-5.593,10.16v7.474h-1.611Z" transform="translate(-1505.297 -1296.145)"/><path class="b" d="M1511.344,1319.966h1.612v7.816h9.526v-7.816h1.612V1337.6h-1.612v-8.5h-9.526v8.5h-1.612Z" transform="translate(-1501.916 -1297.107)"/><path class="b" d="M1543.752,1328.773c0,5.2-2.54,9.062-6.96,9.062s-6.961-3.859-6.961-9.062,2.54-9.061,6.961-9.061S1543.752,1323.571,1543.752,1328.773Zm-1.612,0c0-4.957-2.1-7.742-5.349-7.742s-5.35,2.785-5.35,7.742,2.1,7.742,5.35,7.742S1542.141,1333.731,1542.141,1328.773Z" transform="translate(-1502.67 -1297.096)"/><path class="b" d="M1549.565,1337.6v-17.634h2.834l4.86,14.948h.049l4.885-14.948h2.833V1337.6h-1.611v-16.315h-.049l-5.3,16.315h-1.539l-5.3-16.315h-.049V1337.6Z" transform="translate(-1503.474 -1297.107)"/><path class="b" d="M1572.2,1337.6v-17.634h10.063v1.319h-8.451v6.5h6.081v1.319h-6.081v7.181h8.914v1.319Z" transform="translate(-1504.397 -1297.107)"/><path class="b" d="M1587.547,1332.657c.684,2.686,2.246,3.858,5.031,3.858A3.271,3.271,0,0,0,1596.1,1333c0-4.738-9.55-2.882-9.55-8.719,0-2.613,1.807-4.567,5.08-4.567a5.565,5.565,0,0,1,5.642,4.225l-1.392.415a4.305,4.305,0,0,0-4.25-3.322c-2.052,0-3.468,1.172-3.468,3.248,0,1.2.342,2.052,3.589,3.273,4.958,1.856,5.961,3.077,5.961,5.617,0,3-2.516,4.666-5.374,4.666-3.371,0-5.3-1.49-6.277-4.715Z" transform="translate(-1504.963 -1297.096)"/></g></g></svg>