<svg xmlns="http://www.w3.org/2000/svg" width="142.844" height="142.844" viewBox="0 0 142.844 142.844"><g transform="translate(-1483.359 -1210.939)"><rect width="142.844" height="142.844" transform="translate(1483.359 1210.939)" fill="#d40028"/><path d="M1565.425,1274.57c5.87-2.693,11.436-8.167,11.436-19.029,0-21.618-21.97-21.894-24.653-21.38,5.008,1.744,9.955,9.816,9.955,21.38s-4.947,19.638-9.955,21.38c.414.288,8.062,11.687,22.116,6.313-6.073-3-7.892-5.99-8.9-8.664" fill="#fff"/><path d="M1553.175,1238.963c-3.023,2.587-5.767,8.956-5.767,16.579,0,7.564,2.744,13.99,5.767,16.578-5.629,6.259-20.475-.456-20.475-16.578,0-17.067,14.846-22.838,20.475-16.579" fill="#fff"/><path d="M1516.69,1316.3a4.7,4.7,0,0,1-4.3-2.317,6.359,6.359,0,0,1-3.616,1.044c-4.608,0-7.256-4.023-7.256-9.446s2.648-9.447,7.256-9.447,7.257,4.023,7.257,9.447a10.574,10.574,0,0,1-2.495,7.434,3.023,3.023,0,0,0,3.157,1.757Zm-7.435-7.18a5.3,5.3,0,0,1,3.565,2.444,10.164,10.164,0,0,0,1.527-5.983c0-5.169-2.189-8.072-5.576-8.072s-5.576,2.9-5.576,8.072,2.19,8.071,5.576,8.071a4.755,4.755,0,0,0,2.9-.917c-.789-1.349-1.375-1.808-2.419-1.961Z" fill="#fff"/><path d="M1522.93,1296.389v12.528c0,3.513,1.706,4.736,4.965,4.736s4.965-1.223,4.965-4.736v-12.528h1.681v12.375c0,4.176-2.19,6.264-6.646,6.264s-6.646-2.088-6.646-6.264v-12.375Z" fill="#fff"/><path d="M1545.033,1296.389h2.571l5.806,18.384h-1.783l-1.859-6.009h-6.951l-1.884,6.009h-1.782Zm4.354,11-3.056-9.625h-.051l-3.03,9.625Z" fill="#fff"/><path d="M1558.045,1296.389h1.681V1313.4h8.2v1.375h-9.879Z" fill="#fff"/><path d="M1572.356,1296.389h1.681v18.384h-1.681Z" fill="#fff"/><path d="M1578.952,1296.389h12.579v1.375h-5.449v17.009H1584.4v-17.009h-5.449Z" fill="#fff"/><path d="M1599.883,1306.981l-5.627-10.592h1.884l4.532,9.09,4.838-9.09h1.884l-5.831,10.592v7.792h-1.68Z" fill="#fff"/><path d="M1511.344,1319.966h1.68v8.148h9.931v-8.148h1.68v18.384h-1.68v-8.861h-9.931v8.861h-1.68Z" fill="#fff"/><path d="M1544.344,1329.158c0,5.424-2.648,9.447-7.256,9.447s-7.257-4.023-7.257-9.447,2.648-9.446,7.257-9.446S1544.344,1323.735,1544.344,1329.158Zm-1.68,0c0-5.168-2.19-8.071-5.576-8.071s-5.577,2.9-5.577,8.071,2.19,8.071,5.577,8.071S1542.664,1334.327,1542.664,1329.158Z" fill="#fff"/><path d="M1549.565,1338.35v-18.384h2.954l5.067,15.583h.051l5.093-15.583h2.953v18.384H1564v-17.009h-.051l-5.526,17.009h-1.6l-5.525-17.009h-.051v17.009Z" fill="#fff"/><path d="M1572.2,1338.35v-18.384h10.491v1.375h-8.81v6.773h6.34v1.375h-6.34v7.486h9.293v1.375Z" fill="#fff"/><path d="M1587.61,1333.207c.713,2.8,2.342,4.022,5.245,4.022a3.41,3.41,0,0,0,3.667-3.666c0-4.939-9.956-3.005-9.956-9.09,0-2.724,1.884-4.761,5.3-4.761a5.8,5.8,0,0,1,5.882,4.4l-1.451.433a4.488,4.488,0,0,0-4.431-3.463c-2.139,0-3.615,1.222-3.615,3.386,0,1.248.356,2.139,3.742,3.412,5.169,1.935,6.214,3.208,6.214,5.856,0,3.132-2.623,4.864-5.6,4.864-3.514,0-5.525-1.553-6.544-4.915Z" fill="#fff"/></g></svg>