<?xml version="1.0" encoding="utf-8"?>
<!-- Generator: Adobe Illustrator 25.4.1, SVG Export Plug-In . SVG Version: 6.00 Build 0)  -->
<svg version="1.1" xmlns="http://www.w3.org/2000/svg" xmlns:xlink="http://www.w3.org/1999/xlink" x="0px" y="0px"
	 viewBox="0 0 491.2 491" enable-background="new 0 0 491.2 491" xml:space="preserve">
<g id="DO_NOT_PRINT">
	<rect x="-57.6" y="-132.1" fill="#58595B" width="612.1" height="792.6"/>
	<g>
		<path fill="#007960" d="M198.8,613.2h4.1c0.8,0,1.5,0.2,2,0.7s0.8,1.1,0.8,2c0,0.7-0.2,1.3-0.7,1.9c-0.4,0.5-1.1,0.8-2.1,0.8h-2.9
			v3.9h-1.2V613.2z M203.7,614.4c-0.3-0.1-0.7-0.2-1.1-0.2h-2.5v3.2h2.5c0.6,0,1-0.1,1.4-0.4c0.3-0.2,0.5-0.7,0.5-1.3
			C204.4,615.1,204.2,614.7,203.7,614.4z"/>
		<path fill="#007960" d="M210.8,618.3c0.3,0,0.4-0.1,0.5-0.3c0-0.1,0.1-0.2,0.1-0.4c0-0.4-0.1-0.7-0.4-0.8
			c-0.3-0.2-0.7-0.3-1.2-0.3c-0.6,0-1,0.2-1.3,0.5c-0.1,0.2-0.2,0.4-0.3,0.8h-1.1c0-0.8,0.3-1.4,0.8-1.7c0.5-0.3,1.1-0.5,1.8-0.5
			c0.8,0,1.4,0.2,1.9,0.5c0.5,0.3,0.7,0.8,0.7,1.4v3.9c0,0.1,0,0.2,0.1,0.3c0,0.1,0.2,0.1,0.3,0.1c0.1,0,0.1,0,0.2,0
			c0.1,0,0.1,0,0.2,0v0.8c-0.2,0.1-0.3,0.1-0.4,0.1s-0.2,0-0.4,0c-0.4,0-0.7-0.1-0.8-0.4c-0.1-0.1-0.2-0.4-0.2-0.6
			c-0.2,0.3-0.6,0.6-1,0.8s-0.9,0.3-1.4,0.3c-0.6,0-1.1-0.2-1.5-0.6c-0.4-0.4-0.6-0.9-0.6-1.4c0-0.6,0.2-1.1,0.6-1.4
			c0.4-0.3,0.9-0.6,1.5-0.6L210.8,618.3z M208.4,621.4c0.2,0.2,0.5,0.3,0.8,0.3c0.4,0,0.8-0.1,1.2-0.3c0.6-0.3,0.9-0.8,0.9-1.5V619
			c-0.1,0.1-0.3,0.2-0.5,0.2c-0.2,0.1-0.4,0.1-0.6,0.1l-0.7,0.1c-0.4,0.1-0.7,0.1-0.9,0.3c-0.3,0.2-0.5,0.5-0.5,0.9
			C208,620.9,208.1,621.2,208.4,621.4z"/>
		<path fill="#007960" d="M214.3,615.7h1.1v1c0.3-0.4,0.7-0.7,1-0.8c0.4-0.2,0.8-0.3,1.2-0.3c1,0,1.6,0.3,1.9,1
			c0.2,0.4,0.3,0.9,0.3,1.6v4.3h-1.2v-4.2c0-0.4-0.1-0.7-0.2-1c-0.2-0.4-0.6-0.6-1.1-0.6c-0.3,0-0.5,0-0.7,0.1
			c-0.3,0.1-0.6,0.3-0.8,0.6c-0.2,0.2-0.3,0.5-0.4,0.7c-0.1,0.2-0.1,0.6-0.1,1v3.5h-1.1V615.7z"/>
		<path fill="#007960" d="M221.7,613.8h1.1v1.9h1.1v0.9h-1.1v4.4c0,0.2,0.1,0.4,0.2,0.5c0.1,0,0.2,0.1,0.4,0.1c0.1,0,0.1,0,0.2,0
			c0.1,0,0.1,0,0.2,0v0.9c-0.1,0-0.3,0.1-0.4,0.1c-0.1,0-0.3,0-0.5,0c-0.5,0-0.9-0.1-1.1-0.4c-0.2-0.3-0.3-0.6-0.3-1.1v-4.5h-0.9
			v-0.9h0.9V613.8z"/>
		<path fill="#007960" d="M229.9,616.3c0.6,0.6,0.9,1.4,0.9,2.5c0,1.1-0.3,2-0.8,2.7c-0.5,0.7-1.3,1.1-2.4,1.1
			c-0.9,0-1.6-0.3-2.2-0.9c-0.5-0.6-0.8-1.5-0.8-2.5c0-1.1,0.3-2,0.9-2.7s1.3-1,2.3-1C228.6,615.5,229.3,615.8,229.9,616.3z
			 M229.2,620.8c0.3-0.6,0.4-1.2,0.4-1.9c0-0.6-0.1-1.1-0.3-1.5c-0.3-0.6-0.9-0.9-1.6-0.9c-0.7,0-1.2,0.3-1.5,0.8s-0.5,1.2-0.5,1.9
			c0,0.7,0.2,1.3,0.5,1.8s0.8,0.7,1.5,0.7C228.4,621.7,228.9,621.4,229.2,620.8z"/>
		<path fill="#007960" d="M232.2,615.7h1.1v1c0.3-0.4,0.7-0.7,1-0.8c0.4-0.2,0.8-0.3,1.2-0.3c1,0,1.6,0.3,1.9,1
			c0.2,0.4,0.3,0.9,0.3,1.6v4.3h-1.1v-4.2c0-0.4-0.1-0.7-0.2-1c-0.2-0.4-0.6-0.6-1.1-0.6c-0.3,0-0.5,0-0.7,0.1
			c-0.3,0.1-0.6,0.3-0.8,0.6c-0.2,0.2-0.3,0.5-0.4,0.7s-0.1,0.6-0.1,1v3.5h-1.1V615.7z"/>
		<path fill="#007960" d="M243.5,615.8c0.4,0.2,0.8,0.5,1,0.9c0.2,0.3,0.4,0.7,0.5,1.2c0.1,0.3,0.1,0.8,0.1,1.5h-4.9
			c0,0.7,0.2,1.2,0.5,1.6c0.3,0.4,0.8,0.6,1.4,0.6c0.6,0,1.1-0.2,1.4-0.6c0.2-0.2,0.3-0.5,0.4-0.8h1.1c0,0.2-0.1,0.5-0.3,0.8
			c-0.2,0.3-0.3,0.6-0.6,0.7c-0.3,0.3-0.8,0.6-1.3,0.7c-0.3,0.1-0.6,0.1-0.9,0.1c-0.8,0-1.5-0.3-2.1-0.9c-0.6-0.6-0.9-1.5-0.9-2.6
			c0-1.1,0.3-2,0.9-2.6c0.6-0.7,1.3-1,2.3-1C242.6,615.5,243.1,615.6,243.5,615.8z M243.9,618.5c0-0.5-0.2-0.9-0.3-1.2
			c-0.3-0.5-0.8-0.8-1.5-0.8c-0.5,0-0.9,0.2-1.3,0.6c-0.3,0.4-0.5,0.9-0.6,1.4H243.9z"/>
		<path fill="#007960" d="M250.3,621.8c-0.5-0.6-0.7-1.3-0.7-2.1h1.2c0,0.6,0.2,1,0.3,1.3c0.3,0.5,0.8,0.7,1.6,0.7
			c0.6,0,1.1-0.2,1.4-0.5c0.4-0.3,0.5-0.7,0.5-1.2c0-0.6-0.2-1.1-0.6-1.3c-0.4-0.2-0.9-0.4-1.6-0.4c-0.1,0-0.2,0-0.2,0
			c-0.1,0-0.2,0-0.2,0v-1c0.1,0,0.2,0,0.3,0c0.1,0,0.2,0,0.3,0c0.4,0,0.8-0.1,1-0.2c0.5-0.2,0.7-0.7,0.7-1.3c0-0.4-0.2-0.8-0.5-1
			c-0.3-0.2-0.7-0.4-1.1-0.4c-0.8,0-1.3,0.3-1.6,0.8c-0.2,0.3-0.2,0.7-0.3,1.2h-1.1c0-0.7,0.1-1.2,0.4-1.7c0.5-0.8,1.3-1.3,2.4-1.3
			c0.9,0,1.6,0.2,2.1,0.6c0.5,0.4,0.8,1,0.8,1.8c0,0.6-0.1,1-0.4,1.3c-0.2,0.2-0.4,0.4-0.7,0.5c0.5,0.1,0.8,0.4,1.1,0.8
			c0.3,0.4,0.4,0.8,0.4,1.4c0,0.9-0.3,1.6-0.8,2.1c-0.6,0.5-1.4,0.8-2.4,0.8C251.5,622.6,250.8,622.3,250.3,621.8z"/>
		<path fill="#007960" d="M257.4,621.8c-0.5-0.6-0.7-1.3-0.7-2.1h1.2c0.1,0.6,0.2,1,0.3,1.3c0.3,0.5,0.8,0.7,1.6,0.7
			c0.6,0,1.1-0.2,1.4-0.5c0.4-0.3,0.5-0.7,0.5-1.2c0-0.6-0.2-1.1-0.6-1.3c-0.4-0.2-0.9-0.4-1.6-0.4c-0.1,0-0.2,0-0.2,0s-0.2,0-0.2,0
			v-1c0.1,0,0.2,0,0.3,0c0.1,0,0.2,0,0.3,0c0.4,0,0.8-0.1,1-0.2c0.5-0.2,0.7-0.7,0.7-1.3c0-0.4-0.2-0.8-0.5-1
			c-0.3-0.2-0.7-0.4-1.1-0.4c-0.8,0-1.3,0.3-1.6,0.8c-0.2,0.3-0.2,0.7-0.3,1.2h-1.1c0-0.7,0.1-1.2,0.4-1.7c0.5-0.8,1.3-1.3,2.4-1.3
			c0.9,0,1.6,0.2,2.1,0.6c0.5,0.4,0.8,1,0.8,1.8c0,0.6-0.1,1-0.4,1.3c-0.2,0.2-0.4,0.4-0.7,0.5c0.5,0.1,0.8,0.4,1.1,0.8
			c0.3,0.4,0.4,0.8,0.4,1.4c0,0.9-0.3,1.6-0.8,2.1s-1.4,0.8-2.4,0.8C258.7,622.6,257.9,622.3,257.4,621.8z"/>
		<path fill="#007960" d="M265.2,620.1c0.1,0.6,0.4,1.1,0.9,1.3c0.3,0.1,0.6,0.2,0.9,0.2c0.7,0,1.2-0.2,1.5-0.6
			c0.3-0.4,0.5-0.9,0.5-1.4c0-0.6-0.2-1.1-0.6-1.5c-0.4-0.3-0.8-0.5-1.4-0.5c-0.4,0-0.7,0.1-1,0.2c-0.3,0.2-0.5,0.4-0.7,0.6l-1-0.1
			l0.7-4.8h4.7v1.1h-3.8l-0.4,2.5c0.2-0.2,0.4-0.3,0.6-0.4c0.3-0.1,0.7-0.2,1.2-0.2c0.8,0,1.5,0.3,2.1,0.8c0.6,0.5,0.9,1.2,0.9,2
			c0,0.8-0.3,1.6-0.8,2.2c-0.5,0.6-1.4,1-2.5,1c-0.7,0-1.4-0.2-1.9-0.6c-0.6-0.4-0.9-1-0.9-1.9H265.2z"/>
		<path fill="#007960" d="M281.8,613.8c0.6,0.6,1,1.3,1.1,2.1h-1.2c-0.1-0.6-0.4-1.1-0.8-1.4c-0.4-0.3-1-0.5-1.7-0.5
			c-0.9,0-1.6,0.3-2.2,1c-0.5,0.6-0.8,1.6-0.8,2.9c0,1.1,0.2,2,0.7,2.6c0.5,0.7,1.2,1,2.2,1c0.9,0,1.6-0.4,2.1-1.1
			c0.3-0.4,0.4-0.9,0.6-1.5h1.2c-0.1,1-0.5,1.8-1.1,2.4c-0.7,0.8-1.7,1.2-2.9,1.2c-1.1,0-2-0.3-2.7-1c-0.9-0.9-1.4-2.2-1.4-4
			c0-1.4,0.4-2.5,1.1-3.4c0.8-0.9,1.8-1.4,3.2-1.4C280.3,612.9,281.2,613.2,281.8,613.8z"/>
		<path fill="#007960" d="M287.7,619.6v-1.1h2.7v-2.8h1.1v2.8h2.7v1.1h-2.7v2.8h-1.1v-2.8H287.7z"/>
		<path fill="#FFFFFF" d="M303.4,613.2l1.7,7.5l2.1-7.5h1.4l2.1,7.5l1.7-7.5h1.4l-2.4,9.2H310l-2.1-7.7l-2.1,7.7h-1.3l-2.4-9.2
			H303.4z"/>
		<path fill="#FFFFFF" d="M314.8,613.1h1.1v3.4c0.3-0.3,0.5-0.6,0.7-0.7c0.4-0.2,0.8-0.4,1.4-0.4c1,0,1.6,0.3,2,1
			c0.2,0.4,0.3,0.9,0.3,1.6v4.3h-1.2v-4.2c0-0.5-0.1-0.9-0.2-1.1c-0.2-0.4-0.6-0.6-1.2-0.6c-0.5,0-0.9,0.2-1.3,0.5s-0.6,0.9-0.6,1.8
			v3.6h-1.1V613.1z"/>
		<path fill="#FFFFFF" d="M321.9,613.2h1.1v1.3h-1.1V613.2z M321.9,615.7h1.1v6.7h-1.1V615.7z"/>
		<path fill="#FFFFFF" d="M325,613.8h1.1v1.9h1.1v0.9h-1.1v4.4c0,0.2,0.1,0.4,0.2,0.5c0.1,0,0.2,0.1,0.4,0.1c0.1,0,0.1,0,0.2,0
			s0.1,0,0.2,0v0.9c-0.1,0-0.3,0.1-0.4,0.1c-0.1,0-0.3,0-0.5,0c-0.5,0-0.9-0.1-1.1-0.4c-0.2-0.3-0.3-0.6-0.3-1.1v-4.5h-0.9v-0.9h0.9
			V613.8z"/>
		<path fill="#FFFFFF" d="M332.5,615.8c0.4,0.2,0.8,0.5,1,0.9c0.2,0.3,0.4,0.7,0.4,1.2c0.1,0.3,0.1,0.8,0.1,1.5h-4.9
			c0,0.7,0.2,1.2,0.5,1.6c0.3,0.4,0.8,0.6,1.4,0.6c0.6,0,1.1-0.2,1.4-0.6c0.2-0.2,0.3-0.5,0.4-0.8h1.1c0,0.2-0.1,0.5-0.3,0.8
			c-0.2,0.3-0.3,0.6-0.6,0.7c-0.3,0.3-0.8,0.6-1.3,0.7c-0.3,0.1-0.6,0.1-0.9,0.1c-0.8,0-1.5-0.3-2.1-0.9c-0.6-0.6-0.9-1.5-0.9-2.6
			c0-1.1,0.3-2,0.9-2.6c0.6-0.7,1.3-1,2.3-1C331.6,615.5,332.1,615.6,332.5,615.8z M332.9,618.5c0-0.5-0.2-0.9-0.3-1.2
			c-0.3-0.5-0.8-0.8-1.5-0.8c-0.5,0-0.9,0.2-1.3,0.6c-0.3,0.4-0.5,0.9-0.6,1.4H332.9z"/>
	</g>
</g>
<g id="Layer_1">
	<g>
		<path fill="#FFFFFF" d="M7.1,352.2v-8.7h7.7v-52.2H7.1v-8.6H38c5.5,0,10.5,0.3,15,4c4.3,3.4,6.1,9.4,6.1,15
			c0,9.4-5.5,16.2-14.1,17.3c7.4,1.1,8.7,3.9,10.5,11.2l3.5,13.4h5.4v8.7h-16c-2.1-6.5-4.4-22.8-8.4-27.6c-1.9-2-4.5-1.7-6.9-1.7H27
			v20.6h7.4v8.7H7.1z M27,291.4v22.7h6.3c3.6,0,7.3-0.3,10.1-3c2.5-2.4,3.3-5.7,3.3-9.2c0-3.2-1.3-6.7-3.7-8.7
			c-2.1-1.7-5.4-1.7-8-1.7H27z"/>
		<path fill="#FFFFFF" d="M69.5,352.2v-8.7h5.1l21-60.8h14.7l20.8,60.8h5.1v8.7h-25.9v-8.7h7.7l-4-12.5H90.2l-4.1,12.5h7.8v8.7H69.5
			z M110.9,322.2l-8.8-28.3H102l-8.8,28.3H110.9z"/>
		<path fill="#FFFFFF" d="M136.2,306.3v-23.7h53v23.7h-10.4v-14.6h-10v51.7h8.6v8.7h-29.5v-8.7h8.7v-51.7h-10v14.6H136.2z"/>
		<path fill="#FFFFFF" d="M197.6,306.3v-23.7h53v23.7h-10.4v-14.6h-10v51.7h8.6v8.7h-29.5v-8.7h8.7v-51.7h-10v14.6H197.6z"/>
		<path fill="#FFFFFF" d="M257.8,352.2v-8.7h7.5v-52.1h-7.5v-8.7h29.4v8.7h-9.7v52.1h19.1v-15.8h10.7v24.6H257.8z"/>
		<path fill="#FFFFFF" d="M314.2,352.2v-8.7h7.4v-52.1h-7.4v-8.7h52.9v21.3h-9.8v-12.5h-23.4v21.2h9.4v-9h8.5v26.5h-8.5v-8.7h-9.4
			v22.2h23.4v-13.4h9.8v22.2H314.2z"/>
		<path fill="#FFFFFF" d="M375.5,352.2v-8.7h7.7v-52.2h-7.7v-8.6h30.9c5.5,0,10.5,0.3,15,4c4.3,3.4,6.1,9.4,6.1,15
			c0,9.4-5.5,16.2-14.1,17.3c7.4,1.1,8.7,3.9,10.5,11.2l3.5,13.4h5.4v8.7h-16c-2.1-6.5-4.4-22.8-8.4-27.6c-1.9-2-4.5-1.7-6.9-1.7
			h-6.1v20.6h7.4v8.7H375.5z M395.4,291.4v22.7h6.3c3.6,0,7.3-0.3,10.1-3c2.5-2.4,3.3-5.7,3.3-9.2c0-3.2-1.3-6.7-3.7-8.7
			c-2.1-1.7-5.4-1.7-8-1.7H395.4z"/>
		<path fill="#FFFFFF" d="M473.4,305.6c0-0.8,0-1.5-0.1-2.2c-0.4-7.7-3.8-13.3-11.3-13.3c-2.8,0-5.6,0.5-7.5,2.9
			c-1.5,2-2.1,4.5-2.1,7.2c0,5.8,5.3,8,9.6,9.6l7.8,3.2c3.6,1.4,6.4,2.6,9.5,5.1c3.3,2.5,4.4,5.4,5.5,9.5c0.4,1.7,0.6,3.9,0.6,5.7
			c0,5.6-1.5,9.4-3.8,12.4c-3.9,6.3-11.4,7.7-16.5,7.7c-6.1,0-11.8-1.7-15-7.7v6.5h-10V328h10.5c0,8.4,3,16.4,11.7,16.4
			c5.7,0,10.5-3.2,10.5-10c0-6.8-4.6-8.7-9.5-10.8l-8.2-3.4c-4.3-1.7-7.6-3.1-10.8-6.6c-2.9-3.2-4.2-7.5-4.2-12
			c0-6.3,2.5-11.1,3.9-13.2c2.7-4.1,7.7-7,15-7c5.5,0,11.6,1.4,14.8,7v-5.8h10v22.9H473.4z"/>
	</g>
	<g>
		<path fill="#FFFFFF" d="M26,274.1c0-9.7,0-19.4,0-29.1c2.6-0.5,5.1-1.1,7.7-1.6c0-23.8,0-47.6,0-71.4c-2.6,0.5-5.1,1-7.7,1.6
			c0-9.8,0-19.5,0-29.3c26.5-5.5,53.1-10,79.9-13.5c6.9,6,13.8,12.1,20.8,18.3c0,11.1,0,22.3,0,33.4c-2.8,3.1-5.7,6.2-8.5,9.3
			c2.8,2.5,5.7,5,8.5,7.5c0,9.9,0,19.8,0,29.7c2.6-0.3,5.2-0.6,7.8-0.8c0,9.7,0,19.4,0,29.1c-14.5,1.5-28.9,3.3-43.4,5.4
			c0-16.3,0-32.5,0-48.8c-1.4-1.1-2.7-2.2-4.1-3.3c-6,0.9-12,1.8-17.9,2.8c0,7.9,0,15.7,0,23.6c2.6-0.4,5.2-0.8,7.8-1.3
			c0,9.7,0,19.4,0,29.1C59.8,267.5,42.9,270.6,26,274.1z M73.6,262.2c0-7.7,0-15.3,0-23c-2.6,0.4-5.2,0.8-7.8,1.3
			c0-9.9,0-19.8,0-29.7c7.5-1.3,15-2.5,22.5-3.6c1.9,1.6,3.8,3.3,5.7,4.9c0,15.6,0,31.3,0,46.9c12.3-1.7,24.6-3.3,36.9-4.6
			c0-7.7,0-15.3,0-23c-2.5,0.3-5.1,0.6-7.6,0.8c0-10.4,0-20.9,0-31.3c-3.3-3-6.6-5.9-9.8-8.8c3.3-3.7,6.6-7.5,9.8-11.2
			c0-10.1,0-20.2,0-30.2c-6.3-5.6-12.6-11.1-18.9-16.6c-25.2,3.3-50.4,7.6-75.4,12.7c0,7.7,0,15.3,0,23c2.5-0.5,5-1,7.5-1.5
			c0,25.8,0,51.7,0,77.5c-2.5,0.5-5,1-7.5,1.5c0,7.7,0,15.3,0,23C43.9,267.3,58.8,264.6,73.6,262.2z M65.9,188c0-8.3,0-16.7,0-25
			c7.2-1.2,14.4-2.4,21.6-3.4c2.2,1.9,4.4,3.8,6.7,5.7c0,4,0,7.9,0,11.9c-2.2,2.5-4.4,5-6.7,7.5C80.3,185.6,73.1,186.8,65.9,188z
			 M86.8,181.5c1.4-1.6,2.8-3.1,4.3-4.7c0-3.5,0-6.9,0-10.4c-1.4-1.2-2.8-2.4-4.3-3.6c-5.9,0.9-11.8,1.8-17.7,2.8
			c0,6.2,0,12.5,0,18.7C74.9,183.3,80.9,182.4,86.8,181.5z"/>
		<path fill="#FFFFFF" d="M147.4,235.2c0-29.4,0-58.8,0-88.3c6.9-7.6,13.9-15.1,20.8-22.5c19-1.4,38-2.3,57-2.7
			c7,6.8,14,13.7,21.1,20.7c0,9.6,0,19.2,0,28.7c-12,0-24,0.2-36,0.6c0-5.4,0-10.9,0-16.3c-1.4-1.3-2.7-2.6-4.1-3.9
			c-6.3,0.2-12.7,0.5-19,0.9c-1.4,1.4-2.7,2.9-4.1,4.3c0,21,0,42,0,63.1c1.4,1.3,2.9,2.7,4.3,4c6.3-0.3,12.5-0.6,18.8-0.9
			c1.4-1.4,2.7-2.8,4.1-4.2c0-4.1,0-8.3,0-12.4c-3.3,0.1-6.6,0.2-9.9,0.4c0-8.8,0-17.7,0-26.5c15.3-0.7,30.6-1,45.8-1
			c0,17,0,34,0,51c-7,7.1-14,14.2-21.1,21.4c-19,0.4-38,1.3-57,2.7C161.3,247.9,154.3,241.5,147.4,235.2z M169.3,251
			c18.3-1.3,36.6-2.2,54.9-2.6c6.2-6.3,12.4-12.6,18.6-18.8c0-15.8,0-31.5,0-47.3c-13.1,0.1-26.2,0.4-39.3,0.9c0,6.7,0,13.5,0,20.2
			c3.3-0.1,6.6-0.3,9.9-0.4c0,5.4,0,10.8,0,16.1c-2.2,2.2-4.3,4.5-6.5,6.7c-6.8,0.3-13.5,0.6-20.3,0.9c-2.2-2-4.3-4.1-6.5-6.1
			c0-21.5,0-43,0-64.5c2.2-2.3,4.3-4.6,6.5-6.9c6.8-0.4,13.5-0.7,20.3-0.9c2.2,2.1,4.3,4.2,6.5,6.3c0,4.7,0,9.4,0,14.1
			c9.8-0.3,19.6-0.5,29.5-0.5c0-8.3,0-16.6,0-24.8c-6.3-6.2-12.6-12.4-18.8-18.5c-18.3,0.4-36.6,1.3-54.9,2.6
			c-6.2,6.6-12.4,13.3-18.6,20c0,28.7,0,57.5,0,86.2C156.8,239.5,163.1,245.3,169.3,251z"/>
		<path fill="#FFFFFF" d="M259.3,230.7c0-8.3,0-16.6,0-24.8c11.9,0.1,23.9,0.4,35.8,1c0,4.1,0,8.2,0,12.2c1.5,1.5,3,3,4.5,4.5
			c6.2,0.3,12.4,0.6,18.6,1c1.4-1.3,2.9-2.5,4.3-3.8c0-4.3,0-8.5,0-12.8c-1.4-1.4-2.7-2.8-4.1-4.2c-12.7-0.8-25.4-1.4-38.2-1.8
			c-7-7.1-13.9-14.2-20.9-21.2c0-12.8,0-25.6,0-38.4c7-6.8,13.9-13.6,20.9-20.4c19.1,0.6,38.3,1.6,57.3,3.2
			c6.9,7.5,13.9,15.1,20.8,22.7c0,8.5,0,17.1,0,25.6c-11.9-1.2-23.9-2.2-35.9-3.1c0-4.3,0-8.7,0-13c-1.4-1.5-2.7-2.9-4.1-4.4
			c-6.5-0.4-12.9-0.8-19.4-1.1c-1.3,1.3-2.6,2.6-3.9,3.9c0,4.4,0,8.8,0,13.2c1.4,1.4,2.7,2.8,4.1,4.3c12.8,0.6,25.6,1.4,38.3,2.5
			c6.9,7.5,13.9,15.1,20.8,22.7c0,12.5,0,25.1,0,37.6c-6.9,6.2-13.9,12.5-20.8,18.9c-19.1-1.6-38.2-2.6-57.3-3.2
			C273.2,244.7,266.3,237.7,259.3,230.7z M281.1,248.7c18.5,0.6,37,1.6,55.5,3.1c6.2-5.6,12.4-11.2,18.6-16.7c0-12.1,0-24.2,0-36.3
			c-6.1-6.7-12.3-13.3-18.4-19.8c-12.8-1-25.6-1.9-38.3-2.5c-2.1-2.3-4.2-4.5-6.3-6.8c0-4.9,0-9.8,0-14.7c2.1-2.1,4.2-4.1,6.3-6.2
			c6.9,0.3,13.8,0.7,20.7,1.2c2.2,2.3,4.3,4.6,6.5,6.9c0,3.5,0,7,0,10.6c9.9,0.7,19.7,1.5,29.6,2.5c0-7.2,0-14.5,0-21.7
			c-6.1-6.7-12.3-13.4-18.4-20c-18.6-1.5-37.2-2.6-55.9-3.1c-6.1,5.9-12.3,11.9-18.5,18c0,12.3,0,24.6,0,36.9
			c6.2,6.2,12.3,12.5,18.5,18.8c12.7,0.4,25.5,1,38.2,1.8c2.2,2.2,4.3,4.5,6.5,6.8c0,4.7,0,9.4,0,14.1c-2.2,2-4.5,4-6.7,6
			c-6.8-0.4-13.5-0.8-20.3-1.1c-2.2-2.3-4.3-4.5-6.5-6.8c0-3.3,0-6.6,0-9.8c-9.9-0.4-19.8-0.7-29.6-0.8c0,7,0,14,0,21
			C268.7,236.2,274.9,242.4,281.1,248.7z"/>
		<path fill="#FFFFFF" d="M371.3,237.6c0-8.3,0-16.6,0-24.8c11.9,1.4,23.7,2.9,35.6,4.6c0,4.1,0,8.2,0,12.2c1.5,1.6,3,3.3,4.4,4.9
			c6.2,0.9,12.3,1.9,18.5,3c1.4-1.1,2.8-2.2,4.2-3.4c0-4.3,0-8.5,0-12.8c-1.4-1.5-2.7-3.1-4.1-4.6c-12.6-2.1-25.2-4-37.9-5.7
			c-6.9-7.8-13.8-15.6-20.8-23.3c0-12.8,0-25.6,0-38.4c6.9-6.1,13.8-12.2,20.8-18.2c19,2.5,38,5.6,56.9,9.1
			c6.9,8.2,13.7,16.5,20.6,24.8c0,8.5,0,17.1,0,25.6c-11.8-2.4-23.6-4.7-35.5-6.7c0-4.3,0-8.7,0-13c-1.4-1.6-2.7-3.2-4.1-4.8
			c-6.4-1.1-12.8-2.1-19.2-3.1c-1.3,1.2-2.6,2.3-3.9,3.5c0,4.4,0,8.8,0,13.2c1.4,1.6,2.7,3.1,4.1,4.7c12.7,1.9,25.4,4.1,38,6.4
			c6.9,8.2,13.7,16.5,20.6,24.8c0,12.5,0,25.1,0,37.6c-6.9,5.5-13.7,11.1-20.6,16.7c-18.9-3.5-37.9-6.6-56.9-9.1
			C385.2,253.1,378.3,245.3,371.3,237.6z M393,257.9c18.4,2.5,36.7,5.4,55,8.8c6.1-5,12.3-9.9,18.4-14.8c0-12.1,0-24.2,0-36.3
			c-6.1-7.3-12.1-14.5-18.2-21.7c-12.6-2.4-25.3-4.5-38-6.4c-2.1-2.5-4.2-5-6.3-7.4c0-4.9,0-9.8,0-14.7c2.1-1.9,4.2-3.7,6.3-5.6
			c6.8,1,13.7,2.1,20.5,3.3c2.2,2.5,4.3,5.1,6.5,7.6c0,3.5,0,7,0,10.6c9.8,1.7,19.5,3.6,29.2,5.6c0-7.2,0-14.5,0-21.7
			c-6.1-7.4-12.1-14.7-18.2-21.9c-18.4-3.4-36.9-6.4-55.4-8.9c-6.1,5.3-12.2,10.7-18.3,16.1c0,12.3,0,24.6,0,36.9
			c6.1,6.8,12.2,13.7,18.3,20.7c12.7,1.7,25.3,3.6,37.9,5.7c2.2,2.5,4.3,4.9,6.5,7.4c0,4.7,0,9.4,0,14.1c-2.2,1.8-4.4,3.6-6.6,5.3
			c-6.7-1.1-13.4-2.2-20.1-3.2c-2.2-2.5-4.3-5-6.5-7.4c0-3.3,0-6.6,0-9.8c-9.8-1.4-19.6-2.7-29.5-3.8c0,7,0,14,0,21
			C380.7,244.1,386.9,251,393,257.9z"/>
	</g>
	<path fill="#007960" d="M154.6,231.1c0-27.1,0-54.3,0-81.4c5.6-6.1,11.3-12.2,16.9-18.2c16.7-1.2,33.5-2,50.3-2.4
		c5.7,5.6,11.4,11.1,17.1,16.8c0,6.1,0,12.2,0,18.4c-7.2,0.1-14.4,0.2-21.6,0.4c0-4.2,0-8.4,0-12.6c-2.7-2.6-5.3-5.2-8-7.7
		c-8.4,0.3-16.9,0.7-25.3,1.2c-2.7,2.8-5.3,5.6-8,8.5c0,23.2,0,46.5,0,69.7c2.7,2.5,5.3,5,8,7.5c8.4-0.5,16.9-0.9,25.3-1.2
		c2.7-2.8,5.3-5.5,8-8.2c0-7.5,0-15.1,0-22.6c-3.2,0.1-6.3,0.2-9.5,0.3c0-4.1,0-8.3,0-12.4c10.4-0.4,20.7-0.6,31.1-0.7
		c0,13.6,0,27.2,0,40.8c-5.7,5.7-11.4,11.5-17.1,17.3c-16.7,0.4-33.4,1.2-50.1,2.3C166,241.5,160.3,236.3,154.6,231.1z"/>
	<path fill="#007960" d="M266.6,227.3c0-4.8,0-9.5,0-14.3c7.1,0.1,14.3,0.3,21.4,0.6c0,2.8,0,5.7,0,8.5c2.7,2.8,5.3,5.5,8,8.3
		c8.6,0.4,17.1,0.9,25.7,1.4c2.7-2.5,5.3-5.1,8-7.6c0-6.2,0-12.4,0-18.5c-2.7-3-5.5-6-8.2-8.9c-12.5-0.8-25.1-1.5-37.6-1.9
		c-5.8-5.9-11.6-11.8-17.3-17.7c0-10.4,0-20.8,0-31.2c5.7-5.6,11.4-11.1,17.1-16.6c16.8,0.6,33.5,1.5,50.3,2.8
		c5.8,6.3,11.5,12.6,17.3,18.9c0,4.9,0,9.8,0,14.7c-7.2-0.7-14.4-1.3-21.6-1.8c0-3,0-5.9,0-8.9c-2.7-3-5.5-6-8.2-8.9
		c-8.5-0.6-17-1-25.5-1.4c-2.7,2.5-5.3,5.1-8,7.6c0,6.6,0,13.1,0,19.7c2.7,2.8,5.3,5.5,8,8.3c12.7,0.6,25.3,1.3,38,2.3
		c5.8,6.3,11.5,12.6,17.3,18.9c0,10.1,0,20.3,0,30.4c-5.6,5.2-11.3,10.3-16.9,15.6c-16.9-1.3-33.9-2.3-50.8-2.8
		C277.9,238.9,272.2,233,266.6,227.3z"/>
	<path fill="#007960" d="M378.6,234.9c0-4.8,0-9.5,0-14.3c7.1,0.9,14.2,1.8,21.3,2.8c0,2.8,0,5.7,0,8.5c2.7,3,5.3,6.1,8,9.1
		c8.5,1.3,17,2.6,25.5,4.1c2.6-2.3,5.3-4.5,7.9-6.8c0-6.2,0-12.4,0-18.5c-2.7-3.3-5.4-6.5-8.1-9.8c-12.4-2.1-24.9-4.1-37.3-5.8
		c-5.7-6.5-11.5-13-17.2-19.5c0-10.4,0-20.8,0-31.2c5.7-5,11.4-10,17-14.9c16.7,2.3,33.3,4.9,49.9,8c5.7,6.9,11.4,13.8,17.1,20.7
		c0,4.9,0,9.8,0,14.7c-7.1-1.4-14.2-2.8-21.3-4.1c0-3,0-5.9,0-8.9c-2.7-3.3-5.4-6.5-8.1-9.8c-8.4-1.4-16.9-2.8-25.3-4
		c-2.7,2.3-5.3,4.5-8,6.8c0,6.6,0,13.1,0,19.7c2.7,3,5.3,6.1,8,9.1c12.6,1.9,25.1,3.9,37.6,6.2c5.7,6.9,11.4,13.8,17.1,20.7
		c0,10.1,0,20.3,0,30.4c-5.6,4.6-11.1,9.2-16.7,13.8c-16.8-3.1-33.6-5.8-50.4-8.1C389.8,247.7,384.2,241.3,378.6,234.9z"/>
	<path fill="#007960" d="M119.4,236.9c0-11.2,0-22.4,0-33.6c-3.9-3.5-7.8-7-11.7-10.4c3.9-4.5,7.8-8.9,11.7-13.3
		c0-8.7,0-17.4,0-26.1c-5.6-5-11.2-10-16.9-14.9c-23.2,3.1-46.3,7-69.4,11.6c0,4.9,0,9.9,0,14.8c2.5-0.5,5-1,7.5-1.5
		c0,28.6,0,57.1,0,85.7c-2.5,0.5-5,1-7.5,1.5c0,4.9,0,9.9,0,14.8c12.2-2.4,24.4-4.7,36.6-6.7c0-4.9,0-9.9,0-14.8
		c-2.6,0.4-5.2,0.9-7.7,1.3c0-12.5,0-25.1,0-37.6c9.3-1.6,18.7-3.1,28.1-4.5c2.7,2.3,5.3,4.6,8,6.8c0,14.8,0,29.7,0,44.5
		c9.7-1.3,19.4-2.5,29.1-3.6c0-4.9,0-9.9,0-14.8C124.6,236.3,122,236.6,119.4,236.9z M98.1,179c-2.7,3.1-5.4,6.2-8.1,9.3
		c-9.3,1.4-18.6,2.8-27.9,4.4c0-11.1,0-22.1,0-33.2c9.3-1.6,18.7-3.1,28.1-4.5c2.7,2.2,5.3,4.4,8,6.7
		C98.1,167.5,98.1,173.2,98.1,179z"/>
</g>
</svg>
