<?xml version="1.0" encoding="utf-8"?>
<!-- Generator: Adobe Illustrator 25.4.1, SVG Export Plug-In . SVG Version: 6.00 Build 0)  -->
<svg version="1.1" id="Layer_1" xmlns="http://www.w3.org/2000/svg" xmlns:xlink="http://www.w3.org/1999/xlink" x="0px" y="0px"
	 viewBox="0 0 238.7 63.7" enable-background="new 0 0 238.7 63.7" xml:space="preserve">
<g>
	<g>
		<path fill="#143156" d="M3.7,3.7h26V15l-0.5,0c-0.3-2.8-1.1-5.2-2.5-7.2c-1.7-2.3-3.8-3.4-6.4-3.4H19v16.9c0,2.7,1.3,4,4,4h3.3
			v0.6H7v-0.6h3.3c2.7,0,4-1.3,4-4V4.3h-1.4c-2.6,0-4.8,1.2-6.4,3.7c-0.8,1.2-1.4,2.7-1.9,4.3c-0.1,0.6-0.3,1.4-0.4,2.6H3.7V3.7z"/>
	</g>
	<g>
		<path fill="#143156" d="M35.9,25.3h0.7c1.4,0,2.4-0.3,3-1c0.7-0.7,1-1.7,1-3c0-0.7,0-1.4,0-2.1c0-0.7,0-1.7,0-3.2c0-1.4,0-3,0-4.7
			c0-1.7,0-2.9,0-3.4c-0.1-0.7-0.2-1.2-0.4-1.6c-0.2-0.4-0.4-0.7-0.8-1c-0.6-0.6-1.6-0.8-2.9-0.8h-0.8V3.7h14v0.6h-0.5
			c-1.4,0-2.4,0.3-3,1c-0.7,0.7-1,1.7-1,3v5.9h11.9V8.4c0-1.4-0.3-2.4-1-3c-0.7-0.7-1.7-1-3-1h-0.5V3.7h13.8v0.6h-0.7
			c-1.4,0-2.4,0.3-3,1c-0.7,0.7-1,1.7-1,3v12.9c0,1.4,0.3,2.4,1,3c0.7,0.7,1.7,1,3,1h0.7v0.6H52.7v-0.6h0.5c1.4,0,2.4-0.3,3-1
			c0.7-0.7,1-1.7,1-3v-6.3H45.3v6.3c0,1.4,0.3,2.4,1,3c0.7,0.7,1.7,1,3,1h0.5v0.6H35.9V25.3z"/>
	</g>
	<g>
		<path fill="#143156" d="M72,3.7h23.6v8.6H95c-0.4-1.5-0.8-2.6-1.2-3.4c-0.3-0.7-0.8-1.5-1.3-2.1c-0.7-0.8-1.4-1.4-2.2-1.7
			c-1.3-0.5-2.9-0.8-4.7-0.8h-4.4v10.5h1.2c1.7,0,3.1-0.8,4.2-2.3c0.5-0.8,0.9-1.7,1.2-2.8c0.1-0.5,0.2-1.1,0.3-2h0.6v14.5h-0.6
			c-0.1-0.8-0.3-1.5-0.5-2.2c-0.2-0.7-0.4-1.3-0.6-1.7c-0.2-0.4-0.5-0.9-0.8-1.3c-1-1.2-2.3-1.8-4.1-1.8h-0.9v9.9h3.6
			c1.1,0,2-0.1,2.9-0.2c0.9-0.2,1.6-0.4,2.3-0.7c0.7-0.3,1.3-0.7,1.9-1.3c1-0.9,1.8-2,2.4-3.3c0.3-0.8,0.7-1.8,1-3h0.6v9.1H72l0-0.6
			h0.6c2.7,0,4-1.4,4-4.1V8.4c0-1.4-0.3-2.4-1-3c-0.7-0.7-1.7-1-3-1H72V3.7z"/>
	</g>
	<g>
		<path fill="#143156" d="M137.9,4.2h0.6v7.6h-0.6c-0.7-1.8-1.4-3.3-2.3-4.3c-0.6-0.7-1.4-1.3-2.3-1.9c-0.9-0.5-2-1-3.1-1.3
			c-1.1-0.3-2.3-0.5-3.5-0.5c-0.9,0-1.7,0.1-2.3,0.4c-0.7,0.2-1.3,0.6-1.7,1.1c-0.3,0.3-0.6,0.7-0.8,1.1c-0.2,0.4-0.3,0.8-0.3,1.2
			c0,0.7,0.3,1.4,0.9,1.9c0.3,0.3,0.6,0.5,1.1,0.8c0.5,0.2,1.1,0.5,1.9,0.7c0.8,0.2,1.9,0.5,3.3,0.9c0.4,0.1,0.6,0.2,0.8,0.2
			l0.8,0.2l1.2,0.3c2.1,0.5,3.6,1,4.6,1.4c1,0.4,1.8,1,2.5,1.6c0.5,0.5,0.9,1.1,1.2,1.7s0.4,1.4,0.4,2.2c0,0.8-0.2,1.5-0.5,2.3
			c-0.3,0.8-0.8,1.4-1.4,2c-0.8,0.8-1.7,1.4-2.9,1.8c-1.1,0.4-2.5,0.6-3.9,0.6c-1,0-2-0.1-2.9-0.3c-0.9-0.2-2-0.6-3.3-1.1
			c-0.8-0.3-1.5-0.6-1.9-0.7c-0.4-0.1-0.9-0.2-1.3-0.2c-0.8,0-1.4,0.2-1.9,0.6c-0.5,0.4-0.9,1-1,1.7h-0.6V16h0.6
			c0.2,1.8,1,3.5,2.2,4.9c0.8,0.9,1.7,1.7,2.9,2.4c1.2,0.7,2.4,1.3,3.7,1.7c1.3,0.4,2.5,0.6,3.6,0.6c1,0,2-0.2,2.8-0.5
			c0.8-0.3,1.5-0.8,2-1.4c0.5-0.6,0.7-1.3,0.7-2c0-0.8-0.3-1.5-1-2.2c-0.3-0.3-0.7-0.5-1.1-0.8c-0.5-0.2-1.1-0.5-1.8-0.7
			c-0.7-0.3-1.8-0.6-3.1-0.9l-1.6-0.4c-2.5-0.7-4.2-1.2-5.1-1.6c-1.1-0.4-1.9-0.8-2.5-1.2c-0.6-0.4-1.1-0.9-1.6-1.5
			c-0.7-0.8-1-1.8-1-2.8c0-1.2,0.4-2.3,1.1-3.3c0.7-1,1.7-1.7,3.1-2.3c1.3-0.5,2.8-0.8,4.4-0.8c2.4,0,4.9,0.7,7.5,2
			c0.9,0.5,1.5,0.7,1.9,0.7C136.9,6,137.5,5.4,137.9,4.2z"/>
	</g>
	<g>
		<path fill="#143156" d="M145.4,25.3h0.7c1.4,0,2.4-0.3,3-1c0.7-0.7,1-1.7,1-3c0-0.7,0-1.4,0-2.1c0-0.7,0-1.7,0-3.2
			c0-1.4,0-3,0-4.7c0-1.7,0-2.9,0-3.4c-0.1-0.7-0.2-1.2-0.4-1.6c-0.2-0.4-0.4-0.7-0.8-1c-0.6-0.6-1.6-0.8-2.9-0.8h-0.8V3.7h14v0.6
			h-0.5c-1.4,0-2.4,0.3-3,1c-0.7,0.7-1,1.7-1,3v5.9h11.9V8.4c0-1.4-0.3-2.4-1-3c-0.7-0.7-1.7-1-3-1h-0.5V3.7h13.8v0.6h-0.6
			c-1.4,0-2.4,0.3-3,1c-0.7,0.7-1,1.7-1,3v12.9c0,1.4,0.3,2.4,1,3c0.7,0.7,1.7,1,3,1h0.6v0.6h-13.8v-0.6h0.5c1.4,0,2.4-0.3,3-1
			c0.7-0.7,1-1.7,1-3v-6.3h-11.9v6.3c0,1.4,0.3,2.4,1,3c0.7,0.7,1.7,1,3,1h0.5v0.6h-13.9V25.3z"/>
	</g>
	<g>
		<path fill="#143156" d="M193.1,3.3c2.1,0,4,0.3,5.7,1c1.7,0.7,3.2,1.6,4.5,2.9c1.1,1.1,1.9,2.3,2.5,3.6c0.6,1.3,0.9,2.7,0.9,4.1
			c0,2.1-0.6,4-1.8,5.8c-1.2,1.8-2.8,3.1-4.8,4.2c-2,1-4.2,1.5-6.6,1.5c-1.8,0-3.6-0.3-5.2-0.9c-1.6-0.6-3.1-1.4-4.3-2.5
			c-1.2-1.1-2.2-2.3-2.9-3.7c-0.7-1.4-1-2.9-1-4.4c0-2,0.6-4,1.8-5.7c1.2-1.8,2.8-3.2,4.8-4.2C188.6,3.8,190.8,3.3,193.1,3.3z
			 M193.5,3.9c-1,0-1.9,0.2-2.7,0.5c-0.9,0.3-1.6,0.8-2.1,1.4c-0.6,0.7-1.2,1.5-1.6,2.4c-0.4,0.9-0.8,1.9-1,3.1
			c-0.2,1.1-0.3,2.3-0.3,3.6c0,1.6,0.2,3.1,0.5,4.4c0.4,1.3,0.9,2.5,1.6,3.5c0.7,1,1.5,1.7,2.4,2.2c0.9,0.5,2,0.8,3.1,0.8
			c1.6,0,2.9-0.4,4.1-1.3c1.2-0.9,2-2.2,2.7-3.8c0.6-1.7,0.9-3.6,0.9-5.9c0-1.5-0.2-2.9-0.5-4.2c-0.3-1.3-0.8-2.4-1.5-3.4
			c-0.6-1-1.4-1.7-2.3-2.3c-0.4-0.3-1-0.5-1.5-0.7C194.6,4,194.1,3.9,193.5,3.9z"/>
	</g>
	<g>
		<path fill="#143156" d="M210.6,3.7h23.6v8.6h-0.5c-0.4-1.5-0.8-2.6-1.2-3.4c-0.3-0.7-0.8-1.5-1.3-2.1c-0.7-0.8-1.4-1.4-2.2-1.7
			c-1.3-0.5-2.9-0.8-4.7-0.8h-4.4v10.5h1.2c1.7,0,3.1-0.8,4.2-2.3c0.5-0.8,0.9-1.7,1.2-2.8c0.1-0.5,0.2-1.1,0.3-2h0.6v14.5h-0.6
			c-0.1-0.8-0.3-1.5-0.5-2.2c-0.2-0.7-0.4-1.3-0.6-1.7c-0.2-0.4-0.5-0.9-0.8-1.3c-1-1.2-2.3-1.8-4.1-1.8h-0.9v9.9h3.6
			c1.1,0,2-0.1,2.9-0.2c0.9-0.2,1.6-0.4,2.3-0.7c0.7-0.3,1.3-0.7,1.9-1.3c1-0.9,1.8-2,2.4-3.3c0.3-0.8,0.7-1.8,1-3h0.6v9.1h-24.1
			l0-0.6h0.6c2.7,0,4-1.4,4-4.1V8.4c0-1.4-0.3-2.4-1-3c-0.7-0.7-1.7-1-3-1h-0.6V3.7z"/>
	</g>
	<g>
		<g>
			<path fill="#143156" d="M25.8,51.5h0.6c-0.3,0.9-0.5,1.7-0.8,2.3c-0.3,0.6-0.7,1.3-1.3,1.9c-2.1,2.6-5,4-8.6,4
				c-2.3,0-4.4-0.5-6.3-1.6c-2-1.1-3.5-2.5-4.7-4.2C3.5,52.2,3,50.3,3,48.2c0-1.2,0.2-2.4,0.7-3.7c0.5-1.2,1.1-2.3,2-3.4
				c0.9-1.1,1.9-2,3-2.7c1.7-1.1,3.8-1.7,6-1.7c0.8,0,1.5,0.1,2.2,0.2c0.7,0.1,1.3,0.3,1.9,0.6c0.6,0.3,1.2,0.7,1.9,1.1
				c0.7,0.5,1.2,0.7,1.6,0.7c0.8,0,1.7-0.8,2.8-2.3h0.6l0.5,10.7h-0.5c-0.2-0.8-0.4-1.4-0.5-1.9c-0.2-0.5-0.4-1-0.7-1.5
				c-0.7-1.5-1.6-2.8-2.6-3.8c-1-1.1-2.1-1.9-3.2-2.4c-1.2-0.6-2.4-0.8-3.6-0.8c-1.5,0-2.7,0.4-3.6,1.2c-0.9,0.8-1.6,2-2.1,3.7
				c-0.4,1.7-0.7,3.8-0.7,6.3c0,1.5,0.1,2.8,0.2,3.9c0.2,1.1,0.4,2.1,0.7,2.9c0.3,0.8,0.8,1.4,1.3,2c0.6,0.6,1.4,1.1,2.3,1.4
				C14,59,15,59.2,16,59.2c1,0,1.9-0.1,2.8-0.4c0.9-0.3,1.7-0.6,2.5-1.1c0.8-0.5,1.5-1.1,2.2-1.9c0.5-0.6,1-1.2,1.3-1.8
				C25.2,53.3,25.5,52.5,25.8,51.5z"/>
		</g>
		<g>
			<path fill="#143156" d="M48.4,36.7c2.1,0,4,0.3,5.7,1c1.7,0.7,3.2,1.6,4.5,2.9c1.1,1.1,1.9,2.3,2.5,3.6c0.6,1.3,0.9,2.7,0.9,4.1
				c0,2.1-0.6,4-1.8,5.8c-1.2,1.8-2.8,3.1-4.8,4.2c-2,1-4.2,1.5-6.7,1.5c-1.8,0-3.6-0.3-5.2-0.9c-1.6-0.6-3.1-1.4-4.3-2.5
				c-1.2-1.1-2.2-2.3-2.9-3.7c-0.7-1.4-1-2.9-1-4.4c0-2,0.6-4,1.8-5.7c1.2-1.8,2.8-3.2,4.8-4.2C43.9,37.3,46,36.7,48.4,36.7z
				 M48.8,37.3c-1,0-1.9,0.2-2.7,0.5c-0.8,0.3-1.6,0.8-2.1,1.4c-0.6,0.7-1.2,1.5-1.6,2.4c-0.4,0.9-0.8,1.9-1,3.1
				C41.1,45.8,41,47,41,48.3c0,1.6,0.2,3.1,0.5,4.4c0.4,1.3,0.9,2.5,1.6,3.5c0.7,1,1.5,1.7,2.4,2.2c0.9,0.5,2,0.8,3.1,0.8
				c1.6,0,2.9-0.4,4.1-1.3c1.2-0.9,2-2.2,2.7-3.8c0.6-1.7,0.9-3.6,0.9-5.9c0-1.5-0.2-2.9-0.5-4.2c-0.3-1.3-0.8-2.4-1.5-3.4
				c-0.6-1-1.4-1.7-2.3-2.3c-0.4-0.3-1-0.5-1.5-0.7C49.9,37.4,49.3,37.3,48.8,37.3z"/>
		</g>
		<g>
			<path fill="#143156" d="M68.1,37.2h9.3l8.3,16.9l8.3-16.9h8.7v0.6h-0.8c-1.4,0-2.4,0.3-3,1c-0.7,0.7-1,1.7-1,3v12.9
				c0,1.4,0.3,2.4,1,3c0.7,0.7,1.7,1,3,1h0.8v0.6H88.3v-0.6h1c1.4,0,2.4-0.3,3-1c0.7-0.7,1-1.7,1-3V39.6h-0.1l-9.5,19.7h-0.5
				l-9.6-19.6h-0.1V54c0,1,0.2,1.8,0.6,2.5c0.4,0.7,0.9,1.2,1.7,1.6c0.7,0.4,1.6,0.6,2.7,0.6v0.6H68.1v-0.6h0.2
				c1.4,0,2.5-0.4,3.4-1.3c0.8-0.8,1.2-2,1.2-3.4V41.8c0-1.4-0.3-2.4-1-3c-0.7-0.7-1.7-1-3-1h-0.8V37.2z"/>
		</g>
		<g>
			<path fill="#143156" d="M110.5,37.2h13.2c0.8,0,1.6,0,2.6,0.1c0.9,0.1,1.8,0.1,2.5,0.2c0.7,0.1,1.4,0.2,1.8,0.3
				c1.7,0.4,3.1,1,4,2c0.9,1,1.4,2.1,1.4,3.6c0,1-0.2,1.8-0.7,2.6c-0.4,0.8-1.1,1.4-2,1.9c-0.9,0.5-1.9,0.9-3.2,1.2
				c-1.2,0.3-2.7,0.4-4.2,0.4H120v5.3c0,2.7,1.3,4.1,4,4.1h1.1v0.6h-14.6v-0.6h0.8c2.7,0,4-1.4,4-4.1V41.8c0-2.7-1.3-4-4-4h-0.7
				V37.2z M120,37.8v11h4.4c2.2,0,3.8-0.5,4.9-1.4c1-0.9,1.6-2.3,1.6-4.2c0-2.2-0.7-3.7-2.2-4.6c-0.5-0.3-1.1-0.5-1.8-0.7
				c-0.7-0.1-1.6-0.2-2.6-0.2H120z"/>
		</g>
		<g>
			<path fill="#143156" d="M150.4,36.7h0.6l8.9,19.4c0.3,0.6,0.6,1.1,1,1.5c0.4,0.4,0.8,0.7,1.2,0.8c0.4,0.2,1,0.3,1.6,0.3h0.6v0.6
				h-12.9v-0.6h1.7c0.8,0,1.4-0.1,1.8-0.3c0.4-0.2,0.6-0.6,0.6-1.1c0-0.3-0.1-0.7-0.2-1.1c-0.2-0.4-0.5-1.2-1-2.3
				c0-0.1-0.1-0.2-0.1-0.3c-0.1-0.1-0.1-0.3-0.2-0.4l-0.4-0.8h-9.4l-0.7,1.6c-0.2,0.6-0.3,1.1-0.3,1.7c0,0.5,0.1,1,0.4,1.4
				c0.3,0.5,0.6,0.8,1.1,1.1c0.3,0.2,0.5,0.3,0.8,0.3c0.2,0.1,0.6,0.1,1,0.1v0.6h-9v-0.6c0.7-0.1,1.2-0.2,1.6-0.3
				c0.4-0.2,0.8-0.4,1.3-0.8c1.1-0.9,2.2-2.5,3.3-4.9L150.4,36.7z M148.8,41.9l-4.3,9.9h8.8L148.8,41.9z"/>
		</g>
		<g>
			<path fill="#143156" d="M169.2,37.2h8.9l15.4,15.9v-9.5c0-1.2-0.2-2.2-0.6-3.1c-0.4-0.9-1-1.5-1.7-2c-0.4-0.3-0.8-0.4-1.2-0.5
				c-0.4-0.1-1-0.2-1.7-0.2v-0.6h11v0.6H199c-1.6,0-2.8,0.5-3.6,1.5c-0.8,1-1.3,2.5-1.3,4.4v15.8h-0.5l-19.1-19.6v13.2
				c0,1.3,0.2,2.3,0.5,3.1c0.3,0.8,0.8,1.4,1.5,1.8c0.6,0.3,1.2,0.6,2,0.6c0.4,0.1,1.1,0.1,1.9,0.2v0.6h-11.6v-0.6
				c1.2-0.1,2.1-0.3,2.9-0.6c0.7-0.4,1.3-0.9,1.6-1.6c0.4-0.7,0.5-1.6,0.5-2.6V41.4c0-0.8-0.2-1.4-0.5-2c-0.3-0.5-0.8-1-1.5-1.2
				c-0.7-0.3-1.4-0.4-2.4-0.4h-0.3V37.2z"/>
		</g>
		<g>
			<path fill="#143156" d="M205,37.2h14.2v0.6h-1.6c-0.7,0-1.2,0.1-1.5,0.4c-0.4,0.2-0.5,0.6-0.5,1c0,0.2,0.1,0.4,0.2,0.6
				c0.1,0.2,0.4,0.7,0.9,1.4l5.5,7.6l4.9-6.5c0.7-0.8,1-1.6,1-2.2c0-0.7-0.3-1.3-0.9-1.7c-0.6-0.4-1.3-0.6-2.3-0.6h-1.5v-0.6h11.4
				v0.6c-0.8,0.1-1.4,0.2-2,0.4c-0.6,0.2-1.2,0.4-1.7,0.8c-0.5,0.3-1,0.7-1.6,1.3c-0.5,0.5-1.1,1.1-1.6,1.8l-5.6,7.4v5.4
				c0,1.4,0.3,2.4,1,3c0.7,0.7,1.7,1,3,1h1.5v0.6H212v-0.6h1.6c1.4,0,2.4-0.3,3-1c0.7-0.7,1-1.7,1-3v-4.8l-6.6-9.1
				c-0.8-1.2-1.7-2-2.5-2.4c-0.8-0.4-1.9-0.7-3.2-0.7H205V37.2z"/>
		</g>
	</g>
</g>
</svg>
