<svg xmlns="http://www.w3.org/2000/svg" viewBox="0 0 235.3 235.4"><defs><style>.a{fill:#00335c;}</style></defs><path class="a" d="M2.3,89.3h26v11.3h-.5a15.9,15.9,0,0,0-2.5-7.3,8,8,0,0,0-6.5-3.4H17.7v16.9c0,2.7,1.3,4,4,4H25v.7H5.7v-.7H9c2.7,0,4-1.3,4-4V89.9H11.6a7.2,7.2,0,0,0-6.4,3.7A11.8,11.8,0,0,0,3.3,98a20.8,20.8,0,0,0-.4,2.6H2.3Z"/><path class="a" d="M34.6,110.8h.7a4.3,4.3,0,0,0,3-.9,4.1,4.1,0,0,0,1-3.1V93.4a4.6,4.6,0,0,0-.4-1.6,2.8,2.8,0,0,0-.8-1.1,4.3,4.3,0,0,0-2.8-.8h-.8v-.6h14v.6H48a3.8,3.8,0,0,0-3,1,4,4,0,0,0-1,3v6H55.9v-6a3.5,3.5,0,0,0-4-4h-.5v-.6H65.2v.6h-.6a3.8,3.8,0,0,0-3,1,4,4,0,0,0-1,3v12.9a3.8,3.8,0,0,0,1,3,4,4,0,0,0,3,1h.6v.7H51.4v-.7h.5a4.5,4.5,0,0,0,3-.9,4.1,4.1,0,0,0,1-3.1v-6.3H44v6.3a3.8,3.8,0,0,0,1,3,4,4,0,0,0,3,1h.5v.7H34.6Z"/><path class="a" d="M70.6,89.3H94.2v8.6h-.5a34.6,34.6,0,0,0-1.1-3.4,12.8,12.8,0,0,0-1.4-2.1A6.9,6.9,0,0,0,89,90.7a12.8,12.8,0,0,0-4.7-.8H79.9v10.5h1.2a4.8,4.8,0,0,0,4.2-2.2,7.8,7.8,0,0,0,1.1-2.8,6.9,6.9,0,0,0,.4-2h.5v14.5h-.5a14.2,14.2,0,0,0-.5-2.2,6.9,6.9,0,0,0-.5-1.7l-.9-1.3a5,5,0,0,0-4-1.7h-1v9.9h3.7a12.9,12.9,0,0,0,2.9-.3,5.6,5.6,0,0,0,2.3-.7,10.6,10.6,0,0,0,2-1.2,10,10,0,0,0,2.4-3.3c.3-.8.6-1.8,1-3.1h.6v9.2H70.7v-.6h.6c2.7,0,4.1-1.4,4.1-4.1V93.9a4.3,4.3,0,0,0-1-3,4.1,4.1,0,0,0-3.1-1h-.6Z"/><path class="a" d="M136.5,89.7h.6v7.6h-.6a13.6,13.6,0,0,0-2.2-4.2,7.5,7.5,0,0,0-2.4-1.9,9.7,9.7,0,0,0-3.1-1.3,13.3,13.3,0,0,0-3.4-.5,6.1,6.1,0,0,0-2.4.4,3.4,3.4,0,0,0-1.7,1.1,2.8,2.8,0,0,0-.8,1.1,2.7,2.7,0,0,0-.3,1.2,2.2,2.2,0,0,0,.8,1.9,3.6,3.6,0,0,0,1.2.8l1.9.7,3.2.9.8.2.8.2,1.2.3a33.4,33.4,0,0,1,4.6,1.4,8.4,8.4,0,0,1,2.4,1.6,4.6,4.6,0,0,1,1.3,1.8,4.9,4.9,0,0,1,.4,2.1,5.9,5.9,0,0,1-.5,2.3,4.8,4.8,0,0,1-1.4,2,6.4,6.4,0,0,1-2.9,1.9,11.4,11.4,0,0,1-3.9.6,9.2,9.2,0,0,1-2.9-.4,15.8,15.8,0,0,1-3.3-1.1l-1.9-.7-1.3-.2a3.1,3.1,0,0,0-1.9.6,2.7,2.7,0,0,0-1,1.7h-.6V101.6h.6a8.5,8.5,0,0,0,2.2,4.9,11.1,11.1,0,0,0,2.8,2.4,14.1,14.1,0,0,0,3.7,1.8,12.4,12.4,0,0,0,3.7.6,8.7,8.7,0,0,0,2.8-.5,4.8,4.8,0,0,0,2-1.4,3.8,3.8,0,0,0,.7-2.1,2.6,2.6,0,0,0-1-2.1l-1.1-.8-1.9-.8-3-.9-1.6-.4a46.9,46.9,0,0,1-5.1-1.6,10.7,10.7,0,0,1-2.6-1.1,5.4,5.4,0,0,1-1.5-1.5,4.4,4.4,0,0,1-1-2.8A5.1,5.1,0,0,1,118,92a6.4,6.4,0,0,1,3-2.3,12.3,12.3,0,0,1,4.4-.8,15.6,15.6,0,0,1,7.5,2,7.4,7.4,0,0,0,1.8.7C135.6,91.6,136.2,91,136.5,89.7Z"/><path class="a" d="M144.1,110.8h.7a3.4,3.4,0,0,0,4-4V93.4a4.6,4.6,0,0,0-.4-1.6,2.6,2.6,0,0,0-.7-1.1,4.8,4.8,0,0,0-2.9-.8h-.7v-.6H158v.6h-.5a3.5,3.5,0,0,0-4,4v6h11.9v-6a3.9,3.9,0,0,0-1-3,3.8,3.8,0,0,0-3-1h-.5v-.6h13.9v.6h-.7a3.5,3.5,0,0,0-4,4v12.9a3.8,3.8,0,0,0,1,3,4,4,0,0,0,3,1h.7v.7H160.9v-.7h.5a3.4,3.4,0,0,0,4-4v-6.3H153.5v6.3a3.8,3.8,0,0,0,1,3,4,4,0,0,0,3,1h.5v.7H144.1Z"/><path class="a" d="M191.8,88.9a14.8,14.8,0,0,1,5.7,1,12,12,0,0,1,4.5,2.9,11.3,11.3,0,0,1,2.4,3.6,9.3,9.3,0,0,1,.9,4,10.2,10.2,0,0,1-1.8,5.8,12.4,12.4,0,0,1-4.8,4.2,15.4,15.4,0,0,1-11.8.6,14.9,14.9,0,0,1-4.3-2.4,12,12,0,0,1-2.9-3.8,9.8,9.8,0,0,1-1-4.4,9.7,9.7,0,0,1,1.8-5.7,13.3,13.3,0,0,1,4.8-4.3A14.4,14.4,0,0,1,191.8,88.9Zm.4.5a7.6,7.6,0,0,0-2.7.5,7.1,7.1,0,0,0-2.2,1.5,10.3,10.3,0,0,0-1.6,2.3,14.1,14.1,0,0,0-1,3.1,20.2,20.2,0,0,0-.3,3.6,15.9,15.9,0,0,0,.5,4.5,10.7,10.7,0,0,0,1.6,3.4,5.6,5.6,0,0,0,2.4,2.2,6.8,6.8,0,0,0,7.2-.5,8.8,8.8,0,0,0,2.7-3.9,17,17,0,0,0,.9-5.9,17.7,17.7,0,0,0-.5-4.1,11.7,11.7,0,0,0-1.5-3.4,7.2,7.2,0,0,0-2.3-2.3,5.2,5.2,0,0,0-1.5-.7Z"/><path class="a" d="M209.3,89.3h23.5v8.6h-.4l-1.2-3.4a12,12,0,0,0-1.3-2.1,6.9,6.9,0,0,0-2.2-1.7,13.4,13.4,0,0,0-4.8-.8h-4.3v10.5h1.2a4.7,4.7,0,0,0,4.1-2.2,10.3,10.3,0,0,0,1.2-2.8,17.8,17.8,0,0,0,.3-2h.6v14.5h-.6a14.3,14.3,0,0,0-.4-2.2,16.2,16.2,0,0,0-.6-1.7l-.8-1.3a5.2,5.2,0,0,0-4.1-1.7h-.9v9.9h3.6a12.3,12.3,0,0,0,2.9-.3,6.1,6.1,0,0,0,2.4-.7,8.4,8.4,0,0,0,4.3-4.5,22.8,22.8,0,0,0,1-3.1h.6v9.2H209.3v-.6h.6c2.7,0,4-1.4,4-4.1V93.9a3.9,3.9,0,0,0-1-3,3.8,3.8,0,0,0-3-1h-.6Z"/><path class="a" d="M24.5,137.1h.6a18.5,18.5,0,0,1-.9,2.3,7.6,7.6,0,0,1-1.3,2,10.6,10.6,0,0,1-8.6,4A14,14,0,0,1,8,143.8a12.7,12.7,0,0,1-4.6-4.3,9.9,9.9,0,0,1-1.8-5.7,11.6,11.6,0,0,1,.7-3.7,13.2,13.2,0,0,1,2-3.4,19.3,19.3,0,0,1,3-2.7,11.4,11.4,0,0,1,6.1-1.7l2.1.2a11.7,11.7,0,0,1,2,.6l1.8,1.2a3.7,3.7,0,0,0,1.6.7c.8,0,1.7-.7,2.9-2.3h.5l.5,10.6h-.6a6.5,6.5,0,0,0-.5-1.8,16.6,16.6,0,0,0-.6-1.6,18.1,18.1,0,0,0-2.6-3.8,9.3,9.3,0,0,0-3.3-2.4,7.4,7.4,0,0,0-3.6-.9A5.2,5.2,0,0,0,10,124a7.7,7.7,0,0,0-2.1,3.7,27.4,27.4,0,0,0-.6,6.3,24.9,24.9,0,0,0,.2,4,14.2,14.2,0,0,0,.7,2.8,7.7,7.7,0,0,0,1.3,2,6.1,6.1,0,0,0,2.3,1.5,8.8,8.8,0,0,0,2.9.5,12.6,12.6,0,0,0,2.8-.4,11.9,11.9,0,0,0,2.6-1.1,9.5,9.5,0,0,0,2.1-1.9,5.9,5.9,0,0,0,1.3-1.9A14.5,14.5,0,0,0,24.5,137.1Z"/><path class="a" d="M47.1,122.3a14.7,14.7,0,0,1,5.6,1,11.7,11.7,0,0,1,4.5,2.9,12.3,12.3,0,0,1,2.5,3.6,9.9,9.9,0,0,1-.9,9.8,12.2,12.2,0,0,1-4.8,4.2,14.7,14.7,0,0,1-6.7,1.5,17,17,0,0,1-5.1-.8,12.2,12.2,0,0,1-4.3-2.5,11.3,11.3,0,0,1-2.9-3.7,10,10,0,0,1-1.1-4.5,10.1,10.1,0,0,1,1.8-5.7,12.2,12.2,0,0,1,4.8-4.2A13.4,13.4,0,0,1,47.1,122.3Zm.4.6a5.9,5.9,0,0,0-2.7.5,5.5,5.5,0,0,0-2.2,1.4,10,10,0,0,0-1.6,2.4,9.6,9.6,0,0,0-1,3,16.8,16.8,0,0,0,.2,8.1,10,10,0,0,0,1.5,3.5,8.3,8.3,0,0,0,2.4,2.2,6.8,6.8,0,0,0,3.2.7,6.7,6.7,0,0,0,4.1-1.3,8.9,8.9,0,0,0,2.6-3.8,17.8,17.8,0,0,0,1-5.9,14.2,14.2,0,0,0-.6-4.2,11.6,11.6,0,0,0-1.4-3.4,6.9,6.9,0,0,0-2.3-2.2,5.1,5.1,0,0,0-1.5-.7Z"/><path class="a" d="M66.7,122.8H76l8.3,16.9,8.3-16.9h8.7v.5h-.8a4.3,4.3,0,0,0-3,1,4.1,4.1,0,0,0-1,3.1v12.9a4,4,0,0,0,1,3,4.5,4.5,0,0,0,3,1h.8v.6H87v-.6h1a3.5,3.5,0,0,0,4-4V125.2h-.1l-9.5,19.7h-.5l-9.7-19.6h0v14.2a6.7,6.7,0,0,0,.5,2.6,4.4,4.4,0,0,0,1.7,1.6,10.7,10.7,0,0,0,2.7.6v.6H66.7v-.6h.2a4.2,4.2,0,0,0,3.4-1.3,4.5,4.5,0,0,0,1.2-3.4V127.4a3.6,3.6,0,0,0-4-4.1h-.8Z"/><path class="a" d="M109.2,122.8H125l2.5.2,1.8.3a7.2,7.2,0,0,1,4,2,4.7,4.7,0,0,1,1.4,3.6,5.8,5.8,0,0,1-.6,2.6,6.1,6.1,0,0,1-2,1.9,11.9,11.9,0,0,1-3.2,1.2,17.6,17.6,0,0,1-4.2.4h-6v5.3c0,2.7,1.3,4,4,4h1.1v.6H109.2v-.6h.8c2.6,0,4-1.3,4-4V127.4c0-2.7-1.4-4.1-4-4.1h-.8Zm9.5.5v11.1h4.4a7.1,7.1,0,0,0,4.8-1.4,5.1,5.1,0,0,0,1.6-4.2c0-2.2-.7-3.7-2.2-4.6a7.5,7.5,0,0,0-1.8-.7l-2.6-.2Z"/><path class="a" d="M149.1,122.3h.6l8.9,19.4a5.6,5.6,0,0,0,1,1.5,2.5,2.5,0,0,0,1.2.8,3.3,3.3,0,0,0,1.5.3h.6v.6H150.1v-.6h1.6a3.2,3.2,0,0,0,1.9-.4,1,1,0,0,0,.6-1,2.6,2.6,0,0,0-.3-1.1,22.5,22.5,0,0,0-1-2.3c0-.1-.1-.2-.1-.3l-.2-.4-.4-.8h-9.4l-.7,1.6a5.1,5.1,0,0,0-.3,1.7,2.3,2.3,0,0,0,.4,1.4,2.2,2.2,0,0,0,1,1.1l.8.4h1v.6h-9.1v-.6l1.6-.4a3.8,3.8,0,0,0,1.3-.8c1.1-.8,2.2-2.5,3.3-4.9Zm-1.7,5.2-4.3,9.9h8.8Z"/><path class="a" d="M167.8,122.8h8.9l15.4,15.9v-9.5a7.5,7.5,0,0,0-.6-3.1,4.2,4.2,0,0,0-1.7-2l-1.2-.5-1.7-.3v-.5h11v.5h-.3a4.1,4.1,0,0,0-3.6,1.6,7,7,0,0,0-1.3,4.4v15.8h-.5l-19.1-19.6v13.1a8.7,8.7,0,0,0,.5,3.1,3.4,3.4,0,0,0,1.5,1.8,5.2,5.2,0,0,0,2,.7H179v.6H167.4v-.6a9.8,9.8,0,0,0,2.9-.6,3.8,3.8,0,0,0,1.7-1.6,6.7,6.7,0,0,0,.5-2.6V127a4.2,4.2,0,0,0-.5-2,3.1,3.1,0,0,0-1.5-1.2,5.7,5.7,0,0,0-2.4-.5h-.3Z"/><path class="a" d="M203.6,122.8h14.2v.5h-1.6a2.5,2.5,0,0,0-1.6.4,1.2,1.2,0,0,0-.5,1,.7.7,0,0,0,.2.6l.9,1.4,5.5,7.6,4.9-6.4a3.8,3.8,0,0,0,1-2.2,2,2,0,0,0-.9-1.7,3.6,3.6,0,0,0-2.2-.7H222v-.5h11.4v.5l-2,.4-1.7.8-1.6,1.2-1.5,1.8-5.6,7.4v5.4a4,4,0,0,0,1,3,4.1,4.1,0,0,0,3,1h1.5v.6H210.7v-.6h1.6a4.5,4.5,0,0,0,3-1,4,4,0,0,0,1-3v-4.8l-6.6-9.1a11,11,0,0,0-2.5-2.4,7.2,7.2,0,0,0-3.2-.7h-.4Z"/></svg>