<svg xmlns="http://www.w3.org/2000/svg" viewBox="0 0 148.3 148.3"><defs><style>.a{fill:#b7913d;}.b{fill:#231f20;}</style></defs><path class="a" d="M116.4,29.2a19.5,19.5,0,0,1-5.8,2.1c-1.2.2-1.1-.5-1.2-1.3s.1-1.1,1.2-1,3.1-.6,6.1-1.9a26.3,26.3,0,0,0,6.6-4.1c1.2-.9.4.4-.6,1.7s-3.2,2.9-6.3,4.5m5.4-1a.8.8,0,0,1-.4.8,8.2,8.2,0,0,1-2.3,1.2l-3.2,1.1c-1.4.3-1.4,0-1.2-.3s.7-1,2.8-1.7a24.2,24.2,0,0,1,4.3-1.1M66.4,86.5c.1,1.2.3,1.4-.3,1.6a28.6,28.6,0,0,1-5.2.3c-.8-.1-1-.8-1-1.4s-3.4-12.2-3.8-13.6.3-1.4.6-1.4h5.1s.1,0,.3,1.3,1.1,3.1,2.1,5.5a47.9,47.9,0,0,1,2.2,7.7M122.9,25a10.9,10.9,0,0,0,2.5-3.9c.1-.4-.3-.2-.8.2-4.4,3.8-7.2,4.6-7.2,4.6s.2-1,.5-2.2.9-6.6-.2-10.2S114,8,111.1,8.1s-5.9,1.9-6,4.2,2.3,2.4,2.8,2.5,1.1.4,1.3-.1,0-.8-.6-1.5-2.3-2.1-.4-3.1,4.1-1.7,5.6-.5a10.8,10.8,0,0,1,3.2,7.9,29.5,29.5,0,0,1-1.2,9.2,6.5,6.5,0,0,1-3.7,1c-2.6.2-3.1.3-3.2,2.2s1.1,2.1,2,1.8l1.8-.3s-.2,1.1-2,1.5-3.7.2-5,1-2.4,1.9-.7,2.6,2.9,1.6,3.2,2.6.2,1-.3,1.2-5.3,1.9-7.8,3.8-5.2,5.7-5.3,7.2.1,9.6,2.1,14.4,7,14.2,8.3,16.9,1.5,3.7,1.5,4.1.1.9-.8,1.1-5.3.8-7-.8-5.1-7.4-6.7-13.2-2.1-6.5-2-8.2.4-5.3-.1-4.6a24.1,24.1,0,0,0-1.4,3.2c-.8,2-4,10.2-4.6,13.7s-1.4,7.7-1.5,8.6.1,1.5-1,1.8-4.3.3-5.5-.3-1.2-1.1-1.1-2.6a68.9,68.9,0,0,1,1.9-11.3c1.1-3.9,1.8-6.7,2.1-7.9s.8-2.5.1-2-5.8,2.7-9.5,3.5-8.2.9-9.8.3-2-1-1.2-1.9a46.6,46.6,0,0,0,4.2-5.4,8.3,8.3,0,0,0,1-2.7s-1.8-.3-6.2,5.4c-2.2,2.9-2.1,4.2-7.2,11.8-1.5,2.1-5.4,4.8-6,5.5a4.8,4.8,0,0,0-.9,3.4,19,19,0,0,1,.2,3.1c-.2.9-.4,1.2-1.5,1.2s-5.4,0-6.9-.9-1.2-.4-1.4-1.6a12.8,12.8,0,0,1,1.4-6.7s4.3-6.9,5.2-8.9,1-4-.4-7.7-3.2-7.4-3.2-10-.3-3.5,1.4-4.9a55.3,55.3,0,0,1,16.4-9.2,78,78,0,0,1,10.9-2.7,38.7,38.7,0,0,1,5.9-.6s-.4,3.3-.5,4.6-.3,4.9,3.2,7.5,8.3,4.4,11,7a5.6,5.6,0,0,0,7-.1c1.2-1.1,1.7-2.8,1.6-5.1-.2-6.2-1.7-9.9-1.6-13.7,0-.7-.8-1.3-1.8-1.8a4.2,4.2,0,0,0-2.6-.3c-.8,0-.8.3,0,.7s1.2.1,1,1.3a24.9,24.9,0,0,0,.4,5.8c.4,1.9,1.6,5.7,1.5,8.2a7.4,7.4,0,0,1-1.2,4.4c-.7.8-.9,1.1-2.2.4l-6.2-4a11.8,11.8,0,0,1-5.9-10.5C75,32,80,29.7,82.5,28.8a18.7,18.7,0,0,1,6.1-1.1c1.2-.1,1.5-.3,2.7-1.6s3.4-3.7,5.7-3.7,3.2,1,5.6,2.1,3.5,1.8,5.4,1.8,4-1.4,5.7-6.1.2-6.5-.6-7.2a3.4,3.4,0,0,0-2.2-.7c-.3,0-.2.3.2.7a4.1,4.1,0,0,1,1.1,3.5,9,9,0,0,1-1.6,5.5c-1.5,2.1-2.6,3-3.6,3s-3.5-1.4-5.8-2.5a8.1,8.1,0,0,0-7.3.2c-2.2,1.2-5.1,3.3-6.2,3.2a4.4,4.4,0,0,0-3.2.2c-1.1.7-5.7,3-8.3,3.4A4.1,4.1,0,0,0,72.8,32H71a6.4,6.4,0,0,0-2.8.7,3.1,3.1,0,0,1-2.4.8c-1.4,0-10.6.6-20.7,7-4.2,2.7-7,6.3-8.9,8.3s-4.1,5.9-4.3,9.4-.2,5.8-.2,5.8a10.1,10.1,0,0,0,1.9-4.6,35.9,35.9,0,0,1,.7-5.5,9.4,9.4,0,0,1,1-2.2,21.3,21.3,0,0,0,.5,5.8c.7,2.7,2.9,7.7,3,8.4s.4.9-.3,1.7S34,74.8,33.1,78.2s-1.5,6.1-.5,8.8,4.1,3.4,6.8,3.4A9.8,9.8,0,0,0,44.6,89c.3-.2.3-.4.3-1.4s.5-4.9,1.9-6.9a54.4,54.4,0,0,1,4.6-5.5l1.8-2a43.3,43.3,0,0,1,3.6,7.5,69.4,69.4,0,0,1,1.7,8.9,20.6,20.6,0,0,0,3.9.3,26.5,26.5,0,0,0,6.1-1.3,16.2,16.2,0,0,0-1-7c-1.4-3.7-2-5.1-2-7.3a18.8,18.8,0,0,1,.1-2.7,51.2,51.2,0,0,0,5.5-1.5,13.6,13.6,0,0,1,4.4-1,9.6,9.6,0,0,1-.4,3c-.5,1.8-1.9,6.7-2.6,8.8a10.6,10.6,0,0,0,.5,7.2c1.1,2.1,5.2,2.1,6.9,1.7s5.2-1.3,5.1-2.1a37.4,37.4,0,0,1,.2-7.2,24.7,24.7,0,0,1,2.2-8.2L88.9,69c.1-.3.5-.5.6.2s1.2,8.3,3.3,12.2,5,8.2,8.4,8.5a13.9,13.9,0,0,0,6.9-.9c1.4-.6,1.4-.8,1.2-1.4a103.3,103.3,0,0,0-5.4-14.3c-3.5-7.3-6.8-13.4-6.7-19.2,0-2.9.4-3.7.7-4.1a1.8,1.8,0,0,1,1.5-.9c.8-.2,2-.9,3.9-3.4s2.9-4.2,5.7-4.2,2.3-.1,2.3-.8-1.6-2.2-3-3.1a13.4,13.4,0,0,1-2.8-2c-.3-.3-.3-.5.3-.5s4.2-.3,6.2-1.7,1.4-1.2,2-1.3a24,24,0,0,0,5.2-1.4,21.6,21.6,0,0,0,5-3.7l-2.3.6-2,.3a24.9,24.9,0,0,0,3-2.9"/><path class="a" d="M99.8,30.7a1.8,1.8,0,0,0-.6,1.4,2.3,2.3,0,0,0,2-.5c1.1-.7,1.3-1.1,1.4-1.3s-.3-.3-.3-.3a2.8,2.8,0,0,0-2.5.7"/><path class="b" d="M142.5,98.9h-.8V96.7h0l-.8,2.2h-.5l-.8-2.2h0v2.2h-.7V95.8h1l.8,2,.8-2h1Zm-4-2.5h-.9v2.5h-.7V96.4H136v-.6h2.5Z"/><polygon class="b" points="5.4 95.6 12.2 95.6 18 112.9 18.1 112.9 24 95.6 30.8 95.6 21.5 121.6 14.3 121.6 5.4 95.6"/><rect class="b" x="32.7" y="95.6" width="6.6" height="26.01"/><path class="b" d="M49.1,112.4c0,1.3.2,4.8,5.5,4.8,3.4,0,4.7-1.1,4.7-3.1s-1.3-2-3.2-2.5l-6.2-1.7c-1.6-.5-6.4-1.7-6.4-6.8S47.6,95,54.3,95s10.3,2.8,10.6,8.8H58.5c-.1-1.2-.4-3.9-4.7-3.9-1.7,0-3.9.6-3.9,2.6s.7,1.7,2.2,2.1l7.5,1.9c3.4.9,6.3,2.9,6.3,7s-3.1,8.7-11.5,8.7-11.6-2.9-11.9-9.8Z"/><rect class="b" x="69.1" y="95.6" width="6.6" height="26.01"/><path class="b" d="M100.2,108.6c0-6.3-3.8-8.4-7.1-8.4s-7,2.1-7,8.4,3.8,8.4,7,8.4,7.1-2.2,7.1-8.4m6.5,0c0,8.2-5.8,13.6-13.6,13.6s-13.5-5.4-13.5-13.6S85.3,95,93.1,95s13.6,5.3,13.6,13.6"/><polygon class="b" points="110.7 95.6 117.1 95.6 127.8 111.1 127.9 111.1 127.9 95.6 134.3 95.6 134.3 121.6 127.7 121.6 117.2 105.8 117.1 105.8 117.1 121.6 110.7 121.6 110.7 95.6"/><polygon class="b" points="12.1 124.7 17.4 124.7 17.4 126.1 13.6 126.1 13.6 127.6 17.1 127.6 17.1 128.8 13.6 128.8 13.6 130.5 17.5 130.5 17.5 131.9 12.1 131.9 12.1 124.7"/><polygon class="b" points="20.3 128.1 18 124.7 19.8 124.7 21.2 127 22.6 124.7 24.3 124.7 22.1 128.1 24.5 131.9 22.7 131.9 21.1 129.4 19.5 131.9 17.8 131.9 20.3 128.1"/><polygon class="b" points="26.9 126.1 24.8 126.1 24.8 124.7 30.6 124.7 30.6 126.1 28.5 126.1 28.5 131.9 26.9 131.9 26.9 126.1"/><path class="b" d="M33,128h1.7a1,1,0,0,0,1.1-1.1c0-.6-.4-.9-1.1-.9H33Zm-1.5-3.3h3.8a2,2,0,0,1,2.1,2,1.9,1.9,0,0,1-1.1,1.8h0c.7.2.9,1,1,1.7a3.4,3.4,0,0,0,.3,1.7H36a9.9,9.9,0,0,1-.2-1.7c-.1-.8-.4-1.1-1.2-1.1H33v2.8H31.5Z"/><path class="b" d="M44.7,129.2c0,1.9-1.1,2.8-3,2.8s-3.1-.9-3.1-2.8v-4.5h1.6v4.5a1.3,1.3,0,0,0,1.5,1.5c1.1,0,1.4-.5,1.4-1.5v-4.5h1.6Z"/><path class="b" d="M47.1,129.5c0,.9.8,1.3,1.6,1.3s1.4-.1,1.4-.9S49,129,48,128.8s-2.2-.7-2.2-2.1,1.4-2.1,2.7-2.1,2.9.6,2.9,2.3H49.8c0-.9-.6-1.1-1.4-1.1s-1,.2-1,.8.3.6,2.1,1.1,2.1.4,2.1,2-1,2.3-3,2.3-3-.7-3-2.5Z"/><rect class="b" x="52.5" y="124.7" width="1.6" height="7.12"/><path class="b" d="M58.7,130.7c1.4,0,1.9-1.2,1.9-2.4s-.5-2.4-1.9-2.4-2,1.2-2,2.4.6,2.4,2,2.4m0-6.1a3.7,3.7,0,1,1-3.5,3.7,3.4,3.4,0,0,1,3.5-3.7"/><polygon class="b" points="63.2 124.7 64.8 124.7 67.8 129.5 67.8 129.5 67.8 124.7 69.2 124.7 69.2 131.9 67.7 131.9 64.7 127.1 64.7 127.1 64.7 131.9 63.2 131.9 63.2 124.7"/><path class="b" d="M71.7,129.5c0,.9.7,1.3,1.6,1.3s1.4-.1,1.4-.9-1.1-.9-2.2-1.1-2.1-.7-2.1-2.1,1.4-2.1,2.7-2.1,2.8.6,2.8,2.3H74.4c0-.9-.6-1.1-1.4-1.1s-1.1.2-1.1.8.4.6,2.2,1.1,2.1.4,2.1,2-1.1,2.3-3,2.3-3-.7-3-2.5Z"/><path class="b" d="M85,131.1a2.2,2.2,0,0,1-1.9.9,3.7,3.7,0,0,1,0-7.4,2.9,2.9,0,0,1,3,2.5H84.6a1.5,1.5,0,0,0-1.5-1.2c-1.4,0-2,1.2-2,2.4s.6,2.4,2,2.4a1.5,1.5,0,0,0,1.7-1.5H83.2V128h3v3.9h-1Z"/><path class="b" d="M89,128h1.7a1,1,0,0,0,1.1-1.1c0-.6-.4-.9-1.1-.9H89Zm-1.6-3.3h3.9a2,2,0,0,1,2.1,2,1.8,1.8,0,0,1-1.2,1.8h0c.8.2,1,1,1.1,1.7a3.4,3.4,0,0,0,.3,1.7H92a5,5,0,0,1-.2-1.7c-.1-.8-.4-1.1-1.2-1.1H89v2.8H87.4Z"/><path class="b" d="M97.8,130.7c1.4,0,2-1.2,2-2.4s-.6-2.4-2-2.4-1.9,1.2-1.9,2.4.5,2.4,1.9,2.4m0-6.1a3.7,3.7,0,1,1-3.5,3.7,3.4,3.4,0,0,1,3.5-3.7"/><path class="b" d="M108.5,129.2c0,1.9-1.2,2.8-3.1,2.8s-3-.9-3-2.8v-4.5h1.5v4.5a1.3,1.3,0,0,0,1.5,1.5c1.1,0,1.5-.5,1.5-1.5v-4.5h1.6Z"/><path class="b" d="M111.4,128.1h1.2c.7,0,1.4-.2,1.4-1.1s-.7-1-1.4-1h-1.2Zm-1.6-3.4H113a2.3,2.3,0,0,1,2.5,2.3,2.2,2.2,0,0,1-2.5,2.3h-1.6v2.6h-1.6Z"/><polygon class="b" points="119 124.7 120.6 124.7 120.6 130.5 124.1 130.5 124.1 131.9 119 131.9 119 124.7"/><polygon class="b" points="125.9 126.1 123.8 126.1 123.8 124.7 129.6 124.7 129.6 126.1 127.5 126.1 127.5 131.9 125.9 131.9 125.9 126.1"/><path class="b" d="M132,130.5h1.4c.9,0,1.8-.5,1.8-2.1s-.5-2.3-2.1-2.3H132Zm-1.6-5.8h3.1c1.9,0,3.2,1.2,3.2,3.6s-1,3.6-3.2,3.6h-3.1Z"/><rect class="b" x="137.5" y="130.3" width="1.6" height="1.54"/></svg>