<?xml version="1.0" encoding="utf-8"?>
<!-- Generator: Adobe Illustrator 25.4.1, SVG Export Plug-In . SVG Version: 6.00 Build 0)  -->
<svg version="1.1" id="Layer_1" xmlns="http://www.w3.org/2000/svg" xmlns:xlink="http://www.w3.org/1999/xlink" x="0px" y="0px"
	 viewBox="0 0 538.8 538.6" enable-background="new 0 0 538.8 538.6" xml:space="preserve">
<g>
	<path fill="#007DC3" d="M301.2,255.7c0,1-0.1,2.1-0.4,3c-1.2,3.8-5.1,7.1-10.1,7.1c-4.1,0-7.4-2.3-7.4-7.3c0-7.6,8.3-9.7,17.8-9.6
		V255.7z M316.1,242.5c0-12.5-5.3-23.5-23.4-23.5c-9.3,0-16.6,2.6-20.6,4.9l2.9,10c3.7-2.3,9.5-4.2,15-4.2c9.2,0,10.7,5.2,10.7,8.5
		v0.8c-20,0-32.6,6.9-32.6,21c0,8.6,6.4,16.7,17.6,16.7c6.9,0,12.6-2.7,16-7.1h0.3c0,0,2.3,9.5,14.8,5.9c-0.7-4-0.9-8.2-0.9-13.3
		V242.5z"/>
	<path fill="#007DC3" d="M10.6,202c0,0,13,53.4,15.1,62.1c2.4,10.1,6.8,13.8,19.4,11.3l8.1-33.1c2.1-8.2,3.4-14.1,4.8-22.5h0.2
		c0.9,8.5,2.3,14.3,4,22.5c0,0,3.3,15,5,22.9c1.7,7.9,6.4,12.9,18.8,10.2l19.4-73.4H89.8l-6.6,31.7c-1.8,9.2-3.4,16.5-4.6,24.9h-0.2
		c-1.1-8.4-2.6-15.3-4.4-24.3L67.1,202H50.7l-7.4,31.5c-2.1,9.6-4,17.3-5.3,25.5h-0.2c-1.3-7.7-3-17.4-4.8-26.7
		c0,0-4.4-22.6-5.9-30.3H10.6z"/>
	<path fill="#007DC3" d="M134.2,255.7c0,1-0.1,2.1-0.4,3c-1.2,3.8-5.1,7.1-10.1,7.1c-4.1,0-7.4-2.3-7.4-7.3c0-7.6,8.3-9.7,17.8-9.6
		V255.7z M149.1,242.5c0-12.5-5.3-23.5-23.4-23.5c-9.3,0-16.6,2.6-20.6,4.9l2.9,10c3.7-2.3,9.5-4.2,15-4.2c9.2,0,10.7,5.2,10.7,8.5
		v0.8c-20,0-32.6,6.9-32.6,21c0,8.6,6.4,16.7,17.6,16.7c6.9,0,12.6-2.7,16.1-7.1h0.3c0,0,2.3,9.5,14.8,5.9c-0.7-4-0.9-8.2-0.9-13.3
		V242.5z"/>
	<polygon fill="#007DC3" points="172.1,259.8 172.1,202 157.2,202 157.2,275.4 172.1,275.4 	"/>
	<path fill="#007DC3" d="M361.8,202v54.2c0,7.5,1.4,12.7,4.4,15.9c2.6,2.8,7,4.6,12.1,4.6c4.4,0,8.7-0.8,10.8-1.6l-0.2-11.6
		c-1.5,0.4-3.3,0.7-5.7,0.7c-5.1,0-6.8-3.3-6.8-10v-20.7h13v-14.1h-13V202H361.8z"/>
	<path fill="#007DC3" d="M323.3,220.2v55.2h15.4v-28.2c0-1.5,0.1-2.9,0.3-4.1c1.1-5.9,5.7-9.7,12.2-9.7c1.8,0,3.1,0.2,4.4,0.4v-14.4
		c-1.2-0.2-1.9-0.3-3.4-0.3c-5.7,0-12.3,3.7-15,11.6h-0.4v-10.4H323.3z"/>
	<path fill="#007DC3" d="M180.8,220.2v55.2h15v-32.3c0-1.5,0.2-3.1,0.7-4.5c1.2-3.3,4.3-7.1,9.1-7.1c6,0,8.9,5.1,8.9,12.5v31.4h15
		v-32.7c0-1.5,0.2-3.2,0.6-4.5c1.2-3.7,4.5-6.7,9-6.7c6.1,0,9.1,5,9.1,13.7v30.2h15v-32.5c0-17.1-8.7-23.9-18.5-23.9
		c-4.4,0-7.8,1.1-10.9,3c-2.6,1.6-4.9,3.9-7,6.9h-0.2c-2.4-5.9-7.9-9.9-15.2-9.9c-9.3,0-13.5,4.7-16.1,8.7H195v-7.5H180.8z"/>
	<path fill="#FDBB30" d="M470.1,217.8c3,0,5.4-1.5,5.7-3.5l2.9-33.1c0-3.3-3.8-6-8.7-6c-4.8,0-8.6,2.7-8.6,6l2.9,33.1
		C464.7,216.2,467.1,217.8,470.1,217.8L470.1,217.8z"/>
	<path fill="#FDBB30" d="M452.2,228.1c1.5-2.6,1.4-5.5-0.2-6.7l-27.2-19.1c-2.8-1.6-7.1,0.3-9.5,4.5c-2.4,4.2-2,8.8,0.8,10.5
		l30.1,14C448.1,232,450.7,230.7,452.2,228.1L452.2,228.1z"/>
	<path fill="#FDBB30" d="M488,228.1c1.5,2.6,4,3.9,5.9,3.2l30.1-14c2.8-1.6,3.2-6.3,0.9-10.5c-2.4-4.2-6.7-6.1-9.5-4.5l-27.2,19.1
		C486.6,222.7,486.5,225.6,488,228.1L488,228.1z"/>
	<path fill="#FDBB30" d="M470.1,259.1c3,0,5.4,1.5,5.7,3.5l2.9,33.1c0,3.3-3.8,6-8.7,6c-4.8,0-8.6-2.7-8.6-6l2.9-33.1
		C464.7,260.7,467.1,259.1,470.1,259.1L470.1,259.1z"/>
	<path fill="#FDBB30" d="M488,248.8c1.5-2.6,4-3.9,5.9-3.2l30.1,14c2.8,1.6,3.2,6.3,0.9,10.5c-2.4,4.2-6.7,6.1-9.5,4.5l-27.2-19.1
		C486.6,254.2,486.5,251.4,488,248.8L488,248.8z"/>
	<path fill="#FDBB30" d="M452.2,248.8c1.5,2.6,1.4,5.4-0.2,6.7l-27.2,19.1c-2.8,1.6-7.1-0.3-9.5-4.5c-2.4-4.2-2-8.8,0.8-10.5
		l30.1-14C448.1,244.9,450.7,246.2,452.2,248.8L452.2,248.8z"/>
	<path fill="#FDBB30" d="M529.9,270.3h-1.4v-0.8h3.8v0.8h-1.5v4.3h-0.9V270.3z"/>
	<path fill="#FDBB30" d="M536.8,272.5c0-0.7-0.1-1.4-0.1-2.1h0c-0.2,0.6-0.4,1.3-0.6,1.9l-0.7,2.2h-0.7l-0.7-2.2
		c-0.2-0.6-0.4-1.3-0.5-2h0c0,0.7-0.1,1.5-0.1,2.2l-0.1,2h-0.9l0.3-5.1h1.2l0.7,2c0.2,0.6,0.3,1.2,0.5,1.8h0
		c0.1-0.5,0.3-1.2,0.5-1.8l0.7-2h1.2l0.3,5.1h-0.9L536.8,272.5z"/>
	<path fill="#FDBB30" d="M538.1,274.8l1.8-5.4h0.6l-1.8,5.4H538.1z"/>
	<path fill="#FDBB30" d="M544.9,272.5c0-0.7-0.1-1.4-0.1-2.1h0c-0.2,0.6-0.4,1.3-0.6,1.9l-0.7,2.2h-0.7l-0.7-2.2
		c-0.2-0.6-0.4-1.3-0.5-2h0c0,0.7-0.1,1.5-0.1,2.2l-0.1,2h-0.9l0.3-5.1h1.2l0.7,2c0.2,0.6,0.3,1.2,0.5,1.8h0
		c0.1-0.5,0.3-1.2,0.5-1.8l0.7-2h1.2l0.3,5.1H545L544.9,272.5z"/>
	<path fill="#FDBB30" d="M550.1,274.4c-0.2,0.1-0.7,0.2-1.3,0.2c-1.6,0-2.6-1-2.6-2.6c0-1.7,1.2-2.7,2.7-2.7c0.6,0,1,0.1,1.2,0.2
		l-0.2,0.7c-0.2-0.1-0.6-0.2-1-0.2c-1,0-1.8,0.6-1.8,1.9c0,1.1,0.7,1.8,1.8,1.8c0.4,0,0.8-0.1,1-0.2L550.1,274.4z"/>
</g>
<g>
	<path fill="#007DC3" d="M248.2,296h26.9v5.4h-20.4V318h18.9v5.3h-18.9v22.6h-6.4V296z"/>
	<path fill="#007DC3" d="M282.1,293.3h6.5v52.5h-6.5V293.3z"/>
	<path fill="#007DC3" d="M302.5,329.2c0.1,8.8,5.8,12.4,12.3,12.4c4.7,0,7.5-0.8,9.9-1.9l1.1,4.7c-2.3,1-6.2,2.2-11.9,2.2
		c-11,0-17.6-7.3-17.6-18.1c0-10.8,6.4-19.3,16.8-19.3c11.7,0,14.8,10.3,14.8,16.9c0,1.3-0.1,2.4-0.2,3H302.5z M321.6,324.5
		c0.1-4.1-1.7-10.6-9-10.6c-6.6,0-9.5,6.1-10,10.6H321.6z"/>
	<path fill="#007DC3" d="M338.9,329.2c0.1,8.8,5.8,12.4,12.3,12.4c4.7,0,7.5-0.8,9.9-1.9l1.1,4.7c-2.3,1-6.2,2.2-11.9,2.2
		c-11,0-17.6-7.3-17.6-18.1c0-10.8,6.4-19.3,16.8-19.3c11.7,0,14.8,10.3,14.8,16.9c0,1.3-0.1,2.4-0.2,3H338.9z M358,324.5
		c0.1-4.1-1.7-10.6-9-10.6c-6.6,0-9.5,6.1-10,10.6H358z"/>
	<path fill="#007DC3" d="M379.6,299.8v10.3h9.3v5h-9.3v19.3c0,4.4,1.3,7,4.9,7c1.7,0,3-0.2,3.8-0.4l0.3,4.9
		c-1.3,0.5-3.3,0.9-5.8,0.9c-3,0-5.5-1-7-2.7c-1.9-1.9-2.5-5.1-2.5-9.3V315h-5.5v-5h5.5v-8.6L379.6,299.8z"/>
</g>
</svg>
