<?xml version="1.0" encoding="utf-8"?>
<!-- Generator: Adobe Illustrator 25.4.1, SVG Export Plug-In . SVG Version: 6.00 Build 0)  -->
<svg version="1.1" id="Layer_1" xmlns="http://www.w3.org/2000/svg" xmlns:xlink="http://www.w3.org/1999/xlink" x="0px" y="0px"
	 viewBox="0 0 542.1 542.2" enable-background="new 0 0 542.1 542.2" xml:space="preserve">
<g>
	<path fill="#007DC3" d="M301.2,258.3c0,1-0.1,2.1-0.4,3c-1.2,3.8-5.1,7.1-10.1,7.1c-4.1,0-7.4-2.3-7.4-7.3c0-7.6,8.3-9.7,17.8-9.6
		V258.3z M316.1,245.1c0-12.5-5.3-23.5-23.4-23.5c-9.3,0-16.6,2.6-20.6,4.9l2.9,10c3.7-2.3,9.5-4.2,15-4.2c9.2,0,10.7,5.2,10.7,8.5
		v0.8c-20,0-32.6,6.9-32.6,21c0,8.6,6.4,16.7,17.6,16.7c6.9,0,12.6-2.7,16-7.1h0.3c0,0,2.3,9.5,14.8,5.9c-0.7-4-0.9-8.2-0.9-13.3
		V245.1z"/>
	<path fill="#007DC3" d="M10.6,204.5c0,0,13,53.4,15.1,62.1c2.4,10.1,6.8,13.8,19.4,11.3l8.1-33.1c2.1-8.2,3.4-14.1,4.8-22.5h0.2
		c0.9,8.5,2.3,14.3,4,22.5c0,0,3.3,15,5,22.9c1.7,7.9,6.4,12.9,18.8,10.2l19.4-73.4H89.8l-6.6,31.7c-1.8,9.2-3.4,16.5-4.6,24.9h-0.2
		c-1.1-8.4-2.6-15.3-4.4-24.3l-6.9-32.4H50.7l-7.4,31.5c-2.1,9.6-4,17.3-5.3,25.5h-0.2c-1.3-7.7-3-17.4-4.8-26.7
		c0,0-4.4-22.6-5.9-30.3H10.6z"/>
	<path fill="#007DC3" d="M134.2,258.3c0,1-0.1,2.1-0.4,3c-1.2,3.8-5.1,7.1-10.1,7.1c-4.1,0-7.4-2.3-7.4-7.3c0-7.6,8.3-9.7,17.8-9.6
		V258.3z M149.1,245.1c0-12.5-5.3-23.5-23.4-23.5c-9.3,0-16.6,2.6-20.6,4.9l2.9,10c3.7-2.3,9.5-4.2,15-4.2c9.2,0,10.7,5.2,10.7,8.5
		v0.8c-20,0-32.6,6.9-32.6,21c0,8.6,6.4,16.7,17.6,16.7c6.9,0,12.6-2.7,16.1-7.1h0.3c0,0,2.3,9.5,14.8,5.9c-0.7-4-0.9-8.2-0.9-13.3
		V245.1z"/>
	<polygon fill="#007DC3" points="172.1,262.4 172.1,204.5 157.2,204.5 157.2,278 172.1,278 	"/>
	<path fill="#007DC3" d="M361.8,204.5v54.2c0,7.5,1.4,12.7,4.4,15.9c2.6,2.8,7,4.6,12.1,4.6c4.4,0,8.7-0.8,10.8-1.6L389,266
		c-1.5,0.4-3.3,0.7-5.7,0.7c-5.1,0-6.8-3.3-6.8-10v-20.7h13v-14.1h-13v-17.4H361.8z"/>
	<path fill="#007DC3" d="M323.3,222.8V278h15.4v-28.2c0-1.5,0.1-2.9,0.3-4.1c1.1-5.9,5.7-9.7,12.2-9.7c1.8,0,3.1,0.2,4.4,0.4v-14.4
		c-1.2-0.2-1.9-0.3-3.4-0.3c-5.7,0-12.3,3.7-15,11.6h-0.4v-10.4H323.3z"/>
	<path fill="#007DC3" d="M180.8,222.8V278h15v-32.3c0-1.5,0.2-3.1,0.7-4.5c1.2-3.3,4.3-7.1,9.1-7.1c6,0,8.9,5.1,8.9,12.5V278h15
		v-32.7c0-1.5,0.2-3.2,0.6-4.5c1.2-3.7,4.5-6.7,9-6.7c6.1,0,9.1,5,9.1,13.7V278h15v-32.5c0-17.1-8.7-23.9-18.5-23.9
		c-4.4,0-7.8,1.1-10.9,3c-2.6,1.6-4.9,3.9-7,6.9h-0.2c-2.4-5.9-7.9-9.9-15.2-9.9c-9.3,0-13.5,4.7-16.1,8.7H195v-7.5H180.8z"/>
	<path fill="#FDBB30" d="M470.1,220.3c3,0,5.4-1.5,5.7-3.5l2.9-33.1c0-3.3-3.8-6-8.7-6c-4.8,0-8.6,2.7-8.6,6l2.9,33.1
		C464.7,218.8,467.1,220.3,470.1,220.3L470.1,220.3z"/>
	<path fill="#FDBB30" d="M452.2,230.7c1.5-2.6,1.4-5.5-0.2-6.7l-27.2-19.1c-2.8-1.6-7.1,0.3-9.5,4.5c-2.4,4.2-2,8.8,0.8,10.5
		l30.1,14C448.1,234.6,450.7,233.2,452.2,230.7L452.2,230.7z"/>
	<path fill="#FDBB30" d="M488,230.7c1.5,2.6,4,3.9,5.9,3.2l30.1-14c2.8-1.6,3.2-6.3,0.9-10.5c-2.4-4.2-6.7-6.1-9.5-4.5l-27.2,19.1
		C486.6,225.2,486.5,228.1,488,230.7L488,230.7z"/>
	<path fill="#FDBB30" d="M470.1,261.7c3,0,5.4,1.5,5.7,3.5l2.9,33.1c0,3.3-3.8,6-8.7,6c-4.8,0-8.6-2.7-8.6-6l2.9-33.1
		C464.7,263.2,467.1,261.7,470.1,261.7L470.1,261.7z"/>
	<path fill="#FDBB30" d="M488,251.4c1.5-2.6,4-3.9,5.9-3.2l30.1,14c2.8,1.6,3.2,6.3,0.9,10.5c-2.4,4.2-6.7,6.1-9.5,4.5l-27.2-19.1
		C486.6,256.8,486.5,253.9,488,251.4L488,251.4z"/>
	<path fill="#FDBB30" d="M452.2,251.3c1.5,2.6,1.4,5.4-0.2,6.7l-27.2,19.1c-2.8,1.6-7.1-0.3-9.5-4.5c-2.4-4.2-2-8.8,0.8-10.5
		l30.1-14C448.1,247.5,450.7,248.8,452.2,251.3L452.2,251.3z"/>
	<path fill="#FDBB30" d="M529.9,272.8h-1.4V272h3.8v0.8h-1.5v4.3h-0.9V272.8z"/>
	<path fill="#FDBB30" d="M536.8,275c0-0.7-0.1-1.4-0.1-2.1h0c-0.2,0.6-0.4,1.3-0.6,1.9l-0.7,2.2h-0.7l-0.7-2.2
		c-0.2-0.6-0.4-1.3-0.5-2h0c0,0.7-0.1,1.5-0.1,2.2l-0.1,2h-0.9l0.3-5.1h1.2l0.7,2c0.2,0.6,0.3,1.2,0.5,1.8h0
		c0.1-0.5,0.3-1.2,0.5-1.8l0.7-2h1.2l0.3,5.1h-0.9L536.8,275z"/>
	<path fill="#FDBB30" d="M538.1,277.4l1.8-5.4h0.6l-1.8,5.4H538.1z"/>
	<path fill="#FDBB30" d="M544.9,275c0-0.7-0.1-1.4-0.1-2.1h0c-0.2,0.6-0.4,1.3-0.6,1.9l-0.7,2.2h-0.7l-0.7-2.2
		c-0.2-0.6-0.4-1.3-0.5-2h0c0,0.7-0.1,1.5-0.1,2.2l-0.1,2h-0.9l0.3-5.1h1.2l0.7,2c0.2,0.6,0.3,1.2,0.5,1.8h0
		c0.1-0.5,0.3-1.2,0.5-1.8l0.7-2h1.2l0.3,5.1H545L544.9,275z"/>
	<path fill="#FDBB30" d="M550,277c-0.2,0.1-0.7,0.2-1.3,0.2c-1.6,0-2.6-1-2.6-2.6c0-1.7,1.2-2.7,2.7-2.7c0.6,0,1,0.1,1.2,0.2
		l-0.2,0.7c-0.2-0.1-0.6-0.2-1-0.2c-1,0-1.8,0.6-1.8,1.9c0,1.1,0.7,1.8,1.8,1.8c0.4,0,0.8-0.1,1-0.2L550,277z"/>
</g>
<g>
	<path fill="#007DC3" d="M139,298.6h6.4V343h21.3v5.4H139V298.6z"/>
	<path fill="#007DC3" d="M204.5,330.2c0,13.2-9.2,19-17.8,19c-9.7,0-17.2-7.1-17.2-18.4c0-12,7.8-19,17.8-19
		C197.5,311.8,204.5,319.3,204.5,330.2z M176,330.6c0,7.8,4.5,13.8,10.9,13.8c6.2,0,10.9-5.8,10.9-13.9c0-6.1-3-13.8-10.7-13.8
		C179.4,316.7,176,323.8,176,330.6z"/>
	<path fill="#007DC3" d="M242.9,312.6c-0.1,2.6-0.3,5.5-0.3,9.8v20.8c0,8.2-1.6,13.2-5.1,16.4c-3.5,3.3-8.5,4.3-13,4.3
		c-4.3,0-9-1-11.9-3l1.6-5c2.4,1.5,6.1,2.8,10.5,2.8c6.7,0,11.5-3.5,11.5-12.5v-4h-0.1c-2,3.3-5.8,6-11.4,6
		c-8.9,0-15.2-7.5-15.2-17.5c0-12.1,7.9-19,16.1-19c6.2,0,9.6,3.3,11.2,6.2h0.1l0.3-5.4H242.9z M236.1,326.8c0-1.1-0.1-2.1-0.4-3
		c-1.2-3.8-4.4-6.9-9.1-6.9c-6.2,0-10.7,5.3-10.7,13.5c0,7,3.6,12.9,10.6,12.9c4,0,7.6-2.5,9-6.7c0.4-1.1,0.5-2.4,0.5-3.5V326.8z"/>
	<path fill="#007DC3" d="M259.5,302.6c0.1,2.2-1.6,4-4.1,4c-2.3,0-3.9-1.8-3.9-4c0-2.3,1.7-4.1,4.1-4.1
		C258,298.5,259.5,300.3,259.5,302.6z M252.3,348.4v-35.8h6.5v35.8H252.3z"/>
	<path fill="#007DC3" d="M268,341.8c1.9,1.3,5.3,2.6,8.6,2.6c4.7,0,7-2.4,7-5.3c0-3.1-1.8-4.8-6.7-6.6c-6.4-2.3-9.5-5.8-9.5-10.1
		c0-5.8,4.7-10.5,12.4-10.5c3.6,0,6.8,1,8.8,2.2l-1.6,4.7c-1.4-0.9-4-2.1-7.3-2.1c-3.8,0-6,2.2-6,4.9c0,3,2.1,4.3,6.8,6.1
		c6.2,2.4,9.4,5.5,9.4,10.8c0,6.3-4.9,10.7-13.4,10.7c-3.9,0-7.5-1-10.1-2.4L268,341.8z"/>
	<path fill="#007DC3" d="M305.4,302.3v10.3h9.3v5h-9.3v19.3c0,4.4,1.3,7,4.9,7c1.7,0,3-0.2,3.8-0.4l0.3,4.9
		c-1.3,0.5-3.3,0.9-5.8,0.9c-3,0-5.5-1-7-2.7c-1.9-1.9-2.5-5.1-2.5-9.3v-19.5h-5.5v-5h5.5V304L305.4,302.3z"/>
	<path fill="#007DC3" d="M328.6,302.6c0.1,2.2-1.6,4-4.1,4c-2.3,0-3.9-1.8-3.9-4c0-2.3,1.7-4.1,4.1-4.1
		C327.1,298.5,328.6,300.3,328.6,302.6z M321.4,348.4v-35.8h6.5v35.8H321.4z"/>
	<path fill="#007DC3" d="M363.6,347.1c-1.7,0.9-5.5,2.1-10.3,2.1c-10.8,0-17.8-7.3-17.8-18.3c0-11,7.5-19,19.2-19c3.8,0,7.3,1,9,1.9
		l-1.5,5c-1.6-0.9-4-1.7-7.5-1.7c-8.2,0-12.7,6.1-12.7,13.5c0,8.3,5.3,13.4,12.4,13.4c3.7,0,6.1-1,8-1.8L363.6,347.1z"/>
	<path fill="#007DC3" d="M369.6,341.8c1.9,1.3,5.3,2.6,8.6,2.6c4.7,0,7-2.4,7-5.3c0-3.1-1.8-4.8-6.7-6.6c-6.4-2.3-9.5-5.8-9.5-10.1
		c0-5.8,4.7-10.5,12.4-10.5c3.6,0,6.8,1,8.8,2.2l-1.6,4.7c-1.4-0.9-4-2.1-7.3-2.1c-3.8,0-6,2.2-6,4.9c0,3,2.1,4.3,6.8,6.1
		c6.2,2.4,9.4,5.5,9.4,10.8c0,6.3-4.9,10.7-13.4,10.7c-3.9,0-7.5-1-10.1-2.4L369.6,341.8z"/>
</g>
</svg>
