<svg xmlns="http://www.w3.org/2000/svg" width="775.318" height="819.196" viewBox="0 0 775.318 819.196">
  <defs>
    <style>
      .cls-1 {
        fill: #262626;
        opacity: 0.24;
      }

      .cls-2 {
        fill: #dbdbdb;
      }

      .cls-3 {
        fill: #00386d;
        font-size: 29.227px;
        font-family: Poppins-SemiBold, Poppins;
        font-weight: 600;
      }

      .cls-4 {
        fill: #8cb3de;
      }

      .cls-5 {
        fill: #fff;
      }

      .cls-6 {
        fill: #e1001e;
      }

      .cls-7 {
        fill: #040505;
        font-size: 17.913px;
        font-family: Poppins-LightItalic, Poppins;
        font-weight: 300;
        font-style: italic;
        letter-spacing: 0.006em;
      }

      .cls-8 {
        fill: none;
        stroke: #00386d;
        stroke-miterlimit: 10;
        stroke-width: 2.147px;
      }
    </style>
  </defs>
  <g id="_1._promo_prodcuts" data-name="1. promo prodcuts" transform="translate(-613.953 -2411.638)">
    <rect id="Rectangle_39" data-name="Rectangle 39" class="cls-1" width="475.318" height="519.196" transform="translate(763.953 2561.638)"/>
    <rect id="Rectangle_40" data-name="Rectangle 40" class="cls-2" width="453.101" height="551.95" transform="translate(775.063 2538.12)"/>
    <text id="Custom_Branded_Promotional_Products" data-name="Custom Branded
Promotional Products" class="cls-3" transform="translate(1005.033 2874.014)"><tspan x="-126.335" y="0">Custom Branded</tspan><tspan x="-161.027" y="36.77">Promotional Products</tspan></text>
    <g id="icon">
      <rect id="Rectangle_41" data-name="Rectangle 41" class="cls-4" width="83.1" height="48.314" rx="6.847" transform="translate(963.183 2671.872)"/>
      <g id="Group_48" data-name="Group 48">
        <path id="Path_60" data-name="Path 60" class="cls-5" d="M965.116,2714.389l27.056-28.989,19.973,20.418,12.881-10.756,21.258,17.393-1.933,7.73-77.3-1.933Z"/>
        <g id="Group_47" data-name="Group 47">
          <g id="Group_46" data-name="Group 46">
            <g id="Group_44" data-name="Group 44">
              <path id="Path_61" data-name="Path 61" class="cls-6" d="M1045.57,2734.468H964.682a2.488,2.488,0,0,1,0-4.976h80.888a2.488,2.488,0,0,1,0,4.976Z"/>
            </g>
            <g id="Group_45" data-name="Group 45">
              <path id="Path_62" data-name="Path 62" class="cls-6" d="M1005.908,2748.161H964.682a2.488,2.488,0,1,1,0-4.976h41.226a2.488,2.488,0,1,1,0,4.976Z"/>
            </g>
            <path id="Path_63" data-name="Path 63" class="cls-6" d="M1039.973,2667.9H986.884a2.489,2.489,0,0,0,0,4.977h53.089a3.112,3.112,0,0,1,3.109,3.109v32.227l-10.854-13.077a8.008,8.008,0,0,0-6.178-2.9h0a8.005,8.005,0,0,0-6.178,2.9l-7.116,8.574L998.056,2686a8.03,8.03,0,0,0-12.357,0l-18.529,22.325v-32.338a3.113,3.113,0,0,1,3.109-3.11h4.973a2.489,2.489,0,0,0,0-4.977h-4.973a8.1,8.1,0,0,0-8.085,8.086v37.434a8.094,8.094,0,0,0,8.085,8.085h69.694a8.094,8.094,0,0,0,8.085-8.085v-37.434A8.094,8.094,0,0,0,1039.973,2667.9Zm-72.146,47.424,21.7-26.148a3.054,3.054,0,0,1,4.7,0l15.294,18.429-7.406,8.923H970.279A3.1,3.1,0,0,1,967.827,2715.323Zm72.146,1.2h-31.391l15.118-18.215a3.052,3.052,0,0,1,4.7,0l14.07,16.952A3.1,3.1,0,0,1,1039.973,2716.527Z"/>
            <path id="Path_64" data-name="Path 64" class="cls-6" d="M1083.822,2651.928h-17.048v-10.819a7.9,7.9,0,0,0-7.888-7.888H952.973a7.9,7.9,0,0,0-7.888,7.888V2760.1a30.9,30.9,0,0,0,30.865,30.864h59.959a30.9,30.9,0,0,0,30.822-29.232,49.554,49.554,0,0,0,48.208-49.478v-29.207A31.152,31.152,0,0,0,1083.822,2651.928ZM1061.8,2760.1a25.918,25.918,0,0,1-25.889,25.888H975.95a25.918,25.918,0,0,1-25.889-25.888V2641.109a2.915,2.915,0,0,1,2.912-2.912h105.913a2.915,2.915,0,0,1,2.912,2.912v77.434a2.488,2.488,0,0,0,4.976,0V2677.3a8.252,8.252,0,0,1,6.351-4.973l8.811-1.361a12.192,12.192,0,0,1,14.283,12.076v29.207a30.879,30.879,0,0,1-22.411,29.626,6.207,6.207,0,0,1-7.033-2.88v-8.822a2.489,2.489,0,1,0-4.977,0V2760.1Zm48.165-47.846a44.571,44.571,0,0,1-43.189,44.5V2745.7a11.089,11.089,0,0,0,8.384.968,35.875,35.875,0,0,0,26.037-34.415v-29.207a17.166,17.166,0,0,0-20.018-16.994l-8.812,1.361a13.2,13.2,0,0,0-5.591,2.257V2656.9h17.048a26.171,26.171,0,0,1,26.141,26.14Z"/>
          </g>
        </g>
      </g>
    </g>
    <text id="Want_to_keep_your_company_top_of_mind_with_clients_" data-name="Want to keep your company
top of mind with clients? " class="cls-7" transform="translate(1004.727 2949.467)"><tspan x="-128.323" y="0">Want to keep your company</tspan><tspan x="-112.505" y="27.342">top of mind with clients? </tspan></text>
    <line id="Line_7" data-name="Line 7" class="cls-8" x2="321.149" transform="translate(846.028 2824.052)"/>
    <path id="red_triangle" data-name="red triangle" class="cls-6" d="M1088.842,2520.862,1244,2676.024V2520.862Z"/>
  </g>
</svg>
