<svg xmlns="http://www.w3.org/2000/svg" xmlns:xlink="http://www.w3.org/1999/xlink" width="570.367" height="648.899" viewBox="0 0 570.367 648.899"><defs><style>.a{fill:#dbdbdb;}.b{fill:#00386d;font-size:30px;font-family:Poppins-SemiBold, Poppins;font-weight:600;}.c{fill:#8cb3de;}.d{fill:#fff;}.e,.i{fill:#e1001e;}.f{fill:#040505;font-family:Poppins-LightItalic, Poppins;font-weight:300;letter-spacing:0.006em;}.f,.i{font-size:17px;font-style:italic;}.g,.h{fill:none;stroke-miterlimit:10;}.g{stroke:#00386d;stroke-width:4.15px;}.h{stroke:#e1001e;stroke-width:1.56px;}.i{font-family:Poppins-MediumItalic, Poppins;font-weight:500;letter-spacing:0.004em;}.j{filter:url(#c);}.k{filter:url(#a);}</style><filter id="a" x="0" y="17.825" width="551.177" height="631.074" filterUnits="userSpaceOnUse"><feOffset dx="-0.06" dy="2.92" input="SourceAlpha"/><feGaussianBlur stdDeviation="3.46" result="b"/><feFlood flood-color="#040505" flood-opacity="0.259"/><feComposite operator="in" in2="b"/><feComposite in="SourceGraphic"/></filter><filter id="c" x="388.802" y="0" width="181.565" height="180.886" filterUnits="userSpaceOnUse"><feOffset dy="6" input="SourceAlpha"/><feGaussianBlur stdDeviation="3" result="d"/><feFlood flood-opacity="0.2"/><feComposite operator="in" in2="d"/><feComposite in="SourceGraphic"/></filter></defs><g transform="translate(10.44 3)"><g class="k" transform="matrix(1, 0, 0, 1, -10.44, -3)"><rect class="a" width="530.417" height="610.314" transform="translate(10.44 25.29)"/></g><text class="b" transform="translate(262.362 395.834)"><tspan x="-129.675" y="0">Custom Branded</tspan><tspan x="-165.285" y="35">Promotional Products</tspan></text><g transform="translate(196.887 114.456)"><rect class="c" width="97.7" height="56.564" rx="2" transform="translate(21.278 45.252)"/><path class="d" d="M965.115,2719.338l31.809-33.937,23.481,23.905,15.144-12.595,24.993,20.365-2.271,9.051-90.884-2.263Z" transform="translate(-941.565 -2624.31)"/><g transform="translate(20.115 112.71)"><path class="e" d="M1060.218,2735.318h-95.1a2.913,2.913,0,1,1,0-5.825h95.1a2.913,2.913,0,1,1,0,5.825Z" transform="translate(-962.193 -2729.493)"/></g><g transform="translate(20.115 128.742)"><path class="e" d="M1013.588,2749.011H965.12a2.913,2.913,0,1,1,0-5.825h48.468a2.913,2.913,0,1,1,0,5.825Z" transform="translate(-962.193 -2743.186)"/></g><path class="e" d="M1053.638,2667.9H991.222a2.914,2.914,0,1,0,0,5.827h62.416a3.652,3.652,0,0,1,3.655,3.64V2715.1l-12.762-15.311a9.421,9.421,0,0,0-7.262-3.4h0a9.426,9.426,0,0,0-7.263,3.4l-8.366,10.038-17.281-20.733a9.465,9.465,0,0,0-14.529,0l-21.784,26.137v-37.86a3.652,3.652,0,0,1,3.655-3.641h5.846a2.914,2.914,0,1,0,0-5.827H971.7a9.5,9.5,0,0,0-9.506,9.467v43.826a9.5,9.5,0,0,0,9.506,9.465h81.938a9.5,9.5,0,0,0,9.5-9.465v-43.826A9.5,9.5,0,0,0,1053.638,2667.9Zm-84.822,55.522,25.515-30.615a3.6,3.6,0,0,1,5.524,0l17.98,21.577-8.707,10.447H971.7A3.658,3.658,0,0,1,968.816,2723.423Zm84.822,1.409h-36.907l17.774-21.326a3.6,3.6,0,0,1,5.525,0l16.542,19.847A3.649,3.649,0,0,1,1053.638,2724.832Z" transform="translate(-942.078 -2627.3)"/><path class="e" d="M1108.2,2655.123h-20.043v-12.667a9.264,9.264,0,0,0-9.273-9.234H954.359a9.264,9.264,0,0,0-9.274,9.234v139.306a36.255,36.255,0,0,0,36.288,36.137h70.492a36.266,36.266,0,0,0,36.237-34.224,58.133,58.133,0,0,0,56.678-57.929v-34.193A36.548,36.548,0,0,0,1108.2,2655.123ZM1082.3,2781.762a30.406,30.406,0,0,1-30.437,30.309H981.373a30.407,30.407,0,0,1-30.438-30.309V2642.456a3.42,3.42,0,0,1,3.424-3.409h124.521a3.419,3.419,0,0,1,3.422,3.409v90.657a2.926,2.926,0,0,0,5.851,0V2684.83a9.689,9.689,0,0,1,7.466-5.821l10.359-1.595a14.6,14.6,0,0,1,14.3,6.025,14.4,14.4,0,0,1,2.487,8.113v34.193a36.177,36.177,0,0,1-26.348,34.686,7.313,7.313,0,0,1-8.27-3.371v-10.33a2.926,2.926,0,0,0-5.852,0v35.031Zm56.628-56.016a52.283,52.283,0,0,1-50.777,52.095v-12.933a13.069,13.069,0,0,0,9.857,1.129,42.022,42.022,0,0,0,30.611-40.291v-34.193a20.206,20.206,0,0,0-3.489-11.376,20.483,20.483,0,0,0-20.045-8.521l-10.361,1.593a15.55,15.55,0,0,0-6.572,2.643v-14.943H1108.2a30.7,30.7,0,0,1,30.734,30.6Z" transform="translate(-945.085 -2633.222)"/></g><text class="f" transform="translate(262.362 466.834)"><tspan x="-121.78" y="0">Want to keep your company</tspan><tspan x="-106.769" y="22">top of mind with clients? </tspan></text><line class="g" x2="416.457" transform="translate(57.295 339.61)"/><g class="j" transform="matrix(1, 0, 0, 1, -10.44, -3)"><path class="e" d="M1088.842,2520.862l163.565,162.886V2520.862Z" transform="translate(-691.04 -2517.86)"/></g><g transform="translate(203.032 518.683)"><path class="h" d="M1046.5,3027.376l-93.487-.091v31.122H1077.76" transform="translate(-953.015 -3027.285)"/><path class="e" d="M1028.958,3027.285l26.263,26.154v-26.154Z" transform="translate(-930.477 -3027.285)"/><text class="i" transform="translate(5.33 21.151)"><tspan x="0" y="0">Read More</tspan></text></g></g></svg>