<svg xmlns="http://www.w3.org/2000/svg" xmlns:xlink="http://www.w3.org/1999/xlink" width="570.367" height="648.899" viewBox="0 0 570.367 648.899"><defs><style>.a{fill:#dbdbdb;}.b{fill:#00386d;font-size:30px;font-family:Poppins-SemiBold, Poppins;font-weight:600;}.c{fill:#040505;font-family:Poppins-LightItalic, Poppins;font-weight:300;letter-spacing:0.006em;}.c,.g{font-size:17px;font-style:italic;}.d,.f{fill:none;stroke-miterlimit:10;}.d{stroke:#00386d;stroke-width:4.15px;}.e,.g{fill:#e1001e;}.f,.i{stroke:#e1001e;}.f{stroke-width:1.56px;}.g{font-family:Poppins-MediumItalic, Poppins;font-weight:500;letter-spacing:0.004em;}.h{fill:#fff;}.i{fill:#8ab0da;stroke-width:0.55px;}.j{filter:url(#c);}.k{filter:url(#a);}</style><filter id="a" x="0" y="17.825" width="551.177" height="631.074" filterUnits="userSpaceOnUse"><feOffset dx="-0.06" dy="2.92" input="SourceAlpha"/><feGaussianBlur stdDeviation="3.46" result="b"/><feFlood flood-color="#040505" flood-opacity="0.259"/><feComposite operator="in" in2="b"/><feComposite in="SourceGraphic"/></filter><filter id="c" x="388.802" y="0" width="181.565" height="180.886" filterUnits="userSpaceOnUse"><feOffset dy="6" input="SourceAlpha"/><feGaussianBlur stdDeviation="3" result="d"/><feFlood flood-opacity="0.2"/><feComposite operator="in" in2="d"/><feComposite in="SourceGraphic"/></filter></defs><g transform="translate(-717.198 -99.166)"><g class="k" transform="matrix(1, 0, 0, 1, 717.2, 99.17)"><rect class="a" width="530.417" height="610.314" transform="translate(10.44 25.29)"/></g><text class="b" transform="translate(990 498)"><tspan x="-146.325" y="0">Corporate Apparel,</tspan><tspan x="-176.265" y="35">Uniforms &amp; Team Wear</tspan></text><text class="c" transform="translate(990 569)"><tspan x="-100.674" y="0">When you want to raise</tspan><tspan x="-125.129" y="22">team spirit, add consistency…</tspan></text><line class="d" x2="416.457" transform="translate(784.932 441.776)"/><g class="j" transform="matrix(1, 0, 0, 1, 717.2, 99.17)"><path class="e" d="M1088.842,2520.862l163.565,162.886V2520.862Z" transform="translate(-691.04 -2517.86)"/></g><g transform="translate(930.67 620.849)"><path class="f" d="M1046.5,3027.376l-93.487-.091v31.122H1077.76" transform="translate(-953.015 -3027.285)"/><path class="e" d="M1028.958,3027.285l26.263,26.154v-26.154Z" transform="translate(-930.477 -3027.285)"/><text class="g" transform="translate(5.33 21.151)"><tspan x="0" y="0">Read More</tspan></text></g><g transform="translate(891.962 206.655)"><path class="h" d="M1319.992,2843.9v-93.137a.033.033,0,0,0-.011-.026l-33.245-33.106a.042.042,0,0,1,0-.057l45.54-39.723c.025-.02,22.92-4.429,22.92-4.4V2843.9c0,.023-2.953.036-35.167.036A.035.035,0,0,1,1319.992,2843.9Z" transform="translate(-1281.822 -2664.768)"/><path class="i" d="M9.8,0A9.845,9.845,0,1,1,0,9.836,9.847,9.847,0,0,1,9.8,0Z" transform="translate(116.465 71.399) rotate(-77.168)"/><path class="e" d="M1486.17,2715.588c-.047-.049-.094-.1-.143-.142l-41.982-37.158a3.989,3.989,0,0,0-1.318-.8l-30.368-10.81a4,4,0,0,0-5.112,2.379,3.923,3.923,0,0,0-.237,1.162c0,.87-1.316,21.021-21.549,21.335-20.353-.314-21.629-20.465-21.668-21.335a3.984,3.984,0,0,0-4.2-3.761,4.131,4.131,0,0,0-1.108.22l-30.331,10.927a4,4,0,0,0-1.318.8l-41.7,37.039a3.96,3.96,0,0,0-.144,5.616c.047.048.1.1.144.145l33.194,33.409a.041.041,0,0,1,.011.029v91.343a4.021,4.021,0,0,0,4.027,4.015h81.525a3.344,3.344,0,0,0,3.35-3.335v-1.434a3.384,3.384,0,0,0-3.391-3.377H1326.2a.039.039,0,0,1-.037-.039v-116.7a4.156,4.156,0,0,0-3.81-4.229,3.984,3.984,0,0,0-4.171,3.971v18.386a.039.039,0,0,1-.065.027l-24.45-24.662a.039.039,0,0,1,0-.056l37.954-33.827.013-.006,24.935-8.962a.033.033,0,0,1,.049.025,29.435,29.435,0,0,0,57.728,0,.035.035,0,0,1,.051-.025l24.932,8.962.014.006,37.835,33.827a.036.036,0,0,1,0,.056l-24.408,24.622a.037.037,0,0,1-.065-.024V2725.12a4.158,4.158,0,0,0-3.812-4.229,3.986,3.986,0,0,0-4.17,3.971v116.956a.04.04,0,0,1-.041.039h-13.348a3.307,3.307,0,0,0-3.313,3.3v1.42a3.436,3.436,0,0,0,3.445,3.428h17.328a4.021,4.021,0,0,0,4.03-4.01v-91.348a.039.039,0,0,1,.012-.029l33.191-33.409A3.963,3.963,0,0,0,1486.17,2715.588Z" transform="translate(-1283.892 -2666.444)"/></g></g></svg>