<svg xmlns="http://www.w3.org/2000/svg" xmlns:xlink="http://www.w3.org/1999/xlink" width="570.367" height="648.899" viewBox="0 0 570.367 648.899"><defs><style>.a{fill:#dbdbdb;}.b{fill:#00386d;font-size:30px;font-family:Poppins-SemiBold, Poppins;font-weight:600;}.c{fill:#040505;font-family:Poppins-LightItalic, Poppins;font-weight:300;letter-spacing:0.006em;}.c,.g{font-size:17px;font-style:italic;}.d,.f{fill:none;stroke-miterlimit:10;}.d{stroke:#00386d;stroke-width:4.15px;}.e,.g{fill:#e1001e;}.f{stroke:#e1001e;stroke-width:1.56px;}.g{font-family:Poppins-MediumItalic, Poppins;font-weight:500;letter-spacing:0.004em;}.h{fill:#8cb3de;}.i{filter:url(#c);}.j{filter:url(#a);}</style><filter id="a" x="0" y="17.825" width="551.177" height="631.074" filterUnits="userSpaceOnUse"><feOffset dx="-0.06" dy="2.92" input="SourceAlpha"/><feGaussianBlur stdDeviation="3.46" result="b"/><feFlood flood-color="#040505" flood-opacity="0.259"/><feComposite operator="in" in2="b"/><feComposite in="SourceGraphic"/></filter><filter id="c" x="388.802" y="0" width="181.565" height="180.886" filterUnits="userSpaceOnUse"><feOffset dy="6" input="SourceAlpha"/><feGaussianBlur stdDeviation="3" result="d"/><feFlood flood-opacity="0.2"/><feComposite operator="in" in2="d"/><feComposite in="SourceGraphic"/></filter></defs><g transform="translate(-674.198 -221.166)"><g class="j" transform="matrix(1, 0, 0, 1, 674.2, 221.17)"><rect class="a" width="530.417" height="610.314" transform="translate(10.44 25.29)"/></g><text class="b" transform="translate(947 620)"><tspan x="-169.965" y="0">Employee Recognition</tspan><tspan x="-73.215" y="35">&amp; Awards</tspan></text><text class="c" transform="translate(947 691)"><tspan x="-122.315" y="0">Recognizing your employees</tspan><tspan x="-156.621" y="22">is one of the most important things….</tspan></text><line class="d" x2="416.457" transform="translate(741.932 563.776)"/><g class="i" transform="matrix(1, 0, 0, 1, 674.2, 221.17)"><path class="e" d="M1088.842,2520.862l163.565,162.886V2520.862Z" transform="translate(-691.04 -2517.86)"/></g><g transform="translate(887.67 742.849)"><path class="f" d="M1046.5,3027.376l-93.487-.091v31.122H1077.76" transform="translate(-953.015 -3027.285)"/><path class="e" d="M1028.958,3027.285l26.263,26.154v-26.154Z" transform="translate(-930.477 -3027.285)"/><text class="g" transform="translate(5.33 21.151)"><tspan x="0" y="0">Read More</tspan></text></g><g transform="translate(866.154 339.592)"><path class="h" d="M490.763,2773.377l12.356,5.587v-14.578l8.54-10.021L499,2749.322l-9.3-11.7-7.171,12.673-12.837,4.072,8.052,9.776-.975,13.606Z" transform="translate(-407.185 -2695.355)"/><path class="h" d="M465.994,2797.833s-1-12.3,4.97-14.036h48.381c7.035,3.037,5.79,14.037,5.79,14.037Z" transform="translate(-412.167 -2634.636)"/><path class="e" d="M609.82,2751.733a9.066,9.066,0,0,0-9.092-8.283H577.114v-3.465h.458a6.111,6.111,0,0,0,6.117-6.09v-8.442a6.109,6.109,0,0,0-6.117-6.088H508.064a2.726,2.726,0,1,0,0,5.451h69.508a.639.639,0,0,1,.639.637v8.442a.636.636,0,0,1-.639.635H475.192a.636.636,0,0,1-.639-.635v-8.442a.639.639,0,0,1,.639-.637h20.035a2.726,2.726,0,1,0,0-5.451H475.192a6.108,6.108,0,0,0-6.116,6.088v8.442a6.107,6.107,0,0,0,6.116,6.09h.458v3.465H452.035a9.065,9.065,0,0,0-9.092,8.283,79.267,79.267,0,0,0,4.758,31.592c5.529,14.893,18.215,33.911,47.283,41.372a50.687,50.687,0,0,0,15.82,8.43l1.377,2.265a28.132,28.132,0,0,1,3.982,14.644,29.023,29.023,0,0,1-1.538,9.392l-1.913,5.615h-6.368a11.841,11.841,0,0,0-11.851,11.8v5.713h-9.966a5.1,5.1,0,0,0-5.1,5.078v12.808a5.1,5.1,0,0,0,5.1,5.081h83.712a5.1,5.1,0,0,0,5.1-5.081v-12.808a5.094,5.094,0,0,0-5.1-5.078h-9.966v-5.713a11.841,11.841,0,0,0-11.851-11.8h-6.367l-1.914-5.615a29.025,29.025,0,0,1-1.539-9.392,28.123,28.123,0,0,1,3.983-14.644l1.376-2.265a50.69,50.69,0,0,0,15.819-8.43c29.067-7.461,41.755-26.479,47.283-41.372a79.27,79.27,0,0,0,4.759-31.592ZM476.666,2795.12a46.29,46.29,0,0,1-11.693-17.705,60.945,60.945,0,0,1-3.618-15.783h14.3v23.42A50.275,50.275,0,0,0,476.666,2795.12Zm-23.827-13.686a73.257,73.257,0,0,1-4.44-29.217,3.623,3.623,0,0,1,3.636-3.311H475.65v7.27h-14.52a5.258,5.258,0,0,0-5.25,5.74,66.527,66.527,0,0,0,3.971,17.43,50.621,50.621,0,0,0,19.639,24.976,50.568,50.568,0,0,0,6.923,11.805,58.727,58.727,0,0,1-33.574-34.693Zm115.022,106.578v12.059H484.9v-12.059ZM546.42,2870.5a6.369,6.369,0,0,1,6.374,6.349v5.713H499.969v-5.713a6.369,6.369,0,0,1,6.375-6.349Zm-13.467-9.318,1.316,3.865H518.495l1.316-3.865a34.5,34.5,0,0,0,1.829-11.143,33.879,33.879,0,0,0-3.494-15.136,51.013,51.013,0,0,0,16.468,0,33.915,33.915,0,0,0-3.492,15.136,34.48,34.48,0,0,0,1.83,11.143Zm-6.572-31.063a45.214,45.214,0,0,1-45.254-45.065v-45.066h90.509v45.066A45.214,45.214,0,0,1,526.381,2830.116Zm73.545-48.682a58.726,58.726,0,0,1-33.579,34.693,50.617,50.617,0,0,0,6.935-11.826,49.935,49.935,0,0,0,17.78-20.615,2.736,2.736,0,0,0-4.95-2.333,45.068,45.068,0,0,1-10.017,13.782,50.252,50.252,0,0,0,1.018-10.084v-23.42h14.294a64.426,64.426,0,0,1-1.346,8.273,2.738,2.738,0,0,0,5.338,1.224,70.437,70.437,0,0,0,1.483-9.212,5.259,5.259,0,0,0-5.247-5.74H577.114v-7.27h23.615a3.627,3.627,0,0,1,3.638,3.311,73.343,73.343,0,0,1-4.44,29.217Z" transform="translate(-442.804 -2719.365)"/><path class="e" d="M510.21,2749.3l-7.851-1.137a1.054,1.054,0,0,1-.79-.574l-3.513-7.086a6.538,6.538,0,0,0-11.7,0l-3.51,7.086a1.055,1.055,0,0,1-.79.574L474.2,2749.3a6.492,6.492,0,0,0-3.617,11.085l5.682,5.515a1.036,1.036,0,0,1,.3.924l-1.341,7.788a6.438,6.438,0,0,0,2.6,6.355,6.509,6.509,0,0,0,6.874.5l7.021-3.679a1.048,1.048,0,0,1,.979,0l7.023,3.679a6.587,6.587,0,0,0,3.043.751,6.526,6.526,0,0,0,6.426-7.6l-1.341-7.788a1.041,1.041,0,0,1,.3-.924l5.682-5.515a6.49,6.49,0,0,0-3.617-11.085Zm-.2,7.178-5.682,5.516a6.484,6.484,0,0,0-1.879,5.753l1.341,7.789a1.008,1.008,0,0,1-.416,1.024,1.028,1.028,0,0,1-1.107.078l-7.023-3.676a6.525,6.525,0,0,0-6.075,0l-7.023,3.676a1.029,1.029,0,0,1-1.107-.078,1.012,1.012,0,0,1-.416-1.024l1.341-7.789a6.485,6.485,0,0,0-1.878-5.753l-5.682-5.513a1,1,0,0,1-.265-1.072,1.008,1.008,0,0,1,.846-.714l7.853-1.135A6.527,6.527,0,0,0,487.75,2750l3.51-7.086a1.05,1.05,0,0,1,1.883,0l3.512,7.086a6.526,6.526,0,0,0,4.915,3.554l7.85,1.135a1.011,1.011,0,0,1,.849.709A1,1,0,0,1,510.005,2756.475Z" transform="translate(-408.626 -2696.334)"/></g></g></svg>