<svg xmlns="http://www.w3.org/2000/svg" xmlns:xlink="http://www.w3.org/1999/xlink" width="570.367" height="648.899" viewBox="0 0 570.367 648.899"><defs><style>.a{fill:#dbdbdb;}.b{fill:#00386d;font-size:30px;font-family:Poppins-SemiBold, Poppins;font-weight:600;}.c{fill:#040505;font-family:Poppins-LightItalic, Poppins;font-weight:300;letter-spacing:0.006em;}.c,.g{font-size:17px;font-style:italic;}.d,.f{fill:none;stroke-miterlimit:10;}.d{stroke:#00386d;stroke-width:4.15px;}.e,.g{fill:#e1001e;}.f{stroke:#e1001e;stroke-width:1.56px;}.g{font-family:Poppins-MediumItalic, Poppins;font-weight:500;letter-spacing:0.004em;}.h{fill:#8cb3de;}.i{fill:#fff;}.j{filter:url(#c);}.k{filter:url(#a);}</style><filter id="a" x="0" y="17.825" width="551.177" height="631.074" filterUnits="userSpaceOnUse"><feOffset dx="-0.06" dy="2.92" input="SourceAlpha"/><feGaussianBlur stdDeviation="3.46" result="b"/><feFlood flood-color="#040505" flood-opacity="0.259"/><feComposite operator="in" in2="b"/><feComposite in="SourceGraphic"/></filter><filter id="c" x="388.802" y="0" width="181.565" height="180.886" filterUnits="userSpaceOnUse"><feOffset dy="6" input="SourceAlpha"/><feGaussianBlur stdDeviation="3" result="d"/><feFlood flood-opacity="0.2"/><feComposite operator="in" in2="d"/><feComposite in="SourceGraphic"/></filter></defs><g transform="translate(-674.198 -199.166)"><g class="k" transform="matrix(1, 0, 0, 1, 674.2, 199.17)"><rect class="a" width="530.417" height="610.314" transform="translate(10.44 25.29)"/></g><text class="b" transform="translate(947 598)"><tspan x="-150.33" y="0">Events, Tradeshows</tspan><tspan x="-85.485" y="35">&amp; Meetings</tspan></text><text class="c" transform="translate(947 669)"><tspan x="-142.231" y="0">Want your company to stand out</tspan><tspan x="-125.673" y="22">at the next event you attend?</tspan></text><line class="d" x2="416.457" transform="translate(741.932 541.776)"/><g class="j" transform="matrix(1, 0, 0, 1, 674.2, 199.17)"><path class="e" d="M1088.842,2520.862l163.565,162.886V2520.862Z" transform="translate(-691.04 -2517.86)"/></g><g transform="translate(887.67 720.849)"><path class="f" d="M1046.5,3027.376l-93.487-.091v31.122H1077.76" transform="translate(-953.015 -3027.285)"/><path class="e" d="M1028.958,3027.285l26.263,26.154v-26.154Z" transform="translate(-930.477 -3027.285)"/><text class="g" transform="translate(5.33 21.151)"><tspan x="0" y="0">Read More</tspan></text></g><g transform="translate(-32.653 -21.254)"><path class="h" d="M32,0H162.063a32,32,0,0,1,32,32V136.574a0,0,0,0,1,0,0H0a0,0,0,0,1,0,0V32A32,32,0,0,1,32,0Z" transform="translate(885.36 357.898)"/><rect class="i" width="116.855" height="12.468" transform="translate(895.793 448.757)"/><rect class="i" width="108.508" height="60.52" transform="translate(899.962 461.224)"/><rect class="i" width="45.907" height="123.414" transform="translate(1023.079 390.574)"/><rect class="i" width="54.254" height="4.156" rx="0.84" transform="translate(1018.908 386.418)"/><path class="i" d="M1569.158,2719.768l-4.284,7.948a1.644,1.644,0,0,0,1.257,2.476h8.563a1.645,1.645,0,0,0,1.259-2.476l-4.281-7.948A1.391,1.391,0,0,0,1569.158,2719.768Z" transform="translate(-646.984 -2364.552)"/><path class="i" d="M1585.108,2719.761l-4.279,7.95a1.641,1.641,0,0,0,1.255,2.474h8.566a1.639,1.639,0,0,0,1.255-2.47l-4.282-7.954A1.4,1.4,0,0,0,1585.108,2719.761Z" transform="translate(-623.289 -2364.553)"/><path class="i" d="M1601.064,2719.761l-4.282,7.954a1.639,1.639,0,0,0,1.255,2.47h8.566a1.64,1.64,0,0,0,1.258-2.47l-4.283-7.954A1.4,1.4,0,0,0,1601.064,2719.761Z" transform="translate(-599.595 -2364.553)"/><path class="i" d="M1616.2,2719.767l-3.5,7.946c-.479,1.088.094,2.47,1.028,2.47h7.009c.933,0,1.508-1.382,1.029-2.47l-3.5-7.946A1.063,1.063,0,0,0,1616.2,2719.767Z" transform="translate(-575.902 -2364.553)"/><path class="i" d="M14.542,0a14.649,14.649,0,0,1,14.6,14.611A14.5,14.5,0,0,1,14.6,29.162,14.649,14.649,0,0,1,0,14.551,14.5,14.5,0,0,1,14.542,0Z" transform="translate(933.662 406.637) rotate(-49.238)"/><rect class="i" width="41.734" height="45.715" rx="20" transform="translate(933.354 423.821)"/><path class="e" d="M1720.571,2725.375h-6.994l-.325-1.05a4.858,4.858,0,0,0-2.954-3.131,6.156,6.156,0,0,0-12.227,1v3.178h-23.714l-.326-1.05a4.873,4.873,0,0,0-2.954-3.135,6.156,6.156,0,0,0-12.227,1v3.176h-23.714l-.324-1.05a4.864,4.864,0,0,0-2.956-3.131,6.156,6.156,0,0,0-12.227,1v3.174h-23.714l-.326-1.054a4.861,4.861,0,0,0-2.955-3.125,6.156,6.156,0,0,0-12.227,1v3.174h-1.5a27.772,27.772,0,0,0-27.791,27.68v111.707a1.821,1.821,0,0,0,1.827,1.813l11.4,0v17.3a8.568,8.568,0,0,0,8.579,8.539h34.848a1.817,1.817,0,1,0,0-3.635H1572.93a4.918,4.918,0,0,1-4.925-4.9v-51.043h106.374v51.043a4.918,4.918,0,0,1-4.922,4.9h-29.068a1.817,1.817,0,1,0,0,3.635h29.071a8.566,8.566,0,0,0,8.575-8.539v-17.3h10.727v16.264h-3.815a4.788,4.788,0,1,0,0,9.577h56.483a4.788,4.788,0,1,0,0-9.577h-3.815v-16.264h8.924a1.827,1.827,0,0,0,1.828-1.818V2753.049a27.767,27.767,0,0,0-27.8-27.674Zm-9.251,6.8a1.255,1.255,0,0,1-1.017.509h-3.5a1.265,1.265,0,0,1-1.018-.509,1.251,1.251,0,0,1-.191-1.119l1.75-5.666a1.267,1.267,0,0,1,2.42,0l1.748,5.664a1.244,1.244,0,0,1-.191,1.121Zm-9.6-9.981a2.508,2.508,0,0,1,4.846-.9,4.868,4.868,0,0,0-2.718,3.032l-.324,1.052h-1.8v-3.18Zm-29.627,9.981a1.252,1.252,0,0,1-1.015.509h-3.5a1.261,1.261,0,0,1-1.016-.509,1.243,1.243,0,0,1-.191-1.121l1.751-5.664a1.265,1.265,0,0,1,2.417,0l1.749,5.664a1.252,1.252,0,0,1-.192,1.123Zm-9.6-9.981a2.509,2.509,0,0,1,4.847-.9,4.86,4.86,0,0,0-2.72,3.032l-.325,1.052h-1.8Zm-29.626,9.979a1.247,1.247,0,0,1-1.015.511h-3.5a1.256,1.256,0,0,1-1.015-.511,1.241,1.241,0,0,1-.192-1.119l1.749-5.664a1.266,1.266,0,0,1,2.418,0l1.75,5.664A1.238,1.238,0,0,1,1632.877,2732.176Zm-9.6-9.979a2.51,2.51,0,0,1,4.85-.9,4.843,4.843,0,0,0-2.719,3.032l-.326,1.05h-1.8Zm-29.624,9.979a1.258,1.258,0,0,1-1.017.511h-3.5a1.256,1.256,0,0,1-1.015-.511,1.241,1.241,0,0,1-.192-1.119l1.75-5.664a1.268,1.268,0,0,1,2.418,0l1.75,5.664a1.25,1.25,0,0,1-.191,1.119Zm-9.6-9.979a2.51,2.51,0,0,1,4.849-.9,4.855,4.855,0,0,0-2.719,3.032l-.326,1.052h-1.8Zm-17.883,107h-1.3a1.512,1.512,0,0,1-1.513-1.506v-7.9a1.512,1.512,0,0,1,1.513-1.51l112.632,0a1.517,1.517,0,0,1,1.516,1.51v7.894a1.514,1.514,0,0,1-1.516,1.506H1566.178Zm37.641-14.592v-3.29a17.372,17.372,0,0,1,34.744,0v3.29Zm133.462-56.527h-48.189a.936.936,0,0,1-.94-.93v-.432a.942.942,0,0,1,.94-.936h48.185a.938.938,0,0,1,.939.936v.432a.929.929,0,0,1-.935.93Zm5.3,129.553a1.155,1.155,0,0,1-1.156,1.155h-56.48a1.153,1.153,0,1,1,0-2.306h56.48A1.157,1.157,0,0,1,1742.584,2887.627Zm-50.172-4.789V2761.714h41.549v121.126h-41.549Zm52.3-19.9h-7.1V2761.681a4.575,4.575,0,0,0,4.258-4.537v-.432a4.59,4.59,0,0,0-4.592-4.576h-48.189a4.59,4.59,0,0,0-4.593,4.576v.432a4.575,4.575,0,0,0,4.257,4.537v101.252h-10.725l0-30.156a5.14,5.14,0,0,0,4.646-5.09v-7.894a5.161,5.161,0,0,0-5.167-5.146h-35.29v-3.335a21.025,21.025,0,0,0-42.049,0v3.335h-35.293a5.162,5.162,0,0,0-5.167,5.145v7.9a5.141,5.141,0,0,0,4.643,5.09v30.156h-9.577V2753.049a24.114,24.114,0,0,1,24.138-24.036h5.831l-.3.973a4.9,4.9,0,0,0,4.7,6.339h3.5a4.9,4.9,0,0,0,4.7-6.333l-.3-.979h26.923l-.3.979a4.9,4.9,0,0,0,4.7,6.335h3.5a4.9,4.9,0,0,0,4.7-6.335l-.3-.979,26.922,0-.3.975a4.9,4.9,0,0,0,4.7,6.335h3.5a4.9,4.9,0,0,0,4.7-6.341l-.3-.973H1702.4l-.3.973a4.9,4.9,0,0,0,4.7,6.341h3.5a4.9,4.9,0,0,0,4.7-6.341l-.3-.973h5.872a24.117,24.117,0,0,1,24.144,24.036Z" transform="translate(-667.096 -2368.854)"/><path class="e" d="M1589.039,2732.5a16.2,16.2,0,1,0,16.266,16.2,16.25,16.25,0,0,0-16.266-16.2Zm0,28.756a12.563,12.563,0,1,1,12.613-12.562,12.6,12.6,0,0,1-12.613,12.562Z" transform="translate(-634.942 -2344.602)"/><path class="e" d="M1591,2785.849h-11.7a1.818,1.818,0,1,0,0,3.636H1591a1.818,1.818,0,1,0,0-3.636Z" transform="translate(-627.962 -2265.923)"/><path class="e" d="M1635.9,2744.451h-23.025a1.817,1.817,0,1,1,0-3.635H1635.9a1.817,1.817,0,1,1,0,3.635Z" transform="translate(-578.091 -2332.337)"/><path class="e" d="M1635.9,2747.58h-23.025a1.82,1.82,0,1,1,0-3.64H1635.9a1.82,1.82,0,1,1,0,3.64Z" transform="translate(-578.091 -2327.732)"/><path class="e" d="M1635.9,2750.7h-23.025a1.82,1.82,0,1,1,0-3.64H1635.9a1.82,1.82,0,1,1,0,3.64Z" transform="translate(-578.091 -2323.125)"/><path class="e" d="M1630.142,2751.388H1614.6a2.2,2.2,0,0,0-2.2,2.194v20.167a2.189,2.189,0,0,0,2.2,2.19h15.538a2.189,2.189,0,0,0,2.2-2.182v-20.175a2.2,2.2,0,0,0-2.2-2.194Z" transform="translate(-576.078 -2316.745)"/></g></g></svg>