<svg xmlns="http://www.w3.org/2000/svg" xmlns:xlink="http://www.w3.org/1999/xlink" width="570.367" height="648.899" viewBox="0 0 570.367 648.899"><defs><style>.a{fill:#dbdbdb;}.b{fill:#00386d;font-size:30px;font-family:Poppins-SemiBold, Poppins;font-weight:600;}.c{fill:#040505;font-family:Poppins-LightItalic, Poppins;font-weight:300;letter-spacing:0.006em;}.c,.g{font-size:17px;font-style:italic;}.d,.f{fill:none;stroke-miterlimit:10;}.d{stroke:#00386d;stroke-width:4.15px;}.e,.g{fill:#e1001e;}.f{stroke:#e1001e;stroke-width:1.56px;}.g{font-family:Poppins-MediumItalic, Poppins;font-weight:500;letter-spacing:0.004em;}.h{fill:#8cb3de;}.i{fill:#fff;}.j{filter:url(#c);}.k{filter:url(#a);}</style><filter id="a" x="0" y="17.825" width="551.177" height="631.074" filterUnits="userSpaceOnUse"><feOffset dx="-0.06" dy="2.92" input="SourceAlpha"/><feGaussianBlur stdDeviation="3.46" result="b"/><feFlood flood-color="#040505" flood-opacity="0.259"/><feComposite operator="in" in2="b"/><feComposite in="SourceGraphic"/></filter><filter id="c" x="388.802" y="0" width="181.565" height="180.886" filterUnits="userSpaceOnUse"><feOffset dy="6" input="SourceAlpha"/><feGaussianBlur stdDeviation="3" result="d"/><feFlood flood-opacity="0.2"/><feComposite operator="in" in2="d"/><feComposite in="SourceGraphic"/></filter></defs><g transform="translate(-707.198 -221.166)"><g class="k" transform="matrix(1, 0, 0, 1, 707.2, 221.17)"><rect class="a" width="530.417" height="610.314" transform="translate(10.44 25.29)"/></g><text class="b" transform="translate(980 635)"><tspan x="-117.045" y="0">Graphic Design</tspan></text><text class="c" transform="translate(980 667)"><tspan x="-96.246" y="0">Need a new design for</tspan><tspan x="-105.119" y="22">a promotion or product?</tspan></text><line class="d" x2="416.457" transform="translate(774.932 563.776)"/><g class="j" transform="matrix(1, 0, 0, 1, 707.2, 221.17)"><path class="e" d="M1088.842,2520.862l163.565,162.886V2520.862Z" transform="translate(-691.04 -2517.86)"/></g><g transform="translate(917.67 723.849)"><path class="f" d="M1046.5,3027.376l-93.487-.091v31.122H1077.76" transform="translate(-953.015 -3027.285)"/><path class="e" d="M1028.958,3027.285l26.263,26.154v-26.154Z" transform="translate(-930.477 -3027.285)"/><text class="g" transform="translate(5.33 21.151)"><tspan x="0" y="0">Read More</tspan></text></g><g transform="translate(901.647 356.976)"><rect class="h" width="12.989" height="12.934" transform="translate(2.574 34.935)"/><rect class="i" width="12.989" height="12.934" transform="translate(40.954 87.651)"/><rect class="i" width="12.989" height="12.934" transform="translate(129.625 87.651)"/><rect class="i" width="12.989" height="12.934" transform="translate(85.289 34.935)"/><rect class="h" width="12.989" height="12.934" transform="translate(85.289 2.647)"/><rect class="h" width="12.989" height="12.934" transform="translate(168.005 34.935)"/><g transform="translate(68.085 135.096)"><rect class="i" width="48.306" height="9.225"/><rect class="i" width="48.306" height="9.225"/></g><path class="h" d="M711.319,2700.8l-26.777,34.079,8.825,23.575h36.905l7.22-23.575Z" transform="translate(-619.575 -2625.834)"/><rect class="i" width="12.989" height="12.934" rx="5.222" transform="translate(85.289 99.513)"/><rect class="i" width="33.086" height="32.948" transform="translate(75.364 145.639)"/><path class="e" d="M740.939,2734.583,714.3,2696.272a2.967,2.967,0,0,0-4.117-.751,3.019,3.019,0,0,0-.75.751L682.8,2734.583a2.929,2.929,0,0,0-.373,2.6l7.581,22.647h-1.814a2.951,2.951,0,0,0-2.959,2.946v8.843a2.949,2.949,0,0,0,2.959,2.946h2.96v32.421a2.954,2.954,0,0,0,2.96,2.947h35.513a2.954,2.954,0,0,0,2.96-2.947v-32.421h2.959a2.95,2.95,0,0,0,2.959-2.946v-8.843a2.952,2.952,0,0,0-2.959-2.946h-1.813l7.58-22.647A2.925,2.925,0,0,0,740.939,2734.583Zm-29.069-4.22a2.948,2.948,0,1,1-2.959,2.948A2.954,2.954,0,0,1,711.87,2730.363Zm14.8,73.679H697.074v-29.474h29.593Zm5.92-35.367H691.154v-2.947h41.433Zm-5.1-8.841H696.248l-7.739-23.107,20.4-29.347v17.09a3.025,3.025,0,0,0,.044.494,8.892,8.892,0,1,0,5.829,0,2.935,2.935,0,0,0,.045-.494v-17.09l20.4,29.347Z" transform="translate(-620.127 -2627.214)"/><path class="e" d="M812.828,2672.683H800.991a2.953,2.953,0,0,0-2.96,2.948v2.972c-.123-.012-.246-.024-.37-.024H732.923v-2.948a2.953,2.953,0,0,0-2.959-2.948H727V2657.95h2.961a2.955,2.955,0,0,0,2.959-2.948v-11.788a2.956,2.956,0,0,0-2.959-2.949H718.125a2.956,2.956,0,0,0-2.959,2.949V2655a2.955,2.955,0,0,0,2.959,2.948h2.96v14.732h-2.96a2.953,2.953,0,0,0-2.959,2.948v2.948H650.059v-2.948a2.954,2.954,0,0,0-2.96-2.948H635.261a2.954,2.954,0,0,0-2.96,2.948v11.788a2.952,2.952,0,0,0,2.96,2.946H647.1a2.952,2.952,0,0,0,2.96-2.946v-2.948h48.926a46.228,46.228,0,0,0-10.354,9.341c-7.588,9.161-11.938,20.794-11.938,31.92h-2.959a2.951,2.951,0,0,0-2.959,2.948v11.789a2.953,2.953,0,0,0,2.959,2.946h11.838a2.953,2.953,0,0,0,2.959-2.946v-11.789a2.951,2.951,0,0,0-2.959-2.948h-2.959c0-21.852,16.883-39.09,32.553-41.068v2.756a2.952,2.952,0,0,0,2.959,2.946h11.839a2.952,2.952,0,0,0,2.959-2.946v-2.765c8.013.948,15.7,5.728,21.912,13.705a51.611,51.611,0,0,1,10.539,27.373h-2.857a2.952,2.952,0,0,0-2.959,2.948v11.789a2.954,2.954,0,0,0,2.959,2.946h11.838a2.955,2.955,0,0,0,2.96-2.946v-11.789a2.952,2.952,0,0,0-2.96-2.948H771.3a56.765,56.765,0,0,0-11.789-30.988,46.677,46.677,0,0,0-10.877-10.273h49.024a3.291,3.291,0,0,0,.37-.025v2.974a2.951,2.951,0,0,0,2.96,2.946h11.837a2.952,2.952,0,0,0,2.96-2.946V2675.63A2.954,2.954,0,0,0,812.828,2672.683ZM644.139,2684.47h-5.918v-5.892h5.918Zm38.474,53.051h-5.92v-5.9h5.92Zm38.472-91.361H727v5.9h-5.918ZM727,2684.47h-5.918v-5.892H727Zm38.474,47.155H771.4v5.9h-5.918Zm44.391-47.155H803.95v-5.892h5.919Z" transform="translate(-632.301 -2640.265)"/></g></g></svg>