<svg xmlns="http://www.w3.org/2000/svg" xmlns:xlink="http://www.w3.org/1999/xlink" width="570.367" height="648.899" viewBox="0 0 570.367 648.899"><defs><style>.a{fill:#dbdbdb;}.b{fill:#00386d;font-size:30px;font-family:Poppins-SemiBold, Poppins;font-weight:600;}.c{fill:#040505;font-family:Poppins-LightItalic, Poppins;font-weight:300;letter-spacing:0.006em;}.c,.g{font-size:17px;font-style:italic;}.d,.f{fill:none;stroke-miterlimit:10;}.d{stroke:#00386d;stroke-width:4.15px;}.e,.g{fill:#e1001e;}.f{stroke:#e1001e;stroke-width:1.56px;}.g{font-family:Poppins-MediumItalic, Poppins;font-weight:500;letter-spacing:0.004em;}.h{fill:#8cb3de;}.i{filter:url(#c);}.j{filter:url(#a);}</style><filter id="a" x="0" y="17.825" width="551.177" height="631.074" filterUnits="userSpaceOnUse"><feOffset dx="-0.06" dy="2.92" input="SourceAlpha"/><feGaussianBlur stdDeviation="3.46" result="b"/><feFlood flood-color="#040505" flood-opacity="0.259"/><feComposite operator="in" in2="b"/><feComposite in="SourceGraphic"/></filter><filter id="c" x="388.802" y="0" width="181.565" height="180.886" filterUnits="userSpaceOnUse"><feOffset dy="6" input="SourceAlpha"/><feGaussianBlur stdDeviation="3" result="d"/><feFlood flood-opacity="0.2"/><feComposite operator="in" in2="d"/><feComposite in="SourceGraphic"/></filter></defs><g transform="translate(-674.198 -234.166)"><g transform="translate(-33 13)"><g class="j" transform="matrix(1, 0, 0, 1, 707.2, 221.17)"><rect class="a" width="530.417" height="610.314" transform="translate(10.44 25.29)"/></g><text class="b" transform="translate(980 635)"><tspan x="-102.915" y="0">Warehouse &amp;</tspan><tspan x="-80.43" y="35">Fulfillment</tspan></text><text class="c" transform="translate(980 706)"><tspan x="-79.671" y="0">Need extra space?</tspan><tspan x="-84.396" y="22">Have a large order?</tspan></text><line class="d" x2="416.457" transform="translate(774.932 563.776)"/><g class="i" transform="matrix(1, 0, 0, 1, 707.2, 221.17)"><path class="e" d="M1088.842,2520.862l163.565,162.886V2520.862Z" transform="translate(-691.04 -2517.86)"/></g><g transform="translate(917.67 757.849)"><path class="f" d="M1046.5,3027.376l-93.487-.091v31.122H1077.76" transform="translate(-953.015 -3027.285)"/><path class="e" d="M1028.958,3027.285l26.263,26.154v-26.154Z" transform="translate(-930.477 -3027.285)"/><text class="g" transform="translate(5.33 21.151)"><tspan x="0" y="0">Read More</tspan></text></g></g><g transform="translate(878.679 381.367)"><path class="h" d="M292.991,2755.675l22.316-11.109,74.918,39.684v30.159l-19.128,9.524v-31.75Z" transform="translate(-258.489 -2729.465)"/><path class="e" d="M441.981,2777.493l-78.363-37.674a2.529,2.529,0,0,0-2.2,0l-78.366,37.674a2.511,2.511,0,0,0-1.429,2.268l0,91.484a2.514,2.514,0,0,0,1.43,2.27l78.366,37.672a2.544,2.544,0,0,0,2.2,0l78.366-37.672a2.514,2.514,0,0,0,1.43-2.27v-91.484A2.511,2.511,0,0,0,441.981,2777.493Zm-79.461-32.612,72.548,34.88-21.03,10.106a2.784,2.784,0,0,0-.428-.268l-72.056-34.64Zm-26.677,12.927,72.445,34.825-14.838,7.132-72.415-34.81Zm74.138,39.6v26.371l-13.858,6.66v-26.365Zm28.374,72.262-73.31,35.24v-85.894l17.488-8.415a2.5,2.5,0,0,0,1.178-3.354,2.534,2.534,0,0,0-3.375-1.178l-17.818,8.568-7.007-3.373a2.539,2.539,0,0,0-3.378,1.176,2.512,2.512,0,0,0,1.177,3.361l6.68,3.216v85.894l-73.307-35.24v-85.9l55.823,26.837a2.542,2.542,0,0,0,3.378-1.167,2.524,2.524,0,0,0-1.177-3.371l-54.736-26.308,25.117-12.074,75.944,36.506.036.047v30.212a2.524,2.524,0,0,0,2.528,2.515,2.561,2.561,0,0,0,1.1-.247l18.914-9.093a2.522,2.522,0,0,0,1.429-2.266v-30.384l23.317-11.208v85.9Z" transform="translate(-281.623 -2739.568)"/></g></g></svg>