<svg xmlns="http://www.w3.org/2000/svg" xmlns:xlink="http://www.w3.org/1999/xlink" width="1528.805" height="819.196" viewBox="0 0 1528.805 819.196"><defs><style>.a,.i,.p{fill:#b4b4b4;}.aa,.ai,.b,.j,.q,.w{fill:#040505;font-family:Poppins-LightItalic, Poppins;font-weight:300;letter-spacing:0.006em;}.b{font-size:8.48px;}.aa,.ae,.ai,.al,.b,.h,.j,.o,.q,.u,.w,.z{font-style:italic;}.ab,.ad,.aj,.ak,.c,.g,.k,.n,.r,.t,.y{fill:none;}.ab,.aj,.c,.k,.r,.y{stroke:#00386d;}.ab,.ad,.aj,.ak,.c,.g,.k,.n,.r,.t,.x,.y{stroke-miterlimit:10;}.c{stroke-width:0.893px;}.d,.x{fill:#8cb3de;}.ae,.al,.e,.h,.o,.u,.z{fill:#e1001e;}.ac,.ah,.f,.m,.s,.v{fill:#00386d;font-family:Poppins-SemiBold, Poppins;font-weight:600;}.f{font-size:13.835px;}.ad,.ak,.g,.n,.t,.x{stroke:#e1001e;}.g{stroke-width:0.715px;}.h{font-size:5.628px;}.ae,.al,.h,.o,.u,.z{font-family:Poppins-MediumItalic, Poppins;font-weight:500;letter-spacing:0.004em;}.i{opacity:0.72;}.j{font-size:10.189px;}.k{stroke-width:1.136px;}.l{fill:#fff;}.m{font-size:16.624px;}.n{stroke-width:0.859px;}.o{font-size:6.763px;}.p{opacity:0.8;}.q{font-size:10px;}.r{stroke-width:1.535px;}.s{font-size:16px;}.t{stroke-width:1.22px;}.u{font-size:6.54px;}.v{font-size:23.611px;}.w{font-size:14.471px;}.x{stroke-width:1.53px;}.y{stroke-width:1.523px;}.z{font-size:9.605px;}.aa{font-size:14px;}.ab{stroke-width:1.255px;}.ac{font-size:23px;}.ad{stroke-width:0.901px;}.ae{font-size:9px;}.af{fill:#262626;opacity:0.24;}.ag{fill:#dbdbdb;}.ah{font-size:29.227px;}.ai{font-size:17.913px;}.aj{stroke-width:2.147px;}.ak{stroke-width:1.55px;}.al{font-size:12.207px;}.am{filter:url(#i);}.an{filter:url(#g);}.ao{filter:url(#e);}.ap{filter:url(#c);}.aq{filter:url(#a);}</style><filter id="a" x="0" y="281.362" width="224.465" height="255.728" filterUnits="userSpaceOnUse"><feOffset dx="-4" dy="4" input="SourceAlpha"/><feGaussianBlur stdDeviation="3" result="b"/><feFlood flood-color="#030504" flood-opacity="0.22"/><feComposite operator="in" in2="b"/><feComposite in="SourceGraphic"/></filter><filter id="c" x="1262.716" y="248.422" width="266.089" height="303.653" filterUnits="userSpaceOnUse"><feOffset dx="7" dy="4" input="SourceAlpha"/><feGaussianBlur stdDeviation="3" result="d"/><feFlood flood-color="#030504" flood-opacity="0.22"/><feComposite operator="in" in2="d"/><feComposite in="SourceGraphic"/></filter><filter id="e" x="146.322" y="251.864" width="274.145" height="312.929" filterUnits="userSpaceOnUse"><feOffset dx="-4" dy="4" input="SourceAlpha"/><feGaussianBlur stdDeviation="3" result="f"/><feFlood flood-color="#030504" flood-opacity="0.22"/><feComposite operator="in" in2="f"/><feComposite in="SourceGraphic"/></filter><filter id="g" x="962.725" y="197.125" width="370.357" height="423.709" filterUnits="userSpaceOnUse"><feOffset dx="7" dy="4" input="SourceAlpha"/><feGaussianBlur stdDeviation="3" result="h"/><feFlood flood-color="#030504" flood-opacity="0.22"/><feComposite operator="in" in2="h"/><feComposite in="SourceGraphic"/></filter><filter id="i" x="320.414" y="196.641" width="373.382" height="427.193" filterUnits="userSpaceOnUse"><feOffset dx="-4" dy="4" input="SourceAlpha"/><feGaussianBlur stdDeviation="3" result="j"/><feFlood flood-color="#030504" flood-opacity="0.22"/><feComposite operator="in" in2="j"/><feComposite in="SourceGraphic"/></filter></defs><g transform="translate(-202.045 -2411.638)"><g transform="translate(10)"><g class="aq" transform="matrix(1, 0, 0, 1, 192.04, 2411.64)"><rect class="a" width="206.465" height="237.728" transform="translate(13 286.36)"/></g><text class="b" transform="translate(308.16 2873.827)"><tspan x="-39.739" y="0">Need extra space?</tspan><tspan x="-42.097" y="12.942">Have a large order?</tspan></text><line class="c" x2="121.847" transform="translate(247.354 2813.729)"/><path class="d" d="M292.991,2748.241l7.353-3.676,24.685,13.13v9.979l-6.3,3.151v-10.5Z"/><path class="e" d="M334.46,2752.116l-25.82-12.465a.83.83,0,0,0-.724,0L282.1,2752.116a.832.832,0,0,0-.471.75v30.272a.831.831,0,0,0,.471.75l25.821,12.466a.84.84,0,0,0,.724,0l25.821-12.465a.834.834,0,0,0,.471-.751v-30.272A.832.832,0,0,0,334.46,2752.116Zm-26.182-10.79,23.9,11.54-6.929,3.345a.926.926,0,0,0-.141-.089l-23.742-11.461Zm-8.79,4.277,23.87,11.523-4.889,2.36-23.86-11.518Zm24.428,13.1v8.725l-4.566,2.2v-8.724Zm9.349,23.91-24.155,11.66v-28.422l5.762-2.782a.833.833,0,1,0-.724-1.5l-5.871,2.834-2.309-1.115a.833.833,0,1,0-.725,1.5l2.2,1.063v28.422l-24.154-11.661v-28.422l18.393,8.88a.833.833,0,1,0,.725-1.5l-18.035-8.706,8.276-3.995,25.023,12.08.012.015v10a.834.834,0,0,0,1.2.751l6.232-3.009a.834.834,0,0,0,.471-.75V2757.9l7.683-3.709v28.423Z"/><text class="f" transform="translate(308.185 2837.097)"><tspan x="-40.433" y="0">Warehouse</tspan><tspan x="-44.12" y="17.405">&amp; Fulfillment</tspan></text><g transform="translate(286.13 2911.007)"><path class="g" d="M319.369,2911.039l-33.238-.033v11.112h44.351" transform="translate(-286.13 -2911.007)"/><path class="e" d="M321.144,2911.007l9.338,9.338v-9.338Z" transform="translate(-286.13 -2911.007)"/><text class="h" transform="translate(2.152 7.629)"><tspan x="0" y="0">Read More</tspan></text></g><rect class="i" width="206.465" height="237.728" transform="translate(205.045 2698)"/><path class="e" d="M350.195,2692.548l67.9,67.907v-67.907Z"/></g><g class="ap" transform="matrix(1, 0, 0, 1, 202.04, 2411.64)"><rect class="a" width="248.089" height="285.653" transform="translate(1264.72 253.42)"/></g><text class="j" transform="translate(1590.772 2878.391)"><tspan x="-75.312" y="0">Want your company to stand</tspan><tspan x="-85.257" y="15.552">out at the next event you attend?</tspan></text><line class="k" x2="164.295" transform="translate(1508.658 2811.091)"/><path class="d" d="M9.816,0H67.584a10.5,10.5,0,0,1,10.5,10.5V55.187a0,0,0,0,1,0,0H0a0,0,0,0,1,0,0V9.816A9.816,9.816,0,0,1,9.816,0Z" transform="translate(1551.658 2720.376)"/><rect class="l" width="47.021" height="5.038" transform="translate(1555.856 2757.091)"/><rect class="l" width="43.662" height="24.455" transform="translate(1557.534 2762.128)"/><rect class="l" width="18.472" height="49.869" transform="translate(1607.075 2733.58)"/><rect class="l" width="21.831" height="1.679" rx="0.84" transform="translate(1605.396 2731.901)"/><path class="l" d="M1566.472,2719.293l-1.724,3.212a.664.664,0,0,0,.506,1h3.446a.664.664,0,0,0,.506-1l-1.723-3.212A.559.559,0,0,0,1566.472,2719.293Z"/><path class="l" d="M1582.425,2719.293l-1.723,3.212a.663.663,0,0,0,.506,1h3.446a.663.663,0,0,0,.505-1l-1.723-3.213A.56.56,0,0,0,1582.425,2719.293Z"/><path class="l" d="M1598.379,2719.293l-1.723,3.213a.663.663,0,0,0,.505,1h3.446a.663.663,0,0,0,.506-1l-1.723-3.213A.56.56,0,0,0,1598.379,2719.293Z"/><path class="l" d="M1614,2719.294l-1.41,3.212c-.193.439.038,1,.413,1h2.821c.375,0,.607-.559.414-1l-1.41-3.212A.428.428,0,0,0,1614,2719.294Z"/><circle class="l" cx="5.878" cy="5.878" r="5.878" transform="translate(1571.077 2740.072) rotate(-49.238)"/><rect class="l" width="16.793" height="18.472" rx="8.397" transform="translate(1570.97 2747.015)"/><path class="e" d="M1619.306,2719.82h-2.814l-.131-.425a1.963,1.963,0,0,0-1.189-1.264,2.476,2.476,0,0,0-4.92.4v1.284h-9.542l-.131-.425a1.965,1.965,0,0,0-1.189-1.265,2.476,2.476,0,0,0-4.92.405v1.284h-9.542l-.131-.425a1.967,1.967,0,0,0-1.189-1.265,2.476,2.476,0,0,0-4.92.406v1.283h-9.542l-.131-.425a1.966,1.966,0,0,0-1.189-1.264,2.476,2.476,0,0,0-4.92.406v1.283h-.6A11.2,11.2,0,0,0,1551.121,2731v45.137a.735.735,0,0,0,.735.734h4.589v6.993a3.455,3.455,0,0,0,3.451,3.45h14.023a.735.735,0,0,0,0-1.47H1559.9a1.982,1.982,0,0,1-1.981-1.98v-20.627h42.8v20.627a1.982,1.982,0,0,1-1.98,1.98h-11.7a.735.735,0,0,0,0,1.47h11.7a3.454,3.454,0,0,0,3.45-3.45v-6.993h4.317v6.573h-1.535a1.935,1.935,0,0,0,0,3.87H1627.7a1.935,1.935,0,0,0,0-3.87h-1.535v-6.573h3.591a.736.736,0,0,0,.735-.735V2731a11.2,11.2,0,0,0-11.184-11.183Zm-3.723,2.749a.5.5,0,0,1-.409.206h-1.409a.508.508,0,0,1-.486-.658l.7-2.29a.509.509,0,0,1,.973,0l.7,2.289a.507.507,0,0,1-.077.453Zm-3.861-4.033a1.009,1.009,0,0,1,1.95-.365,1.965,1.965,0,0,0-1.093,1.224l-.131.426h-.725v-1.285Zm-11.921,4.033a.5.5,0,0,1-.409.206h-1.409a.508.508,0,0,1-.486-.659l.7-2.289a.509.509,0,0,1,.973,0l.7,2.289a.509.509,0,0,1-.077.454Zm-3.861-4.033a1.009,1.009,0,0,1,1.95-.365,1.964,1.964,0,0,0-1.094,1.224l-.131.426h-.725Zm-11.921,4.032a.5.5,0,0,1-.409.207H1582.2a.509.509,0,0,1-.486-.659l.7-2.289a.509.509,0,0,1,.973,0l.7,2.289A.5.5,0,0,1,1584.019,2722.568Zm-3.861-4.032a1.01,1.01,0,0,1,1.951-.365,1.959,1.959,0,0,0-1.094,1.224l-.131.425h-.726Zm-11.921,4.032a.505.505,0,0,1-.409.207h-1.409a.509.509,0,0,1-.486-.659l.7-2.289a.51.51,0,0,1,.973,0l.7,2.289a.5.5,0,0,1-.077.452Zm-3.861-4.032a1.01,1.01,0,0,1,1.951-.365,1.959,1.959,0,0,0-1.094,1.224l-.131.426h-.726Zm-7.2,43.235h-.524a.61.61,0,0,1-.61-.61v-3.19a.61.61,0,0,1,.61-.61h45.321a.61.61,0,0,1,.61.61v3.189a.611.611,0,0,1-.61.61h-44.8Zm15.146-5.9v-1.33a6.99,6.99,0,0,1,13.981,0v1.33Zm53.7-22.84h-19.39a.378.378,0,0,1-.378-.377v-.175a.378.378,0,0,1,.378-.377h19.389a.377.377,0,0,1,.378.377v.175a.377.377,0,0,1-.377.377Zm2.134,52.349a.466.466,0,0,1-.465.466h-22.727a.466.466,0,1,1,0-.931H1627.7A.465.465,0,0,1,1628.163,2785.383Zm-20.188-1.935V2734.5h16.719v48.945h-16.719Zm21.045-8.042h-2.856V2734.49a1.845,1.845,0,0,0,1.713-1.834v-.174a1.85,1.85,0,0,0-1.848-1.848h-19.39a1.85,1.85,0,0,0-1.848,1.848v.174a1.844,1.844,0,0,0,1.713,1.834v40.915h-4.316v-12.186a2.075,2.075,0,0,0,1.869-2.058v-3.189a2.081,2.081,0,0,0-2.079-2.08h-14.2v-1.347a8.46,8.46,0,0,0-16.92,0v1.347h-14.2a2.083,2.083,0,0,0-2.08,2.079v3.19a2.075,2.075,0,0,0,1.869,2.058v12.186h-3.854V2731a9.724,9.724,0,0,1,9.713-9.713h2.346l-.122.394a1.978,1.978,0,0,0,1.891,2.561h1.409a1.978,1.978,0,0,0,1.891-2.56l-.121-.4h10.833l-.121.4a1.978,1.978,0,0,0,1.891,2.561h1.409a1.978,1.978,0,0,0,1.891-2.561l-.121-.4h10.833l-.122.394a1.98,1.98,0,0,0,1.892,2.561h1.409a1.979,1.979,0,0,0,1.891-2.562l-.121-.394h10.833l-.121.394a1.979,1.979,0,0,0,1.891,2.562h1.409a1.979,1.979,0,0,0,1.891-2.562l-.122-.394h2.363a9.725,9.725,0,0,1,9.714,9.713Z"/><path class="e" d="M1579.317,2732.5a6.546,6.546,0,1,0,6.545,6.546,6.554,6.554,0,0,0-6.545-6.546Zm0,11.621a5.076,5.076,0,1,1,5.075-5.076,5.081,5.081,0,0,1-5.075,5.076Z"/><path class="e" d="M1582.915,2785.848h-4.709a.735.735,0,0,0,0,1.47h4.709a.735.735,0,0,0,0-1.47Z"/><path class="e" d="M1621.049,2742.284h-9.265a.734.734,0,1,1,0-1.469h9.265a.734.734,0,1,1,0,1.469Z"/><path class="e" d="M1621.049,2745.408h-9.265a.735.735,0,1,1,0-1.47h9.265a.735.735,0,1,1,0,1.47Z"/><path class="e" d="M1621.049,2748.531h-9.265a.735.735,0,1,1,0-1.47h9.265a.735.735,0,1,1,0,1.47Z"/><path class="e" d="M1619.543,2751.387h-6.253a.885.885,0,0,0-.885.885v8.15a.885.885,0,0,0,.885.885h6.253a.884.884,0,0,0,.885-.884v-8.151a.885.885,0,0,0-.885-.885Z"/><text class="m" transform="translate(1590.804 2835.709)"><tspan x="-83.304" y="0">Events, Tradeshows</tspan><tspan x="-47.371" y="20.914">&amp; Meetings</tspan></text><g transform="translate(1564.585 2918.862)"><path class="n" d="M1604.524,2918.9l-39.939-.039v13.353h53.293" transform="translate(-1564.585 -2918.862)"/><path class="e" d="M1606.657,2918.862l11.22,11.221v-11.221Z" transform="translate(-1564.585 -2918.862)"/><text class="o" transform="translate(3.488 9.107)"><tspan x="0" y="0">Read More</tspan></text></g><rect class="p" width="248.089" height="285.653" transform="translate(1467.465 2665.061)"/><path class="e" d="M1641.361,2657.877l81.594,81.6v-81.6Z"/><g transform="translate(-167.024 58.592)"><g class="ao" transform="matrix(1, 0, 0, 1, 369.07, 2353.05)"><rect class="a" width="256.145" height="294.929" transform="translate(159.32 256.86)"/></g><text class="q" transform="translate(653.483 2817.629)"><tspan x="-56.615" y="0">Need a new design for</tspan><tspan x="-61.835" y="15">a promotion or product?</tspan></text><line class="r" x2="151.166" transform="translate(580.88 2753.486)"/><text class="s" transform="translate(651.351 2788.09)"><tspan x="-62.424" y="0">Graphic Design</tspan></text><g transform="translate(603.345 2629.462)"><rect class="d" width="7.534" height="7.534" transform="translate(1.493 20.349)"/><rect class="l" width="7.534" height="7.534" transform="translate(23.755 51.055)"/><rect class="l" width="7.534" height="7.534" transform="translate(75.188 51.055)"/><rect class="l" width="7.534" height="7.534" transform="translate(49.472 20.349)"/><rect class="d" width="7.534" height="7.534" transform="translate(49.472 1.542)"/><rect class="d" width="7.534" height="7.534" transform="translate(97.45 20.349)"/><g transform="translate(39.492 78.691)"><rect class="l" width="28.019" height="5.374"/><rect class="l" width="28.019" height="5.374"/></g><path class="d" d="M700.073,2700.8l-15.532,19.85,5.119,13.733h21.406l4.188-13.733Z" transform="translate(-646.858 -2657.132)"/><rect class="l" width="7.534" height="7.534" rx="3.767" transform="translate(49.472 57.964)"/><rect class="l" width="19.191" height="19.191" transform="translate(43.714 84.832)"/><g transform="translate(0)"><path class="e" d="M716.3,2718.054l-15.449-22.315a1.716,1.716,0,0,0-2.824,0l-15.45,22.315a1.715,1.715,0,0,0-.216,1.519l4.4,13.19h-1.052a1.716,1.716,0,0,0-1.716,1.716v5.15a1.716,1.716,0,0,0,1.716,1.716h1.717v18.883a1.717,1.717,0,0,0,1.717,1.716h20.6a1.717,1.717,0,0,0,1.717-1.716v-18.883h1.716a1.716,1.716,0,0,0,1.717-1.716v-5.15a1.716,1.716,0,0,0-1.717-1.716h-1.051l4.4-13.19A1.713,1.713,0,0,0,716.3,2718.054Zm-16.861-2.457a1.717,1.717,0,1,1-1.716,1.717A1.717,1.717,0,0,1,699.442,2715.6Zm8.583,42.916H690.859v-17.167h17.166Zm3.434-20.6H687.426V2736.2h24.033Zm-2.955-5.15H690.38l-4.489-13.46,11.834-17.094v9.955a1.817,1.817,0,0,0,.025.287,5.15,5.15,0,1,0,3.382,0,1.741,1.741,0,0,0,.026-.287v-9.955l11.834,17.094Z" transform="translate(-646.227 -2655.516)"/><path class="e" d="M737.014,2659.146h-6.866a1.717,1.717,0,0,0-1.717,1.717v1.732a1.807,1.807,0,0,0-.214-.015H690.666v-1.717a1.717,1.717,0,0,0-1.717-1.717h-1.717v-8.583h1.717a1.717,1.717,0,0,0,1.717-1.717v-6.866a1.717,1.717,0,0,0-1.717-1.717h-6.866a1.717,1.717,0,0,0-1.717,1.717v6.866a1.717,1.717,0,0,0,1.717,1.717H683.8v8.583h-1.717a1.717,1.717,0,0,0-1.717,1.717v1.717H642.6v-1.717a1.717,1.717,0,0,0-1.717-1.717h-6.866a1.717,1.717,0,0,0-1.717,1.717v6.866a1.717,1.717,0,0,0,1.717,1.717h6.866a1.717,1.717,0,0,0,1.717-1.717v-1.717h28.38a26.859,26.859,0,0,0-6.006,5.44,29.849,29.849,0,0,0-6.925,18.594h-1.716a1.716,1.716,0,0,0-1.717,1.717v6.866a1.716,1.716,0,0,0,1.717,1.716H663.2a1.716,1.716,0,0,0,1.716-1.716v-6.866a1.716,1.716,0,0,0-1.716-1.717h-1.717c0-12.729,9.793-22.769,18.883-23.921v1.6a1.717,1.717,0,0,0,1.717,1.717h6.866a1.717,1.717,0,0,0,1.717-1.717v-1.611c4.648.552,9.108,3.337,12.709,7.982a30.14,30.14,0,0,1,6.113,15.945h-1.657a1.716,1.716,0,0,0-1.717,1.717v6.866a1.717,1.717,0,0,0,1.717,1.716H714.7a1.717,1.717,0,0,0,1.717-1.716v-6.866a1.716,1.716,0,0,0-1.717-1.717h-1.77A33.15,33.15,0,0,0,706.09,2672a27.139,27.139,0,0,0-6.309-5.983h28.436a1.807,1.807,0,0,0,.214-.015v1.732a1.717,1.717,0,0,0,1.717,1.717h6.866a1.717,1.717,0,0,0,1.717-1.717v-6.866A1.717,1.717,0,0,0,737.014,2659.146Zm-97.847,6.866h-3.433v-3.433h3.433Zm22.316,30.9H658.05v-3.434h3.434ZM683.8,2643.7h3.433v3.433H683.8Zm3.433,22.315H683.8v-3.433h3.433Zm22.316,27.466h3.433v3.434h-3.433Zm25.749-27.466h-3.433v-3.433H735.3Z" transform="translate(-632.301 -2640.264)"/></g></g><g transform="translate(632.86 2873.319)"><path class="t" d="M714.135,2978.365l-40.918-.04V2992h54.6" transform="translate(-673.217 -2978.325)"/><path class="e" d="M732.972,2978.325l11.5,11.5v-11.5Z" transform="translate(-689.869 -2978.325)"/><text class="u" transform="translate(4.164 9.09)"><tspan x="0" y="0">Read More</tspan></text></g><rect class="i" width="254.169" height="292.654" transform="translate(530.148 2610.765)"/><path class="e" d="M778.371,2601.5l83.594,83.6v-83.6Z" transform="translate(-69.66 0)"/></g><g class="an" transform="matrix(1, 0, 0, 1, 202.04, 2411.64)"><rect class="a" width="352.357" height="405.709" transform="translate(964.73 202.12)"/></g><text class="v" transform="translate(1342.358 2850.262)"><tspan x="-115.163" y="0">Corporate Apparel,</tspan><tspan x="-138.727" y="29.704">Uniforms &amp; Team Wear</tspan></text><text class="w" transform="translate(1342.137 2916.88)"><tspan x="-85.699" y="0">When you want to raise</tspan><tspan x="-106.733" y="22.088">team spirit, add consistency...</tspan></text><path class="l" d="M1374.549,2674.712l-17.192-5.958a.021.021,0,0,0-.029.015c-.1.664-2.314,14.64-13.467,14.64-11.179,0-16.48-14.039-16.7-14.644a.022.022,0,0,0-.029-.012l-17.367,6.3-.008,0-23.02,22.04a.023.023,0,0,0,0,.033l18.24,15.26a.022.022,0,0,1,.008.017l.975,58.027a.022.022,0,0,0,.022.022h49.2a.022.022,0,0,0,.023-.022v0a.022.022,0,0,0,.022.022h11.969a.022.022,0,0,0,.023-.022v0a.022.022,0,0,0,.022.022h11.558a.022.022,0,0,0,.022-.022v-55.47a.02.02,0,0,1,.007-.016l19.159-19.16a.022.022,0,0,0,0-.032l-23.425-21.04Z"/><path class="d" d="M1305.958,2770.434v-54.069a.019.019,0,0,0-.007-.016l-19.218-19.218a.024.024,0,0,1,0-.033l26.326-23.061a.022.022,0,0,1,.037.017V2770.5a.022.022,0,0,1-.022.022l-7.095-.064A.022.022,0,0,1,1305.958,2770.434Z"/><circle class="x" cx="5.692" cy="5.692" r="5.692" transform="translate(1351.215 2707.896) rotate(-77.168)"/><path class="e" d="M1400.83,2694.972l-.083-.083-24.27-21.571a2.305,2.305,0,0,0-.762-.461l-17.556-6.276a2.309,2.309,0,0,0-3.092,2.054c0,.507-.761,12.2-12.458,12.388-11.766-.184-12.5-11.881-12.527-12.388a2.307,2.307,0,0,0-2.427-2.181,2.335,2.335,0,0,0-.641.127l-17.534,6.345a2.3,2.3,0,0,0-.761.461l-24.109,21.5a2.307,2.307,0,0,0-.083,3.261c.027.029.055.057.083.084l19.189,19.4a.025.025,0,0,1,.006.016v53.03a2.329,2.329,0,0,0,2.329,2.33h47.129a1.937,1.937,0,0,0,1.937-1.937v-.832a1.961,1.961,0,0,0-1.961-1.961h-44.89a.022.022,0,0,1-.022-.022v-67.746a2.409,2.409,0,0,0-2.2-2.456,2.307,2.307,0,0,0-2.411,2.3v10.674a.022.022,0,0,1-.038.015l-14.134-14.317a.023.023,0,0,1,0-.033l21.942-19.637.007,0,14.415-5.2a.021.021,0,0,1,.028.016,17,17,0,0,0,33.373,0,.022.022,0,0,1,.029-.016l14.414,5.2.008,0,21.873,19.638a.022.022,0,0,1,0,.032l-14.111,14.294a.022.022,0,0,1-.038-.015v-10.5a2.407,2.407,0,0,0-2.2-2.455,2.307,2.307,0,0,0-2.411,2.3v67.9a.022.022,0,0,1-.023.022h-7.717a1.916,1.916,0,0,0-1.915,1.916v.823A1.991,1.991,0,0,0,1369.2,2773h10.018a2.329,2.329,0,0,0,2.329-2.329v-53.031a.022.022,0,0,1,.007-.015l19.188-19.4A2.308,2.308,0,0,0,1400.83,2694.972Z"/><line class="y" x2="207.946" transform="translate(1238.056 2811.267)"/><g transform="translate(1306.217 2976.325)"><path class="t" d="M1362.942,2976.381l-56.725-.056v18.964h75.691" transform="translate(-1306.217 -2976.325)"/><path class="e" d="M1365.972,2976.325l15.936,15.936v-15.936Z" transform="translate(-1306.217 -2976.325)"/><text class="z" transform="translate(5.116 13.022)"><tspan x="0" y="0">Read More</tspan></text></g><rect class="i" width="352.357" height="405.709" transform="translate(1165.27 2612.263)"/><path class="e" d="M1415.551,2603.5l115.886,115.891V2603.5Z"/><g transform="translate(188.911 -53.738)"><g class="am" transform="matrix(1, 0, 0, 1, 13.13, 2465.38)"><rect class="a" width="355.382" height="409.193" transform="translate(333.41 201.64)"/></g><text class="aa" transform="translate(518.367 2978.534)"><tspan x="-100.73" y="0">Recognizing your employees</tspan><tspan x="-129.192" y="21">is one of the most important things....</tspan></text><line class="ab" x2="261.004" transform="translate(397.098 2877.417)"/><g transform="translate(478.202 2743.807)"><path class="d" d="M482.072,2758.716l7.259,3.3v-8.6l5.017-5.912-7.439-2.976-5.463-6.9-4.213,7.476-7.542,2.4,4.731,5.768-.573,8.028Z" transform="translate(-432.968 -2712.685)"/><path class="d" d="M465.968,2792.076s-.585-7.258,2.92-8.28h28.424c4.133,1.792,3.4,8.281,3.4,8.281Z" transform="translate(-434.344 -2695.793)"/><path class="e" d="M540.929,2738.461a5.335,5.335,0,0,0-5.342-4.885H521.713v-2.045h.269a3.6,3.6,0,0,0,3.594-3.593v-4.982a3.6,3.6,0,0,0-3.594-3.592H481.145a1.608,1.608,0,0,0,0,3.216h40.837a.376.376,0,0,1,.376.375v4.982a.375.375,0,0,1-.376.375h-60.15a.375.375,0,0,1-.376-.375v-4.982a.376.376,0,0,1,.376-.375H473.6a1.608,1.608,0,0,0,0-3.216H461.833a3.6,3.6,0,0,0-3.594,3.592v4.982a3.6,3.6,0,0,0,3.594,3.593h.269v2.045H448.228a5.335,5.335,0,0,0-5.342,4.885,46.957,46.957,0,0,0,2.8,18.639c3.248,8.786,10.7,20.007,27.78,24.409a29.773,29.773,0,0,0,9.294,4.974l.809,1.335a16.643,16.643,0,0,1,2.34,8.639A17.184,17.184,0,0,1,485,2802l-1.124,3.313h-3.741a6.971,6.971,0,0,0-6.963,6.963v3.371h-5.855a3,3,0,0,0-3,3v7.557a3,3,0,0,0,3,3H516.5a3,3,0,0,0,3-3v-7.557a3,3,0,0,0-3-3h-5.855v-3.371a6.971,6.971,0,0,0-6.963-6.963h-3.741L498.815,2802a17.184,17.184,0,0,1-.9-5.541,16.643,16.643,0,0,1,2.34-8.639l.809-1.335a29.772,29.772,0,0,0,9.294-4.974c17.077-4.4,24.532-15.623,27.78-24.409a46.955,46.955,0,0,0,2.8-18.639Zm-78.231,25.6a27.312,27.312,0,0,1-6.87-10.445,36.1,36.1,0,0,1-2.125-9.312h8.4v13.817A29.775,29.775,0,0,0,462.7,2764.058Zm-14-8.073a43.384,43.384,0,0,1-2.609-17.237,2.133,2.133,0,0,1,2.136-1.954H462.1v4.29h-8.531a3.1,3.1,0,0,0-3.084,3.386,39.381,39.381,0,0,0,2.333,10.283,29.851,29.851,0,0,0,11.539,14.736,29.817,29.817,0,0,0,4.067,6.963,34.581,34.581,0,0,1-19.725-20.467Zm67.577,62.88v7.115H467.536v-7.115Zm-12.6-10.334a3.749,3.749,0,0,1,3.745,3.745v3.371H476.39v-3.371a3.749,3.749,0,0,1,3.745-3.745Zm-7.912-5.5.773,2.279h-9.267l.773-2.279a20.429,20.429,0,0,0,1.075-6.575,20.067,20.067,0,0,0-2.053-8.93,29.84,29.84,0,0,0,9.676,0,20.084,20.084,0,0,0-2.052,8.93,20.429,20.429,0,0,0,1.075,6.575Zm-3.861-18.328a26.619,26.619,0,0,1-26.587-26.587v-26.587H518.5v26.587A26.619,26.619,0,0,1,491.907,2784.705Zm43.209-28.721a34.583,34.583,0,0,1-19.728,20.467,29.877,29.877,0,0,0,4.074-6.975,29.426,29.426,0,0,0,10.446-12.163,1.609,1.609,0,0,0-2.908-1.376,26.579,26.579,0,0,1-5.885,8.131,29.769,29.769,0,0,0,.6-5.95V2744.3h8.4a38.224,38.224,0,0,1-.791,4.882,1.609,1.609,0,0,0,3.136.721,41.669,41.669,0,0,0,.871-5.435,3.1,3.1,0,0,0-3.083-3.386h-8.532v-4.29h13.874a2.135,2.135,0,0,1,2.138,1.954,43.44,43.44,0,0,1-2.609,17.237Z" transform="translate(-442.804 -2719.364)"/><path class="e" d="M493.048,2744.2l-4.612-.67a.618.618,0,0,1-.464-.338l-2.064-4.181a3.834,3.834,0,0,0-6.877,0l-2.062,4.181a.617.617,0,0,1-.464.338l-4.614.67a3.834,3.834,0,0,0-2.125,6.54L473.1,2754a.614.614,0,0,1,.178.546l-.788,4.595a3.835,3.835,0,0,0,5.564,4.042l4.125-2.169a.612.612,0,0,1,.575,0l4.126,2.169a3.835,3.835,0,0,0,5.563-4.043l-.788-4.594a.616.616,0,0,1,.178-.545l3.338-3.255a3.833,3.833,0,0,0-2.125-6.54Zm-.12,4.236-3.338,3.255a3.834,3.834,0,0,0-1.1,3.394l.788,4.595a.616.616,0,0,1-.895.65l-4.126-2.169a3.83,3.83,0,0,0-3.569,0l-4.126,2.169a.616.616,0,0,1-.895-.65l.788-4.595a3.834,3.834,0,0,0-1.1-3.394l-3.338-3.253a.618.618,0,0,1,.341-1.053l4.614-.67a3.835,3.835,0,0,0,2.887-2.1l2.062-4.18a.616.616,0,0,1,1.106,0l2.064,4.18a3.835,3.835,0,0,0,2.887,2.1l4.612.67a.617.617,0,0,1,.343,1.052Z" transform="translate(-433.366 -2712.957)"/></g><text class="ac" transform="translate(521.549 2915.393)"><tspan x="-130.306" y="0">Employee Recognition</tspan><tspan x="-56.132" y="29">&amp; Awards</tspan></text><g transform="translate(489.655 3032.609)"><path class="ad" d="M508.4,2930.869l-57.212-.056v19.127H527.53" transform="translate(-451.19 -2930.813)"/><path class="e" d="M495.315,2930.813l16.073,16.073v-16.073Z" transform="translate(-435.047 -2930.813)"/><text class="ae" transform="translate(8.134 12.571)"><tspan x="0" y="0">Read More</tspan></text></g><rect class="i" width="355.382" height="409.193" transform="translate(346.043 2665.504)"/><path class="e" d="M528.839,2652.549l116.882,116.886V2652.549Z" transform="translate(66.872)"/></g><rect class="af" width="475.318" height="519.196" transform="translate(763.953 2561.638)"/><rect class="ag" width="453.101" height="551.95" transform="translate(775.063 2538.12)"/><text class="ah" transform="translate(1005.033 2874.014)"><tspan x="-126.335" y="0">Custom Branded</tspan><tspan x="-161.027" y="36.77">Promotional Products</tspan></text><rect class="d" width="83.1" height="48.314" rx="6.847" transform="translate(963.183 2671.872)"/><path class="l" d="M965.116,2714.389l27.056-28.989,19.973,20.418,12.881-10.756,21.258,17.393-1.933,7.73-77.3-1.933Z"/><path class="e" d="M1045.57,2734.468H964.682a2.488,2.488,0,0,1,0-4.976h80.888a2.488,2.488,0,0,1,0,4.976Z"/><path class="e" d="M1005.908,2748.161H964.682a2.488,2.488,0,1,1,0-4.976h41.226a2.488,2.488,0,1,1,0,4.976Z"/><path class="e" d="M1039.973,2667.9H986.884a2.489,2.489,0,0,0,0,4.977h53.089a3.112,3.112,0,0,1,3.109,3.109v32.227l-10.854-13.077a8.008,8.008,0,0,0-6.178-2.9h0a8.005,8.005,0,0,0-6.178,2.9l-7.116,8.574L998.056,2686a8.03,8.03,0,0,0-12.357,0l-18.529,22.325v-32.338a3.113,3.113,0,0,1,3.109-3.11h4.973a2.489,2.489,0,0,0,0-4.977h-4.973a8.1,8.1,0,0,0-8.085,8.086v37.434a8.094,8.094,0,0,0,8.085,8.085h69.694a8.094,8.094,0,0,0,8.085-8.085v-37.434A8.094,8.094,0,0,0,1039.973,2667.9Zm-72.146,47.424,21.7-26.148a3.054,3.054,0,0,1,4.7,0l15.294,18.429-7.406,8.923H970.279A3.1,3.1,0,0,1,967.827,2715.323Zm72.146,1.2h-31.391l15.118-18.215a3.052,3.052,0,0,1,4.7,0l14.07,16.952A3.1,3.1,0,0,1,1039.973,2716.527Z"/><path class="e" d="M1083.822,2651.928h-17.048v-10.819a7.9,7.9,0,0,0-7.888-7.888H952.973a7.9,7.9,0,0,0-7.888,7.888V2760.1a30.9,30.9,0,0,0,30.865,30.864h59.959a30.9,30.9,0,0,0,30.822-29.232,49.554,49.554,0,0,0,48.208-49.478v-29.207A31.152,31.152,0,0,0,1083.822,2651.928ZM1061.8,2760.1a25.918,25.918,0,0,1-25.889,25.888H975.95a25.918,25.918,0,0,1-25.889-25.888V2641.109a2.915,2.915,0,0,1,2.912-2.912h105.913a2.915,2.915,0,0,1,2.912,2.912v77.434a2.488,2.488,0,0,0,4.976,0V2677.3a8.252,8.252,0,0,1,6.351-4.973l8.811-1.361a12.192,12.192,0,0,1,14.283,12.076v29.207a30.879,30.879,0,0,1-22.411,29.626,6.207,6.207,0,0,1-7.033-2.88v-8.822a2.489,2.489,0,1,0-4.977,0V2760.1Zm48.165-47.846a44.571,44.571,0,0,1-43.189,44.5V2745.7a11.089,11.089,0,0,0,8.384.968,35.875,35.875,0,0,0,26.037-34.415v-29.207a17.166,17.166,0,0,0-20.018-16.994l-8.812,1.361a13.2,13.2,0,0,0-5.591,2.257V2656.9h17.048a26.171,26.171,0,0,1,26.141,26.14Z"/><text class="ai" transform="translate(1004.727 2949.467)"><tspan x="-128.323" y="0">Want to keep your company</tspan><tspan x="-112.505" y="27.342">top of mind with clients? </tspan></text><line class="aj" x2="321.149" transform="translate(846.028 2824.052)"/><path class="e" d="M1088.842,2520.862,1244,2676.024V2520.862Z"/><g transform="translate(953.015 3027.284)"><path class="ak" d="M1025.108,3027.355l-72.092-.071v24.1h96.2" transform="translate(-953.015 -3027.284)"/><path class="e" d="M1028.958,3027.284l20.253,20.254v-20.254Z" transform="translate(-953.015 -3027.284)"/><text class="al" transform="translate(6.688 16.487)"><tspan x="0" y="0">Read More</tspan></text></g></g></svg>