<svg xmlns="http://www.w3.org/2000/svg" xmlns:xlink="http://www.w3.org/1999/xlink" width="1012.669" height="819.196" viewBox="0 0 1012.669 819.196"><defs><style>.a,.k{fill:#b4b4b4;}.b,.n,.s{fill:#00386d;font-family:Poppins-SemiBold, Poppins;font-weight:600;}.b{font-size:23.611px;}.c,.l,.t{fill:#040505;font-family:Poppins-LightItalic, Poppins;font-weight:300;letter-spacing:0.006em;}.c{font-size:14.471px;}.c,.j,.l,.p,.t,.w{font-style:italic;}.d{fill:#fff;}.e,.f{fill:#8cb3de;}.f,.i,.o,.v{stroke:#e1001e;}.f,.h,.i,.m,.o,.u,.v{stroke-miterlimit:10;}.f{stroke-width:1.53px;}.g,.j,.p,.w{fill:#e1001e;}.h,.i,.m,.o,.u,.v{fill:none;}.h,.m,.u{stroke:#00386d;}.h{stroke-width:1.523px;}.i{stroke-width:1.22px;}.j{font-size:9.605px;}.j,.p,.w{font-family:Poppins-MediumItalic, Poppins;font-weight:500;letter-spacing:0.004em;}.k{opacity:0.72;}.l{font-size:14px;}.m{stroke-width:1.255px;}.n{font-size:23px;}.o{stroke-width:0.901px;}.p{font-size:9px;}.q{fill:#262626;opacity:0.24;}.r{fill:#dbdbdb;}.s{font-size:29.227px;}.t{font-size:17.913px;}.u{stroke-width:2.147px;}.v{stroke-width:1.55px;}.w{font-size:12.207px;}.x{filter:url(#c);}.y{filter:url(#a);}</style><filter id="a" x="642.312" y="197.125" width="370.357" height="423.709" filterUnits="userSpaceOnUse"><feOffset dx="7" dy="4" input="SourceAlpha"/><feGaussianBlur stdDeviation="3" result="b"/><feFlood flood-color="#030504" flood-opacity="0.22"/><feComposite operator="in" in2="b"/><feComposite in="SourceGraphic"/></filter><filter id="c" x="0" y="196.641" width="373.382" height="427.193" filterUnits="userSpaceOnUse"><feOffset dx="-4" dy="4" input="SourceAlpha"/><feGaussianBlur stdDeviation="3" result="d"/><feFlood flood-color="#030504" flood-opacity="0.22"/><feComposite operator="in" in2="d"/><feComposite in="SourceGraphic"/></filter></defs><g transform="translate(-522.458 -2411.638)"><g class="y" transform="matrix(1, 0, 0, 1, 522.46, 2411.64)"><rect class="a" width="352.357" height="405.709" transform="translate(644.31 202.12)"/></g><text class="b" transform="translate(1342.358 2850.262)"><tspan x="-115.163" y="0">Corporate Apparel,</tspan><tspan x="-138.727" y="29.704">Uniforms &amp; Team Wear</tspan></text><text class="c" transform="translate(1342.137 2916.88)"><tspan x="-85.699" y="0">When you want to raise</tspan><tspan x="-106.733" y="22.088">team spirit, add consistency...</tspan></text><path class="d" d="M1374.549,2674.712l-17.192-5.958a.021.021,0,0,0-.029.015c-.1.664-2.314,14.64-13.467,14.64-11.179,0-16.48-14.039-16.7-14.644a.022.022,0,0,0-.029-.012l-17.367,6.3-.008,0-23.02,22.04a.023.023,0,0,0,0,.033l18.24,15.26a.022.022,0,0,1,.008.017l.975,58.027a.022.022,0,0,0,.022.022h49.2a.022.022,0,0,0,.023-.022v0a.022.022,0,0,0,.022.022h11.969a.022.022,0,0,0,.023-.022v0a.022.022,0,0,0,.022.022h11.558a.022.022,0,0,0,.022-.022v-55.47a.02.02,0,0,1,.007-.016l19.159-19.16a.022.022,0,0,0,0-.032l-23.425-21.04Z"/><path class="e" d="M1305.958,2770.434v-54.069a.019.019,0,0,0-.007-.016l-19.218-19.218a.024.024,0,0,1,0-.033l26.326-23.061a.022.022,0,0,1,.037.017V2770.5a.022.022,0,0,1-.022.022l-7.095-.064A.022.022,0,0,1,1305.958,2770.434Z"/><circle class="f" cx="5.692" cy="5.692" r="5.692" transform="translate(1351.215 2707.896) rotate(-77.168)"/><path class="g" d="M1400.83,2694.972l-.083-.083-24.27-21.571a2.305,2.305,0,0,0-.762-.461l-17.556-6.276a2.309,2.309,0,0,0-3.092,2.054c0,.507-.761,12.2-12.458,12.388-11.766-.184-12.5-11.881-12.527-12.388a2.307,2.307,0,0,0-2.427-2.181,2.335,2.335,0,0,0-.641.127l-17.534,6.345a2.3,2.3,0,0,0-.761.461l-24.109,21.5a2.307,2.307,0,0,0-.083,3.261c.027.029.055.057.083.084l19.189,19.4a.025.025,0,0,1,.006.016v53.03a2.329,2.329,0,0,0,2.329,2.33h47.129a1.937,1.937,0,0,0,1.937-1.937v-.832a1.961,1.961,0,0,0-1.961-1.961h-44.89a.022.022,0,0,1-.022-.022v-67.746a2.409,2.409,0,0,0-2.2-2.456,2.307,2.307,0,0,0-2.411,2.3v10.674a.022.022,0,0,1-.038.015l-14.134-14.317a.023.023,0,0,1,0-.033l21.942-19.637.007,0,14.415-5.2a.021.021,0,0,1,.028.016,17,17,0,0,0,33.373,0,.022.022,0,0,1,.029-.016l14.414,5.2.008,0,21.873,19.638a.022.022,0,0,1,0,.032l-14.111,14.294a.022.022,0,0,1-.038-.015v-10.5a2.407,2.407,0,0,0-2.2-2.455,2.307,2.307,0,0,0-2.411,2.3v67.9a.022.022,0,0,1-.023.022h-7.717a1.916,1.916,0,0,0-1.915,1.916v.823A1.991,1.991,0,0,0,1369.2,2773h10.018a2.329,2.329,0,0,0,2.329-2.329v-53.031a.022.022,0,0,1,.007-.015l19.188-19.4A2.308,2.308,0,0,0,1400.83,2694.972Z"/><line class="h" x2="207.946" transform="translate(1238.056 2811.267)"/><g transform="translate(1306.217 2976.325)"><path class="i" d="M1362.942,2976.381l-56.725-.056v18.964h75.691" transform="translate(-1306.217 -2976.325)"/><path class="g" d="M1365.972,2976.325l15.936,15.936v-15.936Z" transform="translate(-1306.217 -2976.325)"/><text class="j" transform="translate(5.116 13.022)"><tspan x="0" y="0">Read More</tspan></text></g><rect class="k" width="352.357" height="405.709" transform="translate(1165.27 2612.263)"/><path class="g" d="M1415.551,2603.5l115.886,115.891V2603.5Z"/><g transform="translate(188.911 -53.738)"><g class="x" transform="matrix(1, 0, 0, 1, 333.55, 2465.38)"><rect class="a" width="355.382" height="409.193" transform="translate(13 201.64)"/></g><text class="l" transform="translate(518.367 2978.534)"><tspan x="-100.73" y="0">Recognizing your employees</tspan><tspan x="-129.192" y="21">is one of the most important things....</tspan></text><line class="m" x2="261.004" transform="translate(397.098 2877.417)"/><g transform="translate(478.202 2743.807)"><path class="e" d="M482.072,2758.716l7.259,3.3v-8.6l5.017-5.912-7.439-2.976-5.463-6.9-4.213,7.476-7.542,2.4,4.731,5.768-.573,8.028Z" transform="translate(-432.968 -2712.685)"/><path class="e" d="M465.968,2792.076s-.585-7.258,2.92-8.28h28.424c4.133,1.792,3.4,8.281,3.4,8.281Z" transform="translate(-434.344 -2695.793)"/><path class="g" d="M540.929,2738.461a5.335,5.335,0,0,0-5.342-4.885H521.713v-2.045h.269a3.6,3.6,0,0,0,3.594-3.593v-4.982a3.6,3.6,0,0,0-3.594-3.592H481.145a1.608,1.608,0,0,0,0,3.216h40.837a.376.376,0,0,1,.376.375v4.982a.375.375,0,0,1-.376.375h-60.15a.375.375,0,0,1-.376-.375v-4.982a.376.376,0,0,1,.376-.375H473.6a1.608,1.608,0,0,0,0-3.216H461.833a3.6,3.6,0,0,0-3.594,3.592v4.982a3.6,3.6,0,0,0,3.594,3.593h.269v2.045H448.228a5.335,5.335,0,0,0-5.342,4.885,46.957,46.957,0,0,0,2.8,18.639c3.248,8.786,10.7,20.007,27.78,24.409a29.773,29.773,0,0,0,9.294,4.974l.809,1.335a16.643,16.643,0,0,1,2.34,8.639A17.184,17.184,0,0,1,485,2802l-1.124,3.313h-3.741a6.971,6.971,0,0,0-6.963,6.963v3.371h-5.855a3,3,0,0,0-3,3v7.557a3,3,0,0,0,3,3H516.5a3,3,0,0,0,3-3v-7.557a3,3,0,0,0-3-3h-5.855v-3.371a6.971,6.971,0,0,0-6.963-6.963h-3.741L498.815,2802a17.184,17.184,0,0,1-.9-5.541,16.643,16.643,0,0,1,2.34-8.639l.809-1.335a29.772,29.772,0,0,0,9.294-4.974c17.077-4.4,24.532-15.623,27.78-24.409a46.955,46.955,0,0,0,2.8-18.639Zm-78.231,25.6a27.312,27.312,0,0,1-6.87-10.445,36.1,36.1,0,0,1-2.125-9.312h8.4v13.817A29.775,29.775,0,0,0,462.7,2764.058Zm-14-8.073a43.384,43.384,0,0,1-2.609-17.237,2.133,2.133,0,0,1,2.136-1.954H462.1v4.29h-8.531a3.1,3.1,0,0,0-3.084,3.386,39.381,39.381,0,0,0,2.333,10.283,29.851,29.851,0,0,0,11.539,14.736,29.817,29.817,0,0,0,4.067,6.963,34.581,34.581,0,0,1-19.725-20.467Zm67.577,62.88v7.115H467.536v-7.115Zm-12.6-10.334a3.749,3.749,0,0,1,3.745,3.745v3.371H476.39v-3.371a3.749,3.749,0,0,1,3.745-3.745Zm-7.912-5.5.773,2.279h-9.267l.773-2.279a20.429,20.429,0,0,0,1.075-6.575,20.067,20.067,0,0,0-2.053-8.93,29.84,29.84,0,0,0,9.676,0,20.084,20.084,0,0,0-2.052,8.93,20.429,20.429,0,0,0,1.075,6.575Zm-3.861-18.328a26.619,26.619,0,0,1-26.587-26.587v-26.587H518.5v26.587A26.619,26.619,0,0,1,491.907,2784.705Zm43.209-28.721a34.583,34.583,0,0,1-19.728,20.467,29.877,29.877,0,0,0,4.074-6.975,29.426,29.426,0,0,0,10.446-12.163,1.609,1.609,0,0,0-2.908-1.376,26.579,26.579,0,0,1-5.885,8.131,29.769,29.769,0,0,0,.6-5.95V2744.3h8.4a38.224,38.224,0,0,1-.791,4.882,1.609,1.609,0,0,0,3.136.721,41.669,41.669,0,0,0,.871-5.435,3.1,3.1,0,0,0-3.083-3.386h-8.532v-4.29h13.874a2.135,2.135,0,0,1,2.138,1.954,43.44,43.44,0,0,1-2.609,17.237Z" transform="translate(-442.804 -2719.364)"/><path class="g" d="M493.048,2744.2l-4.612-.67a.618.618,0,0,1-.464-.338l-2.064-4.181a3.834,3.834,0,0,0-6.877,0l-2.062,4.181a.617.617,0,0,1-.464.338l-4.614.67a3.834,3.834,0,0,0-2.125,6.54L473.1,2754a.614.614,0,0,1,.178.546l-.788,4.595a3.835,3.835,0,0,0,5.564,4.042l4.125-2.169a.612.612,0,0,1,.575,0l4.126,2.169a3.835,3.835,0,0,0,5.563-4.043l-.788-4.594a.616.616,0,0,1,.178-.545l3.338-3.255a3.833,3.833,0,0,0-2.125-6.54Zm-.12,4.236-3.338,3.255a3.834,3.834,0,0,0-1.1,3.394l.788,4.595a.616.616,0,0,1-.895.65l-4.126-2.169a3.83,3.83,0,0,0-3.569,0l-4.126,2.169a.616.616,0,0,1-.895-.65l.788-4.595a3.834,3.834,0,0,0-1.1-3.394l-3.338-3.253a.618.618,0,0,1,.341-1.053l4.614-.67a3.835,3.835,0,0,0,2.887-2.1l2.062-4.18a.616.616,0,0,1,1.106,0l2.064,4.18a3.835,3.835,0,0,0,2.887,2.1l4.612.67a.617.617,0,0,1,.343,1.052Z" transform="translate(-433.366 -2712.957)"/></g><text class="n" transform="translate(521.549 2915.393)"><tspan x="-130.306" y="0">Employee Recognition</tspan><tspan x="-56.132" y="29">&amp; Awards</tspan></text><g transform="translate(489.655 3032.609)"><path class="o" d="M508.4,2930.869l-57.212-.056v19.127H527.53" transform="translate(-451.19 -2930.813)"/><path class="g" d="M495.315,2930.813l16.073,16.073v-16.073Z" transform="translate(-435.047 -2930.813)"/><text class="p" transform="translate(8.134 12.571)"><tspan x="0" y="0">Read More</tspan></text></g><rect class="k" width="355.382" height="409.193" transform="translate(346.043 2665.504)"/><path class="g" d="M528.839,2652.549l116.882,116.886V2652.549Z" transform="translate(66.872)"/></g><rect class="q" width="475.318" height="519.196" transform="translate(763.953 2561.638)"/><rect class="r" width="453.101" height="551.95" transform="translate(775.063 2538.12)"/><text class="s" transform="translate(1005.033 2874.014)"><tspan x="-126.335" y="0">Custom Branded</tspan><tspan x="-161.027" y="36.77">Promotional Products</tspan></text><rect class="e" width="83.1" height="48.314" rx="6.847" transform="translate(963.183 2671.872)"/><path class="d" d="M965.116,2714.389l27.056-28.989,19.973,20.418,12.881-10.756,21.258,17.393-1.933,7.73-77.3-1.933Z"/><path class="g" d="M1045.57,2734.468H964.682a2.488,2.488,0,0,1,0-4.976h80.888a2.488,2.488,0,0,1,0,4.976Z"/><path class="g" d="M1005.908,2748.161H964.682a2.488,2.488,0,1,1,0-4.976h41.226a2.488,2.488,0,1,1,0,4.976Z"/><path class="g" d="M1039.973,2667.9H986.884a2.489,2.489,0,0,0,0,4.977h53.089a3.112,3.112,0,0,1,3.109,3.109v32.227l-10.854-13.077a8.008,8.008,0,0,0-6.178-2.9h0a8.005,8.005,0,0,0-6.178,2.9l-7.116,8.574L998.056,2686a8.03,8.03,0,0,0-12.357,0l-18.529,22.325v-32.338a3.113,3.113,0,0,1,3.109-3.11h4.973a2.489,2.489,0,0,0,0-4.977h-4.973a8.1,8.1,0,0,0-8.085,8.086v37.434a8.094,8.094,0,0,0,8.085,8.085h69.694a8.094,8.094,0,0,0,8.085-8.085v-37.434A8.094,8.094,0,0,0,1039.973,2667.9Zm-72.146,47.424,21.7-26.148a3.054,3.054,0,0,1,4.7,0l15.294,18.429-7.406,8.923H970.279A3.1,3.1,0,0,1,967.827,2715.323Zm72.146,1.2h-31.391l15.118-18.215a3.052,3.052,0,0,1,4.7,0l14.07,16.952A3.1,3.1,0,0,1,1039.973,2716.527Z"/><path class="g" d="M1083.822,2651.928h-17.048v-10.819a7.9,7.9,0,0,0-7.888-7.888H952.973a7.9,7.9,0,0,0-7.888,7.888V2760.1a30.9,30.9,0,0,0,30.865,30.864h59.959a30.9,30.9,0,0,0,30.822-29.232,49.554,49.554,0,0,0,48.208-49.478v-29.207A31.152,31.152,0,0,0,1083.822,2651.928ZM1061.8,2760.1a25.918,25.918,0,0,1-25.889,25.888H975.95a25.918,25.918,0,0,1-25.889-25.888V2641.109a2.915,2.915,0,0,1,2.912-2.912h105.913a2.915,2.915,0,0,1,2.912,2.912v77.434a2.488,2.488,0,0,0,4.976,0V2677.3a8.252,8.252,0,0,1,6.351-4.973l8.811-1.361a12.192,12.192,0,0,1,14.283,12.076v29.207a30.879,30.879,0,0,1-22.411,29.626,6.207,6.207,0,0,1-7.033-2.88v-8.822a2.489,2.489,0,1,0-4.977,0V2760.1Zm48.165-47.846a44.571,44.571,0,0,1-43.189,44.5V2745.7a11.089,11.089,0,0,0,8.384.968,35.875,35.875,0,0,0,26.037-34.415v-29.207a17.166,17.166,0,0,0-20.018-16.994l-8.812,1.361a13.2,13.2,0,0,0-5.591,2.257V2656.9h17.048a26.171,26.171,0,0,1,26.141,26.14Z"/><text class="t" transform="translate(1004.727 2949.467)"><tspan x="-128.323" y="0">Want to keep your company</tspan><tspan x="-112.505" y="27.342">top of mind with clients? </tspan></text><line class="u" x2="321.149" transform="translate(846.028 2824.052)"/><path class="g" d="M1088.842,2520.862,1244,2676.024V2520.862Z"/><g transform="translate(953.015 3027.284)"><path class="v" d="M1025.108,3027.355l-72.092-.071v24.1h96.2" transform="translate(-953.015 -3027.284)"/><path class="g" d="M1028.958,3027.284l20.253,20.254v-20.254Z" transform="translate(-953.015 -3027.284)"/><text class="w" transform="translate(6.688 16.487)"><tspan x="0" y="0">Read More</tspan></text></g></g></svg>