<?xml version="1.0" encoding="utf-8"?>
<!-- Generator: Adobe Illustrator 25.4.1, SVG Export Plug-In . SVG Version: 6.00 Build 0)  -->
<svg version="1.1" id="Layer_1" xmlns="http://www.w3.org/2000/svg" xmlns:xlink="http://www.w3.org/1999/xlink" x="0px" y="0px"
	 viewBox="0 0 612 792" enable-background="new 0 0 612 792" xml:space="preserve">
<g>
	<g>
		<g>
			<path fill="none" stroke="#41312F" stroke-width="2.0188" stroke-linecap="round" d="M240.9,208.4c-9.3-27-35-46.5-65.1-46.5
				c-30.2,0-55.9,19.5-65.2,46.7"/>
		</g>
	</g>
	<circle opacity="0.75" fill="#83C8EF" cx="175.7" cy="233.8" r="62.4"/>
	<rect x="184.2" y="189.4" fill="#FFFFFF" width="9.2" height="18.3"/>
	<polygon fill="#FFFFFF" points="193.9,297.8 215.2,285.1 225.7,272.1 228.7,267.4 228.4,264.1 225.2,262.7 220.9,263.8 
		219.4,261.5 216.1,260.5 209.9,262.7 207.5,261 204.1,262.4 199.8,264.5 193.9,269.3 183.3,274.8 168.2,283.7 	"/>
	<path fill="#403540" stroke="#403540" stroke-width="0.4043" stroke-miterlimit="10" d="M208.9,263.3c0,0-1.6-2.5-6.2,0.6
		c-4.5,3.1-8,6.4-8,6.4s-8.4,3-14.9,7.5c-5.7,3.9-8.4,5.3-8.4,5.3h-4.9c0,0,8.7-5.2,11.3-6.1c0,0,7.5-5.1,15.5-8.1
		c0,0,13.1-13.1,17.3-6.5L208.9,263.3z"/>
	<path fill="#403540" stroke="#403540" stroke-width="0.4043" stroke-miterlimit="10" d="M179.3,283c0,0,12.4-7.2,20.5-10
		c0,0,6.5-8.1,12.2-10.3c7.2-2.7,7.4-0.1,8.2,1.1l1.9-0.6c0,0-2.6-6.3-12.1-1.3c-6.6,3.4-10.8,9.5-10.8,9.5s-14,5.5-22.9,11.5H179.3
		z"/>
	<g>
		<path fill="#403540" stroke="#403540" stroke-width="0.4043" stroke-miterlimit="10" d="M228.2,266.9c0,0-1.3,2.6-4.4,5.1
			c-0.3,0-0.6,0-0.9,0.1c-13.8,1-17.6,9.5-17.6,9.5c-4.3,0.8-12.2,4.7-14,5.7c-1.1-1.1-2.3-2-3.6-2.7c1.5-0.8,9.7-5.2,14-6.2
			c0,0,4-6.4,15-11.9C227.5,261,228.2,266.9,228.2,266.9z M139.5,272.9c6.6,4.1,10.7,8.9,14,10.3c3.3,1.4,5.7,1.5,21.7,1
			c0,0,4.7-0.3,6.8,0.3c2.1,0.6,6,1,9,4.5c7.4-3.7,15.4-5.8,15.4-5.8s3.3-9.1,16.2-9.7c12.9-0.5,7.3,4.7,6.5,5.4
			c-0.8,0.6-7,5.4-9.9,7.3c-2.9,1.8-10.8,10.4-13.6,13c-2.8,2.5-7.3,4.9-13.5,6.3c-6.2,1.4-19.4,4.7-25.1,8.3s-8.9,1.6-11.4,0.9
			c-2.5-0.7-14.8-4.8-21.1-6.7c-6.3-2-9.7-3.9-19.9-6.1c-10.2-2.2-20,13.2-20,13.2c12.9-11.5,19.5-11.1,22.5-10.4
			c3,0.7,33.1,10.8,39,12.7c5.9,1.9,9.1-0.2,12-1.6c2.8-1.4,12.2-5.6,22.5-7.9c10.3-2.3,14.2-5.4,16-6.7c1.8-1.3,8.3-8.5,10-9.8
			s13.5-11.1,14.8-11.7c1.2-0.5,4.9-7.4-5.6-7.5c0.7-0.9,3.5-2.8,3.9-5.1c0,0-0.7-6-7.1-4.2c-7.4,2-14.2,5-21.5,14.2
			c0,0-9,3-15.2,6.9c-0.8-0.3-1.3-0.5-2.1-0.7l-1.6-0.5 M182.4,282.8c-4.3-0.9-8.4-0.5-9.5-0.4c-2.1,0.2-16.9,2.2-22.1-3.2
			c-4.1-4.2-8.4-6.9-8.4-6.9c-3.8-2.5-7.4-4.4-10.9-5.9l-2-0.8c-4.7-1.8-9.1-2.7-13-2.9l-1.9-0.1c-9.3-0.2-16.2,3-20.3,5.7"/>
	</g>
	<path fill="#413230" d="M214.2,189.7c0-1.4-0.1-2.3-2.8-1.9c-1.2,0.2-4.4,0.6-5.6,0.5c-1.2-0.1-3.8,0.4-4.6-0.2
		c-0.8-0.6,0.2,0.5-2-2.4c-1.9-2.6-13.6-0.5-15.6,1.5c-2,2-3.7,2.5-4.5,5.9c-0.8,3.4-2.2,7.8-2.5,10.1c-0.3,2.3,0.4,8.9-2.9,13.8
		c-3.3,4.9-1.7,5.4-6.3,10.1c-4.5,4.7-15.2,16.4-18.3,19.5c-3.1,3.1-9.8,12-10.2,16.8c-0.3,4.8,0.9,7.2-2,7
		c-2.9-0.2-15.8-1.1-17.5-1.2c-1.6-0.1-4.2-0.2-4.7,1.3c-0.5,1.6,1.6,2.4,4.7,3.1c3.1,0.8,16.7,2.2,18.3,2.5
		c1.6,0.3,2.1-0.1,2.7,1.3c0.7,1.5,1.9,3.3,4.4,3.8c2.4,0.5,5,0.5,6.9,1.2s7,1.8,9.1,1.8c2.1,0,4.8-1,5.6-1c0.8,0,1.1,0.3,1.6,0.3
		c0.5,0,1.1-0.5,1.1-1.2c0-0.7,0.2-2.5-2.9-3.5l-1.9-0.6c0,0,2.3-0.1,2.7,0s2.6,0,3.1,0.3c0.5,0.4,3.6,0.6,4.5,0.7s3.1-0.5,3.8-0.5
		c0.7,0,1.2-1.1,1.2-2c0-0.9-1-2.5-1.6-2.7c-0.6-0.2-3.1-0.6-3.5-0.8c-0.4-0.2-0.9-0.3-1.2-1.5c-0.2-1.3-0.2-3.2-0.1-3.6
		c0.1-0.4,1-1.8,1.4-2.1c0.4-0.3,4.5-3.8,5.4-4.4c0.9-0.7,2.5-1.3,2.4,0.1c-0.1,1.4,0.6,9.6,0.5,10.5s-0.4,3.2,0.3,4
		c0.7,0.8,1.7,1.6,2,2.7c0.4,1,2.5,4.7,2.7,5.8c0.2,1,0.8,2.7,2,3.2c1.3,0.5,4.1,0.6,6.1,0.2c2.1-0.3,3-0.5,3.5-1
		c0.6-0.5,0.8-1.5,0.1-2.6c-0.3-0.4-0.8-0.8-1.3-1.2c1-0.1,2-0.3,2.4-0.2c0.7,0.1,1.8,0.6,2.6,0.6c0.8,0,2.2-0.6,2.8-0.9
		c0.5-0.3,0.6-2.3-0.4-3.2s-3.3-1.4-3.9-1.8s-2.3-0.5-2.9-3.3c-0.5-2.7-1.4-2.1-0.9-6.6c0.5-4.6,1.7-13,1.9-15
		c0.3-1.9-0.2-4.2,1.3-7.3c1.5-3.1,3.9-9,4.3-10.6c0.4-1.6,1.2-4.2-0.3-7.7c-1.4-3.4-1.5-3.5-1.5-4.4c0-0.9-1.9-3.2-2.5-5.5
		s-0.6-8.8-0.5-9.8c0-1.1-0.3-2.6,2.6-4.3c2.9-1.7,6.9-3.8,8.1-4.8c1.2-1,2.3-2.1,2.4-4.2S214.3,191.1,214.2,189.7z M192.3,204.1
		c-0.8,2.8-3.7,2.9-6.3,1.8c0,0,4.7,0.8,5-2.2c0.3-3.1-2.1-5.4-3-7c-0.9-1.5-1.8-4.4-2-6.2c0,0,1.7,3.9,2.9,5.6
		C190.2,198,193.1,201.4,192.3,204.1z M195.5,281.7c-1.3-0.3-2.7-1.4-3.1-2.2c-0.4-0.8-2.6-3.6-2.5-5s0-8.5,0.2-10
		c0.2-1.5,1.1-5.6,1.3-6.7s0.2,0.4,0.1,1.8s0,7.5-0.1,8.7c0,1.1-0.9,2.3,0.7,4.4c1.6,2.1,2.5,4.1,3.1,5.8c0.4,1.2,0.7,2.6,1,3.5
		C196.1,281.9,195.8,281.8,195.5,281.7z"/>
	<g>
		<path fill="#F2F2F2" d="M181.9,267.8c-0.8-7-1.1-9-2.6-13.3c-1.5-4.2-4.3-8.4-7.3-9.9c-0.4-2.3-1-5.2-1.4-6.7
			c-0.5-2.2-2.1-6.4-3.9-9.7c-2.4-4.4-4.4-6.7-6.1-7.7c-1.7-1.1-2.4-1.9-3-1.9c-0.2-1.6-1-4.4-3.2-7.3c-3.3-4.3-4.5-3.3-4.7-3
			c-0.2,0.4-0.8,2.6-1,3.1c-0.2,0.5-0.6,2.6-0.7,2.9c-0.1,0.3-0.1,0.6-0.6,0.8c-0.5,0.2-5.3,2.4-5.6,2.5c-0.4,0.2-1.4,1-1.5,1.6
			c-0.2,0.6-0.2,1.2-0.5,1.5c-0.3,0.4-1.5,1-2.2,1.3c-0.7,0.3-1.6,1-1.8,1.2c-0.2,0.2-0.2,0.8,0,1.5c0.2,0.8,0.8,2.5,1.3,3.1
			c0.5,0.6,0.9,0.5,1,1c0.1,0.5,0.5,1.5,1.1,1.6c0.6,0.2,3.5,0.6,4.2,0.6s3.3,0.6,3.9,0.8c0.6,0.2,1.8,0.4,2.2,1
			c0.6,0.8,2.3,2.9,2.9,5.7c0.5,2.5-0.8,4.7-1.6,6c-2.8,1.8-6.5,6-9.9,13.2c-5.7,12.1,4.3,21.6,4.3,21.6s4.3,0.7,5.9,1.5
			c1.6,0.8,4.2,1.5,5.6,2.7c1.4,1.1,1.7,1.7,4.2,1.7c2.5-0.1,6.2-0.6,9.8-1.5c3.6-1,2.6-1.1,6.7-1.6c0,0,0.6-0.7,1.8-2.2
			S182.6,274.8,181.9,267.8z"/>
		<path fill="#403540" stroke="#403540" stroke-width="0.4043" stroke-miterlimit="10" d="M181.9,267.7c-0.8-7-1.1-9-2.6-13.3
			c-1.5-4.2-4.4-9-7.4-10.5c-0.4-2.3-0.9-4.5-1.3-6.1c-0.5-2.2-2.1-6.4-3.9-9.7c-2.4-4.4-4.4-6.7-6.1-7.7s-2.2-1.9-2.7-1.9
			c-0.2-1.6-0.9-4.7-3.1-7.5c-3.3-4.3-4.8-3.1-5-2.8c-0.2,0.4-0.8,2.6-1,3.1c-0.2,0.5-0.6,2.6-0.7,2.9c-0.1,0.3-0.1,0.6-0.6,0.8
			c-0.5,0.2-5.3,2.4-5.6,2.5c-0.4,0.2-1.4,1-1.5,1.6c-0.2,0.6-0.2,1.2-0.5,1.5c-0.3,0.4-1.5,1-2.2,1.3c-0.7,0.3-1.6,1-1.8,1.2
			c-0.2,0.2-0.2,0.8,0,1.5c0.2,0.8,0.8,2.5,1.3,3.1c0.5,0.6,0.9,0.5,1,1c0.1,0.5,0.5,1.5,1.1,1.6c0.6,0.2,3.5,0.6,4.2,0.6
			s3.3,0.6,3.9,0.8c0.6,0.2,1.8,0.4,2.2,1c0.6,0.8,2.3,2.9,2.9,5.7c0.5,2.5-1,4.2-1.7,5.5c-2.8,1.8-6.7,6.5-10.1,13.7
			c-6,12.9,4.6,21.6,4.6,21.6s4.3,0.7,5.9,1.5c1.6,0.8,4.2,1.5,5.6,2.7c1.4,1.1,1.7,1.7,4.2,1.7c2.5-0.1,6.2-0.6,9.8-1.5
			c3.6-1,2.7-0.7,6.8-1.1c0,0,0.5-1.1,1.7-2.6S182.6,274.7,181.9,267.7z M176.1,282c0,0-2.9-0.1-5.8,1s-5,1-7.2,1.2
			c-2.2,0.3-2.9,0.6-3.9,0c-1-0.6-1-0.9-3.1-2.1c-1.9-1-7.1-2.9-10.2-3.3c-0.7-0.7-4.7-4.4-5.8-10.6c-1.2-6.8,2-11.6,4-15.1
			c2-3.4,6.8-9.4,9-9.1c2.2,0.3,0.5,2.5-0.3,3.4c-0.9,0.9-7.7,8-8.7,14.6c-1,6.6,2,13.1,8.1,16.4c5.1,2.8,12.8,3.8,17-4.4
			c0,0-6,9.6-16.6,3.4c-10-5.9-8.5-17.4-3.5-24c3.4-4.5,8-8.5,5.1-10c-0.4-0.2-1.2-0.5-1.8-0.2c0.5-1.1,0.7-1.9,0.7-2.8
			c0.2-2.5-1.4-6.8-2.7-7.9c-1.2-1.1-1.7-1.4-2.6-1.5c-0.9-0.1-2.8-0.6-3.3-0.9c-0.5-0.3-3.2-0.5-3.9-0.7c-0.8-0.2-1.1-0.3-1.3-0.7
			c-0.2-0.4-0.4-0.9-0.7-1.2c-0.3-0.3-1.4-1.6-1.7-2.3c-0.3-0.6-0.5-1.5-0.4-1.7c0.2-0.3,0.8-0.4,1.5-0.7c0.7-0.3,1.6-0.9,1.9-1.2
			s0.6-1.5,0.8-2.1c0.3-0.6,0.9-1.3,1.9-1.6s3.1-1.7,3.8-1.8c0.7-0.1,1.2-0.4,1.7-0.7c0.5-0.3,0.7-2.9,0.8-3.7s0.6-1.7,0.9-2.5
			s1.3,0,1.7,0.4c0.4,0.5,2,1.6,3.7,5c1.2,2.3,1.5,3.3,1.6,3.8c-0.1,0.1,0,0.2,0,0.4c0,0,0,0,0,0c0,0.2,0.1,1.1,0.3,0.8
			c0,0,0-0.1,0-0.3c0,0,1.7,0.7,4.3,3.7c2.6,3.1,3.9,4.1,7.1,12.9c3.2,8.7,2.4,11.2,3.1,13.4c0.8,2.3,2.2,3,2.2,3s-1.5-2.6-1.6-4.8
			c0-0.5-0.2-1.5-0.3-2.1c0.1,0.1-0.1-0.1,0,0c0.5,0.4,3.3,3.6,4.9,7.7s3,9.5,3.3,14S180.8,274.7,176.1,282z"/>
	</g>
	<g>
		<path fill="#FFFFFF" d="M95.6,297.3c4.4,2.3,10.2,3.3,14.8,3.3c8.3,0,32.3,0,32.3,0c4.4,0.1,10.2-1.7,10.2-1.7
			c8.5,0,23.1,0.6,34-1.1c2.6-0.4,4.2-1.1,5.3-2c3.6-2.7,0.2-7.1,0.2-7.1c-0.2-0.2-0.3-0.5-0.5-0.7c-1.9-2.2-7.3-5.1-9.7-5.5
			c-4.3-0.9-8.4-0.5-9.5-0.4c-2.1,0.2-17.1,2.4-22.3-3c-4.1-4.2-8.4-6.9-8.4-6.9c-3.8-2.5-7.4-4.4-10.9-5.9l-2-0.8
			c-4.7-1.8-9.1-2.7-13-2.9l-1.9-0.1c-15.7-0.3-18.9,6.3-18.9,6.3L95.6,297.3z"/>
		<path fill="#403540" stroke="#403540" stroke-width="0.4043" stroke-miterlimit="10" d="M150.3,279.3c-4.1-4.2-8.4-6.9-8.4-6.9
			c-2.9-2.4-7.4-4.4-10.9-5.9l-2-0.8c-4.7-1.8-9.1-2.7-13-2.9l-1.9-0.1c-15.7-0.3-24.1,9-24.1,9c26.8-14.2,41.5-3.4,48.9,1.3
			c6.6,4.1,10.7,8.9,14,10.3c3.3,1.4,5.7,1.5,21.7,1c12.8-0.4,19.5,6.9,15.3,10.5c-1.1,0.8-2.8,1.4-5.1,1.6
			c-7.7,0.7-18.5,0.9-25.3,1c-4.2,0-7,0-7,0c-2.6,1.4-9.9,3.4-9.9,3.4c4.4,0.1,10.2-1.7,10.2-1.7c8.5,0,23.1,0.6,34-1.1
			c2.6-0.4,4.2-1.1,5.3-2c3.6-2.7,0.2-7.1,0.2-7.1c-0.2-0.2-0.3-0.5-0.5-0.7c-1.9-2.2-7.3-5.1-9.7-5.5c-4.3-0.9-8.4-0.5-9.5-0.4
			C170.6,282.5,155.5,284.7,150.3,279.3z"/>
	</g>
</g>
<g>
	<path fill="#41312F" stroke="#41312F" stroke-width="1.0248" stroke-miterlimit="10" d="M301.7,227.4v-31.7h2.3v31.7H301.7z"/>
	<path fill="#41312F" stroke="#41312F" stroke-width="1.0248" stroke-miterlimit="10" d="M310.6,219.4v2c0,1.4,0,4.2,3.5,4.2
		c1.7,0,3.3-0.7,3.3-3.8c0-2.2-0.5-2.8-3.7-5.6c-2.5-2.2-4.1-3.5-4.1-6.7c0-1.9,0.5-4.9,4.7-4.9c4.6,0,4.7,3.6,4.7,5.4v1.6H317v-1.6
		c0-2.4-0.8-3.6-2.8-3.6c-2.7,0-2.8,1.9-2.8,2.9c0,2.1,0.1,2.7,4.4,6.2c2.1,1.8,3.4,3,3.4,6.2c0,3.3-1.5,5.7-5.2,5.7
		c-4.5,0-5.4-2.7-5.4-6.3v-1.7H310.6z"/>
	<path fill="#41312F" stroke="#41312F" stroke-width="1.0248" stroke-miterlimit="10" d="M323.6,227.4v-31.7h1.9v31.7H323.6z"/>
	<path fill="#41312F" stroke="#41312F" stroke-width="1.0248" stroke-miterlimit="10" d="M330.9,202.1v-3.5h1.9v3.5H330.9z
		 M330.9,227.4v-22.6h1.9v22.6H330.9z"/>
	<path fill="#41312F" stroke="#41312F" stroke-width="1.0248" stroke-miterlimit="10" d="M346.9,227.4v-17.8c0-1.7-0.5-3.4-2.8-3.4
		c-1.8,0-3,1.1-3.7,2.8v18.4h-1.9v-22.6h1.9v2.2c1.4-2.2,3.3-2.4,4.1-2.4c1.8,0,4.2,1,4.2,4.5v18.3H346.9z"/>
	<path fill="#41312F" stroke="#41312F" stroke-width="1.0248" stroke-miterlimit="10" d="M364.3,229c0,3.8-2.6,5.5-5.5,5.5
		c-1.7,0-3.7-0.6-4.5-2.3c-0.3-0.6-0.4-1.2-0.5-2.5h1.9c0,0.2,0,1,0.3,1.7c0.7,1.3,2.5,1.3,2.8,1.3c0.6,0,3.6-0.2,3.6-3.4v-3.9
		c-0.5,0.5-1.7,2-3.9,2c-3.2,0-4.4-2.4-4.4-5.3v-12.4c0-4,2.3-5.1,4.6-5.1c2.2,0,3.3,1.4,3.7,2.1v-1.8h1.9V229z M362.4,209.4
		c-0.3-1.7-1.5-3.1-3.3-3.1c-2.6,0-3.1,2-3.1,4.1v11.2c0,2.9,1.2,3.9,3,3.9c1.4,0,3-1,3.5-3.4V209.4z"/>
	<path fill="#41312F" stroke="#41312F" stroke-width="1.0248" stroke-miterlimit="10" d="M367.8,204.8h2.4v-5.8h1.9v5.8h3.4v1.8
		h-3.4v17.8c0,1.3,1.3,1.3,1.7,1.3c0.6,0,1.2,0,1.7-0.1v1.8c-0.8,0-1.4,0.1-2,0.1c-2.5,0-3.3-0.8-3.3-2.6v-18.3h-2.4V204.8z"/>
	<path fill="#41312F" stroke="#41312F" stroke-width="1.0248" stroke-miterlimit="10" d="M388.9,221.4c0,4.3-2.4,6-5.3,6
		c-3.1,0-5.2-1.8-5.2-4.9v-12.5c0-2.8,1.4-5.4,5.4-5.4c3.6,0,5.1,2.1,5.1,5.5V221.4z M386.9,210.4c0-1.6-0.4-3.9-3.2-3.9
		c-3,0-3.5,2.1-3.5,4.3V222c0,2.4,1.2,3.6,3.3,3.6c2.9,0,3.4-2.4,3.4-3.9V210.4z"/>
	<path fill="#41312F" stroke="#41312F" stroke-width="1.0248" stroke-miterlimit="10" d="M402.3,227.4v-17.8c0-1.7-0.5-3.4-2.8-3.4
		c-1.8,0-3,1.1-3.7,2.8v18.4h-1.9v-22.6h1.9v2.2c1.4-2.2,3.3-2.4,4.1-2.4c1.8,0,4.2,1,4.2,4.5v18.3H402.3z"/>
	<path fill="#41312F" stroke="#41312F" stroke-width="1.0248" stroke-miterlimit="10" d="M425.2,227.4h-2.3l-5.4-31.7h2.3l4.2,27
		l4.6-27h2.2L425.2,227.4z"/>
	<path fill="#41312F" stroke="#41312F" stroke-width="1.0248" stroke-miterlimit="10" d="M435.3,202.1v-3.5h1.9v3.5H435.3z
		 M435.3,227.4v-22.6h1.9v22.6H435.3z"/>
	<path fill="#41312F" stroke="#41312F" stroke-width="1.0248" stroke-miterlimit="10" d="M442.7,227.4v-31.7h1.9v31.7H442.7z"/>
	<path fill="#41312F" stroke="#41312F" stroke-width="1.0248" stroke-miterlimit="10" d="M450,227.4v-31.7h1.9v31.7H450z"/>
	<path fill="#41312F" stroke="#41312F" stroke-width="1.0248" stroke-miterlimit="10" d="M467.9,227.4c-1.9,0-2.5-0.6-2.8-1.8
		c-0.7,0.5-2.1,1.8-4.4,1.8c-3.1,0-4.4-2.5-4.4-5.3c0-6.4,5.9-6.8,8.7-9.3v-3.1c0-1.8-0.5-3.2-2.8-3.2c-2.3,0-3.1,1.1-3.1,4.1v1.2
		h-1.9v-1.2c0-4.4,1.7-5.9,5.1-5.9c3.2,0,4.6,1.8,4.6,4.5v15.6c0,0.8,0.6,0.8,1.3,0.8v1.8H467.9z M465.1,214.8
		c-1.1,0.8-2.5,1.5-3.7,2.2c-2.1,1.2-3.1,2.7-3.1,5.1c0,0.7,0.1,3.5,2.9,3.5c1.7,0,2.8-0.9,3.9-2.1V214.8z"/>
	<path fill="#41312F" stroke="#41312F" stroke-width="1.0248" stroke-miterlimit="10" d="M482.4,229c0,3.8-2.6,5.5-5.5,5.5
		c-1.7,0-3.7-0.6-4.5-2.3c-0.3-0.6-0.4-1.2-0.5-2.5h1.9c0,0.2,0,1,0.3,1.7c0.7,1.3,2.5,1.3,2.8,1.3c0.6,0,3.6-0.2,3.6-3.4v-3.9
		c-0.5,0.5-1.7,2-3.9,2c-3.2,0-4.4-2.4-4.4-5.3v-12.4c0-4,2.3-5.1,4.6-5.1c2.2,0,3.3,1.4,3.7,2.1v-1.8h1.9V229z M480.5,209.4
		c-0.3-1.7-1.5-3.1-3.3-3.1c-2.6,0-3.1,2-3.1,4.1v11.2c0,2.9,1.2,3.9,3,3.9c1.4,0,3-1,3.5-3.4V209.4z"/>
	<path fill="#41312F" stroke="#41312F" stroke-width="1.0248" stroke-miterlimit="10" d="M497.8,222.3c0,2.4-1.3,5.1-5.2,5.1
		c-2.8,0-5.1-1.5-5.1-5.3V210c0-2.7,1.2-5.4,5.1-5.4c3.3,0,5.2,1.8,5.2,5.8v5.8h-8.4v5.6c0,1.3,0.3,3.8,3.2,3.8
		c3.1,0,3.3-2.4,3.3-4.5v-1.6h1.9V222.3z M495.8,210.2c0-2.6-1.4-3.8-3.2-3.8c-2.2,0-3.3,1.7-3.3,4v4.3h6.5V210.2z"/>
	<path fill="#41312F" stroke="#41312F" stroke-width="1.0248" stroke-miterlimit="10" d="M271.1,289.4l-2.4-14.5h-9.9l-2.5,14.5
		h-3.5l8.7-48h4.6l8.6,48H271.1z M263.7,245.8l-4.4,26h8.8L263.7,245.8z"/>
	<path fill="#41312F" stroke="#41312F" stroke-width="1.0248" stroke-miterlimit="10" d="M293.9,289.4v-26.8c0-2.5-0.8-5.1-4.2-5.1
		c-2.7,0-4.5,1.6-5.6,4.3v27.7h-2.8v-34h2.8v3.2c2.1-3.4,5-3.7,6.2-3.7c2.8,0,6.4,1.6,6.4,6.8v27.6H293.9z"/>
	<path fill="#41312F" stroke="#41312F" stroke-width="1.0248" stroke-miterlimit="10" d="M304.6,251.4v-5.3h2.9v5.3H304.6z
		 M304.6,289.4v-34h2.8v34H304.6z"/>
	<path fill="#41312F" stroke="#41312F" stroke-width="1.0248" stroke-miterlimit="10" d="M341.1,289.4v-25.8c0-3.5-0.5-6-4.2-6
		c-2.9,0-4.7,2-5.5,4.2v27.5h-2.9v-27c0-3-1.6-4.8-4.3-4.8c-3,0-4.9,2.4-5.4,3.7v28.1h-2.8v-34h2.9v2.8c0.9-1.2,3.2-3.2,6.3-3.2
		c3.8,0,5.2,2.8,5.8,4.1c0.7-1.1,2.7-4.1,6.8-4.1c3.2,0,6.3,2.1,6.3,7.5v27H341.1z"/>
	<path fill="#41312F" stroke="#41312F" stroke-width="1.0248" stroke-miterlimit="10" d="M367.9,289.4c-2.8-0.1-3.8-0.9-4.2-2.6
		c-1,0.8-3.2,2.6-6.6,2.6c-4.7,0-6.6-3.8-6.6-8c0-9.7,8.9-10.3,13.1-14.1v-4.7c0-2.6-0.7-4.8-4.2-4.8c-3.5,0-4.6,1.7-4.6,6.2v1.8
		h-2.9v-1.8c0-6.6,2.6-8.9,7.7-8.9c4.8,0,6.9,2.6,6.9,6.8v23.5c0,1.1,0.9,1.2,2,1.2v2.7H367.9z M363.6,270.6
		c-1.7,1.1-3.8,2.2-5.6,3.2c-3.1,1.8-4.7,4-4.7,7.7c0,1.1,0.2,5.2,4.4,5.2c2.6,0,4.2-1.4,5.8-3.2V270.6z"/>
	<path fill="#41312F" stroke="#41312F" stroke-width="1.0248" stroke-miterlimit="10" d="M374.4,289.4v-47.8h2.8v47.8H374.4z"/>
	<path fill="#41312F" stroke="#41312F" stroke-width="1.0248" stroke-miterlimit="10" d="M415.2,289.4v-23.6H403v23.6h-3.2v-47.8
		h3.2v21.2h12.2v-21.2h3.3v47.8H415.2z"/>
	<path fill="#41312F" stroke="#41312F" stroke-width="1.0248" stroke-miterlimit="10" d="M442.1,280.5c0,6.5-3.6,9.1-8,9.1
		c-4.7,0-7.8-2.8-7.8-7.4v-18.8c0-4.2,2.2-8.2,8.1-8.2c5.4,0,7.7,3.1,7.7,8.3V280.5z M439.2,263.9c0-2.4-0.6-5.8-4.8-5.8
		c-4.5,0-5.2,3.2-5.2,6.5v16.8c0,3.6,1.8,5.5,4.9,5.5c4.4,0,5.1-3.6,5.1-5.9V263.9z"/>
	<path fill="#41312F" stroke="#41312F" stroke-width="1.0248" stroke-miterlimit="10" d="M450.7,277.5v3c0,2.1,0,6.4,5.2,6.4
		c2.6,0,5-1.1,5-5.7c0-3.3-0.8-4.3-5.6-8.4c-3.8-3.2-6.1-5.3-6.1-10.1c0-2.9,0.7-7.3,7.1-7.3c7,0,7.1,5.5,7.1,8.1v2.4h-2.9v-2.4
		c0-3.7-1.1-5.4-4.2-5.4c-4.1,0-4.2,2.9-4.2,4.4c0,3.2,0.1,4,6.7,9.4c3.2,2.6,5.1,4.5,5.1,9.3c0,5-2.2,8.5-7.9,8.5
		c-6.8,0-8.1-4-8.1-9.5v-2.6H450.7z"/>
	<path fill="#41312F" stroke="#41312F" stroke-width="1.0248" stroke-miterlimit="10" d="M473.4,255.4v3c1.7-2.5,4.4-3.3,6.2-3.3
		c5.3,0,6.4,4.9,6.4,9.1v17.7c0,4.5-2.6,7.8-6.9,7.8c-2.6,0-5-1.6-5.8-3v13.8h-2.9v-45H473.4z M483.2,262.9c0-2.7-1.4-5.1-4.4-5.1
		c-3.2,0-5,2.6-5.4,4.4v21c0.6,2.4,2.9,3.9,5.2,3.9c4.2,0,4.5-3.8,4.5-6.6V262.9z"/>
	<path fill="#41312F" stroke="#41312F" stroke-width="1.0248" stroke-miterlimit="10" d="M494,251.4v-5.3h2.9v5.3H494z M494,289.4
		v-34h2.8v34H494z"/>
	<path fill="#41312F" stroke="#41312F" stroke-width="1.0248" stroke-miterlimit="10" d="M502.2,255.4h3.6v-8.8h2.9v8.8h5.1v2.7
		h-5.1v26.8c0,2,1.9,2,2.6,2c0.9,0,1.8-0.1,2.6-0.1v2.7c-1.1,0.1-2.1,0.1-3,0.1c-3.8,0-5-1.2-5-3.9v-27.5h-3.6V255.4z"/>
	<path fill="#41312F" stroke="#41312F" stroke-width="1.0248" stroke-miterlimit="10" d="M534.8,289.4c-2.8-0.1-3.8-0.9-4.2-2.6
		c-1,0.8-3.2,2.6-6.6,2.6c-4.7,0-6.6-3.8-6.6-8c0-9.7,8.9-10.3,13.1-14.1v-4.7c0-2.6-0.7-4.8-4.2-4.8c-3.5,0-4.6,1.7-4.6,6.2v1.8
		h-2.9v-1.8c0-6.6,2.6-8.9,7.7-8.9c4.8,0,6.9,2.6,6.9,6.8v23.5c0,1.1,0.9,1.2,2,1.2v2.7H534.8z M530.5,270.6
		c-1.7,1.1-3.8,2.2-5.6,3.2c-3.1,1.8-4.7,4-4.7,7.7c0,1.1,0.2,5.2,4.4,5.2c2.6,0,4.2-1.4,5.8-3.2V270.6z"/>
	<path fill="#41312F" stroke="#41312F" stroke-width="1.0248" stroke-miterlimit="10" d="M541.3,289.4v-47.8h2.8v47.8H541.3z"/>
</g>
</svg>
