<?xml version="1.0" encoding="utf-8"?>
<!-- Generator: Adobe Illustrator 25.4.1, SVG Export Plug-In . SVG Version: 6.00 Build 0)  -->
<svg version="1.1" id="Layer_1" xmlns="http://www.w3.org/2000/svg" xmlns:xlink="http://www.w3.org/1999/xlink" x="0px" y="0px"
	 viewBox="0 0 612 216" enable-background="new 0 0 612 216" xml:space="preserve">
<g>
	<path fill="#212120" d="M211,86V54.9h2.8v28.4h10.7V86H211z"/>
	<path fill="#212120" d="M232.4,54.9h2.8v20.3c0,3.1,0.7,5.4,2.1,6.9c1.4,1.5,3.5,2.2,6.4,2.2c2.8,0,5-0.7,6.4-2.2
		c1.4-1.5,2.1-3.8,2.1-6.9V54.9h2.8v19.4c0,4.2-0.9,7.3-2.8,9.4c-1.9,2.1-4.7,3.1-8.5,3.1c-3.8,0-6.7-1-8.5-3.1
		c-1.9-2.1-2.8-5.2-2.8-9.4V54.9z"/>
	<path fill="#212120" d="M265.3,86h-3.1l9.5-16.4l-8.6-14.7h3.2l7,12.3l7.1-12.3h3.1l-8.6,14.7l9.5,16.4h-3.1l-7.9-13.8L265.3,86z"
		/>
	<path fill="#212120" d="M290.1,54.9h2.8v20.3c0,3.1,0.7,5.4,2.1,6.9c1.4,1.5,3.5,2.2,6.4,2.2c2.8,0,5-0.7,6.4-2.2
		c1.4-1.5,2.1-3.8,2.1-6.9V54.9h2.8v19.4c0,4.2-0.9,7.3-2.8,9.4c-1.9,2.1-4.7,3.1-8.5,3.1c-3.8,0-6.7-1-8.5-3.1
		c-1.9-2.1-2.8-5.2-2.8-9.4V54.9z"/>
	<path fill="#212120" d="M342.9,86h-3.4l-10.9-14.8h-1.7V86H324V54.9h5.7c3.4,0,5.9,0.7,7.6,2.1c1.7,1.4,2.5,3.5,2.5,6.4
		c0,2.4-0.7,4.3-2.2,5.7c-1.4,1.4-3.4,2.1-5.9,2.1L342.9,86z M326.9,57.4v11.5h2.8c2.6,0,4.5-0.4,5.5-1.3c1-0.8,1.6-2.3,1.6-4.3
		c0-2.1-0.5-3.7-1.6-4.6c-1.1-0.9-2.9-1.4-5.5-1.4H326.9z"/>
	<path fill="#212120" d="M356.4,86V71.7l-10.3-16.8h3.4l8.3,14.3l8.4-14.3h3.2l-10.2,16.8V86H356.4z"/>
	<path fill="#212120" d="M401.5,87.2l-10.9-25L388.3,86h-2.9l4.2-32.4l11.9,27.7l12.4-27.7l4,32.4H415l-2.3-23.8L401.5,87.2z"/>
	<path fill="#212120" d="M458,70.5c0,2.2-0.4,4.3-1.3,6.3c-0.8,2-2,3.7-3.6,5.3c-1.6,1.6-3.4,2.7-5.4,3.6c-2,0.8-4.1,1.2-6.4,1.2
		c-2.2,0-4.4-0.4-6.4-1.2c-2-0.8-3.8-2-5.4-3.6c-1.6-1.6-2.8-3.3-3.6-5.3c-0.8-2-1.2-4-1.2-6.2c0-2.2,0.4-4.3,1.2-6.3
		c0.8-2,2-3.8,3.6-5.3c1.6-1.5,3.3-2.7,5.3-3.5c2-0.8,4.1-1.2,6.4-1.2c2.3,0,4.4,0.4,6.5,1.2c2,0.8,3.8,2,5.3,3.5
		c1.6,1.6,2.8,3.3,3.6,5.3C457.6,66.2,458,68.3,458,70.5z M441.3,84.3c1.8,0,3.6-0.3,5.2-1c1.6-0.7,3.1-1.7,4.4-3
		c1.3-1.3,2.3-2.8,3-4.5c0.7-1.7,1-3.4,1-5.3c0-1.9-0.3-3.6-1-5.3c-0.7-1.7-1.7-3.2-3-4.5c-1.3-1.3-2.8-2.3-4.4-3
		c-1.7-0.7-3.4-1-5.3-1c-1.8,0-3.6,0.3-5.2,1c-1.6,0.7-3.1,1.7-4.4,3c-1.3,1.3-2.3,2.8-3,4.5c-0.7,1.7-1,3.4-1,5.3
		c0,1.9,0.3,3.6,1,5.3c0.7,1.7,1.7,3.2,3,4.5c1.3,1.3,2.8,2.3,4.4,3C437.7,84,439.5,84.3,441.3,84.3z"/>
	<path fill="#212120" d="M474,87.2l-12.2-32.3h3.2l9,25.3l9.4-25.3h3.1L474,87.2z"/>
	<path fill="#212120" d="M494.7,86V54.9h15.4v2.7h-12.6v9.7h12.6v2.7h-12.6v13.4h12.6V86H494.7z"/>
	<path fill="#212120" d="M225.2,136.9l-10.9-25l-2.4,23.8H209l4.2-32.4l11.9,27.7l12.4-27.7l4,32.4h-2.9l-2.3-23.8L225.2,136.9z"/>
	<path fill="#212120" d="M247.7,135.7l13.7-32.3l13.1,32.3h-3.1l-4-10.5h-12.7l-4.1,10.5H247.7z M255.6,122.8h10.8l-5.3-13.5
		L255.6,122.8z"/>
	<path fill="#212120" d="M282.8,135.7v-32.4l22,26v-24.7h2.6v32l-22-26.1v25.2H282.8z"/>
	<path fill="#212120" d="M315.8,135.7l13.7-32.3l13.1,32.3h-3.1l-4-10.5h-12.7l-4.1,10.5H315.8z M323.7,122.8h10.8l-5.3-13.5
		L323.7,122.8z"/>
	<path fill="#212120" d="M373.8,112.4c-1.3-2-2.8-3.4-4.7-4.4c-1.8-1-3.9-1.5-6.2-1.5c-3.9,0-7,1.3-9.4,3.9c-2.4,2.6-3.6,6-3.6,10.1
		c0,1.9,0.3,3.6,1,5.2c0.6,1.6,1.6,3.1,2.8,4.4c1.2,1.3,2.6,2.2,4.2,2.8c1.5,0.6,3.2,0.9,5.1,0.9c3.5,0,6.3-1,8.5-3.1
		c2.2-2.1,3.3-4.7,3.4-8.1h-10.7v-2.4h13.8v0.3c0,5-1.4,8.8-4.1,11.6c-2.7,2.8-6.4,4.2-11.2,4.2c-4.7,0-8.5-1.5-11.5-4.5
		c-2.9-3-4.4-6.9-4.4-11.8c0-2.2,0.4-4.4,1.1-6.3c0.7-2,1.8-3.7,3.2-5.2c1.5-1.6,3.2-2.8,5.1-3.6c1.9-0.8,4-1.2,6.3-1.2
		c3.2,0,5.9,0.6,8.1,1.7c2.3,1.1,4,2.8,5.2,5L373.8,112.4z"/>
	<path fill="#212120" d="M388,135.7v-31.1h15.4v2.7h-12.6v9.7h12.6v2.7h-12.6v13.4h12.6v2.7H388z"/>
	<path fill="#212120" d="M429.1,136.9l-10.9-25l-2.4,23.8h-2.9l4.2-32.4L429,131l12.4-27.7l4,32.4h-2.9l-2.3-23.8L429.1,136.9z"/>
	<path fill="#212120" d="M454.9,135.7v-31.1h15.4v2.7h-12.6v9.7h12.6v2.7h-12.6v13.4h12.6v2.7H454.9z"/>
	<path fill="#212120" d="M481.8,135.7v-32.4l22,26v-24.7h2.6v32l-22-26.1v25.2H481.8z"/>
	<path fill="#212120" d="M524.1,135.7v-28.4h-8.6v-2.7h20v2.7H527v28.4H524.1z"/>
</g>
<path fill="#212120" d="M212.4,167.8v-5.3l-3.9-6.3h1.6l3,5l3-5h1.6l-3.9,6.3v5.3H212.4z"/>
<path fill="#212120" d="M234.3,162.1c0,0.8-0.2,1.6-0.5,2.3c-0.3,0.7-0.8,1.4-1.3,1.9c-0.6,0.6-1.3,1-2,1.3
	c-0.8,0.3-1.5,0.5-2.4,0.5c-0.8,0-1.6-0.2-2.4-0.5c-0.8-0.3-1.4-0.7-2-1.3c-0.6-0.6-1-1.2-1.3-2c-0.3-0.7-0.5-1.5-0.5-2.3
	c0-0.8,0.2-1.6,0.5-2.3c0.3-0.7,0.8-1.4,1.3-2c0.6-0.6,1.2-1,2-1.3c0.8-0.3,1.5-0.5,2.4-0.5c0.8,0,1.6,0.2,2.4,0.5
	c0.8,0.3,1.4,0.7,2,1.3c0.6,0.6,1,1.2,1.3,2C234.2,160.4,234.3,161.2,234.3,162.1z M228.2,166.8c0.6,0,1.2-0.1,1.8-0.4
	c0.6-0.2,1.1-0.6,1.5-1c0.5-0.5,0.8-1,1-1.5c0.2-0.6,0.4-1.2,0.4-1.8c0-0.6-0.1-1.3-0.4-1.8s-0.6-1.1-1-1.5c-0.5-0.5-1-0.8-1.5-1
	c-0.6-0.2-1.2-0.4-1.8-0.4c-0.6,0-1.3,0.1-1.8,0.4c-0.6,0.2-1.1,0.6-1.5,1c-0.5,0.5-0.8,1-1,1.6c-0.2,0.6-0.4,1.2-0.4,1.8
	c0,0.6,0.1,1.2,0.4,1.8c0.2,0.6,0.6,1.1,1,1.5c0.5,0.5,1,0.8,1.5,1C226.9,166.7,227.5,166.8,228.2,166.8z"/>
<path fill="#212120" d="M240.8,156.3h1.4v7.2c0,1.2,0.2,2,0.7,2.6c0.5,0.5,1.3,0.8,2.3,0.8c1.1,0,1.8-0.3,2.3-0.8
	c0.5-0.5,0.7-1.4,0.7-2.6v-7.2h1.4v7.2c0,1.6-0.4,2.7-1.1,3.5c-0.7,0.8-1.9,1.2-3.4,1.2c-1.5,0-2.6-0.4-3.4-1.2
	c-0.7-0.8-1.1-1.9-1.1-3.5V156.3z"/>
<path fill="#212120" d="M256.8,167.8v-11.6h2.7c0.8,0,1.3,0,1.7,0.1c0.4,0.1,0.7,0.2,1,0.4c0.3,0.3,0.6,0.6,0.8,1.1
	c0.2,0.4,0.3,0.9,0.3,1.5c0,0.9-0.3,1.7-0.8,2.2c-0.5,0.5-1.3,0.7-2.3,0.7h-0.2l4.4,5.5h-1.7l-4.2-5.5h-0.2v5.5H256.8z M258.1,157.4
	v3.9h1.1c1.1,0,1.8-0.1,2.2-0.4c0.4-0.3,0.5-0.8,0.5-1.4c0-0.7-0.2-1.3-0.6-1.6c-0.4-0.3-1.1-0.4-2.1-0.4H258.1z"/>
<path fill="#212120" d="M284,168.3l-3.6-8.3l-1.5,7.9h-1.3l2.3-12l4,9.6l4-9.6l2.3,12H289l-1.5-7.9L284,168.3z"/>
<path fill="#212120" d="M308.2,162.1c0,0.8-0.2,1.6-0.5,2.3c-0.3,0.7-0.8,1.4-1.3,1.9c-0.6,0.6-1.3,1-2,1.3
	c-0.8,0.3-1.5,0.5-2.4,0.5s-1.6-0.2-2.4-0.5c-0.8-0.3-1.4-0.7-2-1.3c-0.6-0.6-1-1.2-1.3-2s-0.5-1.5-0.5-2.3c0-0.8,0.2-1.6,0.5-2.3
	c0.3-0.7,0.8-1.4,1.3-2c0.6-0.6,1.2-1,2-1.3c0.8-0.3,1.5-0.5,2.4-0.5c0.8,0,1.6,0.2,2.4,0.5c0.8,0.3,1.4,0.7,2,1.3
	c0.6,0.6,1,1.2,1.3,2C308,160.4,308.2,161.2,308.2,162.1z M302,166.8c0.6,0,1.2-0.1,1.8-0.4c0.6-0.2,1.1-0.6,1.5-1
	c0.5-0.5,0.8-1,1-1.5c0.2-0.6,0.4-1.2,0.4-1.8c0-0.6-0.1-1.3-0.4-1.8s-0.6-1.1-1-1.5c-0.5-0.5-1-0.8-1.5-1c-0.6-0.2-1.2-0.4-1.8-0.4
	c-0.6,0-1.3,0.1-1.8,0.4c-0.6,0.2-1.1,0.6-1.5,1c-0.5,0.5-0.8,1-1,1.6c-0.2,0.6-0.4,1.2-0.4,1.8c0,0.6,0.1,1.2,0.4,1.8
	c0.2,0.6,0.6,1.1,1,1.5c0.5,0.5,1,0.8,1.5,1C300.7,166.7,301.3,166.8,302,166.8z"/>
<path fill="#212120" d="M317.5,168.3l-4.9-12h1.5l3.4,8.8l3.4-8.8h1.5L317.5,168.3z"/>
<path fill="#212120" d="M328.1,167.8v-11.6h1.4v11.6H328.1z"/>
<path fill="#212120" d="M336.6,167.8v-12l8.5,9.2v-8.8h1.3v12l-8.5-9.1v8.7H336.6z"/>
<path fill="#212120" d="M359.8,161.8h4.8v0.4c0,1.8-0.5,3.3-1.5,4.3c-1,1.1-2.4,1.6-4.2,1.6c-0.5,0-1.1-0.1-1.6-0.2
	s-0.9-0.3-1.4-0.5c-0.9-0.5-1.7-1.2-2.2-2.2c-0.5-0.9-0.8-2-0.8-3.1c0-1,0.2-1.8,0.5-2.6c0.3-0.8,0.8-1.5,1.4-2
	c0.5-0.5,1.1-0.9,1.8-1.1c0.7-0.3,1.5-0.4,2.3-0.4c1.1,0,2.1,0.2,2.9,0.6c0.8,0.4,1.5,1,2,1.8l-1.2,0.9c-0.4-0.7-0.9-1.2-1.6-1.6
	c-0.6-0.4-1.3-0.5-2.2-0.5c-1.3,0-2.4,0.5-3.3,1.4s-1.3,2.1-1.3,3.6c0,1.4,0.4,2.5,1.3,3.4c0.8,0.9,1.9,1.3,3.2,1.3
	c1.2,0,2.1-0.4,2.9-1.1c0.8-0.7,1.2-1.6,1.3-2.7h-3.3V161.8z"/>
<path fill="#F9A880" d="M379.7,167.8v-11.6h1.4v10.2h4.4v1.3H379.7z"/>
<path fill="#F9A880" d="M391.4,167.8v-11.6h1.4v11.6H391.4z"/>
<path fill="#F9A880" d="M399.9,167.8v-11.6h6.1v1.3h-4.7v3.3h4.7v1.3h-4.7v5.7H399.9z"/>
<path fill="#F9A880" d="M412.2,167.8v-11.6h6.1v1.3h-4.7v3.3h4.7v1.3h-4.7v4.4h4.7v1.3H412.2z"/>
<path fill="#F9A880" d="M424.9,167.8v-11.6h1.4v10.2h4.4v1.3H424.9z"/>
<path fill="#F9A880" d="M436.5,167.8v-11.6h1.4v11.6H436.5z"/>
<path fill="#F9A880" d="M445,167.8v-12l8.5,9.2v-8.8h1.3v12l-8.5-9.1v8.7H445z"/>
<path fill="#F9A880" d="M461.9,167.8v-11.6h6.1v1.3h-4.7v3.3h4.7v1.3h-4.7v4.4h4.7v1.3H461.9z"/>
<g>
	<path fill="#F9A880" d="M183.4,168.6h-57.5c-2.1,0-3.8-1.7-3.8-3.8v-57.5c0-2.1,1.7-3.8,3.8-3.8h57.5c2.1,0,3.8,1.7,3.8,3.8v57.5
		C187.1,166.9,185.5,168.6,183.4,168.6z M125.9,104.9c-1.3,0-2.4,1.1-2.4,2.4v57.5c0,1.3,1.1,2.4,2.4,2.4h57.5
		c1.3,0,2.4-1.1,2.4-2.4v-57.5c0-1.3-1.1-2.4-2.4-2.4H125.9z"/>
</g>
<g>
	<path fill="#F9A880" d="M115.3,100.5H57.8c-2.1,0-3.8-1.7-3.8-3.8V39.2c0-2.1,1.7-3.8,3.8-3.8h57.5c2.1,0,3.8,1.7,3.8,3.8v57.5
		C119,98.8,117.4,100.5,115.3,100.5z M57.8,36.8c-1.3,0-2.4,1.1-2.4,2.4v57.5c0,1.3,1.1,2.4,2.4,2.4h57.5c1.3,0,2.4-1.1,2.4-2.4
		V39.2c0-1.3-1.1-2.4-2.4-2.4H57.8z"/>
</g>
<g>
	<path fill="#F9A880" d="M183.4,100.5h-57.5c-2.1,0-3.8-1.7-3.8-3.8V39.2c0-2.1,1.7-3.8,3.8-3.8h57.5c2.1,0,3.8,1.7,3.8,3.8v57.5
		C187.1,98.8,185.5,100.5,183.4,100.5z M125.9,36.8c-1.3,0-2.4,1.1-2.4,2.4v57.5c0,1.3,1.1,2.4,2.4,2.4h57.5c1.3,0,2.4-1.1,2.4-2.4
		V39.2c0-1.3-1.1-2.4-2.4-2.4H125.9z"/>
</g>
<g>
	<path fill="#F9A880" d="M115.3,168.6H57.8c-2.1,0-3.8-1.7-3.8-3.8v-57.5c0-2.1,1.7-3.8,3.8-3.8h57.5c2.1,0,3.8,1.7,3.8,3.8v57.5
		C119,166.9,117.4,168.6,115.3,168.6z M57.8,104.9c-1.3,0-2.4,1.1-2.4,2.4v57.5c0,1.3,1.1,2.4,2.4,2.4h57.5c1.3,0,2.4-1.1,2.4-2.4
		v-57.5c0-1.3-1.1-2.4-2.4-2.4H57.8z"/>
</g>
<g>
	<path fill="#283934" d="M86.7,75l-0.1-1.8c-0.3-0.4-1-0.5-1-0.5s-0.1,1.9-0.1,2.3c0,0.4,0.2,1,1.2,1.3c0.9,0.3,0.9-0.6,0.9-0.8
		C87.5,75.1,86.7,75,86.7,75z M80.8,70.7c0.6-0.7,2-1,3.4,0c1.3,1,4.5,3.4,4.6,4.9c0,0,0.6-0.5,0.9-0.9c0,0-3-5.5-7.4-5.7
		c-4.4-0.2-2.8,3.6-1.9,4C80.5,73,80.3,71.3,80.8,70.7z M82.1,78.2c-0.3-0.5-0.1-2.7,0.5-4.3c0.6-1.6,0.7-3.1,0.7-3.1
		c-1.7-0.7-2.5,0.7-2.5,0.7s-0.1,6.1-0.3,6.9c-0.2,0.8,0.4,1.1,1.1,1.3c0.7,0.1,1.1-0.3,1.1-0.8C82.7,78.3,82.1,78.2,82.1,78.2z
		 M81.8,68.3c1.3-0.1,2.1,0.2,2.5,0.4c0.4,0.2,0.7-0.1,0.9,0.1c0.2,0.1,2.3,2.4,2.3,2.4s0.2-2.1,0.1-2.4c0-0.3-0.8-1.1-0.9-1.6
		c-0.1-0.5,0-5.4,0-5.4s0,0,0.3-1.6c0.3-1.6,1.8-8.3,1.8-9.8c0-1.4-1.3-2.3-1.7-2.4c-0.4-0.1-0.4,0.4-0.5,0.5
		c-0.1,0.1-0.9,0.2-1.1,0.1c-0.2-0.1-2.8-2.2-3.2-2.2c-0.4,0-3.3,2.5-3.6,2.6c-0.3,0.1-0.7,0.1-0.9-0.2c-0.2-0.3-0.4-0.3-0.6-0.3
		c-0.2,0.1-1,0.9-1.4,1.3c-0.4,0.5-0.4,1.8-0.3,3.2c0.1,1.5-0.1,5.9-0.1,5.9c-0.7-0.1-0.9,0.3-1.5,0.8c-0.6,0.5-1.4,0.8-2.2,0.8
		c-0.8,0-1.4-0.2-2.2-0.6c-0.8-0.3-1.3,0.1-1.4,0.8c-0.1,0.7,0.6,0.9,0.9,0.9c0.3,0,0.2-0.5,0.2-0.5c0.5-0.4,0.8,0.4,0.6,1.1
		c-0.1,0.7-1.8,2.7-2.2,3.4c-0.3,0.7,0.2,0.7,0.3,0.9c0.1,0.2-0.8,1.1-1.2,2.1c-0.5,1,0.3,2.7,0.9,4c0.6,1.3,0.5,2.8,0.5,2.8
		s-0.1,0.2-0.6,0.4c-0.5,0.2-0.4,0.6-0.4,0.6s0,0,0.1,0.4c0.1,0.4,0.8,0.6,1.4,0.2c0.6-0.4,0.7-3,0.4-4.4c-0.3-1.4-0.4-2.7-0.4-3.1
		c0-0.5,0.6-0.9,0.8-1.2c0.2-0.3,0.4-1,1.2-0.1c0.7,0.8,4,0.9,4.1,1.2c0.1,0.3,0.7,4,0.7,4l0.1,0.2l-0.1,0c0,0,0,0-0.1,0.3
		c-0.1,0.3,0.2,0.6,0.2,0.6l1-0.1l-0.2-5.4c0,0,2.6-0.1,3.2-0.2C79.9,68.8,80.5,68.4,81.8,68.3z M85.3,61.8
		c-0.2,0.3-0.5,0.9-0.5,0.9s0-0.5,0.1-1c0.1-0.4,1.4-0.9,1.4-0.9S85.6,61.5,85.3,61.8z M83.3,60.8C83.6,60.2,85,59,85,59l2.2-7.1
		l-1.9,7.3c0,0-1.8,1.3-1.9,1.8c-0.1,0.5-0.3,1.7-0.3,1.7S83,61.3,83.3,60.8z M82.2,63.9c-0.3-0.1-2.9-0.3-2.9-0.3
		C81.1,63.1,82.2,63.9,82.2,63.9z M70.6,63.9c0,0,0.6-1.9,0.5-2.5c0,0,1.8,0.2,2.6-0.3c0.7-0.5,1.3-0.6,1.5-0.6L75,63.3
		C75,63.3,71.5,63.6,70.6,63.9z M71,66.4c0,0,10.4,1,11.8,0.5c0,0,0.3-0.4,0.3-1.7c0,0,0.5,1.9-0.3,2.1C82,67.5,73.9,67.2,71,66.4z
		 M98.8,83.2c-0.2-0.2-0.5-0.3-0.8-0.3c-0.3,0-0.6,0.2-0.9,0.4l1.8,1.6c0.2-0.3,0.3-0.7,0.2-1C99.2,83.7,99.1,83.4,98.8,83.2z
		 M90.2,78.7c0,0,0.7-0.8,0.5-1.2c-0.3-0.4-1.2,0.2-1.6,0.2c-0.4,0-4.9-0.5-6.2-3.3c0,0-0.4,1.3-0.3,1.6
		C82.7,76.4,85.3,79.7,90.2,78.7z M103.8,83.1l-9.6-7.8c0,0,0,0-1.3-1c-1.3-1-2,0-2,0l-2.5,2.8l1.1,0c0.6-0.4,1.9-1,1.8,0.6
		c0,1.6-1.3,1.5-1.3,1.5c-0.6,0-3.2,0-3.2,0c-0.3,0.9,0,1.6,0,1.6s9.9,8.4,10.9,9c1,0.6,2.1,0.2,2.1,0.2s3.5-4,4.1-5.1
		C104.6,83.9,103.8,83.1,103.8,83.1z M101.1,87.2c-0.1,0.1-0.2,0.1-0.3,0.1c-0.1,0-0.2-0.1-0.3-0.2l-1.1-1c-0.3,0.3-0.7,0.5-1,0.7
		c-0.3,0.2-0.7,0.2-1,0.3c-0.3,0-0.6,0-0.9-0.1c-0.3-0.1-0.5-0.2-0.7-0.4c-0.1-0.1-0.2-0.3-0.2-0.5c0-0.2,0-0.4,0.2-0.5
		c0.1-0.1,0.2-0.2,0.4-0.3c0.1,0,0.3,0,0.4,0c0.3,0.1,0.5,0.2,0.7,0.2c0.2,0,0.4,0.1,0.6,0c0.2,0,0.4-0.1,0.6-0.3l-1.9-1.7
		c-0.4,0.3-0.8,0.5-1.2,0.7c-0.3,0.1-0.7,0.2-1.1,0.2c-0.4,0-0.7-0.2-1.1-0.5c-0.5-0.4-0.7-0.9-0.8-1.5c0-0.6,0.2-1.2,0.6-1.8
		l-0.4-0.4c-0.2-0.2-0.3-0.4-0.1-0.6c0.2-0.2,0.3-0.2,0.6,0l0.4,0.4c0.3-0.3,0.6-0.5,0.9-0.6c0.3-0.1,0.6-0.2,0.9-0.2
		c0.3,0,0.5,0,0.7,0.1c0.2,0.1,0.4,0.1,0.5,0.2c0.1,0.1,0.2,0.3,0.2,0.5c0,0.2,0,0.4-0.2,0.5C96.3,81,96,81,95.6,80.9
		c-0.4-0.2-0.9-0.2-1.3,0.1l1.7,1.5c0.4-0.3,0.7-0.5,1-0.6c0.3-0.1,0.5-0.2,0.8-0.3c0.3,0,0.6,0,0.9,0.1c0.3,0.1,0.6,0.2,0.8,0.5
		c0.3,0.3,0.5,0.6,0.7,1c0.1,0.4,0.2,0.8,0.1,1.3c-0.1,0.4-0.3,0.9-0.6,1.3l1,0.9c0.2,0.1,0.3,0.3,0.3,0.4
		C101.2,87,101.2,87.1,101.1,87.2z M93.7,82.3c0,0.2,0.1,0.4,0.3,0.6c0.2,0.2,0.4,0.3,0.7,0.2c0.2,0,0.5-0.1,0.8-0.3l-1.6-1.4
		C93.7,81.8,93.7,82,93.7,82.3z"/>
</g>
<g>
	<path fill="#283934" d="M83.9,151.2c-1.1,0.6-3.3,0.9-5.7,0.9c-2.4,0-4.5-0.3-5.7-0.9c-3.6-0.7-6.4-2-7.4-3.8c0,0,0,0.1,0,0.1
		c0,2.1,3.1,4,7.6,4.8c1,0.5,3.1,0.8,5.5,0.8c2.5,0,4.6-0.4,5.6-0.9c4.3-0.9,7.3-2.7,7.3-4.8c0,0,0-0.1,0-0.1
		C90.1,149.2,87.4,150.4,83.9,151.2z M83.9,149.6c-1.1,0.6-3.3,0.9-5.7,0.9c-2.4,0-4.5-0.3-5.7-0.9c-3.6-0.7-6.4-2-7.4-3.8
		c0,0,0,0.1,0,0.1c0,2.1,3.1,4,7.6,4.8c1,0.5,3.1,0.8,5.5,0.8c2.5,0,4.6-0.4,5.6-0.9c4.3-0.9,7.3-2.7,7.3-4.8c0,0,0-0.1,0-0.1
		C90.1,147.6,87.4,148.9,83.9,149.6z M83.9,147.9c-1.1,0.6-3.3,0.9-5.7,0.9c-2.4,0-4.5-0.3-5.7-0.9c-3.6-0.7-6.4-2-7.4-3.8
		c0,0,0,0.1,0,0.1c0,2.2,3.1,4,7.6,4.8c1,0.5,3.1,0.8,5.5,0.8c2.5,0,4.6-0.4,5.6-0.9c4.3-0.9,7.3-2.7,7.3-4.8c0,0,0-0.1,0-0.1
		C90.1,145.9,87.4,147.2,83.9,147.9z M78.1,135.6c-7.2,0-13,2.4-13,5.3c0,2.1,3.1,4,7.6,4.8c1,0.5,3.1,0.8,5.5,0.8
		c2.5,0,4.6-0.4,5.6-0.9c4.3-0.9,7.3-2.7,7.3-4.8C91.1,138,85.3,135.6,78.1,135.6z M86.4,141.9c0-0.1,0-0.2,0-0.2
		c0-1.7-3.7-3.1-8.2-3.1c-4.5,0-8.2,1.4-8.2,3.1c0,0,0,0.1,0,0.1c-0.1-0.2-0.1-0.3-0.1-0.5c0-1.8,3.7-3.2,8.3-3.2
		c4.6,0,8.3,1.4,8.3,3.2C86.6,141.5,86.5,141.7,86.4,141.9z M83.9,146.4c-1.1,0.6-3.3,0.9-5.7,0.9c-2.4,0-4.5-0.3-5.7-0.9
		c-3.6-0.7-6.4-2-7.4-3.8c0,0,0,0.1,0,0.1c0,2.1,3.1,4,7.6,4.8c1,0.5,3.1,0.8,5.5,0.8c2.5,0,4.6-0.4,5.6-0.9
		c4.3-0.9,7.3-2.7,7.3-4.8c0,0,0-0.1,0-0.1C90.1,144.4,87.4,145.7,83.9,146.4z M93.4,125.3l6,4l9.7-4.8l-6.3-4.9L88.6,117L73,121.3
		l-4.2,6.9l16.9,4.1l-12.8-2.5v5.6c0,0,1.6-0.7,9.3,0c7.7,0.7,9.3,4.3,9.3,4.3l0.2,6.2l1,0.2l10.7-6.9v-11.6l-4.4,2.1L93.4,125.3z
		 M87.3,132.4l-0.6-0.2l4.8-7L87.3,132.4z M92.6,142.7l-0.4-17.9l-17.7-3.3l14-3.8l13.8,2.2l-9.6,4.7L92.6,142.7z"/>
</g>
<path fill="#283934" d="M162.5,123.3c0-1,0-1.9,0-2.7c0-0.2,0-0.4,0-0.6c0-0.3,0.2-0.5,0.6-0.5c1.5,0,3,0,4.4,0
	c0.5,0,0.6,0.2,0.6,0.7c0,1.1,0,2.2,0,3.3c0,1.6,0,3.2,0,4.8c0,0.3,0.1,0.4,0.3,0.6c1.7,1.5,3.4,3.1,5.1,4.6
	c0.4,0.3,0.5,0.7,0.3,1.2c-0.2,0.4-0.5,0.7-1,0.7c-0.8,0-1.6,0-2.4,0c-0.2,0-0.4-0.1-0.5-0.2c-2-1.9-4.1-3.8-6.2-5.7
	c-2.7-2.5-5.3-5-8-7.4c-0.4-0.3-0.8-0.7-1.1-1.1c-0.2-0.2-0.3-0.2-0.5,0c-1.8,1.7-3.6,3.3-5.3,5c-3.3,3.1-6.6,6.1-9.9,9.2
	c-0.2,0.2-0.3,0.2-0.6,0.2c-0.8,0-1.6,0-2.4,0c-0.5,0-0.8-0.2-1-0.6c-0.2-0.4-0.1-0.8,0.2-1.2c0.7-0.7,1.4-1.3,2.1-1.9
	c2.1-1.9,4.1-3.8,6.2-5.7c3.2-2.9,6.4-5.9,9.6-8.8c0.8-0.8,1.9-0.7,2.8,0.1C158,119.2,160.2,121.2,162.5,123.3z"/>
<g>
	<path fill="#283934" d="M140.7,74.6c-1.7,0-3.1,1.4-3.1,3.1c0,1.7,1.4,3.1,3.1,3.1c1.7,0,3.1-1.4,3.1-3.1
		C143.7,76,142.4,74.6,140.7,74.6z"/>
	<path fill="#283934" d="M168.7,74.6c-1.7,0-3.1,1.4-3.1,3.1c0,1.7,1.4,3.1,3.1,3.1s3.1-1.4,3.1-3.1C171.8,76,170.4,74.6,168.7,74.6
		z"/>
	<path fill="#283934" d="M146.5,60.7l-7.9,0c-0.4,0-1,0.3-1.2,0.7l-4.1,6.4c-0.2,0.4-0.4,1-0.4,1.5v6.2c0,0.4,0.4,0.8,0.8,0.8h3.1
		c0.7-1.4,2.2-2.3,3.9-2.3s3.2,1,3.9,2.3h2c0.4,0,0.8-0.4,0.8-0.8v-14C147.3,61,147,60.7,146.5,60.7z M134.5,74.7
		c0,0.3-0.2,0.5-0.5,0.5c-0.3,0-0.5-0.2-0.5-0.5v-1.1c0-0.3,0.2-0.5,0.5-0.5c0.3,0,0.5,0.2,0.5,0.5V74.7z M145.5,66.6
		c0,0.4-0.4,0.8-0.8,0.8h-8.4c-0.4,0-0.6-0.3-0.4-0.7l2.7-4.3c0.2-0.4,0.8-0.7,1.2-0.7h4.9c0.4,0,0.8,0.4,0.8,0.8V66.6z"/>
	<path fill="#283934" d="M174.1,55.2h-25c-0.4,0-0.8,0.4-0.8,0.8v19.4c0,0.4,0.4,0.8,0.8,0.8h15.5c0.7-1.4,2.2-2.3,3.9-2.3
		c1.7,0,3.2,1,3.9,2.3h1.7c0.4,0,0.8-0.4,0.8-0.8V56C174.9,55.6,174.6,55.2,174.1,55.2z M170.5,66.9c-3.8,0-7.5,0-11.3,0
		c-0.1,0-0.2,0-0.2,0c0,0-0.1,0-0.1,0.1c0,0.1,0,0.1,0,0.2c0,0.5,0,1,0,1.5c0,0,0,0.1,0,0.1c0,0.1,0,0.1,0,0.2c-0.1,0-0.1,0-0.2-0.1
		c-1.4-0.9-2.8-1.8-4.2-2.7c-0.6-0.4-1.3-0.8-1.9-1.2c-0.2-0.1-0.2-0.2,0-0.3c2-1.3,4.1-2.6,6.1-3.9c0,0,0.1-0.1,0.2-0.1
		c0,0,0.1,0,0.1,0.1c0,0.1,0,0.1,0,0.2c0,0.5,0,1.1,0,1.6c0,0.1,0,0.1,0,0.2c0,0,0,0.1,0.1,0.1c0.1,0,0.1,0,0.2,0c1.9,0,3.8,0,5.6,0
		c1.9,0,3.8,0,5.6,0c0.3,0,0.3,0,0.3,0.3c0,1.2,0,2.4,0,3.6C170.8,67,170.9,66.9,170.5,66.9z M173.7,74.7c0,0.3-0.2,0.5-0.5,0.5
		c-0.3,0-0.5-0.2-0.5-0.5v-1.1c0-0.3,0.2-0.5,0.5-0.5c0.3,0,0.5,0.2,0.5,0.5V74.7z"/>
</g>
<path fill="#283934" d="M169.1,150c0-0.5-0.2-0.7-0.6-0.8c-0.2,0-0.3-0.1-0.3-0.3c0-2.2,0-4.3,0-6.5c0-2.2,0-4.4,0-6.6
	c0-0.3-0.1-0.6-0.3-0.8c-1.3-1.2-2.5-2.3-3.7-3.5c-3.1-2.9-6.3-5.9-9.4-8.8c-0.2-0.2-0.4-0.2-0.6,0c-4.4,4.1-8.8,8.2-13.2,12.3
	c-0.2,0.2-0.3,0.4-0.3,0.7c0,2,0,3.9,0,5.9c0,2.4,0,4.7,0,7.1c0,0.2,0,0.4-0.3,0.4c-0.6,0-0.8,0.3-0.8,0.9c0,0.8,0,1.5,0,2.3
	c0,0.7,0.3,0.9,0.9,0.9c4.6,0,9.2,0,13.8,0c0,0,0,0,0,0c2.5,0,4.9,0,7.4,0c2.2,0,4.3,0,6.5,0c0.6,0,0.9-0.3,0.9-0.9
	C169.1,151.6,169.1,150.8,169.1,150z M151.8,130.1c0.1-0.2,0.2-0.1,0.3,0c0.2,0.7,0.4,1.3,0.7,2c0,0.1,0.1,0.2-0.1,0.4
	c-0.5,0.2-1.1,0.4-1.6,0.7c-0.2,0.1-0.2-0.1-0.2-0.2C150.9,131.9,151.2,131,151.8,130.1z M157.2,135.1c-0.6,0.7-1.2,1.3-1.4,2.3
	c0,0,0,0,0,0l0,5.9c0,0,0,0.1,0,0.1c0,1.5,0,3.1,0.1,4.6c0,0.4-0.2,0.8-0.5,1.2c-0.5,0.4-1,0.5-1.6,0.3c-0.6-0.2-1-0.7-1-1.3
	c0-1,0.1-1.9,0.1-2.9l0-8.8c-0.2-0.5-0.5-1-0.8-1.4c-0.1-0.2-0.3-0.2-0.5-0.1c-0.2,0.1-0.4,0.2-0.6,0.3c-0.3,0.1-0.5,0-0.4-0.3
	c0-0.3,0-0.7,0.4-0.8c1.5-0.6,2.9-1.2,4.4-1.9c0.6-0.3,0.8-0.8,0.6-1.4c-0.2-0.6-0.4-1.2-0.6-1.8c0-0.1-0.1-0.2,0-0.3
	c0.1-0.1,0.2,0,0.3,0c0.6,0.1,1.1,0.5,1.5,0.8C158.5,131.2,158.5,133.5,157.2,135.1z"/>
</svg>
