<svg xmlns="http://www.w3.org/2000/svg" width="171.993" height="155.558" viewBox="0 0 171.993 155.558"><g transform="translate(-353.116 -1202.177)"><path d="M492.451,1228.732a23.146,23.146,0,0,1-7.344,2.564c-1.478.347-1.392-.565-1.436-1.564s.132-1.346,1.478-1.26,3.825-.783,7.649-2.347a35.778,35.778,0,0,0,8.3-5.129c1.476-1.13.521.5-.739,2.108s-4.042,3.586-7.909,5.628m6.779-1.217s.043.392-.609.957a10.4,10.4,0,0,1-2.824,1.52,27.255,27.255,0,0,1-4.041,1.348c-1.7.435-1.74,0-1.478-.391s.825-1.173,3.563-2.13a30.527,30.527,0,0,1,5.389-1.3M429.7,1300.57c.086,1.522.39,1.783-.349,2.043a40.264,40.264,0,0,1-6.6.391c-1-.087-1.217-1-1.261-1.781s-4.215-15.341-4.693-17.036.39-1.826.739-1.826,6.345.044,6.345.044.216,0,.434,1.652c.069.523,1.392,3.867,2.564,6.91s2.738,8.083,2.826,9.6m70.882-77.1a12.982,12.982,0,0,0,3.128-4.955c.089-.52-.395-.219-.955.263-5.564,4.78-9.127,5.736-9.127,5.736s.259-1.216.607-2.694,1.22-8.346-.172-12.778-4.65-6.954-8.3-6.866-7.345,2.434-7.519,5.3,2.868,3.042,3.477,3.216,1.392.435,1.652-.174,0-1.043-.7-1.912-2.956-2.608-.609-3.912,5.216-2.087,7.04-.521A13.169,13.169,0,0,1,493.19,1214a40.258,40.258,0,0,1-1.478,11.56,8.935,8.935,0,0,1-4.693,1.3c-3.216.174-3.913.348-4,2.782s1.3,2.607,2.521,2.259a13.073,13.073,0,0,1,2.259-.435s-.348,1.39-2.519,1.913-4.609.26-6.259,1.216-3.042,2.347-.957,3.3,3.653,2,4,3.215.261,1.217-.348,1.478-6.605,2.433-9.822,4.867-6.519,7.127-6.605,9.04.086,11.995,2.694,17.993,8.778,17.817,10.342,21.207,1.913,4.607,1.913,5.216.088,1.043-.955,1.3-6.694,1.044-8.78-1.043-6.432-9.215-8.518-16.515-2.52-8.169-2.434-10.256.435-6.649-.13-5.736a16.285,16.285,0,0,0-1.781,3.911c-.957,2.608-4.954,12.864-5.737,17.21s-1.827,9.648-1.913,10.865.086,1.825-1.3,2.173-5.387.435-6.866-.348-1.477-1.39-1.39-3.3a96.013,96.013,0,0,1,2.434-14.167c1.3-4.867,2.259-8.432,2.608-9.91s.955-3.129.174-2.433-7.3,3.3-11.995,4.345-10.258,1.13-12.257.349-2.521-1.218-1.564-2.347,4.172-4.695,5.3-6.78a10.285,10.285,0,0,0,1.271-3.436s-2.247-.366-7.723,6.8c-2.836,3.713-2.738,5.345-9.126,14.8-1.792,2.65-6.739,6.11-7.433,6.975a5.8,5.8,0,0,0-1.214,4.2,17.835,17.835,0,0,1,.236,3.883c-.146,1.214-.438,1.564-1.825,1.564s-6.761-.066-8.67-1.108c-.817-.445-1.514-.521-1.744-2.043a14.654,14.654,0,0,1,1.77-8.366s5.342-8.67,6.558-11.277,1.217-4.955-.607-9.647-4-9.213-4-12.518-.348-4.432,1.827-6.17a67.344,67.344,0,0,1,20.6-11.474,95.8,95.8,0,0,1,13.647-3.477,48.222,48.222,0,0,1,7.387-.7s-.521,4.172-.607,5.824a10.052,10.052,0,0,0,4,9.3c4.346,3.216,10.431,5.607,13.82,8.824,2.118,2.008,6.292,2.068,8.8-.13,1.506-1.321,2.085-3.479,1.977-6.433-.281-7.779-2.107-12.343-2-17.124.021-.955-1.044-1.65-2.348-2.259a5.524,5.524,0,0,0-3.216-.434c-.955.086-1.043.432,0,.869s1.564.174,1.3,1.652a28.155,28.155,0,0,0,.521,7.3c.436,2.347,1.912,7.214,1.826,10.256s-.783,4.607-1.564,5.562-1.13,1.434-2.7.479-5.562-3.606-7.735-5a14.911,14.911,0,0,1-7.474-13.125c-.174-9.561,6.084-12.429,9.127-13.646a23.772,23.772,0,0,1,7.713-1.348c1.477-.086,1.846-.391,3.324-1.955s4.346-4.694,7.216-4.694,4,1.217,7.04,2.695,4.388,2.194,6.735,2.194,5.085-1.759,7.172-7.671.26-8.17-.7-9.039a4.3,4.3,0,0,0-2.868-.783c-.348,0-.174.349.347.783a6,6,0,0,1,1.39,4.432c-.173,2.173-.175,4.26-2.085,6.868s-3.219,3.737-4.435,3.737-4.432-1.738-7.386-3.042a10.206,10.206,0,0,0-9.127.174c-2.7,1.564-6.346,4.172-7.736,4s-2.782-.435-4.084.348-7.13,3.737-10.431,4.258a5.159,5.159,0,0,0-4.171,3.13s-1.306,0-2.348.086a8.239,8.239,0,0,0-3.478.87,3.874,3.874,0,0,1-2.954,1.043c-1.825,0-13.323.751-25.99,8.778-5.279,3.347-8.777,7.909-11.124,10.431s-5.215,7.388-5.476,11.822-.262,7.212-.262,7.212a12.245,12.245,0,0,0,2.434-5.822,51.008,51.008,0,0,1,.869-6.867,10,10,0,0,1,1.217-2.694,28.409,28.409,0,0,0,.7,7.214c.87,3.389,3.563,9.733,3.738,10.6s.436,1.129-.347,2.084-5.736,8.867-6.78,13.213-1.912,7.648-.608,11.039,5.041,4.172,8.518,4.172a12.3,12.3,0,0,0,6.433-1.652c.432-.349.432-.521.432-1.825s.609-6.172,2.348-8.692a69.047,69.047,0,0,1,5.824-6.78c1.043-1.129,2.259-2.607,2.259-2.607a50.555,50.555,0,0,1,4.434,9.387,88.233,88.233,0,0,1,2.215,11.19,18.936,18.936,0,0,0,4.913.37,31.97,31.97,0,0,0,7.56-1.564,20.6,20.6,0,0,0-1.216-8.866c-1.74-4.521-2.521-6.345-2.521-9.127a15.117,15.117,0,0,1,.174-3.3,60.048,60.048,0,0,0,6.866-2,17.784,17.784,0,0,1,5.564-1.218,13.293,13.293,0,0,1-.521,3.739c-.611,2.345-2.435,8.43-3.218,11.037a13.054,13.054,0,0,0,.61,9.041c1.39,2.694,6.431,2.694,8.6,2.171s6.5-1.608,6.431-2.606a40.733,40.733,0,0,1,.174-9.04,31.088,31.088,0,0,1,2.869-10.257,44.688,44.688,0,0,1,1.826-4.171c.174-.349.609-.609.7.26s1.564,10.431,4.26,15.3,6.256,10.257,10.43,10.691a17.273,17.273,0,0,0,8.69-1.216c1.739-.7,1.739-.957,1.565-1.652a124.252,124.252,0,0,0-6.866-17.991c-4.346-9.215-8.43-16.819-8.344-24.077.044-3.655.433-4.608.87-5.215a2.332,2.332,0,0,1,1.824-1.13c1.044-.174,2.52-1.13,4.955-4.26s3.649-5.171,7.084-5.213c2.956-.039,3-.175,2.912-1.044s-1.913-2.782-3.739-3.825a19.432,19.432,0,0,1-3.563-2.608c-.349-.346-.349-.608.434-.608s5.215-.326,7.737-2.085c1.7-1.188,1.825-1.478,2.608-1.653a27.628,27.628,0,0,0,6.431-1.738c2.7-1.216,6.624-4.742,6.258-4.693s-1.585.521-2.889.782a22.549,22.549,0,0,1-2.414.348,35.145,35.145,0,0,0,3.739-3.565" fill="#ad7d2a"/><path d="M471.546,1230.557a2.914,2.914,0,0,0-.739,1.825,3.338,3.338,0,0,0,2.521-.607c1.39-.914,1.7-1.478,1.783-1.7s-.393-.392-.393-.392a3.751,3.751,0,0,0-3.172.869" fill="#ad7d2a"/><path d="M525.109,1316.161h-.9v-2.741h-.019l-1,2.741h-.647l-1-2.741h-.018v2.741h-.9v-3.869h1.276l.968,2.545.966-2.545h1.268Zm-4.976-3.116h-1.1v3.116h-.958v-3.116h-1.1v-.753h3.154Z" fill="#1a1718"/><path d="M353.116,1311.982h8.527l7.363,21.758h.1l7.364-21.758h8.527l-11.675,32.636h-9.012Z" fill="#1a1718"/><rect width="8.236" height="32.636" transform="translate(387.367 1311.982)" fill="#1a1718"/><path d="M407.908,1333.148c.1,1.6.339,5.987,6.976,5.987,4.214,0,5.91-1.416,5.91-3.93,0-1.828-1.7-2.515-4.02-3.155l-7.848-2.1c-1.988-.547-7.995-2.148-7.995-8.5,0-5.989,5.185-10.2,13.615-10.2,7.848,0,12.885,3.565,13.274,11.062h-8.043c-.193-1.555-.533-4.845-5.863-4.845-2.227,0-4.94.732-4.94,3.246,0,1.462.823,2.1,2.713,2.6l9.4,2.423c4.265,1.1,7.946,3.565,7.946,8.731,0,5.8-3.877,10.879-14.437,10.879-8.77,0-14.487-3.567-14.923-12.2Z" fill="#1a1718"/><rect width="8.236" height="32.636" transform="translate(433.1 1311.982)" fill="#1a1718"/><path d="M472.053,1328.3c0-7.816-4.748-10.559-8.817-10.559s-8.817,2.743-8.817,10.559,4.749,10.559,8.817,10.559,8.817-2.743,8.817-10.559m8.236,0c0,10.376-7.267,17.05-17.053,17.05s-17.053-6.674-17.053-17.05,7.266-17.05,17.053-17.05,17.053,6.676,17.053,17.05" fill="#1a1718"/><path d="M485.231,1311.982h8.041l13.42,19.518h.1v-19.518h8.043v32.636H506.6l-13.225-19.745h-.1v19.745h-8.041Z" fill="#1a1718"/><path d="M361.482,1348.591h6.679v1.65h-4.716v1.914h4.328v1.527h-4.328v2.189h4.816v1.65h-6.78Z" fill="#1a1718"/><path d="M371.781,1352.844l-2.877-4.253h2.277l1.751,2.85,1.814-2.85H376.9l-2.865,4.265,3.116,4.668h-2.342l-1.95-3.092-1.99,3.092h-2.214Z" fill="#1a1718"/><path d="M380.168,1350.241h-2.678v-1.65h7.318v1.65h-2.676v7.281h-1.964Z" fill="#1a1718"/><path d="M387.8,1352.631h2.152c.875,0,1.352-.375,1.352-1.277,0-.863-.477-1.237-1.352-1.237H387.8Zm-1.963-4.04h4.816a2.453,2.453,0,0,1,2.614,2.463,2.2,2.2,0,0,1-1.413,2.242v.023c.963.252,1.237,1.187,1.3,2.089a4.887,4.887,0,0,0,.374,2.116h-1.963a9.972,9.972,0,0,1-.314-2.139c-.137-.94-.5-1.352-1.488-1.352H387.8v3.491h-1.963Z" fill="#1a1718"/><path d="M402.456,1354.146c0,2.414-1.425,3.589-3.814,3.589s-3.8-1.163-3.8-3.589v-5.555H396.8v5.555c0,.976.252,1.939,1.841,1.939,1.4,0,1.851-.614,1.851-1.939v-5.555h1.963Z" fill="#1a1718"/><path d="M405.488,1354.558c0,1.189.926,1.65,1.976,1.65.69,0,1.74-.2,1.74-1.112,0-.962-1.339-1.126-2.651-1.476-1.327-.35-2.666-.864-2.666-2.539,0-1.827,1.726-2.7,3.339-2.7,1.864,0,3.578.813,3.578,2.877h-1.9c-.063-1.075-.827-1.35-1.764-1.35-.625,0-1.35.263-1.35,1.014,0,.686.426.774,2.664,1.35.651.163,2.652.575,2.652,2.6,0,1.638-1.288,2.864-3.715,2.864-1.977,0-3.829-.976-3.8-3.177Z" fill="#1a1718"/><rect width="1.964" height="8.931" transform="translate(412.273 1348.591)" fill="#1a1718"/><path d="M419.967,1356.085c1.763,0,2.427-1.5,2.427-2.991,0-1.563-.664-3.064-2.427-3.064s-2.426,1.5-2.426,3.064c0,1.49.663,2.991,2.426,2.991m0-7.707c2.764,0,4.39,2.066,4.39,4.716a4.4,4.4,0,1,1-8.781,0c0-2.65,1.625-4.716,4.391-4.716" fill="#1a1718"/><path d="M425.7,1348.591h1.95l3.728,5.993h.025v-5.993h1.841v8.931h-1.965l-3.716-5.979h-.023v5.979H425.7Z" fill="#1a1718"/><path d="M436.315,1354.558c0,1.189.926,1.65,1.976,1.65.69,0,1.738-.2,1.738-1.112,0-.962-1.337-1.126-2.65-1.476s-2.665-.864-2.665-2.539c0-1.827,1.726-2.7,3.339-2.7,1.864,0,3.578.813,3.578,2.877h-1.9c-.063-1.075-.827-1.35-1.765-1.35-.624,0-1.349.263-1.349,1.014,0,.686.426.774,2.664,1.35.651.163,2.651.575,2.651,2.6,0,1.638-1.288,2.864-3.714,2.864-1.978,0-3.829-.976-3.8-3.177Z" fill="#1a1718"/><path d="M453.034,1356.509a3.021,3.021,0,0,1-2.453,1.226,4.309,4.309,0,0,1-4.39-4.641c0-2.652,1.626-4.716,4.39-4.716a3.591,3.591,0,0,1,3.767,3.153h-1.877a1.829,1.829,0,0,0-1.89-1.5c-1.763,0-2.426,1.5-2.426,3.064,0,1.488.663,2.991,2.426,2.991a1.935,1.935,0,0,0,2.128-1.929h-1.976v-1.462h3.752v4.828h-1.25Z" fill="#1a1718"/><path d="M458.043,1352.631H460.2c.875,0,1.35-.375,1.35-1.277,0-.863-.475-1.237-1.35-1.237h-2.152Zm-1.965-4.04H460.9a2.452,2.452,0,0,1,2.613,2.463,2.2,2.2,0,0,1-1.412,2.242v.023c.963.252,1.237,1.187,1.3,2.089a4.844,4.844,0,0,0,.374,2.116h-1.965a9.914,9.914,0,0,1-.311-2.139c-.138-.94-.5-1.352-1.489-1.352h-1.964v3.491h-1.965Z" fill="#1a1718"/><path d="M469.118,1356.085c1.763,0,2.426-1.5,2.426-2.991,0-1.563-.663-3.064-2.426-3.064s-2.427,1.5-2.427,3.064c0,1.49.664,2.991,2.427,2.991m0-7.707c2.764,0,4.392,2.066,4.392,4.716a4.4,4.4,0,1,1-8.782,0c0-2.65,1.625-4.716,4.39-4.716" fill="#1a1718"/><path d="M482.436,1354.146c0,2.414-1.427,3.589-3.817,3.589s-3.8-1.163-3.8-3.589v-5.555h1.964v5.555c0,.976.25,1.939,1.84,1.939,1.4,0,1.851-.614,1.851-1.939v-5.555h1.966Z" fill="#1a1718"/><path d="M486.092,1352.8h1.526c.913,0,1.726-.2,1.726-1.34s-.813-1.337-1.726-1.337h-1.526Zm-1.966-4.2h4.03a2.873,2.873,0,1,1,0,5.729h-2.064v3.2h-1.966Z" fill="#1a1718"/><path d="M495.7,1348.591h1.965v7.281h4.353v1.65H495.7Z" fill="#1a1718"/><path d="M504.354,1350.241h-2.676v-1.65h7.316v1.65h-2.676v7.281h-1.964Z" fill="#1a1718"/><path d="M511.989,1355.872h1.75c1.139,0,2.224-.7,2.224-2.676,0-1.8-.624-2.953-2.576-2.953h-1.4Zm-1.966-7.281h3.854c2.312,0,4.052,1.452,4.052,4.416,0,2.59-1.325,4.515-4.052,4.515h-3.854Z" fill="#1a1718"/><rect width="1.964" height="1.927" transform="translate(518.935 1355.598)" fill="#1a1718"/></g></svg>