<svg xmlns="http://www.w3.org/2000/svg" width="343.309" height="118.503" viewBox="0 0 343.309 118.503"><g transform="translate(-1173.312 -1543.689)"><path d="M1358.212,1594.955a6.736,6.736,0,0,1-.234,1.9,6.656,6.656,0,0,1-6.4,4.489c-2.628,0-4.714-1.489-4.714-4.644,0-4.823,5.307-6.158,11.351-6.123Zm9.483-8.407c0-7.954-3.4-14.953-14.884-14.953a27.229,27.229,0,0,0-13.127,3.131l1.869,6.394a19.254,19.254,0,0,1,9.573-2.693c5.824-.015,6.783,3.3,6.783,5.425v.5c-12.705-.021-20.727,4.376-20.727,13.335,0,5.468,4.087,10.6,11.192,10.6a12.708,12.708,0,0,0,10.213-4.54h.218s1.449,6.071,9.448,3.745a50.717,50.717,0,0,1-.558-8.459Z" fill="#006bb7"/><path d="M1173.312,1560.76s8.3,34,9.619,39.521c1.544,6.443,4.332,8.812,12.361,7.211l5.181-21.079c1.315-5.237,2.195-8.967,3.039-14.295h.149a139.738,139.738,0,0,0,2.515,14.31s2.112,9.572,3.193,14.6,4.094,8.194,11.962,6.467l12.344-46.732h-9.966l-4.218,20.2c-1.134,5.881-2.161,10.479-2.952,15.86h-.145c-.717-5.329-1.633-9.742-2.786-15.471l-4.387-20.594h-10.387l-4.694,20.074c-1.328,6.1-2.575,11.024-3.365,16.221h-.141c-.81-4.893-1.89-11.086-3.06-16.986,0,0-2.788-14.358-3.766-19.309Z" fill="#006bb7"/><path d="M1251.945,1594.955a6.593,6.593,0,0,1-.236,1.9,6.661,6.661,0,0,1-6.405,4.489c-2.626,0-4.714-1.489-4.714-4.644,0-4.823,5.313-6.158,11.355-6.123Zm9.479-8.407c0-7.954-3.4-14.953-14.881-14.953a27.221,27.221,0,0,0-13.129,3.131l1.867,6.394a19.246,19.246,0,0,1,9.575-2.693c5.826-.015,6.781,3.3,6.781,5.425v.5c-12.7-.021-20.727,4.376-20.727,13.335,0,5.468,4.087,10.6,11.191,10.6a12.722,12.722,0,0,0,10.218-4.54h.215s1.451,6.071,9.447,3.745a51.054,51.054,0,0,1-.557-8.459Z" fill="#006bb7"/><path d="M1276.087,1597.572V1560.76H1266.6v46.732h9.488Z" fill="#006bb7"/><path d="M1396.789,1560.76v34.478c0,4.753.893,8.083,2.81,10.116a10.515,10.515,0,0,0,7.723,2.933,22.524,22.524,0,0,0,6.871-1.02l-.123-7.411a14.672,14.672,0,0,1-3.6.425c-3.237,0-4.317-2.069-4.317-6.336v-13.19h8.261v-8.942h-8.261V1560.76Z" fill="#006bb7"/><path d="M1372.292,1572.386v35.106h9.789v-17.973a13.578,13.578,0,0,1,.212-2.594c.726-3.763,3.606-6.17,7.739-6.17a17.865,17.865,0,0,1,2.825.251v-9.193a9.464,9.464,0,0,0-2.156-.218c-3.654,0-7.811,2.36-9.552,7.413h-.268v-6.622Z" fill="#006bb7"/><path d="M1281.585,1572.386v35.106h9.535v-20.585a8.265,8.265,0,0,1,.449-2.877c.793-2.071,2.719-4.5,5.8-4.5,3.85,0,5.65,3.255,5.65,7.951v20.007h9.53v-20.836a9.726,9.726,0,0,1,.4-2.845,6.013,6.013,0,0,1,5.723-4.277c3.9,0,5.779,3.2,5.779,8.726v19.232h9.533v-20.675c0-10.905-5.54-15.222-11.786-15.222a12.734,12.734,0,0,0-6.931,1.905,14.842,14.842,0,0,0-4.445,4.372h-.143a10.012,10.012,0,0,0-9.675-6.277c-5.934,0-8.6,3.008-10.223,5.565h-.141v-4.774Z" fill="#006bb7"/><path d="M1465.691,1570.815c1.887,0,3.442-.982,3.652-2.249l1.863-21.079c0-2.086-2.436-3.8-5.509-3.8s-5.5,1.712-5.5,3.8l1.855,21.079c.21,1.267,1.764,2.249,3.648,2.249Z" fill="#ffaa1a"/><path d="M1454.3,1577.4c.947-1.633.87-3.47-.123-4.288l-17.328-12.149c-1.8-1.043-4.5.211-6.034,2.872s-1.266,5.62.531,6.659l19.186,8.934c1.2.449,2.83-.407,3.774-2.04Z" fill="#ffaa1a"/><path d="M1477.1,1577.39c.943,1.633,2.57,2.489,3.774,2.04l19.18-8.934c1.808-1.039,2.067-4.007.543-6.659-1.543-2.658-4.247-3.912-6.047-2.872l-17.322,12.149c-.993.818-1.066,2.655-.123,4.288Z" fill="#ffaa1a"/><path d="M1465.691,1597.142c1.887,0,3.442.976,3.652,2.247l1.863,21.076c0,2.085-2.436,3.794-5.509,3.794s-5.5-1.709-5.5-3.794l1.855-21.076c.21-1.271,1.764-2.247,3.648-2.247Z" fill="#ffaa1a"/><path d="M1477.1,1590.561c.943-1.635,2.57-2.485,3.774-2.033l19.18,8.921c1.808,1.049,2.067,4.014.543,6.675-1.543,2.647-4.247,3.905-6.047,2.868l-17.322-12.145c-.993-.821-1.066-2.658-.123-4.288Z" fill="#ffaa1a"/><path d="M1454.3,1590.556c.947,1.629.87,3.467-.123,4.293l-17.328,12.14c-1.8,1.044-4.5-.218-6.034-2.868s-1.266-5.625.531-6.672l19.186-8.921c1.2-.452,2.83.4,3.777,2.031Z" fill="#ffaa1a"/><path d="M1503.766,1604.218h-.917v-.493h2.431v.493h-.926v2.728h-.588Z" fill="#ffaa1a"/><path d="M1508.169,1605.632c-.019-.416-.043-.917-.039-1.357h-.014c-.1.4-.239.831-.382,1.238l-.468,1.394h-.454l-.43-1.375c-.124-.411-.239-.851-.325-1.257h-.009c-.015.426-.034.937-.058,1.376l-.072,1.3h-.549l.215-3.221h.774l.421,1.3c.114.377.215.759.3,1.118h.014c.086-.349.2-.745.32-1.123l.445-1.291h.764l.186,3.221h-.573Z" fill="#ffaa1a"/><path d="M1509,1607.137l1.166-3.464h.411l-1.165,3.464Z" fill="#ffaa1a"/><path d="M1513.342,1605.632c-.019-.416-.043-.917-.038-1.357h-.015c-.1.4-.238.831-.382,1.238l-.468,1.394h-.454l-.43-1.375c-.124-.411-.239-.851-.325-1.257h-.009c-.014.426-.034.937-.058,1.376l-.071,1.3h-.55l.215-3.221h.774l.421,1.3c.114.377.215.759.3,1.118h.015c.085-.349.2-.745.32-1.123l.444-1.291h.764l.186,3.221h-.573Z" fill="#ffaa1a"/><path d="M1516.592,1606.85a2.008,2.008,0,0,1-.831.148,1.522,1.522,0,0,1-1.643-1.624,1.619,1.619,0,0,1,1.719-1.7,1.866,1.866,0,0,1,.784.143l-.129.469a1.561,1.561,0,0,0-.63-.124,1.072,1.072,0,0,0-1.128,1.184,1.058,1.058,0,0,0,1.123,1.162,1.64,1.64,0,0,0,.64-.12Z" fill="#ffaa1a"/><path d="M1255.029,1620.606h4.1v28.305h13.564v3.438h-17.662Z" fill="#006bb7"/><path d="M1296.661,1640.764c0,8.43-5.84,12.1-11.35,12.1-6.17,0-10.927-4.522-10.927-11.728,0-7.63,4.993-12.1,11.3-12.1C1292.234,1629.036,1296.661,1633.793,1296.661,1640.764Zm-18.085.235c0,4.992,2.873,8.76,6.923,8.76,3.956,0,6.923-3.721,6.923-8.854,0-3.862-1.93-8.76-6.829-8.76S1278.576,1636.666,1278.576,1641Z" fill="#006bb7"/><path d="M1321.1,1629.554c-.094,1.649-.188,3.486-.188,6.264v13.234c0,5.228-1.036,8.431-3.25,10.409-2.213,2.072-5.416,2.731-8.289,2.731a14.715,14.715,0,0,1-7.582-1.883l1.036-3.156a12.852,12.852,0,0,0,6.687,1.79c4.239,0,7.348-2.214,7.348-7.96v-2.543h-.095a8.137,8.137,0,0,1-7.253,3.815c-5.651,0-9.7-4.8-9.7-11.115,0-7.724,5.04-12.1,10.268-12.1a7.582,7.582,0,0,1,7.111,3.956h.094l.189-3.438Zm-4.286,9a6.063,6.063,0,0,0-6.028-6.264c-3.956,0-6.782,3.344-6.782,8.619,0,4.474,2.261,8.195,6.735,8.195a6.059,6.059,0,0,0,5.746-4.239,7.227,7.227,0,0,0,.329-2.214Z" fill="#006bb7"/><path d="M1331.7,1623.149a2.567,2.567,0,0,1-5.133,0,2.525,2.525,0,0,1,2.59-2.59A2.46,2.46,0,0,1,1331.7,1623.149Zm-4.615,29.2v-22.8h4.144v22.8Z" fill="#006bb7"/><path d="M1337.112,1648.111a10.87,10.87,0,0,0,5.464,1.648c3.014,0,4.426-1.507,4.426-3.391,0-1.978-1.177-3.061-4.238-4.192-4.1-1.46-6.028-3.72-6.028-6.452,0-3.674,2.967-6.688,7.865-6.688a11.382,11.382,0,0,1,5.6,1.413l-1.036,3.015a8.862,8.862,0,0,0-4.662-1.319c-2.45,0-3.815,1.412-3.815,3.108,0,1.884,1.365,2.732,4.333,3.862,3.955,1.507,5.981,3.485,5.981,6.876,0,4-3.109,6.829-8.525,6.829a13,13,0,0,1-6.4-1.554Z" fill="#006bb7"/><path d="M1360.9,1623.008v6.546h5.934v3.156H1360.9V1645c0,2.826.8,4.427,3.108,4.427a9.24,9.24,0,0,0,2.4-.282l.188,3.108a10.136,10.136,0,0,1-3.673.565,5.742,5.742,0,0,1-4.474-1.742c-1.178-1.225-1.6-3.25-1.6-5.935V1632.71h-3.532v-3.156h3.532v-5.463Z" fill="#006bb7"/><path d="M1375.682,1623.149a2.567,2.567,0,0,1-5.134,0,2.526,2.526,0,0,1,2.591-2.59A2.46,2.46,0,0,1,1375.682,1623.149Zm-4.616,29.2v-22.8h4.145v22.8Z" fill="#006bb7"/><path d="M1397.911,1651.5a15.291,15.291,0,0,1-6.547,1.318c-6.876,0-11.35-4.663-11.35-11.633,0-7.017,4.8-12.1,12.245-12.1a13.847,13.847,0,0,1,5.745,1.178l-.941,3.2a9.6,9.6,0,0,0-4.8-1.084c-5.228,0-8.054,3.862-8.054,8.619,0,5.275,3.391,8.524,7.913,8.524a11.774,11.774,0,0,0,5.086-1.13Z" fill="#006bb7"/><path d="M1401.771,1648.111a10.869,10.869,0,0,0,5.463,1.648c3.014,0,4.427-1.507,4.427-3.391,0-1.978-1.177-3.061-4.239-4.192-4.1-1.46-6.028-3.72-6.028-6.452,0-3.674,2.967-6.688,7.865-6.688a11.386,11.386,0,0,1,5.6,1.413l-1.037,3.015a8.859,8.859,0,0,0-4.662-1.319c-2.449,0-3.815,1.412-3.815,3.108,0,1.884,1.366,2.732,4.333,3.862,3.956,1.507,5.981,3.485,5.981,6.876,0,4-3.108,6.829-8.524,6.829a13,13,0,0,1-6.405-1.554Z" fill="#006bb7"/></g></svg>