<svg xmlns="http://www.w3.org/2000/svg" width="337.406" height="107.255" viewBox="0 0 337.406 107.255"><g transform="translate(-568.6 -1543.785)"><path d="M750.32,1594.17a6.654,6.654,0,0,1-.229,1.866,6.544,6.544,0,0,1-6.293,4.412c-2.584,0-4.633-1.464-4.633-4.564,0-4.74,5.215-6.052,11.155-6.018Zm9.32-8.263c0-7.817-3.343-14.7-14.628-14.7a26.749,26.749,0,0,0-12.9,3.078l1.837,6.284a18.9,18.9,0,0,1,9.409-2.647c5.723-.015,6.665,3.245,6.665,5.331v.494c-12.486-.02-20.37,4.3-20.37,13.106,0,5.374,4.016,10.415,11,10.415a12.489,12.489,0,0,0,10.038-4.461h.215s1.423,5.966,9.284,3.68a49.933,49.933,0,0,1-.548-8.314Z" fill="#006bb7"/><path d="M568.6,1560.563s8.155,33.417,9.454,38.841c1.517,6.332,4.257,8.661,12.148,7.087l5.091-20.716c1.293-5.147,2.157-8.813,2.987-14.05h.147a137.286,137.286,0,0,0,2.472,14.065s2.075,9.407,3.137,14.345,4.024,8.053,11.757,6.356l12.132-45.928H618.13l-4.146,19.858c-1.114,5.779-2.123,10.3-2.9,15.586h-.142c-.7-5.237-1.6-9.574-2.739-15.2l-4.311-20.239H593.683l-4.614,19.729c-1.3,5.994-2.531,10.834-3.307,15.942h-.138c-.8-4.809-1.857-10.9-3.008-16.694,0,0-2.739-14.111-3.7-18.977Z" fill="#006bb7"/><path d="M645.881,1594.17a6.476,6.476,0,0,1-.233,1.866,6.546,6.546,0,0,1-6.294,4.412c-2.581,0-4.634-1.464-4.634-4.564,0-4.74,5.222-6.052,11.161-6.018Zm9.316-8.263c0-7.817-3.34-14.7-14.626-14.7a26.752,26.752,0,0,0-12.9,3.078l1.835,6.284a18.9,18.9,0,0,1,9.41-2.647c5.726-.015,6.665,3.245,6.665,5.331v.494c-12.483-.02-20.37,4.3-20.37,13.106,0,5.374,4.016,10.415,11,10.415a12.5,12.5,0,0,0,10.042-4.461h.211s1.426,5.966,9.285,3.68a50.151,50.151,0,0,1-.547-8.314Z" fill="#006bb7"/><path d="M669.607,1596.742v-36.179h-9.324v45.928h9.324Z" fill="#006bb7"/><path d="M788.234,1560.563v33.885c0,4.671.878,7.944,2.762,9.942a10.336,10.336,0,0,0,7.59,2.882,22.166,22.166,0,0,0,6.753-1l-.121-7.283a14.482,14.482,0,0,1-3.543.417c-3.182,0-4.243-2.034-4.243-6.227v-12.963h8.119v-8.788h-8.119v-10.863Z" fill="#006bb7"/><path d="M764.159,1571.989v34.5h9.62v-17.664a13.374,13.374,0,0,1,.208-2.549,7.265,7.265,0,0,1,7.606-6.064,17.535,17.535,0,0,1,2.777.247v-9.035a9.271,9.271,0,0,0-2.119-.215c-3.592,0-7.677,2.32-9.388,7.286H772.6v-6.508Z" fill="#006bb7"/><path d="M675.011,1571.989v34.5h9.371V1586.26a8.128,8.128,0,0,1,.441-2.828c.779-2.035,2.673-4.418,5.7-4.418,3.784,0,5.554,3.2,5.554,7.815v19.662h9.366v-20.477a9.571,9.571,0,0,1,.394-2.8,5.909,5.909,0,0,1,5.624-4.2c3.837,0,5.679,3.141,5.679,8.576v18.9h9.37v-20.32c0-10.717-5.445-14.96-11.583-14.96a12.521,12.521,0,0,0-6.813,1.872,14.586,14.586,0,0,0-4.368,4.3h-.14a9.843,9.843,0,0,0-9.509-6.17c-5.832,0-8.457,2.957-10.048,5.47h-.137v-4.692Z" fill="#006bb7"/><path d="M855.951,1570.444c1.855,0,3.383-.964,3.59-2.21l1.83-20.716c0-2.05-2.393-3.733-5.414-3.733s-5.4,1.683-5.4,3.733l1.822,20.716c.207,1.246,1.734,2.21,3.586,2.21Z" fill="#ffaa1a"/><path d="M844.755,1576.918c.93-1.6.855-3.41-.121-4.214l-17.029-11.94c-1.769-1.025-4.422.207-5.931,2.822s-1.244,5.524.522,6.545l18.856,8.78c1.18.441,2.782-.4,3.709-2Z" fill="#ffaa1a"/><path d="M867.16,1576.907c.927,1.6,2.526,2.445,3.709,2l18.85-8.78c1.778-1.021,2.032-3.938.534-6.545-1.516-2.612-4.174-3.844-5.942-2.822l-17.025,11.94c-.976.8-1.048,2.61-.121,4.214Z" fill="#ffaa1a"/><path d="M855.951,1596.319c1.855,0,3.383.959,3.59,2.208l1.83,20.714c0,2.05-2.393,3.729-5.414,3.729s-5.4-1.679-5.4-3.729l1.822-20.714c.207-1.249,1.734-2.208,3.586-2.208Z" fill="#ffaa1a"/><path d="M867.16,1589.851c.927-1.607,2.526-2.442,3.709-2l18.85,8.768c1.778,1.031,2.032,3.945.534,6.56-1.516,2.6-4.174,3.838-5.942,2.819l-17.025-11.937c-.976-.806-1.048-2.612-.121-4.214Z" fill="#ffaa1a"/><path d="M844.755,1589.846c.93,1.6.855,3.407-.121,4.22L827.6,1606c-1.769,1.026-4.422-.215-5.931-2.819s-1.244-5.529.522-6.557l18.856-8.768c1.18-.444,2.782.391,3.712,2Z" fill="#ffaa1a"/><path d="M893.372,1603.273h-.9v-.484h2.39v.484h-.911v2.681h-.577Z" fill="#ffaa1a"/><path d="M897.7,1604.663c-.019-.408-.042-.9-.038-1.334h-.014c-.1.391-.235.818-.376,1.217l-.46,1.371h-.446l-.422-1.353c-.122-.4-.235-.835-.32-1.235h-.009c-.014.419-.033.921-.057,1.353l-.07,1.272h-.54l.211-3.165h.761l.413,1.273c.113.371.212.747.292,1.1h.014c.084-.343.192-.732.314-1.1l.437-1.268h.751l.183,3.165h-.563Z" fill="#ffaa1a"/><path d="M898.516,1606.143l1.146-3.4h.4l-1.146,3.4Z" fill="#ffaa1a"/><path d="M902.783,1604.663c-.019-.408-.042-.9-.038-1.334h-.014c-.1.391-.234.818-.376,1.217l-.459,1.371h-.446l-.423-1.353c-.122-.4-.235-.835-.32-1.235H900.7c-.014.419-.033.921-.056,1.353l-.071,1.272h-.54l.212-3.165H901l.414,1.273c.112.371.211.747.291,1.1h.014c.084-.343.192-.732.315-1.1l.436-1.268h.752l.182,3.165h-.563Z" fill="#ffaa1a"/><path d="M905.977,1605.86a1.967,1.967,0,0,1-.817.146,1.5,1.5,0,0,1-1.615-1.6,1.592,1.592,0,0,1,1.69-1.672,1.843,1.843,0,0,1,.771.14l-.127.461a1.537,1.537,0,0,0-.62-.122,1.053,1.053,0,0,0-1.108,1.164,1.039,1.039,0,0,0,1.1,1.142,1.6,1.6,0,0,0,.629-.118Z" fill="#ffaa1a"/><path d="M717.2,1619.379H734v3.379H721.223v10.368h11.8v3.334h-11.8v14.117H717.2Z" fill="#006bb7"/><path d="M738.394,1617.713h4.074v32.864h-4.074Z" fill="#006bb7"/><path d="M751.168,1640.116c.093,5.508,3.611,7.777,7.684,7.777a14.723,14.723,0,0,0,6.2-1.158l.7,2.916a18.146,18.146,0,0,1-7.453,1.389c-6.9,0-11.016-4.536-11.016-11.294s3.981-12.081,10.507-12.081c7.313,0,9.258,6.434,9.258,10.553a15.425,15.425,0,0,1-.139,1.9Zm11.942-2.916c.047-2.592-1.064-6.619-5.647-6.619-4.119,0-5.925,3.8-6.249,6.619Z" fill="#006bb7"/><path d="M773.94,1640.116c.092,5.508,3.61,7.777,7.683,7.777a14.732,14.732,0,0,0,6.2-1.158l.694,2.916a18.145,18.145,0,0,1-7.452,1.389c-6.9,0-11.016-4.536-11.016-11.294s3.98-12.081,10.506-12.081c7.314,0,9.258,6.434,9.258,10.553a15.425,15.425,0,0,1-.139,1.9Zm11.942-2.916c.045-2.592-1.065-6.619-5.647-6.619-4.12,0-5.925,3.8-6.249,6.619Z" fill="#006bb7"/><path d="M799.349,1621.74v6.434h5.833v3.1h-5.833v12.081c0,2.777.787,4.351,3.055,4.351a9.093,9.093,0,0,0,2.36-.277l.186,3.054a9.967,9.967,0,0,1-3.61.556,5.642,5.642,0,0,1-4.4-1.713c-1.158-1.2-1.574-3.194-1.574-5.832v-12.22H791.9v-3.1h3.472v-5.369Z" fill="#006bb7"/></g></svg>