<svg xmlns="http://www.w3.org/2000/svg" width="886.916" height="571.314" viewBox="0 0 886.916 571.314"><defs><style>.a{fill:#8cb3de;}.b,.c,.d{fill:#002361;}.b{font-size:23.805px;font-family:Poppins-Italic, Poppins;}.b,.f{font-style:italic;}.b,.d{letter-spacing:0.016em;}.d{font-size:21.141px;font-family:Poppins-SemiBold, Poppins;font-weight:600;}.e{font-family:Poppins-Medium, Poppins;}.e,.f{font-weight:500;}.f{font-family:Poppins-MediumItalic, Poppins;}</style></defs><g transform="translate(-827.66 -4009.99)"><rect class="a" width="886.916" height="571.314" transform="translate(827.66 4009.99)"/><text class="b" transform="translate(1068.964 4175.238)"><tspan x="0" y="25">Lorem ipsum dolor sit amet, consectetur </tspan><tspan x="0" y="58.183">adipiscing elit, sed do eiusmod tempor </tspan><tspan x="0" y="91.365">incididunt ut labore et dolore magna </tspan><tspan x="0" y="124.548">aliqua. Ut enim ad minim veniam, quis </tspan><tspan x="0" y="157.731">nostrud exercitation ullamco laboris nisi </tspan><tspan x="0" y="190.913">ut aliquip ex ea commodo consequat.</tspan></text><path class="c" d="M1610.062,4397.259v-7.075a12.1,12.1,0,0,0,4.339-3.962,18.819,18.819,0,0,0,2.265-5,21.275,21.275,0,0,0,.754-5.849h-7.358V4359.9h15.471v9.622q0,8.679-1.651,13.207a25.8,25.8,0,0,1-5.047,8.348A24.9,24.9,0,0,1,1610.062,4397.259Zm-22.734,0v-7.075a11.7,11.7,0,0,0,4.292-3.962,19.706,19.706,0,0,0,2.217-5,21.238,21.238,0,0,0,.754-5.849h-7.263V4359.9h15.47v9.622q0,8.679-1.651,13.207a25.779,25.779,0,0,1-5.046,8.348A24.905,24.905,0,0,1,1587.328,4397.259Z"/><path class="c" d="M1031.113,4126.052v7.075a12.1,12.1,0,0,0-4.34,3.962,18.862,18.862,0,0,0-2.264,5,21.222,21.222,0,0,0-.755,5.849h7.359v15.47h-15.471v-9.622q0-8.678,1.65-13.207a25.814,25.814,0,0,1,5.048-8.348A24.907,24.907,0,0,1,1031.113,4126.052Zm22.734,0v7.075a11.682,11.682,0,0,0-4.292,3.962,19.719,19.719,0,0,0-2.217,5,21.222,21.222,0,0,0-.755,5.849h7.264v15.47h-15.471v-9.622q0-8.678,1.651-13.207a25.812,25.812,0,0,1,5.047-8.348A24.917,24.917,0,0,1,1053.847,4126.052Z"/><text class="d" transform="translate(1064.721 4434.537)"><tspan x="0" y="0">Client Name |</tspan><tspan class="e" y="0"> </tspan><tspan class="f" y="0">Company Name</tspan></text></g></svg>