<svg xmlns="http://www.w3.org/2000/svg" width="288.068" height="163.693" viewBox="0 0 288.068 163.693">
  <g id="white_logo" data-name="white  logo" transform="translate(0 0)">
    <path id="Path_17" data-name="Path 17" d="M1060.355,5631.794l43.679,43.681v-43.681Z" transform="translate(-815.966 -5631.794)" fill="#fff"/>
    <path id="Path_18" data-name="Path 18" d="M1027.491,5631.794V5658.5l2.775-1.539a39.426,39.426,0,0,1,8.681-3.518,36.208,36.208,0,0,1,9.541-1.265,36.728,36.728,0,0,1,14.554,2.906,37.3,37.3,0,0,1,19.873,19.873,37.9,37.9,0,0,1,0,29.109,37.281,37.281,0,0,1-19.873,19.873,37.888,37.888,0,0,1-29.1,0,39.769,39.769,0,0,1-3.7-1.838l-2.782-1.531-16.3,5.761v-94.537h16.337m21,78.714a21.117,21.117,0,0,0,14.886-6.114,21.009,21.009,0,0,0-14.886-35.879,20.364,20.364,0,0,0-8.112,1.644,22.768,22.768,0,0,0-6.574,4.273,19.536,19.536,0,0,0-4.5,6.406,21.476,21.476,0,0,0-1.809,7.89v.783a20.939,20.939,0,0,0,21,21m-84.667-41.993a21,21,0,1,0,0,41.993,20.354,20.354,0,0,0,8.112-1.645,22.755,22.755,0,0,0,6.573-4.273,19.533,19.533,0,0,0,4.5-6.4,21.5,21.5,0,0,0,1.808-7.89v-.784a20.926,20.926,0,0,0-21-21m37.329,60.2a36.75,36.75,0,0,1-2.905,14.555,37.278,37.278,0,0,1-19.874,19.873,37.891,37.891,0,0,1-29.1,0,37.278,37.278,0,0,1-19.874-19.873,36.378,36.378,0,0,1-2.863-12.688H942.9a20.672,20.672,0,0,0,1.557,6.307,21,21,0,0,0,40.357-8.174v-8.192l-2.774,1.542a39.373,39.373,0,0,1-8.681,3.515,36.05,36.05,0,0,1-9.541,1.269,36.736,36.736,0,0,1-14.554-2.91,37.3,37.3,0,0,1-19.874-19.873,37.9,37.9,0,0,1,0-29.1,37.269,37.269,0,0,1,19.874-19.873,37.891,37.891,0,0,1,29.1,0,38.818,38.818,0,0,1,3.7,1.837l2.782,1.531,16.3-5.764Zm-112.659-76.533a28.38,28.38,0,0,0-10.89,2.129,28.836,28.836,0,0,0-8.984,5.815l-1.268,1.222-1.295-1.2a31.063,31.063,0,0,0-9.1-5.844,27.76,27.76,0,0,0-10.8-2.126,30.041,30.041,0,0,0-11.6,2.271,31.945,31.945,0,0,0-5.148,2.695l-12.589-4.452v74.153h16.337v-47.356l.021-.139a12.572,12.572,0,0,1,4.4-7.882,12.892,12.892,0,0,1,8.578-3.11,12.442,12.442,0,0,1,9.082,3.759,13.033,13.033,0,0,1,3.916,9.02l0,45.708h16.337v-46.339l.005-.066a13.067,13.067,0,0,1,21.51-8.957,13.467,13.467,0,0,1,4.448,7.795l.035.174v47.393h16.337V5681.2a27.657,27.657,0,0,0-2.348-11.313,29.819,29.819,0,0,0-6.346-9.228,30.351,30.351,0,0,0-9.307-6.2,28.475,28.475,0,0,0-11.335-2.279" transform="translate(-815.966 -5631.794)" fill="#fff"/>
    <g id="Group_27" data-name="Group 27" transform="translate(0 139.716)">
      <path id="Path_19" data-name="Path 19" d="M832.905,5790.124v-7.378c0-2.694-1.019-3.422-2.524-3.422-1.8,0-2.718.97-2.718,4.175v6.625h-3.227v-7.378c0-2.645-.923-3.422-2.622-3.422-1.868,0-2.62,1-2.62,4.175v6.625h-3.228V5776.68h2.961v1.261a4.011,4.011,0,0,1,3.494-1.577,4.2,4.2,0,0,1,3.956,2.087,4.932,4.932,0,0,1,4.319-2.087c3.543,0,5.436,1.965,5.436,5.994v7.766Z" transform="translate(-815.966 -5771.51)" fill="#fff"/>
      <path id="Path_20" data-name="Path 20" d="M848.823,5790.124v-1.747a5.413,5.413,0,0,1-4.465,2.062,6.65,6.65,0,0,1-6.77-6.989,6.733,6.733,0,0,1,6.843-7.086,5,5,0,0,1,4.392,2.111v-1.795h2.961v13.444Zm-4.052-10.8a3.912,3.912,0,0,0-3.932,4.2,3.944,3.944,0,1,0,7.888-.024A3.91,3.91,0,0,0,844.771,5779.324Z" transform="translate(-815.966 -5771.51)" fill="#fff"/>
      <path id="Path_21" data-name="Path 21" d="M856.807,5782.65v7.474h-3.228V5776.68h2.961v1.31a3.013,3.013,0,0,1,2.912-1.626h.242v3.106C857.753,5779.518,856.807,5780.562,856.807,5782.65Z" transform="translate(-815.966 -5771.51)" fill="#fff"/>
      <path id="Path_22" data-name="Path 22" d="M868.915,5790.124l-4.586-6.286v6.286H861.1V5772.19h3.227v10.822l4.3-6.332h3.859l-4.8,6.577,5.582,6.867Z" transform="translate(-815.966 -5771.51)" fill="#fff"/>
      <path id="Path_23" data-name="Path 23" d="M886.679,5784.833H876.268a3.541,3.541,0,0,0,3.712,2.645,3.421,3.421,0,0,0,2.962-1.334h3.518a6.612,6.612,0,0,1-6.407,4.295,7.04,7.04,0,1,1-.194-14.075,6.878,6.878,0,0,1,6.941,7.232A5.277,5.277,0,0,1,886.679,5784.833Zm-6.771-5.509a3.582,3.582,0,0,0-3.737,2.669h7.45A3.435,3.435,0,0,0,879.908,5779.324Z" transform="translate(-815.966 -5771.51)" fill="#fff"/>
      <path id="Path_24" data-name="Path 24" d="M892.356,5779.616v10.508h-3.227v-10.508h-1.577v-2.936h1.577v-4.49h3.227v4.49H894.3v2.936Z" transform="translate(-815.966 -5771.51)" fill="#fff"/>
      <path id="Path_25" data-name="Path 25" d="M895.681,5790.124V5776.68h3.228v13.444Zm.024-15.386v-3.228h3.228v3.228Z" transform="translate(-815.966 -5771.51)" fill="#fff"/>
      <path id="Path_26" data-name="Path 26" d="M909.61,5790.124v-6.577c0-3.592-.971-4.223-2.572-4.223a2.713,2.713,0,0,0-2.378,1.238c-.413.655-.534,1.431-.534,3.227v6.335H900.9V5776.68h2.985v1.285a4.984,4.984,0,0,1,3.786-1.6,4.842,4.842,0,0,1,4.2,1.941c.728,1.043.971,2.208.971,4.611v7.208Z" transform="translate(-815.966 -5771.51)" fill="#fff"/>
      <path id="Path_27" data-name="Path 27" d="M921.4,5795.487c-3.3,0-5.825-1.577-6.917-4.271h3.665a4.016,4.016,0,0,0,3.374,1.431c2.4,0,3.639-1.408,3.76-4.295a5.246,5.246,0,0,1-4.416,2.087c-3.834,0-6.6-2.984-6.6-7.135a6.605,6.605,0,0,1,6.624-6.94,5.07,5.07,0,0,1,4.392,2.014v-1.7h3.083v10.9C928.368,5793.352,925.577,5795.487,921.4,5795.487Zm-.145-16.163c-2.257,0-3.738,1.65-3.738,4.126,0,2.452,1.481,4.028,3.786,4.028a3.71,3.71,0,0,0,3.834-4.028A3.813,3.813,0,0,0,921.258,5779.324Z" transform="translate(-815.966 -5771.51)" fill="#fff"/>
      <path id="Path_28" data-name="Path 28" d="M943.728,5795.487c-3.3,0-5.825-1.577-6.916-4.271h3.664a4.017,4.017,0,0,0,3.374,1.431c2.4,0,3.639-1.408,3.761-4.295a5.247,5.247,0,0,1-4.416,2.087c-3.835,0-6.6-2.984-6.6-7.135a6.605,6.605,0,0,1,6.624-6.94,5.073,5.073,0,0,1,4.393,2.014v-1.7h3.082v10.9C950.693,5793.352,947.9,5795.487,943.728,5795.487Zm-.145-16.163c-2.257,0-3.738,1.65-3.738,4.126,0,2.452,1.481,4.028,3.786,4.028a3.711,3.711,0,0,0,3.835-4.028A3.814,3.814,0,0,0,943.583,5779.324Z" transform="translate(-815.966 -5771.51)" fill="#fff"/>
      <path id="Path_29" data-name="Path 29" d="M956.54,5782.65v7.474h-3.227V5776.68h2.96v1.31a3.014,3.014,0,0,1,2.912-1.626h.243v3.106C957.486,5779.518,956.54,5780.562,956.54,5782.65Z" transform="translate(-815.966 -5771.51)" fill="#fff"/>
      <path id="Path_30" data-name="Path 30" d="M973.673,5784.833H963.262a3.541,3.541,0,0,0,3.712,2.645,3.421,3.421,0,0,0,2.962-1.334h3.518a6.612,6.612,0,0,1-6.407,4.295,7.04,7.04,0,1,1-.194-14.075,6.878,6.878,0,0,1,6.941,7.232A5.277,5.277,0,0,1,973.673,5784.833Zm-6.771-5.509a3.583,3.583,0,0,0-3.738,2.669h7.451A3.436,3.436,0,0,0,966.9,5779.324Z" transform="translate(-815.966 -5771.51)" fill="#fff"/>
      <path id="Path_31" data-name="Path 31" d="M985.927,5790.124v-1.747a5.413,5.413,0,0,1-4.465,2.062,6.65,6.65,0,0,1-6.77-6.989,6.733,6.733,0,0,1,6.843-7.086,5,5,0,0,1,4.392,2.111v-1.795h2.961v13.444Zm-4.052-10.8a3.911,3.911,0,0,0-3.931,4.2,3.944,3.944,0,1,0,7.887-.024A3.91,3.91,0,0,0,981.875,5779.324Z" transform="translate(-815.966 -5771.51)" fill="#fff"/>
      <path id="Path_32" data-name="Path 32" d="M994.4,5779.616v10.508h-3.228v-10.508h-1.577v-2.936h1.577v-4.49H994.4v4.49h1.941v2.936Z" transform="translate(-815.966 -5771.51)" fill="#fff"/>
      <path id="Path_33" data-name="Path 33" d="M1011.527,5790.439a5.689,5.689,0,0,1-4.658-2.038v1.723h-2.961V5772.19h3.228v5.727a5.33,5.33,0,0,1,4.173-1.722,6.8,6.8,0,0,1,6.772,7.109C1018.081,5787.356,1015.313,5790.439,1011.527,5790.439Zm-.678-11.284a4.168,4.168,0,0,0,.072,8.323,3.853,3.853,0,0,0,3.908-4.15A3.957,3.957,0,0,0,1010.849,5779.155Z" transform="translate(-815.966 -5771.51)" fill="#fff"/>
      <path id="Path_34" data-name="Path 34" d="M1022.543,5782.65v7.474h-3.226V5776.68h2.96v1.31a3.013,3.013,0,0,1,2.911-1.626h.244v3.106C1023.491,5779.518,1022.543,5780.562,1022.543,5782.65Z" transform="translate(-815.966 -5771.51)" fill="#fff"/>
      <path id="Path_35" data-name="Path 35" d="M1037.008,5790.124v-1.747a5.413,5.413,0,0,1-4.464,2.062,6.651,6.651,0,0,1-6.772-6.989,6.733,6.733,0,0,1,6.843-7.086,5,5,0,0,1,4.393,2.111v-1.795h2.96v13.444Zm-4.052-10.8a3.912,3.912,0,0,0-3.932,4.2,3.944,3.944,0,1,0,7.887-.024A3.909,3.909,0,0,0,1032.956,5779.324Z" transform="translate(-815.966 -5771.51)" fill="#fff"/>
      <path id="Path_36" data-name="Path 36" d="M1050.476,5790.124v-6.577c0-3.592-.97-4.223-2.573-4.223a2.712,2.712,0,0,0-2.378,1.238c-.412.655-.535,1.431-.535,3.227v6.335h-3.226V5776.68h2.984v1.285a4.985,4.985,0,0,1,3.786-1.6,4.841,4.841,0,0,1,4.2,1.941c.73,1.043.972,2.208.972,4.611v7.208Z" transform="translate(-815.966 -5771.51)" fill="#fff"/>
      <path id="Path_37" data-name="Path 37" d="M1066.32,5790.124v-1.747a5.457,5.457,0,0,1-4.44,2.062,6.808,6.808,0,0,1-6.747-7.062,6.894,6.894,0,0,1,6.723-7.182,5.677,5.677,0,0,1,4.2,1.673v-5.678h3.229v17.934Zm-4-10.969a3.964,3.964,0,0,0-3.932,4.076,4.082,4.082,0,0,0,4.005,4.247,4.168,4.168,0,0,0-.073-8.323Z" transform="translate(-815.966 -5771.51)" fill="#fff"/>
      <path id="Path_38" data-name="Path 38" d="M1075.566,5790.439c-2.669,0-4.586-1.457-4.925-4.587h3.252c.315,1.141.849,1.626,1.8,1.626a1.358,1.358,0,0,0,1.457-1.31c0-.777-.122-1-2.283-1.723-2.668-.9-3.736-2.014-3.736-3.979a4.459,4.459,0,0,1,8.883-.073h-3.156a1.2,1.2,0,0,0-1.261-1.069,1.164,1.164,0,0,0-1.238,1.142c0,.7.073.751,2.28,1.454,2.815.875,3.737,1.942,3.737,3.932A4.65,4.65,0,0,1,1075.566,5790.439Z" transform="translate(-815.966 -5771.51)" fill="#fff"/>
    </g>
    <path id="Path_39" data-name="Path 39" d="M920.259,5746.157H816.818v-10.865h100.55A45.369,45.369,0,0,0,920.259,5746.157Zm165.562-10.865h-75.556a45.357,45.357,0,0,1-2.888,10.865h74.605Z" transform="translate(-815.966 -5631.794)" fill="#fff"/>
  </g>
</svg>
