<svg id="Layer_2" data-name="Layer 2" xmlns="http://www.w3.org/2000/svg" viewBox="0 0 154.9 88.02"><defs><style>.cls-1{fill:#ea0029;}.cls-2{fill:#002d74;}</style></defs><polygon class="cls-1" points="131.41 0 154.9 23.49 154.9 0 131.41 0"/><path class="cls-2" d="M221.69,111.45v14.36l1.49-.83a21.75,21.75,0,0,1,4.67-1.89,19.52,19.52,0,0,1,5.13-.68,19.9,19.9,0,0,1,7.83,1.56,20.66,20.66,0,0,1,6.39,4.3,20.29,20.29,0,0,1,4.29,6.39,20.29,20.29,0,0,1,0,15.65A20,20,0,0,1,240.81,161a20.41,20.41,0,0,1-15.65,0,20.39,20.39,0,0,1-2-1l-1.5-.82-8.76,3.09V111.45h8.78M233,153.78a11.15,11.15,0,0,0,10.41-6.9,11.42,11.42,0,0,0,0-8.79,11,11,0,0,0-6-6,11.19,11.19,0,0,0-4.4-.88,10.89,10.89,0,0,0-4.36.88,12.16,12.16,0,0,0-3.53,2.3,10.53,10.53,0,0,0-2.43,3.44,11.58,11.58,0,0,0-1,4.24v.43A11.26,11.26,0,0,0,233,153.78M187.46,131.2a11.29,11.29,0,0,0-4.4.87,11.1,11.1,0,0,0-6,6,11.32,11.32,0,0,0-.87,4.4,11.1,11.1,0,0,0,.88,4.39,11.23,11.23,0,0,0,2.4,3.61,11.54,11.54,0,0,0,3.61,2.41,11.3,11.3,0,0,0,4.4.88,10.9,10.9,0,0,0,4.36-.89,12.3,12.3,0,0,0,3.53-2.3,10.36,10.36,0,0,0,2.42-3.44,11.59,11.59,0,0,0,1-4.24v-.42a11.35,11.35,0,0,0-3.29-8,11.54,11.54,0,0,0-3.61-2.41,11.27,11.27,0,0,0-4.39-.87m20.07,32.36a19.86,19.86,0,0,1-1.56,7.83,20.49,20.49,0,0,1-4.3,6.39,20.26,20.26,0,0,1-6.39,4.3,20.41,20.41,0,0,1-15.65,0,20.07,20.07,0,0,1-10.69-10.69,19.78,19.78,0,0,1-1.54-6.82h8.81a11,11,0,0,0,.84,3.39,11.34,11.34,0,0,0,2.4,3.61,11.54,11.54,0,0,0,3.61,2.41,11.29,11.29,0,0,0,4.4.87,11.1,11.1,0,0,0,4.39-.88,11.34,11.34,0,0,0,3.61-2.4,11.54,11.54,0,0,0,2.41-3.61,11.3,11.3,0,0,0,.88-4.4v-4.4l-1.5.83a21.47,21.47,0,0,1-4.66,1.89,19.52,19.52,0,0,1-5.13.68,19.86,19.86,0,0,1-7.83-1.56,20.26,20.26,0,0,1-6.39-4.3,20.49,20.49,0,0,1-4.3-6.39,20.41,20.41,0,0,1,0-15.65A20.07,20.07,0,0,1,179.63,124a20.41,20.41,0,0,1,15.65,0c.63.28,1.29.6,2,1l1.5.83,8.76-3.1ZM147,122.41a15.27,15.27,0,0,0-5.86,1.15,15.5,15.5,0,0,0-4.83,3.12l-.68.66-.69-.64a16.92,16.92,0,0,0-4.9-3.15,15,15,0,0,0-5.8-1.14,16.18,16.18,0,0,0-6.24,1.22,17.71,17.71,0,0,0-2.77,1.45l-6.77-2.39v39.87h8.79V137a6.77,6.77,0,0,1,2.36-4.24,7,7,0,0,1,4.62-1.67,6.69,6.69,0,0,1,4.88,2,7,7,0,0,1,2.1,4.85v24.58H140V137.61a7,7,0,0,1,11.57-4.82,7.23,7.23,0,0,1,2.39,4.19l0,.1v25.48h8.78V138a14.89,14.89,0,0,0-1.26-6.09,16.12,16.12,0,0,0-3.41-5,16.31,16.31,0,0,0-5-3.33,15.13,15.13,0,0,0-6.09-1.23" transform="translate(-107.95 -111.45)"/><path class="cls-2" d="M117.06,196.59v-4c0-1.45-.55-1.84-1.36-1.84-1,0-1.46.52-1.46,2.24v3.57h-1.73v-4c0-1.42-.5-1.84-1.41-1.84s-1.41.54-1.41,2.24v3.57H108v-7.23h1.59V190a2.16,2.16,0,0,1,1.88-.85,2.26,2.26,0,0,1,2.13,1.12,2.67,2.67,0,0,1,2.32-1.12c1.91,0,2.93,1.05,2.93,3.22v4.18Z" transform="translate(-107.95 -111.45)"/><path class="cls-2" d="M125.62,196.59v-.94a2.91,2.91,0,0,1-2.4,1.11,3.58,3.58,0,0,1-3.64-3.76,3.62,3.62,0,0,1,3.68-3.81,2.7,2.7,0,0,1,2.36,1.13v-1h1.59v7.23Zm-2.18-5.81a2.1,2.1,0,0,0-2.11,2.26,2.12,2.12,0,1,0,4.24,0A2.11,2.11,0,0,0,123.44,190.78Z" transform="translate(-107.95 -111.45)"/><path class="cls-2" d="M129.91,192.57v4h-1.73v-7.23h1.59v.7a1.63,1.63,0,0,1,1.57-.87h.13v1.67C130.42,190.88,129.91,191.45,129.91,192.57Z" transform="translate(-107.95 -111.45)"/><path class="cls-2" d="M136.42,196.59,134,193.21v3.38h-1.74v-9.65H134v5.82l2.31-3.4h2.07l-2.58,3.53,3,3.7Z" transform="translate(-107.95 -111.45)"/><path class="cls-2" d="M146,193.74h-5.6a1.89,1.89,0,0,0,2,1.42,1.86,1.86,0,0,0,1.6-.71h1.89a3.57,3.57,0,0,1-3.45,2.31,3.79,3.79,0,1,1-.1-7.57,3.7,3.7,0,0,1,3.73,3.89A2.9,2.9,0,0,1,146,193.74Zm-3.65-3a1.92,1.92,0,0,0-2,1.43h4A1.84,1.84,0,0,0,142.33,190.78Z" transform="translate(-107.95 -111.45)"/><path class="cls-2" d="M149,190.94v5.65h-1.74v-5.65h-.84v-1.58h.84v-2.42H149v2.42h1v1.58Z" transform="translate(-107.95 -111.45)"/><path class="cls-2" d="M150.82,196.59v-7.23h1.73v7.23Zm0-8.28v-1.73h1.74v1.73Z" transform="translate(-107.95 -111.45)"/><path class="cls-2" d="M158.31,196.59v-3.54c0-1.93-.53-2.27-1.39-2.27a1.48,1.48,0,0,0-1.28.67,3.11,3.11,0,0,0-.28,1.73v3.41h-1.74v-7.23h1.61v.69a2.68,2.68,0,0,1,2-.86,2.6,2.6,0,0,1,2.26,1,4,4,0,0,1,.52,2.48v3.88Z" transform="translate(-107.95 -111.45)"/><path class="cls-2" d="M164.65,199.47a3.77,3.77,0,0,1-3.72-2.3h2a2.13,2.13,0,0,0,1.81.77c1.29,0,2-.75,2-2.31a2.8,2.8,0,0,1-2.37,1.13,3.79,3.79,0,0,1,0-7.57,2.71,2.71,0,0,1,2.36,1.08v-.91h1.66v5.86C168.39,198.32,166.89,199.47,164.65,199.47Zm-.08-8.69a2,2,0,0,0-2,2.22,2,2,0,0,0,2,2.16,2,2,0,0,0,2.06-2.16A2.05,2.05,0,0,0,164.57,190.78Z" transform="translate(-107.95 -111.45)"/><path class="cls-2" d="M176.65,199.47a3.78,3.78,0,0,1-3.72-2.3h2a2.15,2.15,0,0,0,1.82.77c1.29,0,1.95-.75,2-2.31a2.83,2.83,0,0,1-2.38,1.13,3.79,3.79,0,0,1,0-7.57,2.73,2.73,0,0,1,2.36,1.08v-.91h1.66v5.86C180.4,198.32,178.9,199.47,176.65,199.47Zm-.08-8.69a2,2,0,0,0-2,2.22,2,2,0,0,0,2,2.16,2,2,0,0,0,2.06-2.16A2.05,2.05,0,0,0,176.57,190.78Z" transform="translate(-107.95 -111.45)"/><path class="cls-2" d="M183.54,192.57v4h-1.73v-7.23h1.59v.7a1.62,1.62,0,0,1,1.56-.87h.13v1.67C184.05,190.88,183.54,191.45,183.54,192.57Z" transform="translate(-107.95 -111.45)"/><path class="cls-2" d="M192.75,193.74h-5.59a1.88,1.88,0,0,0,2,1.42,1.83,1.83,0,0,0,1.59-.71h1.9a3.58,3.58,0,0,1-3.45,2.31,3.79,3.79,0,1,1-.1-7.57,3.7,3.7,0,0,1,3.73,3.89A2.43,2.43,0,0,1,192.75,193.74Zm-3.64-3a1.93,1.93,0,0,0-2,1.43h4A1.85,1.85,0,0,0,189.11,190.78Z" transform="translate(-107.95 -111.45)"/><path class="cls-2" d="M199.34,196.59v-.94a2.91,2.91,0,0,1-2.4,1.11A3.58,3.58,0,0,1,193.3,193a3.62,3.62,0,0,1,3.68-3.81,2.7,2.7,0,0,1,2.36,1.13v-1h1.59v7.23Zm-2.18-5.81a2.1,2.1,0,0,0-2.11,2.26,2.12,2.12,0,1,0,4.24,0A2.11,2.11,0,0,0,197.16,190.78Z" transform="translate(-107.95 -111.45)"/><path class="cls-2" d="M203.9,190.94v5.65h-1.74v-5.65h-.85v-1.58h.85v-2.42h1.74v2.42h1v1.58Z" transform="translate(-107.95 -111.45)"/><path class="cls-2" d="M213.11,196.76a3.07,3.07,0,0,1-2.51-1.1v.93H209v-9.65h1.74V190a2.86,2.86,0,0,1,2.24-.92,3.65,3.65,0,0,1,3.64,3.82A3.6,3.6,0,0,1,213.11,196.76Zm-.37-6.07a2.24,2.24,0,0,0,0,4.47,2.07,2.07,0,0,0,2.1-2.23A2.12,2.12,0,0,0,212.74,190.69Z" transform="translate(-107.95 -111.45)"/><path class="cls-2" d="M219,192.57v4H217.3v-7.23h1.59v.7a1.62,1.62,0,0,1,1.56-.87h.14v1.67C219.54,190.88,219,191.45,219,192.57Z" transform="translate(-107.95 -111.45)"/><path class="cls-2" d="M226.81,196.59v-.94a2.91,2.91,0,0,1-2.4,1.11,3.57,3.57,0,0,1-3.64-3.76,3.62,3.62,0,0,1,3.68-3.81,2.7,2.7,0,0,1,2.36,1.13v-1h1.59v7.23Zm-2.18-5.81a2.1,2.1,0,0,0-2.11,2.26,2.12,2.12,0,1,0,4.24,0A2.11,2.11,0,0,0,224.63,190.78Z" transform="translate(-107.95 -111.45)"/><path class="cls-2" d="M234.05,196.59v-3.54c0-1.93-.52-2.27-1.38-2.27a1.46,1.46,0,0,0-1.28.67,3.08,3.08,0,0,0-.29,1.73v3.41h-1.73v-7.23H231v.69a2.69,2.69,0,0,1,2-.86,2.58,2.58,0,0,1,2.25,1,3.91,3.91,0,0,1,.53,2.48v3.88Z" transform="translate(-107.95 -111.45)"/><path class="cls-2" d="M242.57,196.59v-.94a2.94,2.94,0,0,1-2.39,1.11,3.66,3.66,0,0,1-3.62-3.8,3.7,3.7,0,0,1,3.61-3.86,3.07,3.07,0,0,1,2.26.9v-3.06h1.73v9.65Zm-2.15-5.9a2.13,2.13,0,0,0-2.12,2.19,2.19,2.19,0,0,0,2.16,2.28,2.24,2.24,0,0,0,0-4.47Z" transform="translate(-107.95 -111.45)"/><path class="cls-2" d="M247.54,196.76a2.49,2.49,0,0,1-2.65-2.47h1.75c.17.61.46.87,1,.87a.73.73,0,0,0,.78-.7c0-.42-.06-.54-1.23-.93-1.43-.48-2-1.08-2-2.14a2.28,2.28,0,0,1,2.41-2.2,2.26,2.26,0,0,1,2.37,2.16h-1.7a.64.64,0,0,0-.67-.57.63.63,0,0,0-.67.61c0,.38,0,.41,1.23.79,1.51.47,2,1,2,2.11A2.51,2.51,0,0,1,247.54,196.76Z" transform="translate(-107.95 -111.45)"/><path class="cls-1" d="M164,173H108.41V167.1h54.07A24.27,24.27,0,0,0,164,173Zm89-5.85H212.43a24.74,24.74,0,0,1-1.55,5.85H251Z" transform="translate(-107.95 -111.45)"/></svg>